<svg width="210" height="131" viewBox="0 0 210 131" fill="none" xmlns="http://www.w3.org/2000/svg">
<path d="M209.37 16.5829C209.471 16.4683 209.983 15.6704 209.602 15.5774C209.395 15.5281 209.24 16.2155 209.026 16.2956C208.926 16.3336 208.664 16.2901 208.606 16.1875C208.527 16.0506 208.712 15.9108 208.728 15.7749C208.741 15.6606 208.683 15.375 208.596 15.2973C208.481 15.1947 208.307 15.2883 208.245 15.102C207.837 14.9505 208.381 14.3623 207.871 14.3306C207.667 14.317 207.538 14.3001 207.409 14.1144C207.323 13.9891 207.327 13.8117 207.19 13.727C206.957 13.583 206.533 13.673 206.269 13.5945C205.874 13.4766 205.796 13.2656 205.729 12.8893C205.703 12.746 205.704 12.6142 205.585 12.5126C205.553 12.4864 205.426 12.4233 205.384 12.4028C205.304 12.3619 205.268 12.3108 205.166 12.3243C205.225 12.0224 205.301 11.7332 205.209 11.4342C205.137 11.2071 205.157 10.9763 205.081 10.751C204.908 10.2321 204.796 9.65118 204.562 9.15804C204.322 8.64824 204.219 8.15359 204.087 7.60482C203.951 7.0444 203.822 6.63703 203.425 6.22019C203.205 5.98873 202.915 5.85601 202.642 5.69927C202.442 5.58314 202.178 5.24872 201.926 5.36847C201.798 5.42903 201.689 5.59216 201.571 5.67774C201.427 5.78136 201.32 5.85884 201.226 6.01183C201.139 6.15449 201.102 6.26417 200.929 6.31012C200.778 6.3506 200.614 6.31927 200.46 6.36127C200.341 6.39477 200.22 6.49115 200.093 6.4868C199.815 6.47686 199.566 6.07859 199.453 5.86062C199.35 5.66056 199.299 5.26946 199.02 5.2505C198.686 5.22897 198.52 5.6441 198.453 5.89827C198.344 6.30827 198.197 6.71537 198.124 7.13346C198.05 7.55985 198.008 7.97676 197.89 8.39486C197.676 9.1554 197.404 9.90759 197.259 10.6816C197.217 10.9061 197.356 11.1492 197.402 11.3618C197.451 11.5852 197.365 11.7591 197.387 11.9672C197.407 12.1476 197.549 12.2592 197.552 12.4674C197.553 12.6466 197.45 12.8576 197.476 13.0304C197.5 13.191 197.677 13.2622 197.726 13.4053C197.786 13.5846 197.719 13.8782 197.708 14.0629C197.696 14.2656 197.648 14.4324 197.472 14.5568C197.301 14.6765 197.214 14.6719 197.209 14.9198C197.206 15.0424 197.297 15.3532 197.058 15.3046C197.08 15.5883 197.502 16.419 197.169 16.592C197.093 16.6307 197.004 16.5624 196.934 16.6307C196.868 16.6939 196.894 16.8289 196.893 16.9082C196.892 17.1158 196.866 17.3091 196.805 17.5091C196.749 17.6884 196.65 17.9327 196.423 17.8326C196.27 17.7659 196.234 17.4866 196.062 17.4713C196.004 17.4658 195.957 17.4876 195.913 17.5191C195.814 17.5894 195.732 17.7118 195.583 17.6983C195.478 17.6895 195.463 17.6183 195.359 17.6775C195.288 17.7183 195.285 17.8425 195.203 17.8867C195.026 17.9813 194.933 17.8165 194.848 18.0525C194.755 18.3165 194.848 18.621 194.738 18.8777C194.655 19.0725 194.471 19.2165 194.285 19.3095C194.277 19.3139 194.27 19.3183 194.262 19.3217C193.834 19.5293 193.343 19.5392 192.886 19.6457C192.02 19.8473 191.148 20.0285 190.278 20.2194C189.995 20.2815 189.711 20.3447 189.427 20.4078C188.764 20.5564 188.102 20.7061 187.441 20.8566C186.667 21.0322 185.893 21.2042 185.119 21.3728C184.802 21.4421 184.486 21.5149 184.17 21.5851C184.073 21.6764 183.951 21.7319 183.859 21.8332C183.753 21.9522 183.677 22.097 183.563 22.2141C183.162 22.6242 182.692 22.9853 182.323 23.4358C182.116 23.6884 181.913 23.944 181.702 24.193C181.527 24.4001 181.329 24.5658 181.264 24.8181C181.239 24.9163 181.254 25.1 181.277 25.1894C181.295 25.5892 181.07 25.8579 180.753 26.0766C180.494 26.256 180.328 26.4184 180.115 26.6477C179.97 26.8029 179.337 27.0768 179.404 27.3407C179.471 27.605 179.972 27.3283 180.09 27.2236C180.317 27.0235 180.36 26.7931 180.72 26.8598C180.722 26.9622 180.725 27.0695 180.704 27.1714C180.618 27.6068 180.207 27.7606 180.365 28.2525C180.515 28.7194 180.697 29.0209 180.215 29.3392C179.85 29.5791 179.496 29.7475 179.271 30.1428C179.053 30.5285 178.971 30.894 178.452 30.8491C178.247 30.8312 178.046 30.7769 177.841 30.8241C177.641 30.8691 177.474 30.9959 177.3 31.0944C176.921 31.3069 176.477 31.4852 176.039 31.3682C175.583 31.2466 175.31 31.0591 174.836 31.2493C174.643 31.3259 174.469 31.3986 174.257 31.3917C174.06 31.3853 173.869 31.3179 173.671 31.3249C173.275 31.3384 172.847 31.5716 172.473 31.6951C172.088 31.8213 171.803 32.0495 171.498 32.3069C171.699 32.4413 171.74 32.6184 171.874 32.8024C171.996 32.97 172.203 33.0185 172.314 33.2007C172.534 33.5611 172.485 34 172.415 34.392C172.335 34.8333 172.19 35.0927 171.862 35.4125C171.645 35.6242 171.47 35.8638 171.268 36.0883C171.083 36.2936 170.812 36.4404 170.663 36.6747C170.521 36.8953 170.505 37.1685 170.24 37.2882C170.156 37.3254 170.074 37.3495 169.993 37.3722C169.83 37.4163 169.672 37.4513 169.516 37.5658C169.319 37.712 169.1 37.864 168.953 38.0625C168.771 38.3083 168.698 38.5642 168.379 38.658C168.171 38.7183 167.963 38.7382 167.767 38.7992C167.652 38.8354 167.539 38.8858 167.433 38.9676C167.211 39.1396 167.053 39.3886 166.848 39.5806C166.633 39.7814 166.357 39.9038 166.15 40.1067C165.963 40.2878 165.891 40.5687 165.667 40.71C165.397 40.8805 165.094 40.8833 164.91 41.1842C164.719 41.4984 164.717 41.8608 164.429 42.1265C164.178 42.3573 163.905 42.4014 163.581 42.3664C163.308 42.3373 162.961 42.2643 162.699 42.3807C162.434 42.4978 162.363 42.8348 162.108 42.9609C161.865 43.0814 161.552 42.9003 161.294 42.9058C161.036 42.9112 160.79 42.9232 160.533 42.9203C160.388 42.9184 159.783 43.1634 159.697 43.0583C159.542 42.8689 160.256 42.5968 160.359 42.5592C160.056 42.5814 159.37 42.6852 159.255 42.3113C158.919 42.4231 158.781 42.2583 158.478 42.1718C158.274 42.1138 157.976 42.1763 157.853 41.9961C157.83 41.9633 157.813 41.9231 157.804 41.8724C157.707 41.3517 158.424 41.0239 158.481 40.5401C158.51 40.2831 158.364 40.0319 158.388 39.7712C158.406 39.5641 158.523 39.4002 158.64 39.2345C158.9 38.8624 159.259 38.5633 159.573 38.237C159.819 37.9821 159.905 37.6323 160.012 37.3063C160.064 37.1504 160.116 37.0153 160.137 36.855C160.158 36.6973 160.156 36.5666 160.27 36.4378C160.364 36.3316 160.496 36.2479 160.57 36.1242C160.706 35.8963 160.644 35.562 160.545 35.3322C160.431 35.0685 160.522 34.7747 160.37 34.5188C160.214 34.2566 160.03 34.1025 160.038 33.7764C160.046 33.4644 160.091 33.1923 159.934 32.9042C159.794 32.6503 159.541 32.4672 159.442 32.1897C159.34 31.9042 159.398 31.5869 159.241 31.3152C159.125 31.1156 158.883 30.9239 158.666 30.8464C158.335 30.7285 158.189 30.9879 157.943 31.1473C157.703 31.3032 157.416 31.2528 157.144 31.2518C157.037 31.4196 157.163 31.6077 157.006 31.7238C156.956 31.7621 156.873 31.7501 156.813 31.8089C156.758 31.8636 156.72 31.9492 156.695 32.0203C156.6 32.296 156.461 32.9627 156.185 33.1098C155.807 33.3106 155.446 32.7863 155.282 32.5213C155.027 32.1103 155.196 31.8608 155.502 31.5545C155.806 31.2484 155.908 30.9392 156.065 30.5511C156.193 30.2365 156.506 30.0527 156.623 29.7446C156.791 29.3058 156.522 28.7282 156.451 28.2911C156.387 27.9012 156.467 27.474 156.301 27.1074C156.246 26.9876 155.587 26.1902 155.628 26.1289C155.702 26.0208 156.186 26.4326 156.327 26.2406C156.503 26.0027 155.725 25.3434 155.587 25.2099C155.257 24.8911 154.912 24.5723 154.453 24.4669C154.075 24.38 153.701 24.4242 153.343 24.2522C152.983 24.0784 152.724 23.9448 152.322 24.0784C151.912 24.2151 151.825 24.0945 151.566 23.7604C151.285 23.3971 150.982 23.2493 150.63 23.6213C150.418 23.8469 150.117 24.2189 150.259 24.5432C150.351 24.7541 150.909 25.1441 150.813 25.3909C150.717 25.6333 149.987 25.5632 149.77 25.7071C149.433 25.9298 149.588 26.3396 149.634 26.667C149.687 27.0343 149.621 27.3831 149.611 27.7479C149.603 28.0345 149.659 28.3316 149.546 28.6113C149.48 28.4715 149.415 28.3317 149.344 28.1948C149.262 28.0326 149.176 27.7741 149.012 27.9705C148.899 28.1056 148.895 28.6781 148.728 28.7348C148.588 28.7815 148.683 28.232 148.701 28.1488C148.748 27.9209 148.869 27.7399 148.938 27.5245C149.003 27.3185 149.041 26.2644 148.722 26.321C148.538 26.3542 148.399 26.7047 148.354 26.8523C148.285 27.0768 148.32 27.3597 148.202 27.5661C148.096 27.7536 147.916 27.7365 147.752 27.8366C147.546 27.9615 147.53 28.1966 147.48 28.4123C147.368 28.9033 147.011 29.1627 147.041 29.695C147.071 30.2411 147.052 30.7239 146.932 31.2599C146.839 31.6764 146.413 32.0259 146.499 32.461C146.545 32.697 146.703 32.9009 146.735 33.1395C146.766 33.364 146.653 33.5512 146.572 33.7513C146.381 34.2179 146.424 34.5882 146.753 34.9683C146.779 35.3081 146.831 35.5046 147.107 35.708C147.428 35.945 147.451 36.1864 147.532 36.5543C147.582 36.7804 147.659 37.0586 147.771 37.2623C147.923 37.5354 148.074 37.6352 147.982 37.9758C147.815 38.584 147.942 39.23 147.788 39.8429C147.634 40.4499 147.393 41.003 147.313 41.6312C147.258 42.0654 147.048 42.5594 146.74 42.9078C146.671 42.9862 146.597 43.0567 146.518 43.1177C146.36 43.2393 146.201 43.3602 146.033 43.4693C145.402 43.8763 144.449 44.1882 143.886 43.5069C143.69 43.271 143.576 42.979 143.459 42.6962C143.433 42.6321 143.405 42.57 143.378 42.5078C143.23 42.1735 143.038 41.861 142.883 41.5302C142.656 41.0456 142.615 40.5644 142.609 40.0736C142.603 39.704 142.617 39.3293 142.584 38.9445C142.504 38.0364 141.895 37.2814 141.961 36.3387C141.99 35.9173 142.157 35.5453 142.289 35.1513C142.416 34.773 142.444 34.3911 142.461 33.9946C142.499 33.1179 142.797 32.3107 142.886 31.4439C142.931 30.9872 142.922 30.5122 143.054 30.069C143.174 29.6662 143.444 29.3625 143.663 29.013C143.931 28.5851 144.075 28.0987 144.092 27.5931C144.096 27.45 144.123 26.7654 143.849 26.8552C143.603 26.9356 143.406 27.6661 143.304 27.8735C143.114 28.2562 142.884 28.6033 142.626 28.9429C142.134 29.5917 141.731 30.3007 141.242 30.9519C141.231 30.8043 141.279 30.6925 141.299 30.5536C141.318 30.4198 141.28 30.307 141.284 30.1789C141.295 29.6735 141.596 29.3114 141.835 28.8951C142.13 28.3853 142.146 27.8101 142.372 27.2897C142.393 27.2409 142.415 27.1922 142.439 27.1434C142.647 26.7012 142.925 26.2291 142.951 25.7519C142.959 25.6065 142.95 25.4221 143.025 25.2985C143.122 25.1389 143.312 25.0659 143.394 24.8958C143.487 24.7056 143.404 24.1524 143.803 24.2473C143.834 24.6523 144.101 24.4811 144.395 24.4229C144.76 24.3508 144.715 23.9022 144.844 23.6236C144.911 23.4777 145.143 23.3693 145.243 23.5598C145.333 23.731 145.095 23.9661 145.039 24.1174C144.995 24.2382 144.895 24.6164 145.026 24.7121C145.183 24.8246 145.347 24.5643 145.426 24.4653C145.539 24.3244 145.685 24.2101 145.787 24.0607C145.9 23.892 145.971 23.7117 146.108 23.557C146.397 23.23 146.763 23.183 147.181 23.1433C147.388 23.1239 147.592 23.1173 147.751 22.9677C147.891 22.8354 147.999 22.7424 148.162 22.6317C148.307 22.5333 148.389 22.3428 148.551 22.275C148.739 22.1955 148.995 22.2919 149.193 22.2885C149.415 22.2839 149.528 22.3002 149.728 22.3878C149.928 22.4738 150.137 22.465 150.347 22.5143C150.516 22.5544 150.749 22.6102 150.89 22.7165C151.045 22.8326 151.084 23.0722 151.299 23.1101C151.91 23.2163 151.182 22.2909 151.686 22.2652C151.841 22.3677 151.947 22.2484 152.076 22.1703C152.285 22.045 152.422 22.0947 152.65 22.102C153.162 22.1164 153.003 21.6434 152.695 21.4587C152.532 21.3604 152.369 21.2837 152.278 21.1063C152.197 20.9504 152.212 20.766 152.145 20.6054C151.885 19.9649 150.603 20.2414 150.071 20.2757C150.071 20.2622 150.074 20.2495 150.081 20.2385C149.906 20.2045 149.719 20.1304 149.627 19.9665C149.514 19.7621 149.628 19.5532 149.622 19.3396C149.611 18.935 149.124 18.9548 148.818 19.0161C148.46 19.0873 148.241 19.3406 147.853 19.3567C147.509 19.371 147.138 19.2692 146.801 19.3203C146.418 19.3783 146.27 19.7649 145.971 19.9665C145.816 20.0135 145.709 20.1674 145.564 20.2406C145.379 20.3333 145.236 20.363 145.096 20.5326C144.962 20.6955 144.842 20.754 144.625 20.8036C144.437 20.8457 144.273 20.7917 144.157 20.9705C144.134 21.1143 144.066 21.3432 143.891 21.3144C143.708 21.2837 143.704 20.9595 143.599 20.8441C143.368 20.5911 142.808 20.8558 142.699 20.463C142.517 20.5043 142.365 20.3073 142.219 20.2107C142.091 20.1251 141.877 19.9695 141.721 19.943C141.51 19.9071 141.4 20.1478 141.239 19.8791C141.174 19.7711 141.24 19.6871 141.08 19.7072C140.962 19.7214 140.939 19.8586 140.859 19.8773C140.901 19.9901 140.51 20.0226 140.409 19.9828C140.409 19.962 140.408 19.943 140.409 19.9222C140.578 19.8666 140.568 19.7981 140.494 19.6775C140.463 19.6278 140.356 19.4286 140.318 19.395C140.066 19.1737 139.963 19.7451 139.733 19.5998C139.727 19.4314 139.807 18.9115 139.551 18.8681C139.343 18.8338 139.247 19.1919 139.103 19.269C139.036 19.3916 138.97 19.5296 138.876 19.6333C138.71 19.817 138.571 19.7681 138.505 19.5322C138.424 19.2457 138.509 18.8962 138.67 18.6527C138.826 18.4169 139.058 18.3007 139.284 18.1456C139.483 18.0079 139.595 17.8403 139.706 17.6268C139.844 17.3599 139.985 17.1124 140.207 16.905C140.391 16.734 140.702 16.6176 140.851 16.4194C141.153 16.0148 140.034 16.2094 139.877 16.2725C139.407 16.4617 139.041 16.8863 138.669 17.2185C138.184 17.6528 137.784 18.1828 137.28 18.5926C136.877 18.9204 136.48 19.1836 136.117 19.5622C135.697 19.9989 135.308 19.9511 134.748 20.0114C134.19 20.0711 133.918 20.4557 133.497 20.7648C133.206 20.9758 132.854 21.1314 132.527 21.2756C132.52 21.2782 132.512 21.2818 132.506 21.2837C132.18 21.4136 132.096 21.1072 131.829 20.9441C131.423 20.6955 131.461 21.2541 131.123 21.2227C130.998 21.456 130.941 21.5991 130.64 21.4793C130.558 21.4476 130.404 21.3944 130.401 21.2837C130.394 21.1037 130.551 21.2 130.657 21.1314C130.932 20.9548 130.699 20.7251 130.702 20.4847C130.704 20.2314 130.924 20.089 130.873 19.8107C130.367 19.8728 129.866 19.9419 129.426 20.215C129.024 20.4647 128.693 20.7594 128.228 20.8952C127.93 20.982 127.235 21.0558 126.951 20.9153C126.951 20.9153 126.951 20.9153 126.95 20.9153C126.778 20.8277 126.76 20.6611 127.081 20.3676C127.773 19.7367 128.429 19.0459 129.142 18.4412C129.483 18.1527 129.841 17.8891 130.156 17.569C130.489 17.2302 130.764 16.8402 131.088 16.4933C131.859 15.667 132.984 15.5338 133.835 14.8697C134.19 14.5933 133.741 14.3497 133.498 14.2454C133.276 14.149 133.084 13.9579 132.836 13.946C132.488 13.9281 132.411 14.0479 132.096 13.8218C131.756 13.5795 131.685 13.828 131.335 13.7784C131.194 13.7597 131.112 13.6064 130.987 13.5841C130.829 13.5542 130.857 13.6119 130.736 13.694C130.48 13.8668 130.458 13.7642 130.167 13.7163C129.895 13.6721 129.822 13.8434 129.59 13.8966C129.366 13.9488 129.163 13.802 128.979 14.0021C128.862 14.1299 128.832 14.2985 128.689 14.4228C128.453 14.6301 128.436 14.5217 128.186 14.4209C127.989 14.3416 127.762 14.3705 127.562 14.2913C127.377 14.2172 127.215 14.0733 127.043 13.9722C126.731 13.7885 126.242 13.3543 125.88 13.4759C125.671 13.5461 125.6 13.7115 125.407 13.492C125.266 13.3317 125.245 13.0784 125.09 12.9128C124.915 12.7271 124.77 12.763 124.541 12.6972C124.308 12.6304 124.259 12.4738 124.072 12.3514C123.866 12.2156 123.648 12.3135 123.426 12.2416C123.123 12.1433 122.914 11.9407 122.577 11.9765C122.279 12.0082 121.963 12.1423 121.706 12.2911C121.572 12.3675 121.479 12.5712 121.299 12.533C121.239 12.2613 121.059 12.1199 120.828 12.001C120.568 11.8666 120.361 11.5496 120.061 11.5101C119.756 11.4693 119.579 11.7136 119.314 11.4451C119.083 11.2116 118.726 11.381 118.485 11.3197C118.158 11.2376 118.235 10.9467 118.111 10.6755C117.948 10.317 117.607 10.4115 117.296 10.5404C117.005 10.661 116.976 10.9928 116.745 11.1232C116.415 11.3126 116.457 10.9042 116.43 10.707C116.387 10.3934 116.281 10.4369 115.997 10.4414C115.711 10.4451 115.424 10.4378 115.138 10.436C114.709 10.4315 114.278 10.4305 113.849 10.436C112.677 10.4503 111.511 10.4583 110.352 10.4591C102.841 10.4627 95.6215 10.1764 88.8046 9.69449C74.3572 8.67339 61.7192 6.77903 51.9491 4.93451C50.6464 4.68771 49.3942 4.44268 48.1958 4.20023C37.1579 1.9702 30.6593 0 30.6593 0C30.5243 0.130609 30.5909 0.211714 30.6925 0.340348C30.7827 0.455684 30.8368 0.499791 30.7476 0.620657C30.6648 0.731582 30.6133 0.816241 30.7152 0.941517C30.899 1.16574 31.2362 1.23697 31.497 1.30787C31.5279 1.38015 31.6538 1.47027 31.6601 1.54591C31.6685 1.63419 31.5152 1.74314 31.499 1.83794C31.4791 1.95854 31.5762 1.95334 31.6196 2.05782C31.6637 2.16229 31.6045 2.30179 31.6026 2.41449C31.3306 2.39112 31.1221 2.21989 30.8383 2.27025C30.588 2.31548 30.2962 2.47762 30.1736 2.70816C30.0823 2.8786 30.0536 3.26957 30.2303 3.40393C30.4611 3.57773 30.5872 3.28754 30.6339 3.11809C30.6565 3.03811 30.7 2.86214 30.8044 2.84535C30.9042 2.82784 30.9241 2.92607 30.9222 3.00822C30.9214 3.12461 30.8583 3.22988 30.7871 3.31737C30.7268 3.39228 30.5817 3.48576 30.5612 3.58431C30.5231 3.75527 30.9094 3.79675 31.0126 3.92202C31.1212 4.05612 31.2052 4.39311 30.9313 4.3733C30.7386 4.3598 30.6295 4.10464 30.5103 3.98147C30.3547 3.81834 30.2114 3.63 29.9708 3.62085C29.9754 3.70267 30.1348 3.84507 30.189 3.92196C30.269 4.03552 30.3664 4.13999 30.4513 4.2498C30.6347 4.49225 30.7447 4.72088 30.6564 5.02753C30.5629 5.03457 30.3745 4.83885 30.3159 4.75801C30.2023 4.60213 30.2041 4.4018 30.1204 4.23709C30.05 4.36955 30.0471 4.42465 29.9349 4.27758C29.8538 4.17133 29.7789 4.04868 29.623 4.06869C29.277 4.11366 29.5475 4.65407 29.2925 4.68501C29.1726 4.68501 29.1726 4.48936 29.187 4.41451C29.187 4.27942 29.2023 4.1893 29.0969 4.08371C28.8871 3.88832 28.6167 3.88832 28.3464 3.84342C28.1057 3.81347 27.8806 3.69372 27.6555 3.58852C27.4004 3.46877 27.1597 3.40815 26.9045 3.33336C26.6193 3.2435 26.4247 3.01816 26.2137 2.83792C25.9741 2.64227 25.749 2.43233 25.5235 2.23695C25.2145 1.96914 25.0135 1.5918 24.6991 1.32959C24.5081 1.17015 24.0542 1.04382 23.9534 1.39384C23.8927 1.60529 23.9605 1.84597 23.8803 2.07191C23.8072 2.28033 23.7444 2.464 23.7011 2.68203C23.6404 2.9919 23.5686 3.31341 23.5972 3.63171C23.6236 3.92558 23.7586 4.20852 23.8325 4.49449C23.9665 5.02094 23.8903 5.68031 23.9594 6.22467C24.0209 6.70477 24.0486 7.19482 24.0181 7.68224C23.9982 8.00125 23.9885 8.33725 23.9694 8.65522C23.9571 8.87635 24.0119 9.17693 23.9228 9.38403C23.8504 9.55263 23.7036 9.68054 23.6208 9.85018C23.5443 10.0084 23.5209 10.2292 23.3956 10.3527C23.4666 10.6573 23.4378 10.8269 23.656 11.061C23.8675 11.288 23.9766 11.2449 24.2604 11.3044C24.5442 11.3636 24.5866 11.5224 24.7571 11.7268C24.8343 11.8195 24.9526 11.8863 25.0607 11.9583C25.0615 11.9583 25.0615 11.9583 25.0623 11.9592C25.1543 12.0212 25.2371 12.088 25.2804 12.1782C25.0182 12.2034 24.7534 12.1782 24.4912 12.1763C24.2361 12.1737 24.075 12.0204 23.8524 11.9971C23.5599 11.9682 23.5712 12.2628 23.4822 12.4745C23.3938 12.6827 23.2092 12.8007 23.1101 13.0017C22.883 13.4648 22.8749 14.1432 22.8027 14.6513C22.7281 15.1739 22.4838 15.5181 22.3027 15.9957C22.1101 16.5072 22.0216 17.0677 21.7803 17.5598C21.5739 17.9813 21.3298 18.3587 21.207 18.8202C21.0828 19.2832 21.0675 19.8094 20.7899 20.2131C20.4711 20.6779 20.3612 21.0789 20.2189 21.6257C20.0998 22.088 19.834 22.4655 19.6242 22.8872C19.4439 23.2465 19.1583 23.5411 19.0026 23.9088C18.8539 24.2593 18.714 24.6405 18.4825 24.9475C18.2599 25.243 18.0709 25.5927 17.8834 25.9125C17.6957 26.2286 17.3446 26.4989 17.2246 26.8429C17.0899 27.2305 17.2177 27.7422 17.1898 28.1514C17.1563 28.6263 17.014 29.1091 17.075 29.5848C17.1248 29.9641 17.2582 30.3289 17.3104 30.7056C17.3168 30.7534 17.321 30.8002 17.3241 30.848C17.3466 31.2569 17.2392 31.6815 17.2634 32.0941C17.277 32.3346 17.3428 32.5922 17.3014 32.8319C17.268 33.023 17.1474 33.158 17.0808 33.3337C16.9374 33.7112 17.0112 34.1274 16.8266 34.498C16.724 34.7039 16.6059 34.8664 16.5725 35.1012C16.5438 35.3114 16.5966 35.46 16.4282 35.6141C16.3049 35.7259 16.0851 35.7043 16.0922 35.9041C16.0985 36.0681 16.3579 36.1403 16.2696 36.3383C16.1452 36.6204 15.5265 36.4936 15.3084 36.7664C15.1229 36.9987 14.9065 37.5485 14.8778 37.8438C14.8426 38.2064 15.1516 38.5909 15.2795 38.9187C15.4462 39.3485 15.4479 39.8297 15.6697 40.2325C15.9022 40.6559 16.0273 40.8973 15.9951 41.3927C15.9652 41.8458 15.9616 42.2766 15.8516 42.7192C15.7589 43.0875 15.4353 43.464 15.5203 43.8429C15.6057 44.2238 15.785 44.6011 15.7804 45.004C15.7776 45.267 15.5598 45.3897 15.4924 45.6167C15.4331 45.8158 15.5255 45.94 15.6121 46.114C15.8536 46.5986 16.0941 47.0925 16.2825 47.6C16.3716 47.8411 16.5491 48.0952 16.6862 48.3161C16.8673 48.6099 16.8977 48.7685 16.8997 49.1135C16.9013 49.4287 16.8809 49.6053 16.6852 49.8601C16.5356 50.0548 16.2285 50.2007 16.5673 50.3918C16.8202 50.5359 16.9752 50.5206 17.1572 50.783C17.2186 50.871 17.2807 51.0405 17.3924 51.0722C17.5285 51.1091 17.59 50.9405 17.7031 51.0667C17.7799 51.1522 17.688 51.3396 17.7728 51.4451C17.8538 51.5451 18.0169 51.5017 18.0862 51.5939C18.2223 51.7758 17.9456 52.0877 17.9221 52.2757C17.9041 52.4198 17.9485 52.5498 17.8386 52.6688C17.7491 52.766 17.6224 52.7182 17.5663 52.8624C17.4689 53.1136 17.8187 53.2841 17.826 53.52C17.8458 54.1608 17.4917 54.5778 17.9358 55.1589C18.0853 55.3554 18.1619 55.5931 18.3604 55.7571C18.5818 55.941 18.8167 56.0184 19.008 56.2424C19.2044 56.4741 19.2657 56.5993 19.2378 56.9112C19.2224 57.0816 19.2015 57.5383 18.9206 57.4314C18.8871 57.2814 18.8311 57.0156 18.6204 57.0806C18.6212 57.369 18.5716 57.7502 18.4882 58.0258C18.3961 58.3283 18.2347 58.5213 18.317 58.8536C18.4718 59.4896 18.8979 59.8934 19.1602 60.4645C19.2683 60.6978 19.4432 60.9241 19.4268 61.1925C19.406 61.5178 19.2081 61.7044 19.5407 61.9268C19.8397 62.1268 19.7956 62.1703 19.9053 62.5124C19.9891 62.7738 20.2262 62.7935 20.3099 63.0639C20.3533 63.2056 20.3422 63.3251 20.4649 63.4279C20.5561 63.5044 20.6874 63.501 20.7803 63.5838C21.0163 63.7964 21.3243 64.5703 21.1659 64.8803C21.1397 64.9307 21.0713 64.9362 21.0413 64.9827C21.0136 65.0297 21.0155 65.0955 20.9938 65.1469C20.9425 65.2721 20.8667 65.3848 20.8443 65.5216C20.957 65.4317 21.0542 65.1605 21.2252 65.1958C21.218 65.2407 21.2407 65.301 21.2324 65.3459C21.384 65.348 21.5226 65.3953 21.6099 65.5245C21.8288 65.8458 21.4722 66.1436 21.4522 66.4652C21.4426 66.63 21.4847 66.7876 21.4414 66.9498C21.4018 67.0966 21.3182 67.2189 21.294 67.3723C21.2697 67.5279 21.3082 67.7029 21.2217 67.8436C21.1397 67.979 20.949 68.0164 20.8751 68.1515C20.7181 68.4399 21.2236 68.6571 21.4026 68.8005C21.6858 69.0255 21.9435 69.1734 22.3037 69.2391C22.6181 69.2975 23.0219 69.2625 23.3058 69.4202C23.6103 69.5897 23.7148 69.8841 24.1012 69.9058C24.4644 69.9267 24.7481 70.0544 25.0967 70.1553C25.5364 70.2815 25.578 70.5476 25.8357 70.8853C25.9391 71.0215 26.0843 71.1176 26.1855 71.2554C26.3095 71.4251 26.3502 71.6358 26.458 71.8124C26.6152 72.0702 27.0284 72.2052 27.2907 72.3437C27.616 72.5161 27.9438 72.3251 28.2448 72.5837C28.5 72.8034 28.8195 73.044 28.7784 73.4015C28.7423 73.7143 28.7152 74.1682 29.161 74.1802C29.4839 74.1882 29.7206 73.8295 29.9524 74.2204C30.1324 74.5242 30.1704 74.8045 30.4445 75.055C30.7147 75.3018 31.0695 75.4407 31.2667 75.7594C31.5046 76.147 31.7624 76.619 31.893 77.0551C32.1509 77.9192 32.0946 78.7732 32.0217 79.6497C32.2084 79.566 32.2199 79.3851 32.4505 79.3732C32.6569 79.3633 32.8895 79.513 32.7039 79.7265C32.5554 79.897 32.2949 79.7814 32.213 80.0399C32.1785 80.1475 32.2184 80.3849 32.2452 80.4956C32.2975 80.7076 32.3173 80.65 32.4778 80.6437C32.5895 80.639 32.6461 80.6609 32.758 80.6842C33.0254 80.7393 33.3428 80.7372 33.6183 80.7642C34.4345 80.8453 35.2582 80.9266 36.076 80.984C36.9969 81.05 37.9176 81.155 38.8365 81.2418C39.5863 81.312 40.3369 81.3805 41.0864 81.4565C41.3721 81.485 41.6578 81.5104 41.9431 81.5374C41.9685 81.5401 41.9935 81.5419 42.019 81.5445L41.3657 82.7986V82.8132L55.1658 90.5767V90.5922L62.7404 91.5145L65.8874 91.8985V91.883L66.0225 89.5404C66.0225 89.5404 66.0225 89.5404 66.0225 89.5253L72.9395 90.2523C72.9395 90.2522 72.9395 90.2522 72.9395 90.2521L72.9545 90.3129H72.9574L73.0927 90.3271L73.1106 90.3286C73.1227 90.3579 73.1335 90.388 73.1442 90.4173C73.1578 90.4531 73.1707 90.4896 73.1865 90.5246C73.2272 90.5154 73.2638 90.5131 73.2816 90.544C73.3868 90.7228 73.5048 90.823 73.6759 90.9275C73.8891 91.0584 73.8161 91.2144 73.9105 91.4097C74.0679 91.7382 74.5188 91.8334 74.5459 92.2298C74.5602 92.4416 74.6225 92.5295 74.8078 92.6148C75.0203 92.7127 75.1799 92.8752 75.343 93.0404C75.5885 93.2887 75.753 93.5893 75.9398 93.8805C76.0314 94.0236 76.1688 94.103 76.3147 94.1825C76.505 94.284 76.6009 94.4314 76.6431 94.6411C76.6825 94.83 76.6982 94.9924 76.8549 95.1119C76.9909 95.2157 77.2205 95.3051 77.3136 95.4453C77.4144 95.5971 77.4581 95.7852 77.5697 95.9355C77.6319 96.0185 77.6985 96.0528 77.7693 96.0621H77.77C77.8266 96.0557 77.8852 96.0413 77.9482 96.0285C77.994 96.0192 78.0326 96.0185 78.0655 96.0242C78.3417 95.9798 78.3367 96.2681 78.4812 96.412C78.5964 96.5258 78.7911 96.5594 78.8662 96.7118C78.9528 96.8872 78.8769 97.167 78.874 97.3558C78.8712 97.5676 78.8383 97.8102 78.9063 98.012C79.0465 98.4256 79.3692 98.7633 79.5059 99.1869C79.6626 99.6706 79.7055 100.196 79.956 100.648C80.1671 101.026 80.4397 101.381 80.6736 101.747C80.9291 102.15 81.2933 102.459 81.6418 102.778C81.8356 102.955 82.0324 103.133 82.2606 103.263C82.4789 103.388 82.7194 103.456 82.9526 103.544C83.1995 103.638 83.4306 103.76 83.6287 103.936C83.8069 104.094 83.945 104.289 84.1218 104.448C84.393 104.691 84.8201 104.851 85.2194 104.86C85.3374 104.856 85.4511 104.837 85.5557 104.804C86.0386 104.645 86.0615 104.017 86.3291 103.655C86.4801 103.448 86.6812 103.285 86.8436 103.087C87.0017 102.894 87.0977 102.676 87.1778 102.442C87.3416 101.96 87.5598 101.622 87.9899 101.335C88.3713 101.079 88.7584 100.959 89.2113 100.906C89.2442 100.878 89.2979 100.842 89.3422 100.853C89.353 100.855 89.3622 100.858 89.3716 100.864C89.3945 100.853 89.4188 100.847 89.441 100.851C89.5526 100.876 89.5798 101.063 89.7 101.104C89.7115 101.107 89.7237 101.11 89.7351 101.112C89.8288 101.098 89.9233 101.054 90.0177 101.059C90.0292 101.059 90.0399 101.06 90.0506 101.062C90.0721 101.059 90.0942 101.057 90.1158 101.059C90.2174 101.064 90.3046 101.097 90.4013 101.107C90.4042 101.106 90.4077 101.106 90.4105 101.105C90.5099 101.091 90.6059 101.041 90.7018 101.059C90.7547 101.051 90.807 101.052 90.8592 101.08C90.9601 101.136 91.0109 101.245 91.1282 101.287C91.1576 101.298 91.1869 101.304 91.2155 101.307C91.2162 101.308 91.2169 101.307 91.2169 101.307C91.272 101.3 91.3271 101.285 91.3829 101.266C91.5031 101.227 91.644 101.154 91.775 101.173C91.8229 101.166 91.8709 101.167 91.9167 101.182C92.0254 101.217 92.0842 101.327 92.1944 101.364C92.3074 101.402 92.4347 101.364 92.5449 101.414C92.6437 101.459 92.7174 101.563 92.7739 101.652C92.9256 101.884 92.9134 102.216 93.244 102.251C93.543 102.284 93.737 102.342 93.9166 102.603C94.0547 102.802 94.1798 103.012 94.3817 103.154C94.4732 103.219 94.5792 103.258 94.6378 103.36C94.6972 103.461 94.6851 103.587 94.7323 103.693C94.7946 103.836 94.9176 103.954 95.0522 104.028C95.1767 104.097 95.3334 104.09 95.44 104.195C95.5702 104.32 95.533 104.494 95.548 104.65C95.5659 104.843 95.8113 104.801 95.8478 105.025C95.8664 105.143 95.8764 105.147 95.9458 105.247C95.9937 105.315 96.0181 105.398 96.0259 105.48C96.0446 105.677 96.0767 105.832 96.1469 106.021C96.242 106.28 96.491 106.455 96.6463 106.676C96.7636 106.843 96.8066 107.023 96.8444 107.22C96.8852 107.426 96.9883 107.605 97.0512 107.807C97.1206 108.031 97.2737 108.124 97.3946 108.313C97.4476 108.396 97.4383 108.484 97.4661 108.569C97.5076 108.7 97.6271 108.77 97.7151 108.868C97.8676 109.036 98.1022 109.107 98.2353 109.3C98.3498 109.47 98.2296 109.611 98.4206 109.756C98.4872 109.808 98.5608 109.824 98.6124 109.898C98.6625 109.969 98.676 110.067 98.7061 110.147C98.7712 110.312 98.9351 110.418 99.0209 110.578C99.1025 110.729 99.164 110.917 99.2148 111.082C99.2828 111.303 99.3644 111.351 99.5497 111.472C99.725 111.585 99.8724 111.65 100.005 111.816C100.128 111.969 100.206 112.134 100.302 112.303C100.391 112.46 100.518 112.599 100.569 112.776C100.618 112.953 100.611 113.15 100.624 113.333C100.632 113.472 100.606 113.615 100.626 113.753C100.639 113.841 100.687 113.917 100.684 114.006C100.675 114.253 100.469 114.331 100.698 114.539C100.82 114.65 100.747 114.776 100.83 114.9C100.91 115.018 101.048 115.083 101.129 115.196C101.215 115.315 101.198 115.453 101.22 115.589C101.247 115.75 101.369 115.78 101.497 115.866C101.777 116.056 101.844 116.373 101.821 116.696C101.813 116.822 101.759 116.937 101.744 117.059C101.728 117.189 101.779 117.305 101.846 117.413C101.87 117.422 101.895 117.43 101.92 117.439C101.929 117.431 101.939 117.423 101.944 117.413C102.05 117.455 102.173 117.479 102.269 117.542C102.369 117.606 102.451 117.703 102.546 117.775C102.651 117.853 102.768 117.895 102.876 117.963C102.961 118.017 103.026 118.098 103.11 118.153C103.343 118.308 103.67 118.391 103.849 118.607C103.899 118.669 103.936 118.716 103.993 118.732C104.002 118.731 104.01 118.728 104.02 118.726C104.108 118.7 104.223 118.642 104.308 118.602C104.428 118.546 104.474 118.484 104.613 118.462C104.72 118.445 104.817 118.431 104.918 118.439C104.95 118.441 104.982 118.445 105.015 118.452C105.122 118.475 105.22 118.497 105.297 118.578C105.369 118.655 105.398 118.721 105.501 118.769C105.597 118.814 105.645 118.819 105.695 118.905C105.717 118.924 105.737 118.949 105.757 118.99C105.759 118.995 105.761 119 105.763 119.004C105.79 119.059 105.806 119.114 105.836 119.164C105.854 119.191 105.875 119.219 105.905 119.242C105.908 119.244 105.911 119.247 105.914 119.248C106.039 119.338 106.319 119.378 106.467 119.395C106.561 119.407 106.666 119.372 106.76 119.396C106.847 119.418 106.907 119.489 106.988 119.523C107.31 119.66 107.675 119.365 107.944 119.672C108.117 119.873 108.3 119.875 108.555 119.936C108.653 119.959 108.729 119.991 108.805 120.061C108.871 120.124 108.95 120.227 109.048 120.25C109.138 120.271 109.2 120.203 109.284 120.193C109.307 120.19 109.334 120.195 109.36 120.202C109.848 120.448 110.391 120.605 110.877 120.675C111.274 120.731 111.387 120.562 111.389 120.356C111.39 120.242 111.358 120.119 111.322 120.016C111.287 119.94 111.25 119.858 111.209 119.764C110.771 118.745 110.085 116.646 110.385 113.98L109.315 113.681C109.315 113.681 109.85 112.89 110.406 112.89C110.962 112.89 111.689 111.842 111.09 111.072C110.918 110.85 110.882 110.733 110.927 110.669C110.932 110.664 110.937 110.659 110.942 110.652C111.085 110.522 111.66 110.666 111.924 110.387C112.161 110.138 112.187 109.92 112.119 109.78C112.076 109.691 111.993 109.634 111.903 109.617C111.702 109.58 111.752 109.059 112.119 108.869C112.179 108.836 112.25 108.813 112.331 108.804C112.888 108.74 113.294 109.253 113.679 109.125C114.063 108.996 116.672 106.859 117.421 106.473C118.171 106.088 118.875 106.067 120.202 104.955C121.113 104.19 121.762 103.415 122.078 103.005C122.154 102.907 122.211 102.83 122.248 102.779C122.411 102.72 122.575 102.662 122.738 102.602C122.986 102.511 123.228 102.446 123.468 102.396C123.51 102.358 123.557 102.331 123.614 102.32C123.614 102.32 123.614 102.32 123.614 102.32C124.152 102.213 124.687 102.172 125.257 102.072C125.603 102.011 126.309 101.723 126.618 101.86C126.788 101.936 126.899 102.152 127.103 102.234C127.295 102.31 127.543 102.359 127.746 102.391C128.15 102.457 128.664 102.502 129.071 102.45C129.378 102.41 129.514 102.338 129.807 102.451C130.101 102.566 130.159 102.684 130.474 102.579C130.631 102.525 130.771 102.353 130.941 102.335C131.201 102.309 131.212 102.483 131.419 102.551C131.828 102.685 132.208 102.298 132.63 102.481C132.575 102.585 132.586 102.699 132.596 102.822C133.162 102.859 133.796 102.931 134.171 103.298C133.842 103.621 133.356 103.755 133.908 104.078C134.251 104.28 134.573 104.278 134.953 104.328C135.297 104.373 135.508 104.483 135.805 104.617C136.41 104.889 136.134 104.468 136.498 104.232C136.711 104.094 137.15 104.301 137.401 104.281C137.506 104.272 137.909 104.106 137.983 104.161C138.112 104.253 137.907 104.402 137.98 104.524C138.228 104.944 138.413 104.284 138.586 104.18C138.767 104.073 138.873 104.204 139.028 104.001C139.117 103.886 139.123 103.658 139.152 103.519C139.198 103.296 139.263 102.632 139.556 102.591C139.987 102.531 139.767 103.162 139.805 103.365C140.201 103.333 140.427 103.017 140.773 103.236C141.027 103.396 141.186 103.91 141.501 103.96C142.059 104.051 141.585 103.597 141.424 103.461C141.167 103.242 140.957 102.991 140.661 102.822C140.573 102.527 140.818 102.442 140.948 102.228C141.121 101.947 141.147 101.738 141.426 101.516C141.62 101.362 142.139 101.107 141.924 100.807C141.776 100.603 141.292 100.687 141.109 100.452C141.217 100.338 141.334 100.182 141.371 100.018C141.288 99.8864 141.005 99.6927 140.864 99.6376C140.777 99.6043 140.579 99.5944 140.528 99.5071C140.484 99.4323 140.525 99.2431 140.511 99.1521C140.475 98.9043 140.368 98.6735 140.182 98.5037C140.044 98.379 139.862 98.3015 139.715 98.1888C139.524 98.0437 139.553 97.9689 139.467 97.7761C139.396 97.6166 139.252 97.5111 139.197 97.3558C139.127 97.1583 139.228 96.885 139.309 96.7171C139.462 96.4007 139.8 95.8539 139.344 95.75C139.24 95.7264 139.123 95.7189 139 95.7213C139.123 95.7188 139.241 95.7264 139.345 95.75C139.8 95.8539 139.462 96.4007 139.31 96.7171C139.229 96.8855 139.127 97.1582 139.197 97.3558C139.253 97.5117 139.396 97.6171 139.467 97.7761C139.553 97.9689 139.524 98.0437 139.715 98.1888C139.862 98.3015 140.044 98.379 140.182 98.5037C140.368 98.6735 140.475 98.9043 140.512 99.1521C140.525 99.2431 140.484 99.4323 140.529 99.5071C140.579 99.5944 140.777 99.6043 140.864 99.6376C141.005 99.6927 141.288 99.8864 141.371 100.018C141.382 99.9712 141.386 99.9233 141.382 99.8766C141.362 99.6631 141.105 99.5222 141.145 99.2972C141.193 99.0317 141.853 98.7521 142.083 98.6699C142.442 98.5421 142.826 98.5889 143.172 98.406C143.232 98.3748 143.294 98.3322 143.357 98.2854V98.2568H143.402V98.3015C143.537 98.3919 143.627 98.5718 143.807 98.6169C144.123 98.7069 144.213 98.392 144.213 98.1212C144.213 98.0485 144.218 97.9764 144.224 97.9036C144.235 97.9052 144.245 97.9088 144.256 97.9123C144.699 98.0657 144.598 98.5105 145.194 98.4071C145.28 98.2486 145.298 97.9243 145.483 97.8433C145.716 97.7414 145.84 98.0179 146.007 98.0474C145.974 97.6988 146.342 97.4151 146.442 97.0835C146.511 96.8538 146.488 96.0988 146.909 96.2157C146.691 96.7815 147.039 96.6995 147.323 97.0741C147.563 97.3927 147.283 97.8006 147.236 98.1383C147.451 98.1846 147.901 98.0105 148.13 97.9653C148.243 97.9429 148.366 97.8307 148.491 97.8749C148.621 97.9212 148.551 98.1123 148.66 98.1581C148.689 98.1711 148.718 98.1784 148.747 98.1809C148.969 98.2038 149.192 97.9726 149.37 97.8494C149.688 97.6285 149.893 97.562 150.288 97.6582C149.954 98.2422 151.338 97.8338 151.414 97.5645C151.285 97.5979 151.117 97.6264 150.974 97.5958C151.101 97.2845 151.626 96.704 151.951 96.5862C152.393 96.424 152.982 96.6344 153.388 96.7961C153.253 96.7597 153.029 96.7977 153.037 96.979C153.046 97.2066 153.301 97.0584 153.433 97.0393C153.765 96.9894 154.11 96.9359 154.443 96.9275C154.819 96.9176 154.999 97.0642 155.292 97.2752C155.491 97.418 155.879 97.9376 156.052 97.9579C156.117 97.6114 155.834 97.3328 155.958 96.9878C156.156 97.3317 156.834 97.657 156.774 98.0931C156.682 98.0947 156.644 98.1456 156.56 98.155C156.621 98.3098 156.999 98.5935 157.142 98.672C157.338 98.7791 157.739 98.7473 157.864 98.9801C157.977 99.1927 157.805 99.5647 157.914 99.8033C158.074 99.8079 158.176 99.6755 158.278 99.5476C158.629 99.7316 159.003 98.9116 159.441 99.2035C159.695 99.3735 159.424 99.6988 159.813 99.6718C160.078 99.6531 160.18 99.3735 160.167 99.1413C160.67 99.3782 160.658 99.2348 160.809 98.7972C160.962 98.3566 161.225 98.396 161.638 98.3638C161.641 98.1581 161.422 98.2079 161.416 98.0162C161.414 97.932 161.604 97.7636 161.663 97.7023C161.844 97.5179 162.217 97.4799 162.332 97.2949C163.103 97.5896 163.824 98.078 164.564 98.4412C164.919 98.6148 165.245 98.8456 165.486 99.1672C165.676 99.4208 165.682 99.7206 165.947 99.9061C166.076 99.9971 166.208 99.97 166.325 100.101C166.449 100.238 166.43 100.473 166.561 100.609C166.85 100.909 167.287 100.67 167.644 100.811C168.127 101.002 168.444 101.77 168.775 102.155C169.192 102.638 169.152 103.136 169.09 103.733C169.023 104.367 168.43 104.876 168.717 105.563C168.838 105.853 168.9 105.906 168.833 106.275C168.778 106.581 168.719 106.757 168.873 107.041C168.93 107.147 169.181 107.523 169.311 107.558C169.672 107.657 169.562 107.283 169.581 107.027C169.948 107.104 169.845 106.529 170.288 106.621C170.347 107.065 170.288 107.663 170.087 108.056C169.841 108.543 169.81 108.732 170.264 109.102C170.637 109.406 170.612 109.663 170.868 110.042C171.255 110.618 171.469 112.019 172.451 111.695C172.229 111.256 172.422 110.449 172.679 111.216C172.786 111.533 172.708 112.58 173.214 112.553C173.238 112.421 173.318 112.024 173.539 112.109C173.733 112.183 173.6 112.543 173.579 112.696C173.569 112.762 173.515 112.914 173.527 112.977C173.55 113.095 173.672 113.118 173.695 113.206C173.745 113.401 173.687 113.611 173.752 113.808C173.963 114.457 174.534 114.887 174.934 115.413C175.357 115.965 175.828 115.92 176.522 115.907C177.195 115.894 177.429 116.034 177.81 116.573C178.246 117.194 178.337 117.385 179.059 117.1C179.993 116.734 179.793 117.598 179.117 117.834C178.793 117.948 177.543 117.808 177.552 118.383C177.561 118.967 178.692 118.703 178.979 118.591C179.549 118.368 180.137 118.293 180.703 118.092C181.887 117.673 181.317 115.305 181.657 114.322C181.841 114.519 181.92 115.306 182.066 114.693C182.159 114.309 181.991 113.77 181.913 113.398C181.831 113.013 181.841 112.639 181.82 112.249C181.797 111.829 181.664 111.446 181.569 111.038C181.394 110.287 181.078 109.538 180.84 108.799C180.612 108.091 180.382 107.223 179.956 106.62C179.719 106.284 179.426 105.978 179.103 105.723C178.82 105.499 178.388 105.383 178.4 104.951C178.782 105.215 179.154 105.884 179.561 106.038C180.042 106.221 179.647 105.699 179.57 105.454C179.449 105.077 179.48 104.843 179.192 104.553C178.692 104.051 178.492 103.312 178.187 102.69C177.937 102.18 177.439 101.642 177.039 101.222C176.772 100.94 176.475 100.841 176.239 100.531C175.999 100.215 175.779 100.051 175.615 99.6838C175.913 99.6812 176.664 100.057 176.602 99.5133C176.561 99.1521 175.996 98.9942 175.748 98.8123C175.301 98.4845 174.558 98.0163 174.318 97.4981C174.177 97.1931 174.131 96.7588 174.028 96.4288C173.92 96.0816 173.846 95.7231 173.741 95.3754C173.541 94.7228 173.344 93.96 173.051 93.3415C172.924 93.0724 172.704 92.8619 172.565 92.6022C172.534 92.545 172.507 92.4858 172.487 92.4229C172.356 92.0347 172.467 91.6793 172.585 91.3046C172.483 91.3046 172.234 91.3056 172.147 91.2427C171.906 91.0692 172.046 91.0962 172.196 90.945C172.412 90.7272 172.635 90.6597 172.665 90.3047C172.696 89.9576 172.409 89.9233 172.373 89.6614C172.34 89.4199 172.651 89.2318 172.854 89.173C172.865 89.012 172.744 88.8919 172.735 88.7371C173.007 88.5765 173.196 88.1021 173.075 87.8631C172.984 87.6854 172.757 87.7487 172.916 87.465C173.059 87.2063 173.232 87.3486 173.43 87.3294C173.687 87.3055 173.742 87.3106 173.893 87.106C173.938 87.0452 173.917 86.9366 173.975 86.8669C174.037 86.7921 174.146 86.801 174.211 86.7349C174.223 86.7235 174.235 86.711 174.245 86.6981C174.367 86.5661 174.476 86.3951 174.53 86.2085C174.583 86.0313 174.486 85.7736 174.701 85.7034C174.794 85.3844 174.133 85.0107 174.475 84.7691C174.519 85.0107 174.927 85.3568 175.13 85.0575C175.318 84.7816 174.818 84.6595 174.941 84.3545C175.056 84.0681 175.389 84.2531 175.597 84.0827C175.771 83.9392 175.816 83.5963 175.881 83.3827C175.874 83.4809 175.916 83.5817 175.932 83.6769C176.375 83.681 176.861 83.3303 176.854 82.9592C176.851 82.7149 176.655 82.5565 177.006 82.4625C177.256 82.3951 177.425 82.5996 177.547 82.7778C178.053 82.5726 178.128 82.1356 178.239 81.7172C178.4 81.1077 178.697 81.2724 179.209 81.2444C179.153 80.8952 178.707 80.1391 179.215 79.9037C179.302 80.0227 179.349 80.1652 179.404 80.3012C179.931 80.0931 180.068 79.3227 180.278 78.8707C180.475 78.4497 180.635 78.0351 180.824 77.6128C181.018 77.1824 181.317 76.9111 181.638 76.5858L181.638 76.5857C181.639 76.5847 181.64 76.5842 181.64 76.5832C181.988 76.2314 182.218 76.1566 182.665 75.9456C182.898 75.8349 183.025 75.7391 183.134 75.5088C183.225 75.3121 183.161 75.0492 183.441 74.9952C183.48 75.3511 183.38 75.7056 183.413 76.0674C183.626 75.7538 183.879 75.4083 184.049 75.0633C184.389 74.3727 184.596 73.5885 185.135 73.0108C185.362 72.7675 185.65 72.5996 185.913 72.4032C186.08 72.2783 186.367 72.1854 186.581 72.048C186.592 72.0519 186.602 72.055 186.613 72.0582C186.966 72.1573 187.499 71.96 187.85 71.9054C188.372 71.8233 188.702 71.7828 188.999 71.313C189.259 70.9033 189.723 70.3611 189.747 69.8559C189.775 69.3004 189.4 69.1905 188.929 69.1999C188.671 69.2053 188.035 69.5213 187.832 69.3903C187.475 69.1602 187.985 68.9382 188.038 68.7457C188.102 68.5085 187.868 68.2626 187.723 68.0963C187.924 67.9675 187.791 67.65 188.07 67.6446C188.371 67.6399 188.243 68.1104 188.533 68.0902C188.54 67.9811 188.484 67.7056 188.607 67.65C188.795 67.5644 188.785 67.9109 188.772 68.0002C189.492 68.0442 189.502 67.0483 189.919 66.7121C190.253 66.4414 190.282 66.367 190.282 65.9029C190.281 65.6135 190.304 65.2614 190.143 65.004C189.838 64.5171 188.963 64.7411 188.524 64.9198C188.247 65.0328 187.89 65.0913 187.596 65.1521C187.263 65.2217 186.923 65.0686 186.61 65.1879C186.411 65.2661 185.977 65.8001 185.777 65.4206C185.681 65.2404 185.97 64.8314 185.933 64.5903C185.974 64.5856 186.016 64.5787 186.056 64.5762C185.984 64.4739 185.931 64.314 186.028 64.1829C186.403 64.2479 186.236 64.5575 186.424 64.7613C186.578 64.9307 186.859 64.8798 187.089 64.8431C188.066 64.6885 186.861 64.307 187.11 63.9153C187.346 63.9974 187.497 64.0255 187.708 64.1768C187.902 64.3149 187.969 64.4989 188.261 64.3508C188.274 64.1839 188.222 63.5314 188.529 63.536C188.548 63.536 188.95 63.9896 188.982 63.8545C189.065 63.4918 189.699 63.9912 189.976 63.9444C189.911 63.7646 189.769 63.6345 189.709 63.4591C189.644 63.2699 189.698 62.7622 189.401 62.7893C189.389 62.9894 189.408 63.1819 189.341 63.363C188.953 63.1998 188.945 62.8776 188.982 62.5186C188.957 62.5149 188.932 62.5087 188.907 62.5045C188.904 62.4476 188.903 62.39 188.903 62.332C188.903 62.332 188.903 62.332 188.902 62.332C188.903 62.3315 188.903 62.3315 188.903 62.3315C188.904 62.064 188.927 61.789 188.75 61.5677C188.666 61.4621 188.476 61.417 188.412 61.3153C188.328 61.182 188.382 61.0275 188.339 60.8791C188.253 60.5849 188.001 60.2924 187.675 60.2987C187.514 60.3025 187.479 60.4338 187.324 60.4187C187.144 60.4 187.007 60.19 186.744 60.2067C186.785 59.8219 186.384 59.4293 186.136 59.1749C185.914 58.9463 185.277 58.6889 185.648 58.2651C185.994 57.8704 186.305 58.8759 186.422 58.2074C186.538 57.5395 185.967 57.847 185.669 57.7C185.394 57.5635 185.1 56.7386 185.649 56.8261C185.767 56.3946 186.32 56.0864 185.754 55.6628C185.447 55.431 184.911 55.3185 184.547 55.1773C184.064 54.991 183.69 55.161 183.227 55.0929C182.908 55.0456 182.443 54.759 182.282 54.4142C182.281 54.4142 182.281 54.4142 182.28 54.4142H182.28C182.225 54.2964 182.206 54.172 182.24 54.0495C182.572 54.2441 182.897 53.9991 183.236 54.09C183.439 54.1451 183.387 54.2422 183.618 54.1856C183.811 54.1385 183.891 53.8854 184.133 53.9668C184.534 54.0998 184.376 54.7291 184.936 54.6766C185.482 54.6257 185.291 54.2814 185.12 53.9688C184.779 53.3406 184.491 52.6859 184.152 52.0677C183.955 51.7078 184.085 51.0234 184.644 51.1708C184.983 51.2599 185.113 51.7883 185.159 52.082C185.187 52.2584 185.142 52.484 185.245 52.6427C185.33 52.7705 185.506 52.7763 185.604 52.8796C185.736 53.0194 185.729 53.146 185.795 53.3105C185.877 53.5143 185.907 53.681 186.149 53.7646C186.886 54.0203 186.221 52.9414 186.973 53.192C187.179 53.2605 187.161 53.2764 187.179 53.4486C187.189 53.5583 187.312 53.7786 187.282 53.8835C187.241 54.0275 187.049 53.9949 187.102 54.1962C187.187 54.1995 187.254 54.1673 187.342 54.1811C187.371 54.3398 187.251 54.4655 187.281 54.6241C187.417 54.617 187.545 54.6747 187.574 54.8184C187.584 54.8761 187.545 54.967 187.555 55.0351C187.567 55.1138 187.625 55.1442 187.62 55.2325C187.657 55.2429 187.732 55.2424 187.77 55.2325C187.799 55.1322 187.944 55.0928 188.041 55.1048C188.033 55.1853 187.983 55.2589 188.003 55.3453C188.123 55.3557 188.4 55.1832 188.48 55.3414C188.561 55.5027 188.27 55.5438 188.191 55.6155C188.145 55.6573 188.16 55.7288 188.097 55.7714C188.044 55.808 187.955 55.7701 187.913 55.8036C187.865 55.8421 187.898 55.9346 187.844 55.972C187.782 56.0167 187.739 55.9616 187.691 55.9805C187.446 56.0753 187.666 56.0683 187.673 56.2289C187.683 56.4143 187.497 56.2655 187.478 56.4596C187.467 56.5793 187.589 56.6859 187.62 56.7987C187.677 57.0154 187.587 56.9016 187.485 57.0424C187.382 57.1848 187.525 57.1892 187.584 57.3002C187.651 57.4254 187.587 57.5597 187.421 57.4639C187.511 57.706 187.714 57.9466 187.721 58.2075C187.727 58.4241 187.548 58.8315 187.88 58.9028C188.176 58.9671 188.258 58.5652 188.33 58.3659C188.378 58.2329 188.436 58.1019 188.415 57.9575C188.395 57.8146 188.291 57.6998 188.259 57.5616C188.19 57.2653 188.412 57.1052 188.67 57.2593C188.729 56.994 188.089 56.6864 188.567 56.529C188.787 56.4571 189.041 56.2022 189.117 55.9548C189.226 55.6061 188.983 55.4055 189.255 55.081C189.428 54.874 189.753 54.7703 189.692 54.4569C189.664 54.3128 189.56 54.1569 189.417 54.3028C189.313 54.4091 189.36 54.6123 189.255 54.7368C189.156 54.6859 189.083 54.5395 188.987 54.4634C188.855 54.3584 188.783 54.3016 188.79 54.1278C188.798 53.9955 188.896 53.745 189.082 53.8388C189.208 53.9038 189.115 54.0596 189.175 54.174C189.287 54.181 189.295 54.0997 189.345 54.0191C189.399 53.9297 189.459 53.8702 189.519 53.7941C189.589 53.7024 189.582 53.6902 189.62 53.5889C189.649 53.5044 189.655 53.4041 189.751 53.37C189.769 53.4041 189.793 53.4133 189.804 53.4533C190 53.4824 189.988 53.3452 189.993 53.2329C190 53.0666 190.03 53.0369 190.101 52.8889C190.372 52.3204 189.734 51.6154 189.548 51.1041C189.543 51.0943 189.54 51.0854 189.537 51.0764C189.427 50.7503 189.267 50.6069 188.992 50.4125C188.693 50.2005 188.357 49.9628 188.175 49.6356C187.991 49.3041 188.043 48.8781 187.789 48.5842C187.665 48.4429 187.087 48.0778 187.295 47.8185C187.371 47.7258 187.472 47.7689 187.575 47.8598C187.725 47.9905 187.877 48.2195 187.957 48.2716C188.226 48.4454 188.496 48.3329 188.729 48.6039C188.808 48.6959 188.873 48.8492 189.013 48.8473C189.155 48.8445 189.287 48.6428 189.387 48.5636C190.044 48.0463 189.638 49.705 189.835 49.9437C190.086 50.2457 190.234 49.5491 190.269 49.3932C190.344 49.0617 190.435 48.8484 190.633 48.5742C190.839 48.2887 190.96 48.0146 190.978 47.6607C190.999 47.2661 190.983 46.8815 191.187 46.5263C191.366 46.2164 191.5 46.0155 191.502 45.6409C191.504 45.2921 191.485 44.9344 191.411 44.5927C191.322 44.1883 191.286 43.9099 191.443 43.516C191.611 43.0936 191.508 42.8646 191.112 42.6396C190.78 42.4512 190.64 42.3367 190.816 41.951C190.946 41.6663 191.092 41.5782 191.311 41.6973C191.351 41.7188 191.395 41.7484 191.441 41.7854C191.458 41.5855 191.458 41.1168 191.779 41.1618C191.813 41.2763 191.797 41.5848 191.969 41.49C192.12 41.406 191.998 41.1764 192.087 41.0657C192.157 40.9781 192.332 40.9864 192.435 40.9486C192.573 40.8971 192.689 40.7952 192.822 40.7349C192.947 40.6781 193.093 40.6548 193.21 40.581C193.423 40.4457 193.6 40.2818 193.842 40.1907C194.075 40.1034 194.197 39.9803 194.395 39.8367C194.759 39.5747 195.227 39.6897 195.593 39.4601C195.781 39.3421 195.935 39.2366 196.147 39.1664C196.372 39.0916 196.596 39.023 196.769 38.851C196.988 38.6322 197.092 38.3256 197.306 38.1024C197.542 37.8579 197.855 37.7418 197.973 37.4005C197.684 37.422 197.467 37.5246 197.257 37.7348C197.069 37.9229 196.914 38.1511 196.648 38.2087C196.365 38.2709 196.261 38.4112 196.077 38.6357C195.921 38.8248 195.697 39.0329 195.435 38.9926C195.424 38.7221 195.822 38.4519 195.996 38.2734C196.185 38.0796 196.623 37.7582 196.554 37.4453C196.374 37.3508 196.187 37.6688 196.085 37.7807C195.931 37.9491 195.761 38.0401 195.574 38.1627C195.428 38.2591 195.302 38.3843 195.139 38.4482C194.987 38.5069 194.81 38.5272 194.655 38.569C194.445 38.6237 194.308 38.6123 194.125 38.7563C193.98 38.8698 193.855 39.0068 193.714 39.124C193.398 39.3898 193.084 39.142 192.77 39.3033C192.409 39.4888 192.478 40.0445 191.966 39.8707C191.987 39.6664 192.152 39.4716 192.212 39.2715C192.238 39.1869 192.265 39.1283 192.301 39.0859C192.368 39.0023 192.463 38.9769 192.618 38.9374C192.762 38.9005 192.938 38.842 193.049 38.7366C193.18 38.6113 193.156 38.3941 193.283 38.2806C193.409 38.1673 193.613 38.1824 193.753 38.0553C193.905 37.9184 193.933 37.7913 194.145 37.7526C194.498 37.6876 194.77 37.4236 195.116 37.3265C195.41 37.2435 195.749 37.1329 196.05 37.0924C196.168 37.076 196.269 37.1173 196.384 37.0479C196.477 36.992 196.524 36.8814 196.601 36.8065C196.681 36.7281 196.763 36.7273 196.853 36.6821C196.949 36.6343 196.952 36.5922 197.027 36.5298C197.261 36.3352 197.753 36.1965 198.018 36.4137C198.054 36.4433 198.141 36.5499 198.229 36.609C198.313 36.667 198.396 36.6803 198.432 36.5364C198.46 36.421 198.298 36.3802 198.261 36.2965C198.228 36.2235 198.248 36.1272 198.251 36.0489C198.371 35.9972 198.483 35.9387 198.591 35.8652C198.681 35.8029 198.751 35.7353 198.859 35.701C198.98 35.6613 199.134 35.702 199.247 35.6524C199.518 35.5344 199.177 35.1515 199.179 34.9182C199.181 34.6462 199.516 34.3092 199.777 34.5387C199.938 34.6812 199.934 35.1143 200.24 35.0748C200.422 35.0515 200.475 34.8668 200.5 34.6757C200.519 34.5386 200.523 34.3993 200.55 34.3117C200.628 34.0558 200.895 33.8523 201.051 33.638C201.294 33.3044 201.351 33.3902 201.503 33.7381C201.621 34.0083 201.79 34.3359 202.126 34.1659C202.345 34.055 202.57 33.7791 202.616 33.5369C202.681 33.1856 202.409 33.1493 202.161 33.0323C201.895 32.907 201.871 32.6187 201.67 32.4276C201.472 32.2404 201.187 32.2367 201.03 31.998C200.87 31.7529 200.863 31.3995 200.614 31.2159C200.376 31.0413 199.957 31.1412 199.755 30.9322C199.584 30.7547 199.771 30.3392 199.818 30.1321C199.902 29.7644 200.109 29.7213 200.39 29.5155C200.704 29.2851 200.385 29.2275 200.161 29.1375C199.855 29.0149 199.78 28.7652 199.753 28.4526C199.734 28.2632 199.768 28.0967 199.81 27.9291V27.9279C199.836 27.822 199.866 27.7158 199.888 27.6012C199.94 27.3481 199.905 27.1012 199.918 26.8469C199.919 26.8344 199.92 26.8228 199.921 26.81V26.8093C199.935 26.6198 199.97 26.4504 199.946 26.2524C199.896 25.8632 200.125 25.8827 200.307 25.5911C200.443 25.3714 200.485 25.0892 200.6 24.8613C200.73 24.6045 200.94 24.4155 201.143 24.2217C201.416 23.9613 201.179 23.6108 201.315 23.2738C201.425 23.3433 201.618 23.563 201.757 23.4505C201.835 23.3863 201.821 23.1197 201.794 23.0348C201.748 22.8945 201.595 22.7872 201.694 22.6206C201.767 22.4972 201.916 22.5064 202.05 22.5568C202.019 22.6721 201.943 22.9395 202.099 23.0081C202.304 23.0979 202.301 22.782 202.303 22.6619C202.308 22.4891 202.345 22.3774 202.391 22.2143C202.42 22.1087 202.413 21.7853 202.584 21.8039C202.794 21.8268 202.65 22.2223 202.633 22.3252C202.617 22.4195 202.571 22.8386 202.755 22.8386C202.905 22.8386 202.927 22.4699 202.935 22.3782C202.953 22.2015 202.896 21.8123 203.12 21.7385C203.354 21.661 203.362 21.9269 203.385 22.0762C203.577 23.3133 204.462 21.3654 203.765 21.2913C203.625 21.277 203.469 21.3906 203.394 21.2095C203.31 21.0049 203.522 21.0238 203.636 20.9484C203.876 20.7862 203.639 20.3492 203.537 20.133C203.491 20.0374 203.389 19.7859 203.576 19.7373C203.745 19.6931 203.677 19.9988 203.78 20.0879C203.963 20.2492 204.021 19.9699 203.985 19.8176C203.949 19.6599 203.781 19.5311 203.862 19.358C204.037 18.9831 204.396 19.3877 204.468 19.6004C204.539 19.8013 204.346 19.8141 204.346 19.9827C204.345 20.2007 204.578 20.0338 204.698 20.016C204.958 19.9772 205.594 20.5031 205.356 19.8861C205.262 19.6439 205.178 19.1544 205.525 19.0617C205.93 18.9527 205.784 19.4555 205.843 19.6472C205.945 19.979 206.351 19.7608 206.302 19.4573C206.276 19.3041 206.099 19.2456 206.074 19.1059C206.047 18.9536 206.151 18.8925 206.269 18.9744C206.379 19.0499 206.361 19.2661 206.534 19.2789C206.699 19.2916 206.726 19.1222 206.718 18.9959C206.71 18.8816 206.614 18.1583 206.906 18.4518C207.088 18.6339 206.907 19.0771 207.275 19.0808C207.294 18.8041 207.215 18.4544 207.295 18.1897C207.362 17.9626 207.487 17.8986 207.589 18.131C207.66 18.2905 207.663 18.414 207.837 18.4069C207.944 18.4022 208.124 18.3128 208.196 18.2402C208.395 18.0375 208.334 17.6815 208.468 17.442C208.57 17.2609 208.668 17.1671 208.772 17.3781C208.855 17.5446 208.824 17.6761 209.055 17.6392C209.132 17.4202 209.018 17.2653 209.044 17.0553C209.069 16.8568 209.246 16.7245 209.37 16.5829Z" fill="#DFE5F1"/>
<path d="M51.5429 125.493C50.103 124.976 49.2605 124.65 48.1463 122.884C47.0325 121.118 45.9457 119.76 45.2119 119.379C44.4786 118.999 44.3152 118.564 43.9077 117.722C43.5002 116.88 42.5219 116.88 41.8971 117.504C41.2722 118.129 41.2723 119.298 40.7559 118.863C40.2396 118.428 38.8539 117.151 38.691 116.499C38.5281 115.847 38.5823 115.738 37.9844 115.82C37.3867 115.901 36.1369 117.314 36.2182 114.624C36.3 111.934 36.1911 91.8278 36.1911 91.8278C36.1911 91.8278 34.7243 90.6323 34.2622 90.5781C33.8004 90.5236 31.545 90.768 31.0834 90.388C30.6215 90.0075 30.1596 90.6594 29.5888 90.0349C29.0183 89.4097 27.9857 88.866 27.1436 88.866C26.3011 88.866 25.7849 88.866 25.6763 88.051C25.5677 87.2359 25.5405 87.2089 24.5621 87.4262C23.584 87.6435 24.1276 87.29 23.8015 86.8013C23.4753 86.3123 22.1983 85.334 21.5735 86.2307C20.9485 87.1273 19.7259 86.6382 19.7259 86.6382C19.7259 86.6382 18.9651 86.7468 18.5304 87.0728C18.0957 87.3992 17.4437 87.4533 17.0902 87.3447C16.737 87.236 16.3022 87.3992 15.8132 88.2959C15.324 89.1925 14.9707 89.8718 13.9111 89.7628C12.8516 89.6541 10.6778 89.3827 11.4659 90.7955C12.2539 92.2083 12.9061 93.4309 12.8245 94.0557C12.7431 94.6805 13.4222 94.8437 13.4222 94.8437C13.4222 94.8437 13.7213 95.0344 13.7213 95.469C13.7213 95.9036 13.9111 96.6916 14.1287 96.8815C14.3461 97.0721 14.7266 98.1319 13.5581 97.6969C12.3897 97.2623 11.6289 97.0721 12.0636 96.2296C12.4984 95.387 11.4659 95.3329 11.4659 95.3329C11.4659 95.3329 10.053 95.0345 10.026 95.6318C9.99863 96.2296 9.02065 95.7409 9.02065 95.7409C9.02065 95.7409 5.9776 95.469 7.0914 96.6916C8.20546 97.9142 7.98789 98.5665 7.98789 98.5665C7.98789 98.5665 7.71633 99.8432 8.25977 100.142C8.80314 100.441 9.75407 100.713 10.1616 100.713C10.5693 100.713 10.814 100.957 11.1941 101.174C11.5745 101.392 11.9278 101.311 12.1179 101.174C12.3084 101.039 14.4002 100.496 13.7483 101.446C13.0963 102.397 13.2047 102.86 13.2047 102.86C13.2047 102.86 13.1235 104.245 12.2812 104.272C11.4389 104.299 11.3301 103.729 10.7594 104.136C10.1888 104.544 9.91727 104.763 9.61846 104.273C9.31945 103.783 8.58603 103.24 7.93391 104.001C7.28165 104.761 6.95565 105.386 5.78748 106.093C4.61891 106.799 4.94504 108.592 5.27103 108.701C5.59696 108.81 6.68377 108.321 5.59697 109.381C4.51029 110.44 4.8091 109.951 5.1894 110.576C5.56997 111.201 5.70578 111.147 5.65134 111.554C5.59697 111.962 5.8961 112.967 6.76547 112.777C7.6351 112.587 8.72171 111.799 8.66759 112.478C8.61302 113.157 8.20552 113.945 8.61302 114.054C9.02071 114.163 8.99352 114.325 8.20553 114.352C7.41753 114.38 7.93391 114.679 7.93391 114.869C7.93391 115.059 7.79803 116.092 7.33616 116.146C6.87422 116.2 7.03702 116.472 7.85221 116.445C8.66759 116.418 8.28696 116.037 8.77602 116.037C9.26501 116.037 10.2975 115.983 10.1889 116.309C10.0803 116.635 10.1346 116.798 10.515 116.743C10.8955 116.689 11.4931 116.173 11.1942 117.151C10.8955 118.129 11.7376 118.483 11.7919 117.858C11.8465 117.233 12.3898 116.934 12.4986 117.396C12.607 117.858 12.7158 117.858 13.0964 117.64C13.4766 117.423 14.4276 116.581 14.0743 117.396C13.7214 118.211 13.4494 118.211 13.2324 118.51C13.0148 118.809 12.7433 119.624 12.4986 120.032C12.2541 120.439 12.0638 120.683 11.6018 120.683C11.14 120.683 10.8412 120.711 10.7595 121.118C10.6781 121.526 10.8413 122.069 10.0262 121.852C9.21083 121.635 7.66229 122.477 7.58059 122.776C7.49909 123.075 7.20041 123.346 6.76553 123.047C6.33085 122.749 5.37999 122.83 4.53754 123.319C3.69537 123.808 3.17892 124.487 2.41818 124.27C1.65743 124.053 0 124.297 0 124.786C0 125.275 0.108754 125.52 0.869498 125.194C1.63024 124.868 1.68455 125.436 2.17388 125.342C2.6628 125.248 3.47786 124.868 4.15724 124.786C4.83635 124.705 5.08105 124.27 5.51573 124.27C5.95054 124.27 6.22229 124.813 6.73854 124.514C7.25472 124.215 7.77104 123.917 8.0971 124.379C8.42303 124.84 8.64047 123.889 9.31972 123.862C9.99896 123.835 10.4065 124.623 10.7596 124.107C11.1131 123.591 10.2977 122.286 11.4662 122.45C12.6346 122.612 13.3138 122.422 13.8573 122.014C14.4006 121.607 19.6176 119.135 18.8567 118.265C18.0959 117.396 18.3677 116.879 18.8296 116.743C19.2916 116.608 20.2695 116.2 20.6229 115.575C20.9762 114.95 22.09 112.831 23.6933 112.994C25.2963 113.157 24.943 113.918 24.155 113.728C23.3672 113.538 22.3076 114.216 22.0358 115.385C21.764 116.553 21.2478 116.825 21.7369 116.825C22.2259 116.825 22.4435 117.124 21.7912 117.26C21.1391 117.396 20.813 117.885 21.4378 118.075C22.063 118.265 23.4486 117.667 23.6115 117.396C23.7749 117.124 23.9649 116.282 24.753 116.336C25.5409 116.39 26.1386 117.124 26.4917 116.58C26.845 116.037 26.3287 114.38 26.981 114.352C27.633 114.325 29.4806 113.999 28.9645 114.814C28.448 115.629 25.8397 118.075 26.7905 117.532C27.7416 116.988 28.5296 115.82 29.0188 116.064C29.5076 116.309 29.3992 115.711 30.0512 115.956C30.7033 116.2 31.8716 116.825 33.04 116.798C34.2082 116.771 34.317 117.423 35.2954 117.586C36.2733 117.749 36.871 117.885 37.1971 117.45C37.523 117.015 38.4197 116.852 37.8764 117.45C37.333 118.048 36.708 118.428 37.333 118.619C37.9578 118.808 40.8925 120.086 41.2728 120.901C41.6531 121.716 41.8705 121.335 42.0877 121.118C42.3053 120.901 42.5497 121.037 41.8705 121.988C41.8705 121.988 41.9247 122.286 42.3323 122.912C42.7401 123.537 42.6042 124.487 43.229 124.705C43.8538 124.922 43.6367 126.117 44.4516 126.634C45.2667 127.15 44.5602 123.618 45.0223 125.14C45.4842 126.661 45.5657 127.227 45.7559 126.523C45.9462 125.819 46.4351 125.248 46.3807 126.444C46.3268 127.639 47.1415 127.612 46.6524 127.884C46.1633 128.155 45.8644 128.481 46.4077 128.536C46.9515 128.59 48.5814 130.764 48.2011 130.221C47.821 129.677 48.0159 129.079 48.2579 129.514C48.5001 129.949 49.3152 130.356 49.1522 129.487C48.989 128.617 48.2712 127.15 49.1737 127.747C50.0757 128.346 51.0813 130.492 51.5433 129.894C52.0046 129.296 52.983 126.009 51.5429 125.493Z" fill="#DFE5F1"/>
</svg>
