<svg width="20" height="16" viewBox="0 0 20 16" fill="none" xmlns="http://www.w3.org/2000/svg">
<path fill-rule="evenodd" clip-rule="evenodd" d="M17.7071 0.292893C17.3166 -0.0976311 16.6834 -0.0976311 16.2929 0.292893L13.5684 3.01736C12.2508 2.33912 11.0613 2 10 2C7.42267 2 4.08934 4 0 8C1.68265 9.6459 3.23731 10.9532 4.66397 11.9218L2.29289 14.2929L2.2097 14.3871C1.90468 14.7794 1.93241 15.3466 2.29289 15.7071C2.68342 16.0976 3.31658 16.0976 3.70711 15.7071L6.43158 12.9826C7.74924 13.6609 8.93871 14 10 14C12.5773 14 15.9107 12 20 8C18.3173 6.35411 16.7627 5.04683 15.336 4.07818L17.7071 1.70711L17.7903 1.6129C18.0953 1.22061 18.0676 0.653377 17.7071 0.292893ZM12.0718 4.51398C11.3589 4.20164 10.7222 4.03277 10.1665 4.00432L10 4C8.41651 4 6.12903 5.20868 3.26355 7.70283L2.926 8L2.95433 8.02502C4.09571 9.04053 5.14865 9.85739 6.10553 10.4803L8.06774 8.51804C8.02356 8.35282 8 8.17916 8 8C8 6.89543 8.89543 6 10 6C10.1792 6 10.3528 6.02356 10.518 6.06774L12.0718 4.51398ZM11.9323 7.48196L13.8945 5.51974C14.8514 6.14261 15.9043 6.95947 17.0457 7.97498L17.073 8L16.7364 8.29717C13.871 10.7913 11.5835 12 10 12L9.83348 11.9957C9.27783 11.9672 8.64108 11.7984 7.92819 11.486L9.48196 9.93226C9.64718 9.97644 9.82084 10 10 10C11.1046 10 12 9.10457 12 8C12 7.82084 11.9764 7.64718 11.9323 7.48196Z" fill="#7E84A3"/>
</svg>
