<svg width="20" height="12" viewBox="0 0 20 12" fill="none" xmlns="http://www.w3.org/2000/svg">
<path fill-rule="evenodd" clip-rule="evenodd" d="M10 0C12.5773 0 15.9107 2 20 6C15.9107 10 12.5773 12 10 12C7.42267 12 4.08934 10 0 6C4.08934 2 7.42267 0 10 0ZM10 2C8.41651 2 6.12903 3.20868 3.26355 5.70283L2.926 6L2.95433 6.02502C5.86439 8.61416 8.19959 9.91203 9.83348 9.99568L10 10C11.5835 10 13.871 8.79132 16.7364 6.29717L17.073 6L17.0457 5.97498C14.1356 3.38584 11.8004 2.08797 10.1665 2.00432L10 2ZM10 4C11.1046 4 12 4.89543 12 6C12 7.10457 11.1046 8 10 8C8.89543 8 8 7.10457 8 6C8 4.89543 8.89543 4 10 4Z" fill="#7E84A3"/>
</svg>
