<svg width="14" height="18" viewBox="0 0 14 18" fill="none" xmlns="http://www.w3.org/2000/svg">
<path fill-rule="evenodd" clip-rule="evenodd" d="M8 0C10.2816 0.463729 12 2.58146 12 5V9C13.1046 9 14 9.89543 14 11V16H9C9 17.1046 8.10457 18 7 18C5.89543 18 5 17.1046 5 16H0V11C0 9.89543 0.89543 9 2 9V5C2 2.58111 3.71785 0.463343 6 0H8ZM7 2C5.40232 2 4.09634 3.24892 4.00509 4.82373L4 5V9C4 10.1046 3.10457 11 2 11V14H12V11C10.8954 11 10 10.1046 10 9V5C10 3.34315 8.65685 2 7 2Z" fill="#7E84A3"/>
</svg>
