<svg width="24" height="24" viewBox="0 0 24 24" fill="none" xmlns="http://www.w3.org/2000/svg">
<path fill-rule="evenodd" clip-rule="evenodd" d="M9 3C10.1046 3 11 3.89543 11 5V9C11 10.1046 10.1046 11 9 11H5C3.89543 11 3 10.1046 3 9V5C3 3.89543 3.89543 3 5 3H9ZM9 5H5V9H9V5ZM19 3C20.1046 3 21 3.89543 21 5V9C21 10.1046 20.1046 11 19 11H15C13.8954 11 13 10.1046 13 9V5C13 3.89543 13.8954 3 15 3H19ZM19 5H15V9H19V5ZM11 15C11 13.8954 10.1046 13 9 13H5C3.89543 13 3 13.8954 3 15V19C3 20.1046 3.89543 21 5 21H9C10.1046 21 11 20.1046 11 19V15ZM5 15H9V19H5V15ZM19 13C20.1046 13 21 13.8954 21 15V19C21 20.1046 20.1046 21 19 21H15C13.8954 21 13 20.1046 13 19V15C13 13.8954 13.8954 13 15 13H19ZM19 15H15V19H19V15Z" fill="#7E84A3"/>
</svg>
