<svg width="162" height="73" viewBox="0 0 162 73" fill="none" xmlns="http://www.w3.org/2000/svg">
<g clip-path="url(#clip0_1946_12322)">
<g clip-path="url(#clip1_1946_12322)">
<path d="M16 14.5C16 15.3274 15.3274 16 14.5 16C13.6726 16 13 15.3274 13 14.5C13 13.6726 13.6726 13 14.5 13C15.3274 13 16 13.6726 16 14.5Z" fill="white" fill-opacity="0.7"/>
<path d="M3 14.5C3 15.3274 2.32743 16 1.5 16C0.672566 16 0 15.3274 0 14.5C0 13.6726 0.672566 13 1.5 13C2.32743 13 3 13.6726 3 14.5Z" fill="white" fill-opacity="0.7"/>
<path d="M29 14.5C29 15.3274 28.3274 16 27.5 16C26.6726 16 26 15.3274 26 14.5C26 13.6726 26.6726 13 27.5 13C28.3274 13 29 13.6726 29 14.5Z" fill="white" fill-opacity="0.7"/>
<path d="M41 14.5C41 15.3274 40.3274 16 39.5 16C38.6726 16 38 15.3274 38 14.5C38 13.6726 38.6726 13 39.5 13C40.3319 13 41 13.6726 41 14.5Z" fill="white" fill-opacity="0.7"/>
<path d="M54 14.5C54 15.3274 53.3274 16 52.5 16C51.6726 16 51 15.3274 51 14.5C51 13.6726 51.6726 13 52.5 13C53.3274 13 54 13.6726 54 14.5Z" fill="white" fill-opacity="0.7"/>
<path d="M67 14.5C67 15.3274 66.3274 16 65.5 16C64.6726 16 64 15.3274 64 14.5C64 13.6726 64.6726 13 65.5 13C66.3274 13 67 13.6726 67 14.5Z" fill="white" fill-opacity="0.7"/>
<path d="M80 14.5C80 15.3274 79.3274 16 78.5 16C77.6726 16 77 15.3274 77 14.5C77 13.6726 77.6726 13 78.5 13C79.3319 13 80 13.6726 80 14.5Z" fill="white" fill-opacity="0.7"/>
<path d="M92 14.5C92 15.3274 91.3274 16 90.5 16C89.6726 16 89 15.3274 89 14.5C89 13.6726 89.6726 13 90.5 13C91.3274 13 92 13.6726 92 14.5Z" fill="white" fill-opacity="0.7"/>
<path d="M105 14.5C105 15.3274 104.327 16 103.5 16C102.673 16 102 15.3274 102 14.5C102 13.6726 102.673 13 103.5 13C104.332 13 105 13.6726 105 14.5Z" fill="white" fill-opacity="0.7"/>
<path d="M118 14.5C118 15.3274 117.327 16 116.5 16C115.673 16 115 15.3274 115 14.5C115 13.6726 115.673 13 116.5 13C117.327 13 118 13.6726 118 14.5Z" fill="white" fill-opacity="0.7"/>
<path d="M131 14.5C131 15.3274 130.327 16 129.5 16C128.673 16 128 15.3274 128 14.5C128 13.6726 128.673 13 129.5 13C130.327 13 131 13.6726 131 14.5Z" fill="white" fill-opacity="0.7"/>
<path d="M143 14.5C143 15.3274 142.327 16 141.5 16C140.673 16 140 15.3274 140 14.5C140 13.6726 140.673 13 141.5 13C142.327 13 143 13.6726 143 14.5Z" fill="white" fill-opacity="0.7"/>
<path d="M156 14.5C156 15.3274 155.327 16 154.5 16C153.673 16 153 15.3274 153 14.5C153 13.6726 153.673 13 154.5 13C155.327 13 156 13.6726 156 14.5Z" fill="white" fill-opacity="0.7"/>
<path d="M16 1.5C16 2.32743 15.3274 3 14.5 3C13.6726 3 13 2.32743 13 1.5C13 0.672566 13.6726 0 14.5 0C15.3274 0 16 0.672566 16 1.5Z" fill="white" fill-opacity="0.7"/>
<path d="M3 1.5C3 2.32743 2.32743 3 1.5 3C0.672566 3 0 2.32743 0 1.5C0 0.672566 0.672566 0 1.5 0C2.32743 0 3 0.672566 3 1.5Z" fill="white" fill-opacity="0.7"/>
<path d="M29 1.5C29 2.32743 28.3274 3 27.5 3C26.6726 3 26 2.32743 26 1.5C26 0.672566 26.6726 0 27.5 0C28.3274 0 29 0.672566 29 1.5Z" fill="white" fill-opacity="0.7"/>
<path d="M41 1.5C41 2.32743 40.3274 3 39.5 3C38.6726 3 38 2.32743 38 1.5C38 0.672566 38.677 0 39.5044 0C40.3319 0 41 0.672566 41 1.5Z" fill="white" fill-opacity="0.7"/>
<path d="M54 1.5C54 2.32743 53.3274 3 52.5 3C51.6726 3 51 2.32743 51 1.5C51 0.672566 51.6726 0 52.5 0C53.3274 0 54 0.672566 54 1.5Z" fill="white" fill-opacity="0.7"/>
<path d="M67 1.5C67 2.32743 66.3274 3 65.5 3C64.6726 3 64 2.32743 64 1.5C64 0.672566 64.6726 0 65.5 0C66.3274 0 67 0.672566 67 1.5Z" fill="white" fill-opacity="0.7"/>
<path d="M80 1.5C80 2.32743 79.3274 3 78.5 3C77.6726 3 77 2.32743 77 1.5C77 0.672566 77.6726 0 78.5044 0C79.3319 0 80 0.672566 80 1.5Z" fill="white" fill-opacity="0.7"/>
<path d="M92 1.5C92 2.32743 91.3274 3 90.5 3C89.6726 3 89 2.32743 89 1.5C89 0.672566 89.6726 0 90.5 0C91.3274 0 92 0.672566 92 1.5Z" fill="white" fill-opacity="0.7"/>
<path d="M105 1.5C105 2.32743 104.327 3 103.5 3C102.673 3 102 2.32743 102 1.5C102 0.672566 102.673 0 103.504 0C104.332 0 105 0.672566 105 1.5Z" fill="white" fill-opacity="0.7"/>
<path d="M118 1.5C118 2.32743 117.327 3 116.5 3C115.673 3 115 2.32743 115 1.5C115 0.672566 115.673 0 116.5 0C117.327 0 118 0.672566 118 1.5Z" fill="white" fill-opacity="0.7"/>
<path d="M131 1.5C131 2.32743 130.327 3 129.5 3C128.673 3 128 2.32743 128 1.5C128 0.672566 128.673 0 129.5 0C130.327 0 131 0.672566 131 1.5Z" fill="white" fill-opacity="0.7"/>
<path d="M143 1.5C143 2.32743 142.327 3 141.5 3C140.673 3 140 2.32743 140 1.5C140 0.672566 140.677 0 141.504 0C142.332 0 143 0.672566 143 1.5Z" fill="white" fill-opacity="0.7"/>
<path d="M156 1.5C156 2.32743 155.327 3 154.5 3C153.673 3 153 2.32743 153 1.5C153 0.672566 153.673 0 154.5 0C155.327 0 156 0.672566 156 1.5Z" fill="white" fill-opacity="0.7"/>
<path d="M16 26.5C16 27.3274 15.3274 28 14.5 28C13.6726 28 13 27.3274 13 26.5C13 25.6726 13.6726 25 14.5 25C15.3274 25 16 25.6726 16 26.5Z" fill="white" fill-opacity="0.7"/>
<path d="M3 26.5C3 27.3274 2.32743 28 1.5 28C0.672566 28 0 27.3274 0 26.5C0 25.6726 0.672566 25 1.5 25C2.32743 25 3 25.6726 3 26.5Z" fill="white" fill-opacity="0.7"/>
<path d="M29 26.5C29 27.3274 28.3274 28 27.5 28C26.6726 28 26 27.3274 26 26.5C26 25.6726 26.6726 25 27.5 25C28.3274 25 29 25.6726 29 26.5Z" fill="white" fill-opacity="0.7"/>
<path d="M41 26.5C41 27.3274 40.3274 28 39.5 28C38.6726 28 38 27.3274 38 26.5C38 25.6726 38.6726 25 39.5 25C40.3319 25 41 25.6726 41 26.5Z" fill="white" fill-opacity="0.7"/>
<path d="M54 26.5C54 27.3274 53.3274 28 52.5 28C51.6726 28 51 27.3274 51 26.5C51 25.6726 51.6726 25 52.5 25C53.3274 25 54 25.6726 54 26.5Z" fill="white" fill-opacity="0.7"/>
<path d="M67 26.5C67 27.3274 66.3274 28 65.5 28C64.6726 28 64 27.3274 64 26.5C64 25.6726 64.6726 25 65.5 25C66.3274 25 67 25.6726 67 26.5Z" fill="white" fill-opacity="0.7"/>
<path d="M80 26.5C80 27.3274 79.3274 28 78.5 28C77.6726 28 77 27.3274 77 26.5C77 25.6726 77.6726 25 78.5 25C79.3319 25 80 25.6726 80 26.5Z" fill="white" fill-opacity="0.7"/>
<path d="M92 26.5C92 27.3274 91.3274 28 90.5 28C89.6726 28 89 27.3274 89 26.5C89 25.6726 89.6726 25 90.5 25C91.3274 25 92 25.6726 92 26.5Z" fill="white" fill-opacity="0.7"/>
<path d="M105 26.5C105 27.3274 104.327 28 103.5 28C102.673 28 102 27.3274 102 26.5C102 25.6726 102.673 25 103.5 25C104.332 25 105 25.6726 105 26.5Z" fill="white" fill-opacity="0.7"/>
<path d="M118 26.5C118 27.3274 117.327 28 116.5 28C115.673 28 115 27.3274 115 26.5C115 25.6726 115.673 25 116.5 25C117.327 25 118 25.6726 118 26.5Z" fill="white" fill-opacity="0.7"/>
<path d="M131 26.5C131 27.3274 130.327 28 129.5 28C128.673 28 128 27.3274 128 26.5C128 25.6726 128.673 25 129.5 25C130.327 25 131 25.6726 131 26.5Z" fill="white" fill-opacity="0.7"/>
<path d="M143 26.5C143 27.3274 142.327 28 141.5 28C140.673 28 140 27.3274 140 26.5C140 25.6726 140.673 25 141.5 25C142.327 25 143 25.6726 143 26.5Z" fill="white" fill-opacity="0.7"/>
<path d="M156 26.5C156 27.3274 155.327 28 154.5 28C153.673 28 153 27.3274 153 26.5C153 25.6726 153.673 25 154.5 25C155.327 25 156 25.6726 156 26.5Z" fill="white" fill-opacity="0.7"/>
<path d="M16 39.5C16 40.3274 15.3274 41 14.5 41C13.6726 41 13 40.3274 13 39.5C13 38.6726 13.6726 38 14.5 38C15.3274 38 16 38.6681 16 39.5Z" fill="white" fill-opacity="0.7"/>
<path d="M3 39.5C3 40.3274 2.32743 41 1.5 41C0.672566 41 0 40.3274 0 39.5C0 38.6726 0.672566 38 1.5 38C2.32743 38 3 38.6681 3 39.5Z" fill="white" fill-opacity="0.7"/>
<path d="M29 39.5C29 40.3274 28.3274 41 27.5 41C26.6726 41 26 40.3274 26 39.5C26 38.6726 26.6726 38 27.5 38C28.3274 38 29 38.6681 29 39.5Z" fill="white" fill-opacity="0.7"/>
<path d="M41 39.5C41 40.3274 40.3274 41 39.5 41C38.6726 41 38 40.3274 38 39.5C38 38.6726 38.6726 38 39.5 38C40.3319 38 41 38.6681 41 39.5Z" fill="white" fill-opacity="0.7"/>
<path d="M54 39.5C54 40.3274 53.3274 41 52.5 41C51.6726 41 51 40.3274 51 39.5C51 38.6726 51.6726 38 52.5 38C53.3274 38 54 38.6681 54 39.5Z" fill="white" fill-opacity="0.7"/>
<path d="M67 39.5C67 40.3274 66.3274 41 65.5 41C64.6726 41 64 40.3274 64 39.5C64 38.6726 64.6726 38 65.5 38C66.3274 38 67 38.6681 67 39.5Z" fill="white" fill-opacity="0.7"/>
<path d="M80 39.5C80 40.3274 79.3274 41 78.5 41C77.6726 41 77 40.3274 77 39.5C77 38.6726 77.6726 38 78.5 38C79.3319 38 80 38.6681 80 39.5Z" fill="white" fill-opacity="0.7"/>
<path d="M92 39.5C92 40.3274 91.3274 41 90.5 41C89.6726 41 89 40.3274 89 39.5C89 38.6726 89.6726 38 90.5 38C91.3274 38 92 38.6681 92 39.5Z" fill="white" fill-opacity="0.7"/>
<path d="M105 39.5C105 40.3274 104.327 41 103.5 41C102.673 41 102 40.3274 102 39.5C102 38.6726 102.673 38 103.5 38C104.332 38 105 38.6681 105 39.5Z" fill="white" fill-opacity="0.7"/>
<path d="M118 39.5C118 40.3274 117.327 41 116.5 41C115.673 41 115 40.3274 115 39.5C115 38.6726 115.673 38 116.5 38C117.327 38 118 38.6681 118 39.5Z" fill="white" fill-opacity="0.7"/>
<path d="M131 39.5C131 40.3274 130.327 41 129.5 41C128.673 41 128 40.3274 128 39.5C128 38.6726 128.673 38 129.5 38C130.327 38 131 38.6681 131 39.5Z" fill="white" fill-opacity="0.7"/>
<path d="M143 39.5C143 40.3274 142.327 41 141.5 41C140.673 41 140 40.3274 140 39.5C140 38.6726 140.673 38 141.5 38C142.327 38 143 38.6681 143 39.5Z" fill="white" fill-opacity="0.7"/>
<path d="M156 39.5C156 40.3274 155.327 41 154.5 41C153.673 41 153 40.3274 153 39.5C153 38.6726 153.673 38 154.5 38C155.327 38 156 38.6681 156 39.5Z" fill="white" fill-opacity="0.7"/>
<path d="M16 52.5C16 53.3274 15.3274 54 14.5 54C13.6726 54 13 53.3274 13 52.5C13 51.6726 13.6726 51 14.5 51C15.3274 51 16 51.6681 16 52.5Z" fill="white" fill-opacity="0.7"/>
<path d="M3 52.5C3 53.3274 2.32743 54 1.5 54C0.672566 54 0 53.3274 0 52.5C0 51.6726 0.672566 51 1.5 51C2.32743 51 3 51.6681 3 52.5Z" fill="white" fill-opacity="0.7"/>
<path d="M29 52.5C29 53.3274 28.3274 54 27.5 54C26.6726 54 26 53.3274 26 52.5C26 51.6726 26.6726 51 27.5 51C28.3274 51 29 51.6681 29 52.5Z" fill="white" fill-opacity="0.7"/>
<path d="M41 52.5C41 53.3274 40.3274 54 39.5 54C38.6726 54 38 53.3274 38 52.5C38 51.6726 38.6726 51 39.5 51C40.3319 51 41 51.6681 41 52.5Z" fill="white" fill-opacity="0.7"/>
<path d="M54 52.5C54 53.3274 53.3274 54 52.5 54C51.6726 54 51 53.3274 51 52.5C51 51.6726 51.6726 51 52.5 51C53.3274 51 54 51.6681 54 52.5Z" fill="white" fill-opacity="0.7"/>
<path d="M67 52.5C67 53.3274 66.3274 54 65.5 54C64.6726 54 64 53.3274 64 52.5C64 51.6726 64.6726 51 65.5 51C66.3274 51 67 51.6681 67 52.5Z" fill="white" fill-opacity="0.7"/>
<path d="M80 52.5C80 53.3274 79.3274 54 78.5 54C77.6726 54 77 53.3274 77 52.5C77 51.6726 77.6726 51 78.5 51C79.3319 51 80 51.6681 80 52.5Z" fill="white" fill-opacity="0.7"/>
<path d="M92 52.5C92 53.3274 91.3274 54 90.5 54C89.6726 54 89 53.3274 89 52.5C89 51.6726 89.6726 51 90.5 51C91.3274 51 92 51.6681 92 52.5Z" fill="white" fill-opacity="0.7"/>
<path d="M105 52.5C105 53.3274 104.327 54 103.5 54C102.673 54 102 53.3274 102 52.5C102 51.6726 102.673 51 103.5 51C104.332 51 105 51.6681 105 52.5Z" fill="white" fill-opacity="0.7"/>
<path d="M118 52.5C118 53.3274 117.327 54 116.5 54C115.673 54 115 53.3274 115 52.5C115 51.6726 115.673 51 116.5 51C117.327 51 118 51.6681 118 52.5Z" fill="white" fill-opacity="0.7"/>
<path d="M131 52.5C131 53.3274 130.327 54 129.5 54C128.673 54 128 53.3274 128 52.5C128 51.6726 128.673 51 129.5 51C130.327 51 131 51.6681 131 52.5Z" fill="white" fill-opacity="0.7"/>
<path d="M143 52.5C143 53.3274 142.327 54 141.5 54C140.673 54 140 53.3274 140 52.5C140 51.6726 140.673 51 141.5 51C142.327 51 143 51.6681 143 52.5Z" fill="white" fill-opacity="0.7"/>
<path d="M156 52.5C156 53.3274 155.327 54 154.5 54C153.673 54 153 53.3274 153 52.5C153 51.6726 153.673 51 154.5 51C155.327 51 156 51.6681 156 52.5Z" fill="white" fill-opacity="0.7"/>
<path d="M16 64.5C16 65.3274 15.3274 66 14.5 66C13.6726 66 13 65.3274 13 64.5C13 63.6726 13.6726 63 14.5 63C15.3274 63 16 63.6681 16 64.5Z" fill="white" fill-opacity="0.7"/>
<path d="M3 64.5C3 65.3274 2.32743 66 1.5 66C0.672566 66 0 65.3274 0 64.5C0 63.6726 0.672566 63 1.5 63C2.32743 63 3 63.6681 3 64.5Z" fill="white" fill-opacity="0.7"/>
<path d="M29 64.5C29 65.3274 28.3274 66 27.5 66C26.6726 66 26 65.3274 26 64.5C26 63.6726 26.6726 63 27.5 63C28.3274 63 29 63.6681 29 64.5Z" fill="white" fill-opacity="0.7"/>
<path d="M41 64.5C41 65.3274 40.3274 66 39.5 66C38.6726 66 38 65.3274 38 64.5C38 63.6726 38.6726 63 39.5 63C40.3319 63 41 63.6681 41 64.5Z" fill="white" fill-opacity="0.7"/>
<path d="M54 64.5C54 65.3274 53.3274 66 52.5 66C51.6726 66 51 65.3274 51 64.5C51 63.6726 51.6726 63 52.5 63C53.3274 63 54 63.6681 54 64.5Z" fill="white" fill-opacity="0.7"/>
<path d="M67 64.5C67 65.3274 66.3274 66 65.5 66C64.6726 66 64 65.3274 64 64.5C64 63.6726 64.6726 63 65.5 63C66.3274 63 67 63.6681 67 64.5Z" fill="white" fill-opacity="0.7"/>
<path d="M80 64.5C80 65.3274 79.3274 66 78.5 66C77.6726 66 77 65.3274 77 64.5C77 63.6726 77.6726 63 78.5 63C79.3319 63 80 63.6681 80 64.5Z" fill="white" fill-opacity="0.7"/>
<path d="M92 64.5C92 65.3274 91.3274 66 90.5 66C89.6726 66 89 65.3274 89 64.5C89 63.6726 89.6726 63 90.5 63C91.3274 63 92 63.6681 92 64.5Z" fill="white" fill-opacity="0.7"/>
<path d="M105 64.5C105 65.3274 104.327 66 103.5 66C102.673 66 102 65.3274 102 64.5C102 63.6726 102.673 63 103.5 63C104.332 63 105 63.6681 105 64.5Z" fill="white" fill-opacity="0.7"/>
<path d="M118 64.5C118 65.3274 117.327 66 116.5 66C115.673 66 115 65.3274 115 64.5C115 63.6726 115.673 63 116.5 63C117.327 63 118 63.6681 118 64.5Z" fill="white" fill-opacity="0.7"/>
<path d="M131 64.5C131 65.3274 130.327 66 129.5 66C128.673 66 128 65.3274 128 64.5C128 63.6726 128.673 63 129.5 63C130.327 63 131 63.6681 131 64.5Z" fill="white" fill-opacity="0.7"/>
<path d="M143 64.5C143 65.3274 142.327 66 141.5 66C140.673 66 140 65.3274 140 64.5C140 63.6726 140.673 63 141.5 63C142.327 63 143 63.6681 143 64.5Z" fill="white" fill-opacity="0.7"/>
<path d="M156 64.5C156 65.3274 155.327 66 154.5 66C153.673 66 153 65.3274 153 64.5C153 63.6726 153.673 63 154.5 63C155.327 63 156 63.6681 156 64.5Z" fill="white" fill-opacity="0.7"/>
</g>
</g>
<defs>
<clipPath id="clip0_1946_12322">
<rect width="162" height="73" fill="white"/>
</clipPath>
<clipPath id="clip1_1946_12322">
<rect width="258" height="396" fill="white"/>
</clipPath>
</defs>
</svg>
