<svg width="61" height="127" viewBox="0 0 61 127" fill="none" xmlns="http://www.w3.org/2000/svg">
<mask id="mask0_2074_16847" style="mask-type:luminance" maskUnits="userSpaceOnUse" x="11" y="54" width="34" height="29">
<path d="M36.0859 81.6284L43.8359 68.6284L36.0859 55.6284H20.5859L12.8359 68.6284L20.5859 81.6284H36.0859Z" fill="white" stroke="white" stroke-width="2" stroke-linejoin="round"/>
<path d="M28.3359 72.4522C29.3637 72.4522 30.3493 72.0494 31.076 71.3323C31.8027 70.6153 32.2109 69.6428 32.2109 68.6287C32.2109 67.6146 31.8027 66.6421 31.076 65.9251C30.3493 65.208 29.3637 64.8052 28.3359 64.8052C27.3082 64.8052 26.3226 65.208 25.5959 65.9251C24.8692 66.6421 24.4609 67.6146 24.4609 68.6287C24.4609 69.6428 24.8692 70.6153 25.5959 71.3323C26.3226 72.0494 27.3082 72.4522 28.3359 72.4522Z" fill="black" stroke="black" stroke-width="2" stroke-linejoin="round"/>
</mask>
<g mask="url(#mask0_2074_16847)">
<path d="M9.73535 50.2754H46.9354V86.9813H9.73535V50.2754Z" fill="white" fill-opacity="0.4"/>
</g>
<mask id="mask1_2074_16847" style="mask-type:luminance" maskUnits="userSpaceOnUse" x="0" y="13" width="13" height="14">
<path d="M12.0891 21.9706L10.7427 16.2807L5.12175 14.6681L0.847225 18.7455L2.19363 24.4354L7.81456 26.048L12.0891 21.9706Z" fill="white" stroke="white" stroke-width="1.70458" stroke-linejoin="round"/>
<path d="M7.49124 21.4314C7.7746 21.1612 7.93843 20.7888 7.94668 20.3963C7.95494 20.0039 7.80694 19.6234 7.53525 19.3386C7.26356 19.0539 6.89044 18.8882 6.49796 18.8779C6.10548 18.8677 5.7258 19.0138 5.44244 19.2841C5.15908 19.5544 4.99525 19.9267 4.98699 20.3192C4.97874 20.7117 5.12674 21.0921 5.39842 21.3769C5.67011 21.6617 6.04324 21.8274 6.43571 21.8376C6.82819 21.8478 7.20788 21.7017 7.49124 21.4314Z" fill="black" stroke="black" stroke-width="1.70458" stroke-linejoin="round"/>
</mask>
<g mask="url(#mask1_2074_16847)">
<path d="M-3.57617 20.0952L6.68063 10.3115L16.5148 20.6188L6.25804 30.4025L-3.57617 20.0952Z" fill="white" fill-opacity="0.2"/>
</g>
<mask id="mask2_2074_16847" style="mask-type:luminance" maskUnits="userSpaceOnUse" x="3" y="93" width="13" height="14">
<path d="M14.5049 103.062L14.5264 97.1671L9.46239 93.9861L4.37678 96.6998L4.35524 102.594L9.41929 105.775L14.5049 103.062Z" fill="white" stroke="white" stroke-width="1.70458" stroke-linejoin="round"/>
<path d="M10.1792 101.211C10.5156 101.032 10.7602 100.72 10.8593 100.343C10.9584 99.9664 10.9039 99.5565 10.7077 99.2034C10.5116 98.8504 10.1898 98.5831 9.81326 98.4603C9.4367 98.3376 9.0362 98.3694 8.69985 98.5489C8.3635 98.7284 8.11886 99.0407 8.01974 99.4173C7.92062 99.7938 7.97515 100.204 8.17132 100.557C8.3675 100.91 8.68926 101.177 9.06581 101.3C9.44236 101.423 9.84287 101.391 10.1792 101.211Z" fill="black" stroke="black" stroke-width="1.70458" stroke-linejoin="round"/>
</mask>
<g mask="url(#mask2_2074_16847)">
<path d="M-0.195312 96.7842L12.0275 90.2418L19.0805 102.975L6.85764 109.518L-0.195312 96.7842Z" fill="white" fill-opacity="0.2"/>
</g>
<mask id="mask3_2074_16847" style="mask-type:luminance" maskUnits="userSpaceOnUse" x="22" y="108" width="14" height="14">
<path d="M34.2141 116.971L32.8677 111.281L27.2468 109.668L22.9722 113.745L24.3186 119.435L29.9396 121.048L34.2141 116.971Z" fill="white" stroke="white" stroke-width="1.70458" stroke-linejoin="round"/>
<path d="M29.6162 116.431C29.8996 116.161 30.0634 115.789 30.0717 115.396C30.0799 115.004 29.9319 114.623 29.6603 114.339C29.3886 114.054 29.0154 113.888 28.623 113.878C28.2305 113.868 27.8508 114.014 27.5674 114.284C27.2841 114.554 27.1202 114.927 27.112 115.319C27.1037 115.712 27.2517 116.092 27.5234 116.377C27.7951 116.662 28.1682 116.827 28.5607 116.838C28.9532 116.848 29.3329 116.702 29.6162 116.431Z" fill="black" stroke="black" stroke-width="1.70458" stroke-linejoin="round"/>
</mask>
<g mask="url(#mask3_2074_16847)">
<path d="M18.5488 115.095L28.8056 105.311L38.6398 115.619L28.383 125.403L18.5488 115.095Z" fill="white" fill-opacity="0.2"/>
</g>
<mask id="mask4_2074_16847" style="mask-type:luminance" maskUnits="userSpaceOnUse" x="44" y="80" width="13" height="13">
<path d="M55.9084 84.8108L52.0345 80.9959L46.583 82.5082L45.0055 87.8354L48.8795 91.6503L54.3309 90.138L55.9084 84.8108Z" fill="white" stroke="white" stroke-width="1.70458" stroke-linejoin="round"/>
<path d="M51.8338 86.6632C51.9389 86.3086 51.8945 85.9327 51.7104 85.6182C51.5263 85.3037 51.2176 85.0763 50.8521 84.9861C50.4867 84.896 50.0945 84.9504 49.7617 85.1374C49.429 85.3243 49.183 85.6286 49.0779 85.9832C48.9728 86.3378 49.0172 86.7138 49.2013 87.0283C49.3854 87.3428 49.6941 87.5701 50.0596 87.6603C50.425 87.7505 50.8172 87.6961 51.15 87.5091C51.4827 87.3221 51.7287 87.0178 51.8338 86.6632Z" fill="black" stroke="black" stroke-width="1.70458" stroke-linejoin="round"/>
</mask>
<g mask="url(#mask4_2074_16847)">
<path d="M41.9365 90.9409L45.5351 78.2678L58.9786 81.7036L55.38 94.3767L41.9365 90.9409Z" fill="white" fill-opacity="0.2"/>
</g>
<mask id="mask5_2074_16847" style="mask-type:luminance" maskUnits="userSpaceOnUse" x="37" y="28" width="13" height="13">
<path d="M48.01 31.3597L42.7365 29.2531L38.4141 32.5665L39.3652 37.9864L44.6388 40.0929L48.9612 36.7795L48.01 31.3597Z" fill="white" stroke="white" stroke-width="1.70458" stroke-linejoin="round"/>
<path d="M45.1036 34.4959C45.0403 34.1352 44.8301 33.8081 44.5194 33.5865C44.2087 33.3649 43.8229 33.267 43.4468 33.3142C43.0708 33.3614 42.7353 33.55 42.5142 33.8384C42.2931 34.1268 42.2045 34.4915 42.2679 34.8521C42.3313 35.2128 42.5414 35.5399 42.8521 35.7615C43.1629 35.9831 43.5487 36.081 43.9247 36.0338C44.3008 35.9865 44.6362 35.798 44.8573 35.5096C45.0784 35.2211 45.167 34.8565 45.1036 34.4959Z" fill="black" stroke="black" stroke-width="1.70458" stroke-linejoin="round"/>
</mask>
<g mask="url(#mask5_2074_16847)">
<path d="M37.7764 42.0571L35.7307 29.1789L49.5967 27.2869L51.6424 40.1651L37.7764 42.0571Z" fill="white" fill-opacity="0.2"/>
</g>
<mask id="mask6_2074_16847" style="mask-type:luminance" maskUnits="userSpaceOnUse" x="22" y="0" width="14" height="13">
<path d="M31.4847 11.5489L34.9727 6.64187L32.6944 1.2921L26.9281 0.849318L23.4401 5.75631L25.7184 11.1061L31.4847 11.5489Z" fill="white" stroke="white" stroke-width="1.70458" stroke-linejoin="round"/>
<path d="M29.0283 7.70131C29.4093 7.73057 29.7934 7.60023 30.096 7.33896C30.3987 7.0777 30.5951 6.7069 30.6421 6.30815C30.6891 5.9094 30.5829 5.51536 30.3467 5.21271C30.1106 4.91005 29.7638 4.72359 29.3828 4.69432C29.0018 4.66506 28.6178 4.7954 28.3151 5.05666C28.0125 5.31793 27.816 5.68873 27.769 6.08748C27.722 6.48623 27.8283 6.88027 28.0644 7.18292C28.3006 7.48557 28.6473 7.67204 29.0283 7.70131Z" fill="black" stroke="black" stroke-width="1.70458" stroke-linejoin="round"/>
</mask>
<g mask="url(#mask6_2074_16847)">
<path d="M22.9424 -1.54736L36.9537 -0.325059L35.4722 13.9454L21.4609 12.7231L22.9424 -1.54736Z" fill="white" fill-opacity="0.2"/>
</g>
<rect x="27.8359" y="92.6284" width="4" height="4" fill="white" fill-opacity="0.2"/>
<rect x="22.8359" y="38.6284" width="4" height="4" fill="white" fill-opacity="0.2"/>
<rect x="20.8359" y="23.6284" width="4" height="4" fill="white" fill-opacity="0.2"/>
<rect x="33.8359" y="46.6284" width="4" height="4" fill="white" fill-opacity="0.2"/>
<rect x="50.8359" y="49.6284" width="4" height="4" fill="white" fill-opacity="0.2"/>
<rect x="41.8359" y="16.6284" width="4" height="4" fill="white" fill-opacity="0.2"/>
<rect x="49.8359" y="105.628" width="4" height="4" fill="white" fill-opacity="0.2"/>
<rect x="1.83594" y="44.6284" width="4" height="4" fill="white" fill-opacity="0.2"/>
<rect x="15.8359" y="122.628" width="4" height="4" fill="white" fill-opacity="0.2"/>
<rect x="45.8359" y="118.628" width="4" height="4" fill="white" fill-opacity="0.2"/>
</svg>
