<svg width="40" height="40" viewBox="0 0 40 40" fill="none" xmlns="http://www.w3.org/2000/svg">
<g clip-path="url(#clip0_57_32)">
<path d="M31.5262 27.8529H11.8543C11.2763 27.8529 10.8077 27.3843 10.8077 26.8063V1.6325C10.8077 1.05445 11.2763 0.585938 11.8543 0.585938H31.5262C32.1042 0.585938 32.5727 1.05453 32.5727 1.6325V26.8062C32.5727 27.3843 32.1042 27.8529 31.5262 27.8529Z" fill="#C8EFFE"/>
<path d="M32.5727 1.63281V26.8062C32.5727 27.3844 32.1039 27.8531 31.5258 27.8531H29.6422C30.2203 27.8531 30.6891 27.3844 30.6891 26.8062V1.63281C30.6891 1.05469 30.2203 0.585938 29.6422 0.585938H31.5258C32.1039 0.585938 32.5727 1.05469 32.5727 1.63281Z" fill="#99E6FC"/>
<path d="M25.6819 31.2653H6.01006C5.43202 31.2653 4.9635 30.7967 4.9635 30.2187V5.04491C4.9635 4.46687 5.43209 3.99835 6.01006 3.99835H25.6819C26.26 3.99835 26.7285 4.46695 26.7285 5.04491V30.2187C26.7286 30.7967 26.26 31.2653 25.6819 31.2653Z" fill="#EAF6FF"/>
<path d="M26.729 5.04451V30.2187C26.729 30.7969 26.2602 31.2656 25.6821 31.2656H23.8368C24.4149 31.2656 24.8837 30.7969 24.8837 30.2187V5.04451C24.8837 4.46716 24.4149 3.99841 23.8368 3.99841H25.6821C26.2602 3.99841 26.729 4.46716 26.729 5.04451Z" fill="#C8EFFE"/>
<path d="M35.1164 14.8703V34.8906C35.1164 36.3641 33.9219 37.5586 32.4485 37.5586H5.08831C3.61409 37.5586 2.41956 36.3641 2.41956 34.8906V19.5399C2.41956 18.0664 3.61409 16.8719 5.08831 16.8719H17.3492C18.3485 16.8719 19.2571 16.2914 19.6774 15.3844L20.1688 14.3242C20.5891 13.4172 21.4977 12.8367 22.4969 12.8367H33.0828C34.2063 12.8367 35.1164 13.7469 35.1164 14.8703Z" fill="#FFD15B"/>
<path d="M35.1165 14.8703V34.8906C35.1165 36.3641 33.9219 37.5586 32.4485 37.5586H30.5126C31.986 37.5586 33.1805 36.3641 33.1805 34.8906V14.8703C33.1805 13.7469 32.2704 12.8367 31.1477 12.8367H33.0829C34.2063 12.8367 35.1165 13.7469 35.1165 14.8703Z" fill="#FEB137"/>
<path d="M35.1164 23.9828V34.8906C35.1164 36.364 33.9219 37.5586 32.4485 37.5586H19.0508C18.8219 37.1039 18.693 36.5906 18.693 36.0469V25.8148C18.693 23.9554 20.2008 22.4476 22.0602 22.4476H32.2914C33.4758 22.4476 34.5164 23.0586 35.1164 23.9828Z" fill="#FEB137"/>
<path d="M34.213 39.414H23.9815C22.1218 39.414 20.6141 37.9065 20.6141 36.0467V25.8152C20.6141 23.9555 22.1217 22.4479 23.9815 22.4479H34.213C36.0727 22.4479 37.5803 23.9555 37.5803 25.8152V36.0467C37.5803 37.9065 36.0727 39.414 34.213 39.414Z" fill="#0593FC"/>
<path d="M34.213 22.4479H32.2917C34.1514 22.4479 35.6591 23.9555 35.6591 25.8152V36.0467C35.6591 37.9064 34.1515 39.414 32.2917 39.414H34.213C36.0727 39.414 37.5803 37.9065 37.5803 36.0467V25.8152C37.5803 23.9555 36.0727 22.4479 34.213 22.4479Z" fill="#0181FA"/>
<path d="M33.3375 32.1777L30.299 35.9641C29.6822 36.7327 28.5123 36.7327 27.8955 35.9641L24.8569 32.1777C24.103 31.2878 24.8009 29.8181 25.9725 29.8521H27.1509V26.0904C27.1509 25.6657 27.4951 25.3214 27.9198 25.3214H30.2744C30.6991 25.3214 31.0434 25.6657 31.0434 26.0904V29.8521H32.2218C33.3933 29.8181 34.0916 31.2877 33.3375 32.1777Z" fill="#C8EFFE"/>
<path d="M33.3375 32.1777L30.299 35.9641C29.6822 36.7327 28.5122 36.7327 27.8954 35.9641L27.7269 35.7541C28.1852 35.7645 28.6473 35.574 28.9638 35.1795L31.4161 32.1777C32.1701 31.2877 31.4719 29.8181 30.3005 29.8521H29.7859C29.4194 29.8521 29.1222 29.5549 29.1222 29.1884V26.0904C29.1222 25.6657 28.7779 25.3214 28.3532 25.3214H30.2744C30.6991 25.3214 31.0434 25.6657 31.0434 26.0904V29.8521H32.2218C33.3933 29.8181 34.0915 31.2877 33.3375 32.1777Z" fill="#99E6FC"/>
<path d="M15.3071 25.643H6.83018C6.29643 25.643 5.86377 25.2103 5.86377 24.6765V23.4143C5.86377 22.8805 6.29643 22.4479 6.83018 22.4479H15.3071C15.8408 22.4479 16.2735 22.8805 16.2735 23.4143V24.6765C16.2735 25.2103 15.8408 25.643 15.3071 25.643Z" fill="#EAF6FF"/>
<path d="M16.2734 23.414V24.6765C16.2734 25.2101 15.8406 25.6429 15.307 25.6429H13.7523C14.2867 25.6429 14.7187 25.2101 14.7187 24.6765V23.414C14.7187 22.8804 14.2867 22.4476 13.7523 22.4476H15.307C15.8406 22.4476 16.2734 22.8804 16.2734 23.414Z" fill="#C8EFFE"/>
<path d="M12.9356 9.34834H9.20158C8.61314 9.34834 8.13611 8.87131 8.13611 8.28288C8.13611 7.69444 8.61314 7.21741 9.20158 7.21741H12.9356C13.5241 7.21741 14.0011 7.69444 14.0011 8.28288C14.0011 8.87131 13.5241 9.34834 12.9356 9.34834Z" fill="#0593FC"/>
<path d="M14.0008 8.28279C14.0008 8.57654 13.8812 8.84373 13.6891 9.03591C13.4961 9.22888 13.2297 9.34841 12.9359 9.34841H11.3516C11.6461 9.34841 11.9125 9.22888 12.1055 9.03591C12.2984 8.84373 12.4172 8.57654 12.4172 8.28279C12.4172 7.69451 11.9406 7.21716 11.3516 7.21716H12.9359C13.5242 7.21716 14.0008 7.69451 14.0008 8.28279Z" fill="#0181FA"/>
<path d="M35.7024 22.1542V14.8701C35.7024 13.4259 34.5274 12.2509 33.0831 12.2509H27.3146V5.04492C27.3146 4.14477 26.5822 3.41242 25.6821 3.41242H11.3935V1.6325C11.3935 1.37852 11.6003 1.17188 11.8542 1.17188H31.5261C31.7801 1.17188 31.9868 1.37859 31.9868 1.6325V10.0748C31.9868 10.3984 32.249 10.6607 32.5727 10.6607C32.8964 10.6607 33.1586 10.3984 33.1586 10.0748V1.6325C33.1587 0.732344 32.4264 0 31.5261 0H11.8542C10.954 0 10.2217 0.732344 10.2217 1.6325V3.41234H6.01011C5.10996 3.41234 4.37761 4.14469 4.37761 5.04484V16.3645C2.92394 16.6896 1.83386 17.9893 1.83386 19.5396V34.8905C1.83386 36.6849 3.29371 38.1447 5.088 38.1447H18.0181C18.3418 38.1447 18.604 37.8824 18.604 37.5588C18.604 37.2351 18.3418 36.9728 18.0181 36.9728H5.088C3.93988 36.9728 3.00574 36.0387 3.00574 34.8905V19.5397C3.00574 18.3916 3.9398 17.4574 5.08792 17.4574H17.3491C18.5721 17.4574 19.6947 16.7404 20.2089 15.6307L20.7003 14.5702C21.0234 13.8731 21.7286 13.4227 22.497 13.4227H33.083C33.8811 13.4227 34.5304 14.072 34.5304 14.8701V21.8759C34.4256 21.8675 34.3199 21.862 34.2129 21.862H23.9814C21.8017 21.862 20.0282 23.6354 20.0282 25.8152V36.0468C20.0282 38.2266 21.8016 40.0001 23.9814 40.0001H34.213C36.3928 40.0001 38.1663 38.2266 38.1663 36.0468V25.8152C38.1662 24.1622 37.146 22.7437 35.7024 22.1542ZM19.6371 14.0775L19.1457 15.138C18.8227 15.8351 18.1175 16.2855 17.3491 16.2855H5.54941V5.04492C5.54941 4.79094 5.75613 4.5843 6.01003 4.5843H25.682C25.936 4.5843 26.1426 4.79102 26.1426 5.04492V12.2508H22.497C21.274 12.2509 20.1514 12.9678 19.6371 14.0775ZM36.9943 36.0467C36.9943 37.5804 35.7466 38.8281 34.2129 38.8281H23.9814C22.4478 38.8281 21.2 37.5804 21.2 36.0467V25.8152C21.2 24.2816 22.4478 23.0338 23.9814 23.0338H34.213C35.6144 22.9953 37.0303 24.284 36.9944 25.8152V36.0467H36.9943Z" fill="black"/>
<path d="M32.2142 29.2662H31.6295V26.0904C31.6295 25.3434 31.0217 24.7355 30.2746 24.7355H27.92C27.1728 24.7355 26.565 25.3433 26.565 26.0904V29.2662H25.9803C25.2096 29.247 24.5155 29.6853 24.1665 30.4106C23.816 31.1391 23.9074 31.958 24.4044 32.5498L27.4385 36.3308C27.8442 36.8364 28.4488 37.1264 29.0971 37.1264H29.0971C29.7455 37.1264 30.3501 36.8364 30.7559 36.3308L33.7899 32.5498C34.287 31.958 34.3784 31.1391 34.0279 30.4106C33.6789 29.6854 32.9857 29.2459 32.2142 29.2662ZM32.8904 31.7988C32.8871 31.8028 32.8837 31.8069 32.8804 31.8109L29.8419 35.5973C29.6597 35.8244 29.3882 35.9546 29.0971 35.9545C28.806 35.9545 28.5346 35.8244 28.3525 35.5973L25.3139 31.8109C25.3107 31.8068 25.3074 31.8028 25.304 31.7989C25.0665 31.5186 25.1062 31.1604 25.2224 30.9187C25.2774 30.8045 25.4889 30.4374 25.932 30.4374C25.9398 30.4374 25.9476 30.4376 25.9556 30.4378C25.9612 30.438 25.9669 30.4381 25.9725 30.4381H27.1509C27.4746 30.4381 27.7368 30.1758 27.7368 29.8521V26.0904C27.7368 25.9895 27.819 25.9073 27.92 25.9073H30.2746C30.3755 25.9073 30.4576 25.9895 30.4576 26.0904V29.8521C30.4576 30.1758 30.7199 30.4381 31.0435 30.4381H32.2219C32.2275 30.4381 32.2333 30.438 32.2389 30.4378C32.6992 30.4223 32.916 30.8027 32.972 30.9188C33.0882 31.1605 33.1278 31.5186 32.8904 31.7988Z" fill="black"/>
<path d="M6.83022 21.8619C5.97428 21.8619 5.27795 22.5583 5.27795 23.4143V24.6765C5.27795 25.5325 5.97428 26.2288 6.83022 26.2288H15.3072C16.1631 26.2288 16.8594 25.5325 16.8594 24.6765V23.4143C16.8594 22.5583 16.1631 21.8619 15.3072 21.8619H6.83022ZM15.6876 23.4143V24.6765C15.6876 24.8863 15.5169 25.0569 15.3072 25.0569H6.83022C6.62045 25.0569 6.44983 24.8862 6.44983 24.6765V23.4143C6.44983 23.2044 6.62053 23.0338 6.83022 23.0338H15.3072C15.5169 23.0338 15.6876 23.2045 15.6876 23.4143Z" fill="black"/>
<path d="M9.20158 9.93428H12.9356C13.8462 9.93428 14.587 9.1935 14.587 8.28288C14.587 7.37225 13.8463 6.63147 12.9356 6.63147H9.20158C8.29103 6.63147 7.55017 7.37225 7.55017 8.28288C7.55017 9.1935 8.29103 9.93428 9.20158 9.93428ZM9.20158 7.80342H12.9356C13.2001 7.80342 13.4152 8.0185 13.4152 8.28295C13.4152 8.54741 13.2001 8.76249 12.9356 8.76249H9.20158C8.93712 8.76249 8.72205 8.54741 8.72205 8.28295C8.72205 8.0185 8.9372 7.80342 9.20158 7.80342Z" fill="black"/>
<path d="M23.7028 7.69696H16.2826C15.9589 7.69696 15.6967 7.95923 15.6967 8.2829C15.6967 8.60657 15.9589 8.86884 16.2826 8.86884H23.7028C24.0265 8.86884 24.2888 8.60657 24.2888 8.2829C24.2888 7.95923 24.0265 7.69696 23.7028 7.69696Z" fill="black"/>
<path d="M17.4264 11.0236H12.5651C12.2414 11.0236 11.9791 11.2859 11.9791 11.6096C11.9791 11.9332 12.2414 12.1955 12.5651 12.1955H17.4264C17.7501 12.1955 18.0123 11.9332 18.0123 11.6096C18.0123 11.2859 17.75 11.0236 17.4264 11.0236Z" fill="black"/>
<path d="M8.13623 12.1955H9.79248C10.1162 12.1955 10.3784 11.9332 10.3784 11.6096C10.3784 11.2859 10.1162 11.0236 9.79248 11.0236H8.13623C7.81256 11.0236 7.55029 11.2859 7.55029 11.6096C7.55029 11.9332 7.81256 12.1955 8.13623 12.1955Z" fill="black"/>
<path d="M17.4265 13.4127H8.13623C7.81256 13.4127 7.55029 13.6749 7.55029 13.9986C7.55029 14.3223 7.81256 14.5845 8.13623 14.5845H17.4265C17.7501 14.5845 18.0124 14.3223 18.0124 13.9986C18.0124 13.6749 17.7501 13.4127 17.4265 13.4127Z" fill="black"/>
</g>
<defs>
<clipPath id="clip0_57_32">
<rect width="40" height="40" fill="white"/>
</clipPath>
</defs>
</svg>
