<svg width="46" height="46" viewBox="0 0 46 46" fill="none" xmlns="http://www.w3.org/2000/svg">
<path d="M36.289 28.7117C35.7172 27.798 35.4137 26.742 35.4131 25.6642V17.6832C35.4131 14.3907 34.1052 11.2331 31.7771 8.90497C29.4489 6.57685 26.2913 5.26892 22.9989 5.26892C19.7064 5.26892 16.5488 6.57685 14.2207 8.90497C11.8925 11.2331 10.5846 14.3907 10.5846 17.6832V25.6603C10.5848 26.7395 10.2812 27.7969 9.7087 28.7117L7.62337 32.0467C7.44204 32.3368 7.34167 32.6702 7.33269 33.0122C7.32371 33.3542 7.40644 33.6924 7.5723 33.9916C7.73816 34.2909 7.98109 34.5403 8.27588 34.7139C8.57067 34.8876 8.90657 34.9792 9.2487 34.9792H36.749C37.0912 34.9792 37.4271 34.8876 37.7219 34.7139C38.0167 34.5403 38.2596 34.2909 38.4254 33.9916C38.5913 33.6924 38.674 33.3542 38.665 33.0122C38.6561 32.6702 38.5557 32.3368 38.3744 32.0467L36.289 28.7117Z" stroke="#008E96" stroke-width="2" stroke-linecap="round" stroke-linejoin="round"/>
<path d="M19.1641 40.7292H26.8307" stroke="#008E96" stroke-width="2" stroke-linecap="round"/>
</svg>
