<svg width="46" height="46" viewBox="0 0 46 46" fill="none" xmlns="http://www.w3.org/2000/svg">
<path d="M9.58398 13.4167H15.334V9.58333L19.1673 5.75H24.9173L28.7507 9.58333V13.4167H34.5007C36.0256 13.4167 37.4882 14.0225 38.5665 15.1008C39.6449 16.1791 40.2507 17.6417 40.2507 19.1667V34.5C40.2507 36.025 39.6449 37.4875 38.5665 38.5659C37.4882 39.6442 36.0256 40.25 34.5007 40.25H9.58398C8.05899 40.25 6.59645 39.6442 5.51812 38.5659C4.43979 37.4875 3.83398 36.025 3.83398 34.5V19.1667C3.83398 17.6417 4.43979 16.1791 5.51812 15.1008C6.59645 14.0225 8.05899 13.4167 9.58398 13.4167ZM19.9532 7.66667L17.2507 10.3692V13.4167H26.834V10.3692L24.1315 7.66667H19.9532ZM9.58398 15.3333C8.56732 15.3333 7.5923 15.7372 6.87341 16.4561C6.15452 17.175 5.75065 18.15 5.75065 19.1667V34.5C5.75065 35.5167 6.15452 36.4917 6.87341 37.2106C7.5923 37.9295 8.56732 38.3333 9.58398 38.3333H34.5007C35.5173 38.3333 36.4923 37.9295 37.2112 37.2106C37.9301 36.4917 38.334 35.5167 38.334 34.5V19.1667C38.334 18.15 37.9301 17.175 37.2112 16.4561C36.4923 15.7372 35.5173 15.3333 34.5007 15.3333H9.58398Z" fill="#008E96"/>
</svg>
