<svg width="30" height="30" viewBox="0 0 30 30" fill="none" xmlns="http://www.w3.org/2000/svg">
<path d="M25.5455 24.9366H22.9091V5.06249H23.9231C24.0845 5.06249 24.2392 4.99839 24.3533 4.88429C24.4674 4.7702 24.5315 4.61545 24.5315 4.45409C24.5315 4.29274 24.4674 4.13799 24.3533 4.0239C24.2392 3.9098 24.0845 3.8457 23.9231 3.8457H6.07696C5.91561 3.8457 5.76086 3.9098 5.64676 4.0239C5.53267 4.13799 5.46857 4.29274 5.46857 4.45409C5.46857 4.61545 5.53267 4.7702 5.64676 4.88429C5.76086 4.99839 5.91561 5.06249 6.07696 5.06249H7.09095V24.9366H4.45458C4.29323 24.9366 4.13848 25.0007 4.02439 25.1148C3.91029 25.2289 3.84619 25.3836 3.84619 25.545C3.84619 25.7064 3.91029 25.8611 4.02439 25.9752C4.13848 26.0893 4.29323 26.1534 4.45458 26.1534H25.5455C25.7068 26.1534 25.8616 26.0893 25.9757 25.9752C26.0898 25.8611 26.1539 25.7064 26.1539 25.545C26.1539 25.3836 26.0898 25.2289 25.9757 25.1148C25.8616 25.0007 25.7068 24.9366 25.5455 24.9366ZM8.30773 5.06249H21.6923V24.9366H18.042V20.6779C18.042 20.5165 17.9779 20.3618 17.8638 20.2477C17.7497 20.1336 17.595 20.0695 17.4336 20.0695H12.5665C12.4051 20.0695 12.2504 20.1336 12.1363 20.2477C12.0222 20.3618 11.9581 20.5165 11.9581 20.6779V24.9366H8.30773V5.06249ZM16.8252 24.9366H13.1749V21.2863H16.8252V24.9366ZM11.1469 8.51004C11.1469 8.34868 11.211 8.19394 11.3251 8.07984C11.4392 7.96574 11.5939 7.90165 11.7553 7.90165H13.3777C13.539 7.90165 13.6938 7.96574 13.8079 8.07984C13.922 8.19394 13.9861 8.34868 13.9861 8.51004C13.9861 8.67139 13.922 8.82614 13.8079 8.94024C13.6938 9.05433 13.539 9.11843 13.3777 9.11843H11.7553C11.5939 9.11843 11.4392 9.05433 11.3251 8.94024C11.211 8.82614 11.1469 8.67139 11.1469 8.51004ZM16.014 8.51004C16.014 8.34868 16.0781 8.19394 16.1922 8.07984C16.3063 7.96574 16.4611 7.90165 16.6224 7.90165H18.2448C18.4061 7.90165 18.5609 7.96574 18.675 8.07984C18.7891 8.19394 18.8532 8.34868 18.8532 8.51004C18.8532 8.67139 18.7891 8.82614 18.675 8.94024C18.5609 9.05433 18.4061 9.11843 18.2448 9.11843H16.6224C16.4611 9.11843 16.3063 9.05433 16.1922 8.94024C16.0781 8.82614 16.014 8.67139 16.014 8.51004ZM11.1469 12.566C11.1469 12.4046 11.211 12.2499 11.3251 12.1358C11.4392 12.0217 11.5939 11.9576 11.7553 11.9576H13.3777C13.539 11.9576 13.6938 12.0217 13.8079 12.1358C13.922 12.2499 13.9861 12.4046 13.9861 12.566C13.9861 12.7273 13.922 12.8821 13.8079 12.9962C13.6938 13.1103 13.539 13.1744 13.3777 13.1744H11.7553C11.5939 13.1744 11.4392 13.1103 11.3251 12.9962C11.211 12.8821 11.1469 12.7273 11.1469 12.566ZM16.014 12.566C16.014 12.4046 16.0781 12.2499 16.1922 12.1358C16.3063 12.0217 16.4611 11.9576 16.6224 11.9576H18.2448C18.4061 11.9576 18.5609 12.0217 18.675 12.1358C18.7891 12.2499 18.8532 12.4046 18.8532 12.566C18.8532 12.7273 18.7891 12.8821 18.675 12.9962C18.5609 13.1103 18.4061 13.1744 18.2448 13.1744H16.6224C16.4611 13.1744 16.3063 13.1103 16.1922 12.9962C16.0781 12.8821 16.014 12.7273 16.014 12.566ZM11.7553 17.2303C11.5939 17.2303 11.4392 17.1662 11.3251 17.0521C11.211 16.938 11.1469 16.7833 11.1469 16.6219C11.1469 16.4606 11.211 16.3058 11.3251 16.1917C11.4392 16.0776 11.5939 16.0135 11.7553 16.0135H13.3777C13.539 16.0135 13.6938 16.0776 13.8079 16.1917C13.922 16.3058 13.9861 16.4606 13.9861 16.6219C13.9861 16.7833 13.922 16.938 13.8079 17.0521C13.6938 17.1662 13.539 17.2303 13.3777 17.2303H11.7553ZM16.014 16.6219C16.014 16.4606 16.0781 16.3058 16.1922 16.1917C16.3063 16.0776 16.4611 16.0135 16.6224 16.0135H18.2448C18.4061 16.0135 18.5609 16.0776 18.675 16.1917C18.7891 16.3058 18.8532 16.4606 18.8532 16.6219C18.8532 16.7833 18.7891 16.938 18.675 17.0521C18.5609 17.1662 18.4061 17.2303 18.2448 17.2303H16.6224C16.4611 17.2303 16.3063 17.1662 16.1922 17.0521C16.0781 16.938 16.014 16.7833 16.014 16.6219Z" fill="#008E96"/>
</svg>
