<svg width="46" height="46" viewBox="0 0 46 46" fill="none" xmlns="http://www.w3.org/2000/svg">
<path d="M36.125 9.4H30.875V6.85C30.875 6.62457 30.7828 6.40837 30.6187 6.24896C30.4546 6.08955 30.2321 6 30 6C29.7679 6 29.5454 6.08955 29.3813 6.24896C29.2172 6.40837 29.125 6.62457 29.125 6.85V9.4H16.875V6.85C16.875 6.62457 16.7828 6.40837 16.6187 6.24896C16.4546 6.08955 16.2321 6 16 6C15.7679 6 15.5454 6.08955 15.3813 6.24896C15.2172 6.40837 15.125 6.62457 15.125 6.85V9.4H9.875C8.7151 9.40135 7.60311 9.84955 6.78294 10.6463C5.96277 11.443 5.50139 12.5232 5.5 13.65V35.75C5.50139 36.8768 5.96277 37.957 6.78294 38.7537C7.60311 39.5504 8.7151 39.9986 9.875 40H36.125C37.2853 40 38.3981 39.5522 39.2186 38.7552C40.0391 37.9582 40.5 36.8772 40.5 35.75V13.65C40.5 12.5228 40.0391 11.4418 39.2186 10.6448C38.3981 9.84777 37.2853 9.4 36.125 9.4ZM38.75 35.75C38.75 36.4263 38.4734 37.0749 37.9812 37.5531C37.4889 38.0313 36.8212 38.3 36.125 38.3H9.875C9.17881 38.3 8.51113 38.0313 8.01884 37.5531C7.52656 37.0749 7.25 36.4263 7.25 35.75V21.3H38.75V35.75ZM38.75 19.6H7.25V13.65C7.25 12.2424 8.4225 11.1 9.875 11.1H15.125V13.65C15.125 13.8754 15.2172 14.0916 15.3813 14.251C15.5454 14.4104 15.7679 14.5 16 14.5C16.2321 14.5 16.4546 14.4104 16.6187 14.251C16.7828 14.0916 16.875 13.8754 16.875 13.65V11.1H29.125V13.65C29.125 13.8754 29.2172 14.0916 29.3813 14.251C29.5454 14.4104 29.7679 14.5 30 14.5C30.2321 14.5 30.4546 14.4104 30.6187 14.251C30.7828 14.0916 30.875 13.8754 30.875 13.65V11.1H36.125C36.8212 11.1 37.4889 11.3687 37.9812 11.8469C38.4734 12.3251 38.75 12.9737 38.75 13.65V19.6Z" fill="#008E96"/>
</svg>
