<svg width="46" height="46" viewBox="0 0 46 46" fill="none" xmlns="http://www.w3.org/2000/svg">
<path d="M22.2812 24.4375C22.2812 24.6281 22.2055 24.8109 22.0707 24.9457C21.9359 25.0805 21.7531 25.1562 21.5625 25.1562H12.9375C12.7469 25.1562 12.5641 25.0805 12.4293 24.9457C12.2945 24.8109 12.2188 24.6281 12.2188 24.4375C12.2188 24.2469 12.2945 24.0641 12.4293 23.9293C12.5641 23.7945 12.7469 23.7188 12.9375 23.7188H21.5625C21.7531 23.7188 21.9359 23.7945 22.0707 23.9293C22.2055 24.0641 22.2812 24.2469 22.2812 24.4375ZM21.5625 17.9688H12.9375C12.7469 17.9688 12.5641 18.0445 12.4293 18.1793C12.2945 18.3141 12.2188 18.4969 12.2188 18.6875C12.2188 18.8781 12.2945 19.0609 12.4293 19.1957C12.5641 19.3305 12.7469 19.4062 12.9375 19.4062H21.5625C21.7531 19.4062 21.9359 19.3305 22.0707 19.1957C22.2055 19.0609 22.2812 18.8781 22.2812 18.6875C22.2812 18.4969 22.2055 18.3141 22.0707 18.1793C21.9359 18.0445 21.7531 17.9688 21.5625 17.9688ZM40.9688 28.7033V40.25C40.9689 40.3763 40.9359 40.5003 40.8729 40.6097C40.8098 40.7192 40.7191 40.81 40.6098 40.8732C40.5005 40.9365 40.3765 40.9698 40.2503 40.9698C40.124 40.9699 40 40.9366 39.8906 40.8735L35.2188 38.2034L30.5469 40.8735C30.4375 40.9366 30.3135 40.9699 30.1872 40.9698C30.061 40.9698 29.937 40.9365 29.8277 40.8732C29.7184 40.81 29.6277 40.7192 29.5646 40.6097C29.5016 40.5003 29.4686 40.3763 29.4688 40.25V35.2188H7.1875C6.61563 35.2188 6.06718 34.9916 5.6628 34.5872C5.25843 34.1828 5.03125 33.6344 5.03125 33.0625V10.0625C5.03125 9.49063 5.25843 8.94218 5.6628 8.5378C6.06718 8.13343 6.61563 7.90625 7.1875 7.90625H38.8125C39.3844 7.90625 39.9328 8.13343 40.3372 8.5378C40.7416 8.94218 40.9688 9.49063 40.9688 10.0625V15.8592C41.8731 16.6669 42.5966 17.6565 43.092 18.7632C43.5874 19.8699 43.8435 21.0687 43.8435 22.2812C43.8435 23.4938 43.5874 24.6926 43.092 25.7993C42.5966 26.906 41.8731 27.8956 40.9688 28.7033ZM35.2188 15.0938C33.7972 15.0938 32.4076 15.5153 31.2256 16.3051C30.0436 17.0948 29.1224 18.2174 28.5784 19.5307C28.0344 20.8441 27.892 22.2892 28.1694 23.6835C28.4467 25.0777 29.1312 26.3584 30.1364 27.3636C31.1416 28.3688 32.4223 29.0533 33.8165 29.3306C35.2108 29.608 36.6559 29.4656 37.9693 28.9216C39.2826 28.3776 40.4052 27.4564 41.1949 26.2744C41.9847 25.0924 42.4062 23.7028 42.4062 22.2812C42.4062 20.375 41.649 18.5468 40.3011 17.1989C38.9532 15.851 37.125 15.0938 35.2188 15.0938ZM29.4688 33.7812V28.7033C27.8923 27.2769 26.8981 25.3186 26.6771 23.2041C26.4561 21.0897 27.0238 18.9681 28.2713 17.2466C29.5187 15.5251 31.3581 14.3249 33.4362 13.8765C35.5144 13.4281 37.6849 13.7631 39.5312 14.817V10.0625C39.5312 9.87188 39.4555 9.68906 39.3207 9.55427C39.1859 9.41948 39.0031 9.34375 38.8125 9.34375H7.1875C6.99688 9.34375 6.81406 9.41948 6.67927 9.55427C6.54448 9.68906 6.46875 9.87188 6.46875 10.0625V33.0625C6.46875 33.2531 6.54448 33.4359 6.67927 33.5707C6.81406 33.7055 6.99688 33.7812 7.1875 33.7812H29.4688ZM39.5312 29.7455C38.2212 30.5058 36.7334 30.9063 35.2188 30.9063C33.7041 30.9063 32.2163 30.5058 30.9062 29.7455V39.012L34.8594 36.7515C34.9686 36.6884 35.0926 36.6552 35.2188 36.6552C35.3449 36.6552 35.4689 36.6884 35.5781 36.7515L39.5312 39.012V29.7455Z" fill="#008E96"/>
</svg>
