<svg width="18" height="18" viewBox="0 0 18 18" fill="none" xmlns="http://www.w3.org/2000/svg">
<path fill-rule="evenodd" clip-rule="evenodd" d="M15.5996 4.65C15.6538 4.70022 15.6976 4.76063 15.7284 4.82777C15.7592 4.8949 15.7765 4.96746 15.7793 5.04128C15.7821 5.11511 15.7703 5.18876 15.7446 5.25803C15.719 5.3273 15.6799 5.39083 15.6296 5.445L8.31715 13.32C8.26334 13.3779 8.19793 13.4239 8.12518 13.4548C8.05243 13.4858 7.97397 13.501 7.89492 13.4996C7.81587 13.4982 7.73801 13.4801 7.66641 13.4466C7.59481 13.4131 7.53109 13.3648 7.47939 13.305L3.9169 9.18C3.82998 9.06565 3.7899 8.92248 3.80481 8.77962C3.81972 8.63677 3.8885 8.50496 3.99715 8.41103C4.10581 8.31709 4.24617 8.26808 4.38968 8.27397C4.53319 8.27987 4.66906 8.34022 4.76965 8.44275L7.91965 12.0952L14.8046 4.67775C14.8549 4.62362 14.9154 4.57993 14.9825 4.54917C15.0497 4.51841 15.1223 4.50117 15.1961 4.49846C15.2699 4.49574 15.3435 4.50759 15.4128 4.53334C15.482 4.55908 15.5455 4.59821 15.5996 4.6485V4.65Z" fill="#008E96"/>
</svg>
