<svg width="46" height="46" viewBox="0 0 46 46" fill="none" xmlns="http://www.w3.org/2000/svg">
<path d="M14.25 23.5L22.1786 30.1071L32.75 16.8929M23.5 42C21.0705 42 18.6649 41.5215 16.4204 40.5918C14.1758 39.6621 12.1364 38.2994 10.4185 36.5815C8.70064 34.8636 7.33794 32.8242 6.40823 30.5796C5.47852 28.3351 5 25.9295 5 23.5C5 21.0705 5.47852 18.6649 6.40823 16.4204C7.33794 14.1758 8.70064 12.1364 10.4185 10.4185C12.1364 8.70064 14.1758 7.33794 16.4204 6.40823C18.6649 5.47852 21.0705 5 23.5 5C28.4065 5 33.1121 6.9491 36.5815 10.4185C40.0509 13.8879 42 18.5935 42 23.5C42 28.4065 40.0509 33.1121 36.5815 36.5815C33.1121 40.0509 28.4065 42 23.5 42Z" stroke="#008E96" stroke-width="1.5"/>
</svg>
