<svg width="27" height="27" viewBox="0 0 27 27" fill="none" xmlns="http://www.w3.org/2000/svg">
<path d="M18 4.50226C20.4469 4.51576 21.7721 4.62488 22.6361 5.48888C23.625 6.47776 23.625 8.06851 23.625 11.25V18C23.625 21.1826 23.625 22.7734 22.6361 23.7623C21.6484 24.75 20.0565 24.75 16.875 24.75H10.125C6.9435 24.75 5.35162 24.75 4.36387 23.7623C3.375 22.7723 3.375 21.1826 3.375 18V11.25C3.375 8.06851 3.375 6.47776 4.36387 5.48888C5.22787 4.62488 6.55313 4.51576 9 4.50226" stroke="#008E96" stroke-width="1.5"/>
<path d="M9 15.75H18M7.875 11.8125H19.125M10.125 19.6875H16.875" stroke="#008E96" stroke-width="1.5" stroke-linecap="round"/>
<path d="M9 3.9375C9 3.48995 9.17779 3.06072 9.49426 2.74426C9.81072 2.42779 10.2399 2.25 10.6875 2.25H16.3125C16.7601 2.25 17.1893 2.42779 17.5057 2.74426C17.8222 3.06072 18 3.48995 18 3.9375V5.0625C18 5.51005 17.8222 5.93928 17.5057 6.25574C17.1893 6.57221 16.7601 6.75 16.3125 6.75H10.6875C10.2399 6.75 9.81072 6.57221 9.49426 6.25574C9.17779 5.93928 9 5.51005 9 5.0625V3.9375Z" stroke="#008E96" stroke-width="1.5"/>
</svg>
