<svg width="20" height="20" viewBox="0 0 20 20" fill="none" xmlns="http://www.w3.org/2000/svg">
<path d="M9.93525 11.0857L1.4105 19.6105C1.25883 19.7622 1.0725 19.8434 0.851499 19.8542C0.630499 19.8651 0.433333 19.7838 0.26 19.6105C0.0866664 19.4372 0 19.2454 0 19.0353C0 18.8251 0.0866664 18.6333 0.26 18.46L8.78475 9.93525L0.26 1.4105C0.108333 1.25883 0.0270829 1.0725 0.0162496 0.851499C0.00541626 0.630499 0.0866664 0.433333 0.26 0.26C0.433333 0.0866664 0.625083 0 0.83525 0C1.04542 0 1.23717 0.0866664 1.4105 0.26L9.93525 8.78475L18.46 0.26C18.6117 0.108333 18.7985 0.0270829 19.0206 0.0162496C19.2405 0.00541626 19.4372 0.0866664 19.6105 0.26C19.7838 0.433333 19.8705 0.625083 19.8705 0.83525C19.8705 1.04542 19.7838 1.23717 19.6105 1.4105L11.0857 9.93525L19.6105 18.46C19.7622 18.6117 19.8434 18.7985 19.8542 19.0206C19.8651 19.2405 19.7838 19.4372 19.6105 19.6105C19.4372 19.7838 19.2454 19.8705 19.0353 19.8705C18.8251 19.8705 18.6333 19.7838 18.46 19.6105L9.93525 11.0857Z" fill="#008E96"/>
</svg>
