<svg width="20" height="17" viewBox="0 0 20 17" fill="none" xmlns="http://www.w3.org/2000/svg">
<path d="M18.1245 15.7853H1.87539C0.837945 15.7853 0.000488281 14.9717 0.000488281 13.9639V3.0353C0.000488281 2.02744 0.837945 1.21387 1.87539 1.21387H18.1245C19.162 1.21387 19.9994 2.02744 19.9994 3.0353V13.9639C19.9994 14.9717 19.162 15.7853 18.1245 15.7853ZM1.87539 2.42815C1.52541 2.42815 1.25042 2.6953 1.25042 3.0353V13.9639C1.25042 14.3039 1.52541 14.571 1.87539 14.571H18.1245C18.4745 14.571 18.7495 14.3039 18.7495 13.9639V3.0353C18.7495 2.6953 18.4745 2.42815 18.1245 2.42815H1.87539Z" fill="black"/>
<path d="M10 10.88C9.12509 10.88 8.32513 10.54 7.72516 9.92075L1.16301 3.14504C0.925518 2.90218 0.938017 2.51361 1.188 2.2829C1.43799 2.05218 1.83797 2.06433 2.07546 2.30718L8.63762 9.0829C9.35008 9.82361 10.65 9.82361 11.3625 9.0829L17.9246 2.31933C18.1621 2.07647 18.5621 2.06433 18.8121 2.29504C19.0621 2.52575 19.0746 2.91432 18.8371 3.15718L12.2749 9.9329C11.675 10.5522 10.875 10.8922 10 10.8922V10.88Z" fill="black"/>
</svg>
