<svg width="35" height="35" viewBox="0 0 35 35" fill="none" xmlns="http://www.w3.org/2000/svg">
<path d="M11.375 21C11.1429 21 10.9204 20.9078 10.7563 20.7437C10.5922 20.5796 10.5 20.3571 10.5 20.125C10.5 19.8929 10.5922 19.6704 10.7563 19.5063C10.9204 19.3422 11.1429 19.25 11.375 19.25H23.625C23.8571 19.25 24.0796 19.3422 24.2437 19.5063C24.4078 19.6704 24.5 19.8929 24.5 20.125C24.5 20.3571 24.4078 20.5796 24.2437 20.7437C24.0796 20.9078 23.8571 21 23.625 21H11.375ZM11.375 26.25C11.1429 26.25 10.9204 26.1578 10.7563 25.9937C10.5922 25.8296 10.5 25.6071 10.5 25.375C10.5 25.1429 10.5922 24.9204 10.7563 24.7563C10.9204 24.5922 11.1429 24.5 11.375 24.5H23.625C23.8571 24.5 24.0796 24.5922 24.2437 24.7563C24.4078 24.9204 24.5 25.1429 24.5 25.375C24.5 25.6071 24.4078 25.8296 24.2437 25.9937C24.0796 26.1578 23.8571 26.25 23.625 26.25H11.375Z" fill="#008E96"/>
<path fill-rule="evenodd" clip-rule="evenodd" d="M19.5738 1.75H7.875C7.17881 1.75 6.51113 2.02656 6.01884 2.51885C5.52656 3.01113 5.25 3.67881 5.25 4.375V30.625C5.25 31.3212 5.52656 31.9889 6.01884 32.4812C6.51113 32.9734 7.17881 33.25 7.875 33.25H27.125C27.8212 33.25 28.4889 32.9734 28.9812 32.4812C29.4734 31.9889 29.75 31.3212 29.75 30.625V12.6035C29.7498 11.9463 29.5032 11.3131 29.0588 10.829L21.5093 2.6005C21.2632 2.3323 20.9641 2.1182 20.6309 1.97179C20.2977 1.82537 19.9377 1.74984 19.5738 1.75ZM7 4.375C7 4.14294 7.09219 3.92038 7.25628 3.75628C7.42038 3.59219 7.64294 3.5 7.875 3.5H19.5738C19.6952 3.49987 19.8153 3.525 19.9265 3.57381C20.0376 3.62262 20.1374 3.69403 20.2195 3.7835L27.769 12.012C27.9174 12.1733 27.9998 12.3844 28 12.6035V30.625C28 30.8571 27.9078 31.0796 27.7437 31.2437C27.5796 31.4078 27.3571 31.5 27.125 31.5H7.875C7.64294 31.5 7.42038 31.4078 7.25628 31.2437C7.09219 31.0796 7 30.8571 7 30.625V4.375Z" fill="#008E96"/>
<path d="M19.25 12.25H28.875C29.1071 12.25 29.3296 12.3422 29.4937 12.5063C29.6578 12.6704 29.75 12.8929 29.75 13.125C29.75 13.3571 29.6578 13.5796 29.4937 13.7437C29.3296 13.9078 29.1071 14 28.875 14H18.375C18.1429 14 17.9204 13.9078 17.7563 13.7437C17.5922 13.5796 17.5 13.3571 17.5 13.125V2.625C17.5 2.39294 17.5922 2.17038 17.7563 2.00628C17.9204 1.84219 18.1429 1.75 18.375 1.75C18.6071 1.75 18.8296 1.84219 18.9937 2.00628C19.1578 2.17038 19.25 2.39294 19.25 2.625V12.25Z" fill="#008E96"/>
</svg>
