<svg width="23" height="23" viewBox="0 0 23 23" fill="none" xmlns="http://www.w3.org/2000/svg">
<path d="M7.47539 13.8C7.32289 13.8 7.17664 13.7394 7.0688 13.6316C6.96097 13.5238 6.90039 13.3775 6.90039 13.225C6.90039 13.0725 6.96097 12.9263 7.0688 12.8184C7.17664 12.7106 7.32289 12.65 7.47539 12.65H15.5254C15.6779 12.65 15.8241 12.7106 15.932 12.8184C16.0398 12.9263 16.1004 13.0725 16.1004 13.225C16.1004 13.3775 16.0398 13.5238 15.932 13.6316C15.8241 13.7394 15.6779 13.8 15.5254 13.8H7.47539ZM7.47539 17.25C7.32289 17.25 7.17664 17.1894 7.0688 17.0816C6.96097 16.9738 6.90039 16.8275 6.90039 16.675C6.90039 16.5225 6.96097 16.3763 7.0688 16.2684C7.17664 16.1606 7.32289 16.1 7.47539 16.1H15.5254C15.6779 16.1 15.8241 16.1606 15.932 16.2684C16.0398 16.3763 16.1004 16.5225 16.1004 16.675C16.1004 16.8275 16.0398 16.9738 15.932 17.0816C15.8241 17.1894 15.6779 17.25 15.5254 17.25H7.47539Z" fill="#666666"/>
<path fill-rule="evenodd" clip-rule="evenodd" d="M12.8629 1.15002H5.1752C4.7177 1.15002 4.27894 1.33177 3.95544 1.65527C3.63194 1.97877 3.4502 2.41753 3.4502 2.87502V20.125C3.4502 20.5825 3.63194 21.0213 3.95544 21.3448C4.27894 21.6683 4.7177 21.85 5.1752 21.85H17.8252C18.2827 21.85 18.7215 21.6683 19.045 21.3448C19.3685 21.0213 19.5502 20.5825 19.5502 20.125V8.28233C19.5501 7.85047 19.388 7.43436 19.0959 7.11623L14.1348 1.70892C13.9732 1.53268 13.7766 1.39199 13.5576 1.29577C13.3387 1.19955 13.1021 1.14992 12.8629 1.15002ZM4.6002 2.87502C4.6002 2.72253 4.66078 2.57627 4.76861 2.46844C4.87644 2.36061 5.0227 2.30002 5.1752 2.30002H12.8629C12.9427 2.29994 13.0217 2.31646 13.0947 2.34853C13.1678 2.3806 13.2334 2.42753 13.2873 2.48632L18.2484 7.89362C18.3459 7.99961 18.4001 8.13832 18.4002 8.28233V20.125C18.4002 20.2775 18.3396 20.4238 18.2318 20.5316C18.1239 20.6394 17.9777 20.7 17.8252 20.7H5.1752C5.0227 20.7 4.87644 20.6394 4.76861 20.5316C4.66078 20.4238 4.6002 20.2775 4.6002 20.125V2.87502Z" fill="#666666"/>
<path d="M12.65 8.05002H18.975C19.1275 8.05002 19.2738 8.1106 19.3816 8.21844C19.4894 8.32627 19.55 8.47252 19.55 8.62502C19.55 8.77752 19.4894 8.92378 19.3816 9.03161C19.2738 9.13944 19.1275 9.20002 18.975 9.20002H12.075C11.9225 9.20002 11.7762 9.13944 11.6684 9.03161C11.5606 8.92378 11.5 8.77752 11.5 8.62502V1.72502C11.5 1.57252 11.5606 1.42627 11.6684 1.31844C11.7762 1.2106 11.9225 1.15002 12.075 1.15002C12.2275 1.15002 12.3738 1.2106 12.4816 1.31844C12.5894 1.42627 12.65 1.57252 12.65 1.72502V8.05002Z" fill="#666666"/>
</svg>
