<svg width="24" height="24" viewBox="0 0 24 24" fill="none" xmlns="http://www.w3.org/2000/svg">
<path d="M9.5 12.9H14.9M9.5 16.5H12.2M5 4.8V19.2C5 19.6774 5.18964 20.1352 5.52721 20.4728C5.86477 20.8104 6.32261 21 6.8 21H17.6C18.0774 21 18.5352 20.8104 18.8728 20.4728C19.2104 20.1352 19.4 19.6774 19.4 19.2V8.7078C19.4 8.468 19.352 8.23063 19.259 8.00962C19.1659 7.78861 19.0297 7.58842 18.8582 7.4208L14.8622 3.513C14.5259 3.18419 14.0743 3.00006 13.604 3H6.8C6.32261 3 5.86477 3.18964 5.52721 3.52721C5.18964 3.86477 5 4.32261 5 4.8Z" stroke="black" stroke-opacity="0.74" stroke-linecap="round" stroke-linejoin="round"/>
<path d="M14 3V6.6C14 7.07739 14.1896 7.53523 14.5272 7.87279C14.8648 8.21036 15.3226 8.4 15.8 8.4H19.4" stroke="black" stroke-opacity="0.74" stroke-linejoin="round"/>
</svg>
