<svg width="25" height="25" viewBox="0 0 25 25" fill="none" xmlns="http://www.w3.org/2000/svg">
<path d="M22.1356 12.5H9.26579M4.72308 12.5H2.86475M4.72308 12.5C4.72308 11.8977 4.96233 11.3201 5.38819 10.8943C5.81406 10.4684 6.39165 10.2292 6.99391 10.2292C7.59618 10.2292 8.17377 10.4684 8.59964 10.8943C9.0255 11.3201 9.26475 11.8977 9.26475 12.5C9.26475 13.1022 9.0255 13.6798 8.59964 14.1057C8.17377 14.5316 7.59618 14.7708 6.99391 14.7708C6.39165 14.7708 5.81406 14.5316 5.38819 14.1057C4.96233 13.6798 4.72308 13.1022 4.72308 12.5ZM22.1356 19.3823H16.1481M16.1481 19.3823C16.1481 19.9847 15.9083 20.5629 15.4823 20.9889C15.0563 21.4149 14.4786 21.6542 13.8762 21.6542C13.2739 21.6542 12.6963 21.4139 12.2705 20.988C11.8446 20.5621 11.6054 19.9845 11.6054 19.3823M16.1481 19.3823C16.1481 18.7799 15.9083 18.2027 15.4823 17.7767C15.0563 17.3507 14.4786 17.1114 13.8762 17.1114C13.2739 17.1114 12.6963 17.3507 12.2705 17.7766C11.8446 18.2024 11.6054 18.78 11.6054 19.3823M11.6054 19.3823H2.86475M22.1356 5.6177H18.9012M14.3585 5.6177H2.86475M14.3585 5.6177C14.3585 5.01543 14.5977 4.43784 15.0236 4.01197C15.4495 3.58611 16.0271 3.34686 16.6293 3.34686C16.9275 3.34686 17.2228 3.4056 17.4983 3.51972C17.7739 3.63384 18.0242 3.80111 18.2351 4.01197C18.4459 4.22284 18.6132 4.47318 18.7273 4.74869C18.8414 5.0242 18.9002 5.31949 18.9002 5.6177C18.9002 5.91591 18.8414 6.2112 18.7273 6.48671C18.6132 6.76222 18.4459 7.01255 18.2351 7.22342C18.0242 7.43428 17.7739 7.60155 17.4983 7.71567C17.2228 7.82979 16.9275 7.88853 16.6293 7.88853C16.0271 7.88853 15.4495 7.64928 15.0236 7.22342C14.5977 6.79755 14.3585 6.21996 14.3585 5.6177Z" stroke="black" stroke-width="0.9375" stroke-miterlimit="10" stroke-linecap="round"/>
</svg>
