<svg width="71" height="71" viewBox="0 0 71 71" fill="none" xmlns="http://www.w3.org/2000/svg">
<g clip-path="url(#clip0_825_7957)">
<path d="M47.7166 66.5461H9.30977C6.59152 66.5461 4.53959 64.0909 5.01898 61.4194L6.55061 52.9078C7.84844 45.6707 13.7 40.2284 20.8377 39.3222C26.5967 39.0712 20.4197 39.2387 34.0785 39.1876C42.1438 39.1876 49.0467 44.9697 50.4759 52.9077L52.0075 61.4192C52.4868 64.0909 50.429 66.5461 47.7166 66.5461Z" fill="white"/>
<path d="M47.7183 66.5473H9.30796C6.59277 66.5473 4.5371 64.0935 5.01843 61.4199L6.5513 52.906C7.49594 47.6361 10.8528 43.3169 15.3682 41.0116C15.2137 42.0335 15.1305 43.0792 15.1305 44.1427C15.1305 55.3302 24.1969 64.4024 35.3903 64.4024C41.7772 64.4024 47.4749 61.4436 51.1823 56.8273L52.0081 61.4199C52.4891 64.0935 50.4275 66.5473 47.7183 66.5473Z" fill="#E7E6FD"/>
<path d="M29.8312 45.2957L31.8852 60.5268L28.5134 64.4026L25.1416 60.5268L27.1957 45.2957H29.8312Z" fill="#FBECB3"/>
<path d="M30.9706 42.3636V46.0292C30.9706 46.7167 30.4133 47.274 29.7258 47.274H27.3015C26.614 47.274 26.0566 46.7167 26.0566 46.0292V42.3636H30.9706Z" fill="white"/>
<path d="M33.6611 41.9374V27.2281H23.3652V41.93L33.6611 41.9374Z" fill="white"/>
<path d="M22.4455 37.0514L18.8223 39.7061L22.9529 47.6759L28.5134 42.2743L22.4455 37.0514Z" fill="#FBECB3"/>
<path d="M34.6596 37.1798L38.2036 39.7047L34.073 47.6759L28.5127 42.2743L34.6596 37.1798Z" fill="#FBECB3"/>
<path d="M17.7166 27.1514L17.0966 17.8517C16.9238 15.2608 18.9322 12.9945 21.5921 12.9945H29.2185C33.2039 12.9945 36.7804 15.4732 38.1505 19.2157C39.0602 21.7004 39.5893 24.3384 39.6843 27.1514H40.3677C41.8591 22.081 43.375 16.8375 43.1981 11.3866C43.0697 7.43 40.3436 4.79468 36.459 3.63427C35.1534 3.24433 23.3614 1.3993 23.9828 1.46517C21.1642 1.16619 18.756 3.47868 18.9404 6.30703L19.0837 8.50318C16.4072 8.2813 14.6657 9.3011 14.0556 11.8227C13.1615 15.4981 14.8361 20.9157 17.7166 27.1514Z" fill="white"/>
<path d="M17.7166 27.1514L17.0966 17.8517C16.9238 15.2608 18.9322 12.9945 21.5921 12.9945H29.2185C33.2039 12.9945 36.7804 15.4732 38.1505 19.2157C39.0602 21.7004 39.5893 24.3384 39.6843 27.1514C41.1758 22.081 43.3751 16.8375 43.1981 11.3866C43.0697 7.43 40.3436 4.79468 36.459 3.63427C35.1534 3.24433 23.3614 1.3993 23.9828 1.46517C21.1642 1.16619 18.756 3.47868 18.9404 6.30703L19.0837 8.50318C16.4072 8.2813 14.6657 9.3011 14.0556 11.8227C13.1615 15.4981 14.8361 20.9157 17.7166 27.1514Z" fill="#9A88FB"/>
<path d="M40.0627 13.0331V24.8399C40.0627 31.2185 34.8918 36.3893 28.5133 36.3893C22.1347 36.3893 16.9639 31.2184 16.9639 24.8399V13.0331H21.2678C25.1903 13.0331 27.0681 10.9666 32.1337 8.43555C32.6092 11.096 34.9233 13.0331 37.626 13.0331H40.0627Z" fill="white"/>
<path d="M30.2461 30.95C29.2891 31.9069 27.7374 31.9069 26.7803 30.95H30.2461Z" fill="white"/>
<path d="M65.6839 59.1418C67.4072 51.8515 62.8942 44.5445 55.6039 42.8212C48.3136 41.0979 41.0067 45.6109 39.2834 52.9012C37.5601 60.1915 42.073 67.4984 49.3633 69.2217C56.6536 70.945 63.9606 66.4321 65.6839 59.1418Z" fill="#9A88FB"/>
<path d="M52.4852 65.0803C57.5031 65.0803 61.571 61.0124 61.571 55.9945C61.571 50.9765 57.5031 46.9087 52.4852 46.9087C47.4673 46.9087 43.3994 50.9765 43.3994 55.9945C43.3994 61.0124 47.4673 65.0803 52.4852 65.0803Z" fill="white"/>
<path d="M60.3618 60.517C58.7932 63.2381 55.8465 65.0798 52.4837 65.0798C47.4751 65.0798 43.3994 61.0041 43.3994 55.9956C43.3994 52.7813 45.0808 49.9474 47.6059 48.3313C46.8394 49.6621 46.3939 51.2129 46.3939 52.8645C46.3939 57.873 50.4696 61.9487 55.4782 61.9487C57.2723 61.9487 58.9477 61.4259 60.3618 60.517Z" fill="#E7E6FD"/>
<path d="M63.5832 24.0085V31.8472C63.5832 33.042 62.6145 34.0105 61.4199 34.0105H51.3524L48.4129 37.1536L47.5367 34.0105H46.1496C44.9548 34.0105 43.9863 33.0419 43.9863 31.8472V24.0085C43.9863 22.8137 44.9548 21.8452 46.1496 21.8452H61.4197C62.6147 21.8451 63.5832 22.8137 63.5832 24.0085Z" fill="#FBECB3"/>
<path d="M21.4922 21.9264C21.2383 22.1803 21.2383 22.5916 21.4922 22.8456C21.7461 23.0995 22.1574 23.0995 22.4113 22.8456C23.046 22.2109 24.0794 22.2109 24.7141 22.8456C24.968 23.0995 25.3793 23.0995 25.6332 22.8456C25.8871 22.5916 25.8871 22.1803 25.6332 21.9264C24.4912 20.7846 22.634 20.7846 21.4922 21.9264Z" fill="#3A4B81"/>
<path d="M32.3117 22.8457C32.9464 22.211 33.9798 22.211 34.6145 22.8457C34.8684 23.0996 35.2797 23.0996 35.5336 22.8457C35.7875 22.5918 35.7875 22.1804 35.5336 21.9265C34.3916 20.7846 32.5344 20.7846 31.3926 21.9265C31.1387 22.1804 31.1387 22.5918 31.3926 22.8457C31.6465 23.0996 32.0578 23.0996 32.3117 22.8457Z" fill="#3A4B81"/>
<path d="M30.5834 30.2083C30.8373 29.9544 30.8373 29.5431 30.5834 29.2892C30.3295 29.0353 29.9182 29.0353 29.6643 29.2892C29.0296 29.9239 27.9962 29.9239 27.3615 29.2892C27.1076 29.0353 26.6963 29.0353 26.4424 29.2892C26.1885 29.5431 26.1885 29.9544 26.4424 30.2083C27.5839 31.3498 29.4414 31.3503 30.5834 30.2083Z" fill="#3A4B81"/>
<path d="M66.7013 55.9943C66.7013 48.1556 60.3238 41.7781 52.4846 41.7781C50.154 41.7781 47.9548 42.3454 46.0117 43.3437C43.9286 41.357 41.3666 39.8918 38.5255 39.1362L35.0369 36.6508C34.8183 36.4947 34.5325 36.4987 34.3111 36.6414V35.5708C37.699 33.7329 40.1144 30.3344 40.6092 26.3484C42.1285 21.4199 44.0157 16.5423 43.8479 11.3652C43.7184 7.38507 41.0932 4.34025 36.6448 3.01178C35.5143 2.67369 24.1181 0.825891 24.0514 0.818818C20.8232 0.478656 18.0818 3.12576 18.2918 6.34961L18.3879 7.8248C15.7433 7.83243 14.0336 9.15078 13.4238 11.6695C12.6505 14.8484 13.5872 19.34 16.3576 25.7053C16.6588 29.9674 19.1464 33.635 22.7151 35.571V36.4666C22.5049 36.37 22.2554 36.3855 22.0613 36.5275L18.5166 39.1248C12.0599 40.8178 7.11675 46.0673 5.91059 52.793L4.37895 61.3049C3.82773 64.3788 6.1907 67.1965 9.30957 67.1965H43.7465C46.1593 69.0827 49.1916 70.2112 52.4845 70.2112C60.3238 70.2109 66.7013 63.8333 66.7013 55.9943ZM34.6897 37.9994L37.3673 39.9068L33.8987 46.6001L29.4854 42.3128L34.6897 37.9994ZM27.4968 47.9241H29.5296L31.2013 60.3222L28.5131 63.4121L25.825 60.3222L27.4968 47.9241ZM30.365 46.0067C30.365 46.3473 30.0879 46.6244 29.7473 46.6244H27.2788C26.9382 46.6244 26.6612 46.3473 26.6612 46.0067V44.9796L28.513 43.1806L30.3648 44.9796L30.365 46.0067ZM14.6873 11.9757C15.2023 9.8458 16.5778 8.94388 19.0298 9.15106C19.217 9.16728 19.4043 9.09961 19.5388 8.96704C19.6738 8.83433 19.7442 8.64962 19.7322 8.46116L19.589 6.26502C19.4303 3.83382 21.507 1.84915 23.9142 2.11166C23.9874 2.11928 35.2895 3.96348 36.2729 4.25705C38.552 4.93779 42.3982 6.77214 42.5487 11.4074C42.6618 14.8958 41.7584 18.3425 40.7127 21.7052V13.0332C40.7127 12.6743 40.4216 12.3832 40.0627 12.3832H37.6259C35.2352 12.3832 33.1941 10.6748 32.7734 8.32124C32.7372 8.11934 32.6084 7.94641 32.4252 7.85475C32.2424 7.76337 32.0265 7.76267 31.8432 7.85406C30.3091 8.6205 29.0693 9.34159 27.9758 9.97796C25.4863 11.4264 23.8414 12.3834 21.2678 12.3834H16.964C16.6051 12.3834 16.314 12.6744 16.314 13.0333V22.1209C14.6586 17.6694 14.117 14.3185 14.6873 11.9757ZM17.6137 24.84V13.6831H21.2675C24.1918 13.6831 26.0531 12.6002 28.6292 11.1013C29.5279 10.5787 30.5268 9.99751 31.7026 9.385C32.5259 11.9198 34.8949 13.6831 37.6257 13.6831H39.4125V24.84C39.4125 30.85 34.523 35.7394 28.513 35.7394C22.503 35.7394 17.6137 30.85 17.6137 24.84ZM33.0112 36.1693V37.7022L28.521 41.4236L24.015 37.5451V36.1693C26.8445 37.2969 30.0201 37.3614 33.0112 36.1693ZM22.413 37.8811L27.5505 42.3033L23.1273 46.6002L19.6556 39.9015L22.413 37.8811ZM5.65876 61.5346L7.19039 53.0224C8.28562 46.9145 12.7151 42.129 18.4905 40.4781L22.3759 47.975C22.4705 48.1578 22.6456 48.2848 22.8488 48.3178C23.0617 48.351 23.2638 48.2801 23.4058 48.1423L25.3832 46.2214C25.4488 46.7998 25.7641 47.3019 26.2278 47.6074L24.4972 60.4401C24.4724 60.6255 24.5283 60.8127 24.6511 60.9536L28.0228 64.8291C28.1462 64.9709 28.325 65.0525 28.5131 65.0525C28.7013 65.0525 28.8801 64.9709 29.0035 64.8291L32.3751 60.9536C32.498 60.8127 32.5539 60.6255 32.5291 60.4401L30.7984 47.6074C31.262 47.3019 31.5776 46.7998 31.6431 46.2214L33.6204 48.1423C33.7621 48.2798 33.9642 48.351 34.1775 48.3178C34.3806 48.2848 34.5558 48.1579 34.6503 47.975L38.529 40.4901C40.8967 41.1761 43.0466 42.3938 44.8366 44.0198C40.8907 46.5489 38.268 50.9696 38.268 55.9943C38.268 59.8415 39.8064 63.3342 42.2974 65.8963H9.30971C6.99389 65.8961 5.2512 63.8039 5.65876 61.5346ZM52.4846 68.9109C45.3622 68.9109 39.5681 63.1166 39.5681 55.9943C39.5681 48.8722 45.3623 43.078 52.4846 43.078C59.607 43.078 65.4012 48.8722 65.4012 55.9943C65.4014 63.1167 59.6071 68.9109 52.4846 68.9109Z" fill="#3A4B81"/>
<path d="M52.4846 46.2587C47.1164 46.2587 42.749 50.626 42.749 55.9943C42.749 61.3625 47.1164 65.7303 52.4846 65.7303C57.8529 65.7303 62.2206 61.3627 62.2206 55.9943C62.2206 50.6259 57.853 46.2587 52.4846 46.2587ZM52.4846 64.4302C47.8333 64.4302 44.0489 60.6459 44.0489 55.9943C44.0489 51.3429 47.8333 47.5586 52.4846 47.5586C57.1364 47.5586 60.9206 51.3429 60.9206 55.9943C60.9207 60.646 57.1364 64.4302 52.4846 64.4302Z" fill="#3A4B81"/>
<path d="M52.4846 53.0856C53.1073 53.0856 53.6141 53.5925 53.6141 54.2151C53.6141 54.574 53.9052 54.8651 54.2641 54.8651C54.623 54.8651 54.9142 54.574 54.9142 54.2151C54.9142 53.1021 54.1576 52.1715 53.1347 51.8852V51.3102C53.1347 50.9513 52.8437 50.6603 52.4848 50.6603C52.1259 50.6603 51.8348 50.9513 51.8348 51.3102V51.8852C50.8123 52.1717 50.0557 53.1021 50.0557 54.2151C50.0557 55.5544 51.1455 56.6442 52.4848 56.6442C53.1074 56.6442 53.6143 57.1511 53.6143 57.7737C53.6143 58.3964 53.1074 58.9032 52.4848 58.9032C51.8621 58.9032 51.3556 58.3964 51.3556 57.7737C51.3556 57.4148 51.0645 57.1238 50.7056 57.1238C50.3467 57.1238 50.0557 57.4148 50.0557 57.7737C50.0557 58.8867 50.8123 59.8172 51.8348 60.1037V60.6786C51.8348 61.0375 52.1259 61.3286 52.4848 61.3286C52.8437 61.3286 53.1347 61.0375 53.1347 60.6786V60.1037C54.1576 59.8173 54.9142 58.8867 54.9142 57.7737C54.9142 56.4342 53.8244 55.3442 52.4846 55.3442C51.862 55.3442 51.3554 54.8376 51.3554 54.215C51.3554 53.5925 51.862 53.0856 52.4846 53.0856Z" fill="#3A4B81"/>
<path d="M46.15 34.6603H47.0438L47.787 37.3281C47.8501 37.5544 48.0304 37.729 48.2587 37.7848C48.4823 37.8399 48.7249 37.7719 48.8879 37.5975L51.6348 34.6603H61.4203C62.9716 34.6603 64.2334 33.3984 64.2334 31.8472V24.0085C64.2334 22.4572 62.9715 21.1954 61.4203 21.1954H46.15C44.5987 21.1954 43.3369 22.4574 43.3369 24.0085V31.8472C43.3368 33.3986 44.5987 34.6603 46.15 34.6603ZM44.6368 24.0085C44.6368 23.1741 45.3156 22.4953 46.15 22.4953H61.4203C62.2547 22.4953 62.9335 23.1741 62.9335 24.0085V31.8472C62.9335 32.6816 62.2547 33.3604 61.4203 33.3604H51.3527C51.1727 33.3604 51.0008 33.435 50.8779 33.5664L48.7286 35.8647L48.1634 33.8359C48.085 33.5551 47.8289 33.3606 47.5373 33.3606H46.15C45.3156 33.3606 44.6368 32.6818 44.6368 31.8474V24.0085Z" fill="#3A4B81"/>
<path d="M54.0556 28.8017H54.0626C54.4438 28.8017 54.7544 29.1114 54.7557 29.4925C54.7569 29.8748 54.4468 30.1863 54.0641 30.187C53.5828 30.1296 53.3706 29.8327 53.37 29.4967C53.3691 29.1381 53.0784 28.8482 52.7201 28.8482C52.7194 28.8482 52.7188 28.8482 52.7186 28.8482C52.3597 28.8492 52.0692 29.1408 52.0701 29.4999C52.0721 30.3062 52.559 31.0781 53.4176 31.3722L53.4186 31.7376C53.4195 32.0959 53.7102 32.3856 54.0685 32.3856H54.0705C54.4294 32.3847 54.7195 32.0927 54.7185 31.7337L54.7175 31.3687C55.5629 31.0742 56.0576 30.3089 56.0556 29.489C56.0524 28.3919 55.1586 27.5017 54.0624 27.5017C54.0599 27.502 54.0573 27.502 54.0555 27.5017C53.6743 27.5017 53.3639 27.1924 53.3627 26.8112C53.3617 26.429 53.6718 26.1174 54.0533 26.1161H54.0536H54.0551C54.437 26.1161 54.7476 26.4252 54.7482 26.8074C54.7491 27.166 55.0398 27.4558 55.3981 27.4558H55.3996C55.7585 27.4549 56.049 27.1632 56.0481 26.8042C56.0459 25.9339 55.4798 25.2017 54.6999 24.9326L54.6989 24.5658C54.698 24.2069 54.4137 23.9069 54.047 23.9178C53.6882 23.9187 53.3981 24.2106 53.399 24.5697L53.4 24.9362C52.6222 25.2096 52.0603 25.9449 52.0625 26.8148C52.0661 27.9114 52.9594 28.8017 54.0556 28.8017Z" fill="#3A4B81"/>
</g>
<defs>
<clipPath id="clip0_825_7957">
<rect width="71" height="71" fill="white"/>
</clipPath>
</defs>
</svg>
