<svg width="20" height="20" viewBox="0 0 20 20" fill="none" xmlns="http://www.w3.org/2000/svg">
<path d="M17.7914 9.24999H10.1497V11.525H15.5747C15.2997 14.7 12.6581 16.0583 10.1581 16.0583C6.96641 16.0583 4.16641 13.5417 4.16641 9.99999C4.16641 6.58332 6.83307 3.94166 10.1664 3.94166C12.7414 3.94166 14.2497 5.58332 14.2497 5.58332L15.8331 3.93332C15.8331 3.93332 13.7997 1.66666 10.0831 1.66666C5.34974 1.66666 1.69141 5.66666 1.69141 9.99999C1.69141 14.2083 5.13307 18.3333 10.2081 18.3333C14.6664 18.3333 17.9164 15.275 17.9164 10.7583C17.9164 9.79999 17.7914 9.24999 17.7914 9.24999Z" fill="#008E96"/>
</svg>
