<svg width="30" height="30" viewBox="0 0 30 30" fill="none" xmlns="http://www.w3.org/2000/svg">
<path d="M3.84619 23.9423V22.8959C3.84619 20.9533 4.61789 19.0903 5.99153 17.7166C7.36517 16.343 9.22823 15.5713 11.1709 15.5713C13.1135 15.5713 14.9765 16.343 16.3502 17.7166C17.7238 19.0903 18.4955 20.9533 18.4955 22.8959V23.9423" stroke="#008E96" stroke-width="1.5" stroke-linecap="round"/>
<path d="M16.4028 17.6645C16.4028 16.2769 16.954 14.9462 17.9352 13.965C18.9164 12.9838 20.2471 12.4326 21.6347 12.4326C22.3218 12.4326 23.0021 12.5679 23.6369 12.8309C24.2717 13.0938 24.8484 13.4792 25.3342 13.965C25.8201 14.4508 26.2055 15.0276 26.4684 15.6624C26.7313 16.2971 26.8666 16.9775 26.8666 17.6645V18.1877" stroke="#008E96" stroke-width="1.5" stroke-linecap="round"/>
<path d="M11.1709 15.5717C12.2809 15.5717 13.3455 15.1307 14.1305 14.3458C14.9154 13.5609 15.3564 12.4963 15.3564 11.3862C15.3564 10.2761 14.9154 9.21152 14.1305 8.42659C13.3455 7.64165 12.2809 7.20068 11.1709 7.20068C10.0608 7.20068 8.9962 7.64165 8.21126 8.42659C7.42632 9.21152 6.98535 10.2761 6.98535 11.3862C6.98535 12.4963 7.42632 13.5609 8.21126 14.3458C8.9962 15.1307 10.0608 15.5717 11.1709 15.5717ZM21.6347 12.4326C22.4672 12.4326 23.2657 12.1018 23.8544 11.5131C24.4431 10.9244 24.7738 10.126 24.7738 9.29344C24.7738 8.46089 24.4431 7.66243 23.8544 7.07373C23.2657 6.48503 22.4672 6.1543 21.6347 6.1543C20.8021 6.1543 20.0037 6.48503 19.415 7.07373C18.8263 7.66243 18.4955 8.46089 18.4955 9.29344C18.4955 10.126 18.8263 10.9244 19.415 11.5131C20.0037 12.1018 20.8021 12.4326 21.6347 12.4326Z" stroke="#008E96" stroke-width="1.5" stroke-linecap="round" stroke-linejoin="round"/>
</svg>
