<svg width="46" height="46" viewBox="0 0 46 46" fill="none" xmlns="http://www.w3.org/2000/svg">
<path d="M34.96 24.457C35.2453 24.457 35.484 24.3576 35.676 24.1587C35.868 23.9599 35.9633 23.714 35.962 23.4213C35.9607 23.1285 35.8647 22.882 35.674 22.6818C35.4833 22.4815 35.246 22.3828 34.962 22.3856H28.808C28.524 22.3856 28.286 22.4843 28.094 22.6818C27.9033 22.8793 27.808 23.1258 27.808 23.4213C27.808 23.7168 27.9033 23.9626 28.094 24.1587C28.2847 24.3548 28.5227 24.4542 28.808 24.457H34.96ZM34.96 18.7191C35.2453 18.7191 35.484 18.6204 35.676 18.4229C35.868 18.2255 35.9633 17.979 35.962 17.6834C35.9607 17.3879 35.8647 17.1421 35.674 16.946C35.4833 16.7499 35.246 16.6505 34.962 16.6477H28.808C28.524 16.6477 28.286 16.7465 28.094 16.9439C27.9033 17.1428 27.808 17.3893 27.808 17.6834C27.808 17.9776 27.9033 18.2241 28.094 18.4229C28.2847 18.6218 28.5227 18.7205 28.808 18.7191H34.96ZM17.654 26.2094C16.5567 26.2094 15.6273 26.2881 14.866 26.4456C14.1033 26.603 13.42 26.8571 12.816 27.2079C12.296 27.4979 11.9033 27.8148 11.638 28.1586C11.3727 28.5025 11.2407 28.8698 11.242 29.2606C11.242 29.5686 11.36 29.8275 11.596 30.0374C11.832 30.2473 12.128 30.3523 12.484 30.3523H22.824C23.18 30.3523 23.476 30.2384 23.712 30.0105C23.948 29.7826 24.066 29.5113 24.066 29.1964C24.066 28.8484 23.94 28.5108 23.688 28.1835C23.436 27.8562 23.0373 27.5317 22.492 27.2099C21.8867 26.8578 21.2033 26.603 20.442 26.4456C19.6807 26.2881 18.7513 26.2094 17.654 26.2094ZM19.786 21.963C20.3647 21.365 20.654 20.629 20.654 19.7549C20.654 18.8807 20.3647 18.1447 19.786 17.5467C19.2073 16.9488 18.4967 16.6491 17.654 16.6477C16.8113 16.6463 16.1007 16.946 15.522 17.5467C14.9433 18.1474 14.654 18.8835 14.654 19.7549C14.654 20.6262 14.9433 21.363 15.522 21.9651C16.1007 22.5672 16.8113 22.8661 17.654 22.862C18.4967 22.8579 19.2073 22.5568 19.786 21.963ZM8.73 38C7.81 38 7.04134 37.681 6.424 37.043C5.80667 36.405 5.49867 35.6082 5.5 34.6526V12.3474C5.5 11.3932 5.80867 10.5971 6.426 9.95907C7.04334 9.32107 7.81134 9.00138 8.73 9H38.27C39.19 9 39.958 9.31969 40.574 9.95907C41.19 10.5985 41.4987 11.3946 41.5 12.3474V34.6546C41.5 35.6075 41.1913 36.4036 40.574 37.043C39.9567 37.6824 39.1887 38.0014 38.27 38H8.73ZM8.73 35.9286H38.27C38.5767 35.9286 38.8587 35.796 39.116 35.5309C39.3733 35.2657 39.5013 34.9729 39.5 34.6526V12.3474C39.5 12.0284 39.372 11.7357 39.116 11.4691C38.86 11.2026 38.578 11.07 38.27 11.0714H8.73C8.42334 11.0714 8.14134 11.204 7.884 11.4691C7.62667 11.7343 7.49867 12.027 7.5 12.3474V34.6546C7.5 34.9723 7.628 35.2643 7.884 35.5309C8.14 35.7974 8.422 35.9299 8.73 35.9286Z" fill="#008E96"/>
</svg>
