<svg width="29" height="29" viewBox="0 0 29 29" fill="none" xmlns="http://www.w3.org/2000/svg">
<path d="M19.4501 9.55C19.2523 9.55 19.059 9.60865 18.8945 9.71853C18.7301 9.82841 18.6019 9.98459 18.5262 10.1673C18.4505 10.35 18.4307 10.5511 18.4693 10.7451C18.5079 10.9391 18.6031 11.1173 18.743 11.2571C18.8828 11.397 19.061 11.4922 19.255 11.5308C19.449 11.5694 19.65 11.5496 19.8328 11.4739C20.0155 11.3982 20.1717 11.27 20.2816 11.1056C20.3914 10.9411 20.4501 10.7478 20.4501 10.55C20.4501 10.2848 20.3447 10.0304 20.1572 9.84289C19.9697 9.65536 19.7153 9.55 19.4501 9.55ZM23.2834 11.5667C23.2672 10.8752 23.1377 10.1912 22.9001 9.54167C22.6882 8.98594 22.3584 8.48273 21.9334 8.06667C21.5208 7.63952 21.0164 7.31181 20.4584 7.10833C19.8106 6.86347 19.1258 6.73101 18.4334 6.71667C17.5501 6.66667 17.2667 6.66667 15.0001 6.66667C12.7334 6.66667 12.4501 6.66667 11.5667 6.71667C10.8744 6.73101 10.1895 6.86347 9.54175 7.10833C8.98481 7.31388 8.48086 7.6413 8.06675 8.06667C7.6396 8.47932 7.3119 8.9837 7.10841 9.54167C6.86355 10.1895 6.73109 10.8743 6.71675 11.5667C6.66675 12.45 6.66675 12.7333 6.66675 15C6.66675 17.2667 6.66675 17.55 6.71675 18.4333C6.73109 19.1257 6.86355 19.8105 7.10841 20.4583C7.3119 21.0163 7.6396 21.5207 8.06675 21.9333C8.48086 22.3587 8.98481 22.6861 9.54175 22.8917C10.1895 23.1365 10.8744 23.269 11.5667 23.2833C12.4501 23.3333 12.7334 23.3333 15.0001 23.3333C17.2667 23.3333 17.5501 23.3333 18.4334 23.2833C19.1258 23.269 19.8106 23.1365 20.4584 22.8917C21.0164 22.6882 21.5208 22.3605 21.9334 21.9333C22.3603 21.5188 22.6904 21.0152 22.9001 20.4583C23.1377 19.8088 23.2672 19.1248 23.2834 18.4333C23.2834 17.55 23.3334 17.2667 23.3334 15C23.3334 12.7333 23.3334 12.45 23.2834 11.5667ZM21.7834 18.3333C21.7773 18.8623 21.6815 19.3864 21.5001 19.8833C21.367 20.246 21.1533 20.5737 20.8751 20.8417C20.6048 21.1171 20.2778 21.3304 19.9167 21.4667C19.4198 21.6481 18.8957 21.7439 18.3667 21.75C17.5334 21.7917 17.2251 21.8 15.0334 21.8C12.8417 21.8 12.5334 21.8 11.7001 21.75C11.1508 21.7603 10.6039 21.6757 10.0834 21.5C9.73823 21.3567 9.42621 21.144 9.16675 20.875C8.89016 20.6073 8.67912 20.2793 8.55008 19.9167C8.34663 19.4126 8.23378 18.8766 8.21675 18.3333C8.21675 17.5 8.16675 17.1917 8.16675 15C8.16675 12.8083 8.16675 12.5 8.21675 11.6667C8.22048 11.1259 8.31921 10.59 8.50841 10.0833C8.65512 9.73159 8.8803 9.41805 9.16675 9.16667C9.41993 8.88014 9.73282 8.65258 10.0834 8.5C10.5914 8.3167 11.1267 8.2209 11.6667 8.21667C12.5001 8.21667 12.8084 8.16667 15.0001 8.16667C17.1917 8.16667 17.5001 8.16667 18.3334 8.21667C18.8624 8.22274 19.3865 8.31854 19.8834 8.5C20.2621 8.64054 20.602 8.86904 20.8751 9.16667C21.1482 9.42265 21.3615 9.73561 21.5001 10.0833C21.6853 10.5908 21.7812 11.1265 21.7834 11.6667C21.8251 12.5 21.8334 12.8083 21.8334 15C21.8334 17.1917 21.8251 17.5 21.7834 18.3333ZM15.0001 10.725C14.1549 10.7266 13.3292 10.9788 12.6273 11.4495C11.9254 11.9203 11.3787 12.5885 11.0564 13.3698C10.7342 14.1511 10.6507 15.0104 10.8166 15.8391C10.9825 16.6678 11.3903 17.4288 11.9885 18.0258C12.5867 18.6229 13.3484 19.0292 14.1775 19.1935C15.0065 19.3577 15.8656 19.2726 16.6463 18.9488C17.427 18.625 18.0941 18.077 18.5635 17.3742C19.0329 16.6714 19.2834 15.8452 19.2834 15C19.2845 14.4376 19.1744 13.8805 18.9594 13.3608C18.7445 12.8411 18.4289 12.369 18.0308 11.9717C17.6327 11.5744 17.16 11.2597 16.6399 11.0458C16.1198 10.8318 15.5625 10.7228 15.0001 10.725ZM15.0001 17.775C14.4512 17.775 13.9147 17.6123 13.4584 17.3073C13.002 17.0024 12.6463 16.569 12.4363 16.0619C12.2263 15.5549 12.1713 14.9969 12.2784 14.4586C12.3855 13.9203 12.6498 13.4259 13.0379 13.0378C13.426 12.6497 13.9204 12.3854 14.4587 12.2783C14.997 12.1712 15.555 12.2262 16.062 12.4362C16.5691 12.6463 17.0025 13.0019 17.3074 13.4583C17.6123 13.9146 17.7751 14.4512 17.7751 15C17.7751 15.3644 17.7033 15.7253 17.5638 16.0619C17.4244 16.3986 17.22 16.7045 16.9623 16.9622C16.7046 17.2199 16.3987 17.4243 16.062 17.5638C15.7253 17.7032 15.3645 17.775 15.0001 17.775Z" fill="#666666"/>
</svg>
