<svg width="24" height="24" viewBox="0 0 24 24" fill="none" xmlns="http://www.w3.org/2000/svg">
<path d="M3.52751 16.9099C3.18985 17.2475 3.0001 17.7054 3 18.1828V20.138C3 20.3768 3.09484 20.6057 3.26366 20.7745C3.43248 20.9434 3.66144 21.0382 3.90019 21.0382H6.60076C6.8395 21.0382 7.06847 20.9434 7.23729 20.7745C7.4061 20.6057 7.50094 20.3768 7.50094 20.138V19.2378C7.50094 18.9991 7.59579 18.7701 7.7646 18.6013C7.93342 18.4325 8.16239 18.3376 8.40113 18.3376H9.30132C9.54007 18.3376 9.76903 18.2428 9.93785 18.074C10.1067 17.9052 10.2015 17.6762 10.2015 17.4375V16.5373C10.2015 16.2985 10.2964 16.0696 10.4652 15.9007C10.634 15.7319 10.863 15.6371 11.1017 15.6371H11.2565C11.734 15.637 12.1918 15.4472 12.5294 15.1096L13.2622 14.3768C14.5133 14.8126 15.8753 14.811 17.1253 14.3721C18.3753 13.9332 19.4394 13.0831 20.1435 11.9608C20.8476 10.8385 21.15 9.51054 21.0012 8.19408C20.8524 6.87761 20.2612 5.6506 19.3244 4.71379C18.3876 3.77698 17.1606 3.18583 15.8441 3.03703C14.5277 2.88823 13.1997 3.19061 12.0774 3.89469C10.9551 4.59877 10.105 5.66287 9.66612 6.91291C9.22724 8.16296 9.22558 9.52494 9.6614 10.7761L3.52751 16.9099Z" stroke="black" stroke-opacity="0.74" stroke-linecap="round" stroke-linejoin="round"/>
<path d="M16.0527 8.43559C16.3013 8.43559 16.5028 8.23408 16.5028 7.98549C16.5028 7.73691 16.3013 7.5354 16.0527 7.5354C15.8042 7.5354 15.6026 7.73691 15.6026 7.98549C15.6026 8.23408 15.8042 8.43559 16.0527 8.43559Z" fill="black" fill-opacity="0.74" stroke="black" stroke-opacity="0.74" stroke-linecap="round" stroke-linejoin="round"/>
</svg>
