<svg width="25" height="25" viewBox="0 0 25 25" fill="none" xmlns="http://www.w3.org/2000/svg">
<path d="M22.6562 16.4062H21.875V7.03125C21.875 6.40965 21.6281 5.81351 21.1885 5.37397C20.749 4.93443 20.1529 4.6875 19.5312 4.6875H5.46875C4.84715 4.6875 4.25101 4.93443 3.81147 5.37397C3.37193 5.81351 3.125 6.40965 3.125 7.03125V16.4062H2.34375C2.13655 16.4062 1.93784 16.4886 1.79132 16.6351C1.64481 16.7816 1.5625 16.9803 1.5625 17.1875V18.75C1.5625 19.3716 1.80943 19.9677 2.24897 20.4073C2.68851 20.8468 3.28465 21.0938 3.90625 21.0938H21.0938C21.7154 21.0938 22.3115 20.8468 22.751 20.4073C23.1906 19.9677 23.4375 19.3716 23.4375 18.75V17.1875C23.4375 16.9803 23.3552 16.7816 23.2087 16.6351C23.0622 16.4886 22.8635 16.4062 22.6562 16.4062ZM4.6875 7.03125C4.6875 6.82405 4.76981 6.62534 4.91632 6.47882C5.06284 6.33231 5.26155 6.25 5.46875 6.25H19.5312C19.7385 6.25 19.9372 6.33231 20.0837 6.47882C20.2302 6.62534 20.3125 6.82405 20.3125 7.03125V16.4062H4.6875V7.03125ZM21.875 18.75C21.875 18.9572 21.7927 19.1559 21.6462 19.3024C21.4997 19.4489 21.301 19.5312 21.0938 19.5312H3.90625C3.69905 19.5312 3.50034 19.4489 3.35382 19.3024C3.20731 19.1559 3.125 18.9572 3.125 18.75V17.9688H21.875V18.75ZM14.8438 8.59375C14.8438 8.80095 14.7614 8.99966 14.6149 9.14618C14.4684 9.29269 14.2697 9.375 14.0625 9.375H10.9375C10.7303 9.375 10.5316 9.29269 10.3851 9.14618C10.2386 8.99966 10.1562 8.80095 10.1562 8.59375C10.1562 8.38655 10.2386 8.18784 10.3851 8.04132C10.5316 7.89481 10.7303 7.8125 10.9375 7.8125H14.0625C14.2697 7.8125 14.4684 7.89481 14.6149 8.04132C14.7614 8.18784 14.8438 8.38655 14.8438 8.59375Z" fill="#008E96"/>
</svg>
