<svg width="29" height="29" viewBox="0 0 29 29" fill="none" xmlns="http://www.w3.org/2000/svg">
<path d="M10.7833 7.16667C10.7831 7.6087 10.6073 8.03253 10.2945 8.34494C9.98182 8.65734 9.55781 8.83272 9.11578 8.8325C8.67376 8.83228 8.24992 8.65647 7.93752 8.34376C7.62511 8.03104 7.44973 7.60703 7.44995 7.165C7.45017 6.72297 7.62598 6.29914 7.9387 5.98673C8.25141 5.67433 8.67542 5.49895 9.11745 5.49917C9.55948 5.49939 9.98331 5.6752 10.2957 5.98791C10.6081 6.30063 10.7835 6.72464 10.7833 7.16667ZM10.8333 10.0667H7.49995V20.5H10.8333V10.0667ZM16.1 10.0667H12.7833V20.5H16.0666V15.025C16.0666 11.975 20.0416 11.6917 20.0416 15.025V20.5H23.3333V13.8917C23.3333 8.75 17.45 8.94167 16.0666 11.4667L16.1 10.0667Z" fill="#666666"/>
</svg>
