<svg width="42" height="42" viewBox="0 0 42 42" fill="none" xmlns="http://www.w3.org/2000/svg">
<path fill-rule="evenodd" clip-rule="evenodd" d="M40.0312 26.9062C40.0312 24.3692 37.9746 22.3125 35.4375 22.3125H6.5625C4.02544 22.3125 1.96875 24.3692 1.96875 26.9062V37.4062C1.96875 39.9433 4.02544 42 6.5625 42H35.4375C37.9746 42 40.0312 39.9433 40.0312 37.4062V26.9062Z" fill="#F51E1E"/>
<path fill-rule="evenodd" clip-rule="evenodd" d="M28.2188 31.5V29.5312H30.8438C31.206 29.5312 31.5 29.2372 31.5 28.875C31.5 28.5127 31.206 28.2188 30.8438 28.2188H27.5625C27.2002 28.2188 26.9062 28.5127 26.9062 28.875V35.4375C26.9062 35.7997 27.2002 36.0938 27.5625 36.0938H30.8438C31.206 36.0938 31.5 35.7997 31.5 35.4375C31.5 35.0753 31.206 34.7812 30.8438 34.7812H28.2188V32.8125H30.8438C31.206 32.8125 31.5 32.5185 31.5 32.1562C31.5 31.794 31.206 31.5 30.8438 31.5H28.2188Z" fill="white"/>
<path fill-rule="evenodd" clip-rule="evenodd" d="M17.7188 35.4375V28.875C17.7188 28.5127 17.4247 28.2188 17.0625 28.2188C16.7002 28.2188 16.4062 28.5127 16.4062 28.875V35.4375C16.4062 35.7997 16.7002 36.0938 17.0625 36.0938C17.4247 36.0938 17.7188 35.7997 17.7188 35.4375Z" fill="white"/>
<path fill-rule="evenodd" clip-rule="evenodd" d="M9.84375 28.875V35.4375C9.84375 35.7997 10.1377 36.0938 10.5 36.0938H13.7812C14.1435 36.0938 14.4375 35.7997 14.4375 35.4375C14.4375 35.0753 14.1435 34.7812 13.7812 34.7812H11.1562V28.875C11.1562 28.5127 10.8622 28.2188 10.5 28.2188C10.1377 28.2188 9.84375 28.5127 9.84375 28.875Z" fill="white"/>
<path fill-rule="evenodd" clip-rule="evenodd" d="M23.6525 28.6866L22.3125 33.1537L20.9724 28.6866C20.8681 28.3395 20.5019 28.1426 20.1554 28.2463C19.8082 28.3506 19.6113 28.7168 19.715 29.0633L21.6838 35.6258C21.7671 35.9034 22.0224 36.0937 22.3125 36.0937C22.6025 36.0937 22.8578 35.9034 22.9412 35.6258L24.9099 29.0633C25.0136 28.7168 24.8167 28.3506 24.4696 28.2463C24.1231 28.1426 23.7569 28.3395 23.6525 28.6866Z" fill="white"/>
<path fill-rule="evenodd" clip-rule="evenodd" d="M27.1648 1.2029C30.1723 3.2025 32.1562 6.62091 32.1562 10.5C32.1562 14.3791 30.1723 17.7975 27.1648 19.7971C26.8635 19.9979 26.7815 20.4054 26.9817 20.7073C27.1825 21.0085 27.59 21.0906 27.8919 20.8904C31.2526 18.6559 33.4687 14.8345 33.4687 10.5C33.4687 6.16547 31.2526 2.34412 27.8919 0.109592C27.59 -0.0905641 27.1825 -0.00853262 26.9817 0.292686C26.7815 0.594561 26.8635 1.00209 27.1648 1.2029Z" fill="#F51E1E"/>
<path fill-rule="evenodd" clip-rule="evenodd" d="M14.1081 0.109592C10.7474 2.34412 8.53125 6.16547 8.53125 10.5C8.53125 14.8345 10.7474 18.6559 14.1081 20.8904C14.4099 21.0906 14.8175 21.0085 15.0183 20.7073C15.2184 20.4054 15.1364 19.9979 14.8352 19.7971C11.8276 17.7975 9.84375 14.3791 9.84375 10.5C9.84375 6.62091 11.8276 3.2025 14.8352 1.2029C15.1364 1.00209 15.2184 0.594561 15.0183 0.292686C14.8175 -0.00853262 14.4099 -0.0905641 14.1081 0.109592Z" fill="#F51E1E"/>
<path fill-rule="evenodd" clip-rule="evenodd" d="M24.9887 4.48415C26.9352 5.77762 28.2188 7.98984 28.2188 10.5C28.2188 13.0102 26.9352 15.2224 24.9887 16.5158C24.6875 16.7167 24.6055 17.1242 24.8056 17.4261C25.0065 17.7273 25.414 17.8093 25.7158 17.6092C28.0147 16.0801 29.5313 13.4656 29.5313 10.5C29.5313 7.5344 28.0147 4.9199 25.7158 3.39084C25.414 3.19069 25.0065 3.27272 24.8056 3.57394C24.6055 3.87581 24.6875 4.28334 24.9887 4.48415Z" fill="#F51E1E"/>
<path fill-rule="evenodd" clip-rule="evenodd" d="M16.2842 3.39084C13.9854 4.9199 12.4688 7.5344 12.4688 10.5C12.4688 13.4656 13.9854 16.0801 16.2842 17.6092C16.5861 17.8093 16.9936 17.7273 17.1944 17.4261C17.3946 17.1242 17.3125 16.7167 17.0113 16.5158C15.0649 15.2224 13.7812 13.0102 13.7812 10.5C13.7812 7.98984 15.0649 5.77762 17.0113 4.48415C17.3125 4.28334 17.3946 3.87581 17.1944 3.57394C16.9936 3.27272 16.5861 3.19069 16.2842 3.39084Z" fill="#F51E1E"/>
<path d="M21 14.4375C23.1746 14.4375 24.9375 12.6746 24.9375 10.5C24.9375 8.32538 23.1746 6.5625 21 6.5625C18.8254 6.5625 17.0625 8.32538 17.0625 10.5C17.0625 12.6746 18.8254 14.4375 21 14.4375Z" fill="#F51E1E"/>
</svg>
