<svg width="15" height="21" viewBox="0 0 15 21" fill="none" xmlns="http://www.w3.org/2000/svg">
<path d="M7.25 20C11 14.75 14 10.25 14 7.25C14 5.45979 13.2888 3.7429 12.023 2.47703C10.7571 1.21116 9.04021 0.5 7.25 0.5C5.45979 0.5 3.7429 1.21116 2.47703 2.47703C1.21116 3.7429 0.5 5.45979 0.5 7.25C0.5 10.25 3.5 14.75 7.25 20Z" stroke="black"/>
<path d="M10.25 7.25C10.25 8.04565 9.93393 8.80871 9.37132 9.37132C8.80871 9.93393 8.04565 10.25 7.25 10.25C6.45435 10.25 5.69129 9.93393 5.12868 9.37132C4.56607 8.80871 4.25 8.04565 4.25 7.25C4.25 6.45435 4.56607 5.69129 5.12868 5.12868C5.69129 4.56607 6.45435 4.25 7.25 4.25C8.04565 4.25 8.80871 4.56607 9.37132 5.12868C9.93393 5.69129 10.25 6.45435 10.25 7.25Z" stroke="black"/>
</svg>
