<svg width="30" height="30" viewBox="0 0 30 30" fill="none" xmlns="http://www.w3.org/2000/svg">
<path d="M2.2124 24.3275V23.0775H27.7874V24.3275H2.2124ZM5.7699 21.8275C5.19407 21.8275 4.71365 21.6346 4.32865 21.2487C3.94365 20.8629 3.75074 20.3825 3.7499 19.8075V7.59624C3.7499 7.02124 3.94282 6.54082 4.32865 6.15499C4.71449 5.76915 5.19449 5.57665 5.76865 5.57749H24.2312C24.8062 5.57749 25.2862 5.76999 25.6712 6.15499C26.0562 6.53999 26.2491 7.0204 26.2499 7.59624V19.8087C26.2499 20.3837 26.057 20.8637 25.6712 21.2487C25.2853 21.6337 24.8049 21.8267 24.2299 21.8275H5.7699ZM5.7699 20.5775H24.2312C24.4228 20.5775 24.5991 20.4971 24.7599 20.3362C24.9207 20.1754 25.0007 19.9992 24.9999 19.8075V7.59624C24.9999 7.40457 24.9199 7.22832 24.7599 7.06749C24.5991 6.90665 24.4224 6.82624 24.2299 6.82624H5.7699C5.5774 6.82624 5.40074 6.90665 5.2399 7.06749C5.0799 7.22749 4.9999 7.40374 4.9999 7.59624V19.8087C4.9999 20.0004 5.0799 20.1762 5.2399 20.3362C5.3999 20.4962 5.57615 20.5767 5.76865 20.5775" fill="#008E96"/>
</svg>
