<svg width="57" height="57" viewBox="0 0 57 57" fill="none" xmlns="http://www.w3.org/2000/svg">
<path d="M17.7992 35.3817C17.7992 38.8157 15.0149 43.5695 11.5808 43.5695C8.14662 43.5695 5.3623 38.8157 5.3623 35.3817C5.3623 31.9476 8.14662 31.1241 11.5808 31.1241C15.0149 31.1241 17.7992 31.9475 17.7992 35.3817Z" fill="#B7BBBA"/>
<path d="M55.0707 5.35692V51.6426C55.0707 53.5362 53.5357 55.0712 51.6421 55.0712H28.619C26.7254 55.0712 25.1904 53.5362 25.1904 51.6426V5.35692C25.1904 3.46334 26.7254 1.92834 28.619 1.92834H51.6421C53.5357 1.92834 55.0707 3.46334 55.0707 5.35692Z" fill="#BEE7FD"/>
<path d="M41.7283 50.7207C41.7283 51.604 41.0166 52.3207 40.1333 52.3207C39.25 52.3207 38.5332 51.604 38.5332 50.7207C38.5332 49.8375 39.2499 49.1207 40.1333 49.1207C41.0166 49.1207 41.7283 49.8375 41.7283 50.7207Z" fill="#F6F6F6"/>
<path d="M43.1411 28.6822V30.131C43.1411 31.7939 41.793 33.1419 40.1301 33.1419C38.4672 33.1419 37.1191 31.7939 37.1191 30.131V28.6822C37.1191 27.0193 38.4672 25.6713 40.1301 25.6713C41.793 25.6713 43.1411 27.0193 43.1411 28.6822Z" fill="#FACA42"/>
<path d="M46.6365 38.8033V40.6125H33.624V38.8033C33.624 36.6783 35.3467 34.9556 37.4717 34.9556H42.7888C44.9138 34.9556 46.6365 36.6783 46.6365 38.8033Z" fill="#FACA42"/>
<path d="M14.0298 34.6149C12.3863 35.1171 10.7427 35.1171 9.09932 34.6149C8.15403 34.3261 7.16689 34.9249 6.96482 35.8923L6.22271 39.4442C5.50999 42.8553 8.02812 46.2014 11.5128 46.2331C15.025 46.2652 17.659 43.0452 16.9425 39.6159L16.1645 35.8923C15.9621 34.9248 14.9751 34.326 14.0298 34.6149Z" fill="#FFDBAB"/>
<path d="M21.2374 52.0237V55.0712H1.92773V52.0237C1.92773 49.449 3.60912 47.2685 5.93154 46.5119C6.48851 46.3333 7.09269 46.2334 7.71279 46.2334H15.4472C16.0672 46.2334 16.6662 46.3333 17.2284 46.5119C19.5508 47.2633 21.2374 49.4439 21.2374 52.0237Z" fill="#008E96"/>
<path d="M6.10156 17.3119V21.1014C6.10156 22.1473 6.94944 22.9952 7.99537 22.9952H28.3788L32.5016 27.2637V17.3119C32.5016 16.266 31.6537 15.4181 30.6078 15.4181H7.99537C6.94944 15.4181 6.10156 16.266 6.10156 17.3119Z" fill="#F66C7B"/>
<path d="M28.495 7.79969V10.135C28.495 10.9504 27.8341 11.6113 27.0187 11.6113H15.9089C15.0936 11.6113 14.4326 10.9504 14.4326 10.135V7.79969C14.4326 6.98432 15.0936 6.32336 15.9089 6.32336H27.0187C27.8341 6.32336 28.495 6.98432 28.495 7.79969Z" fill="#008E96"/>
<path d="M51.643 1.28577H28.6198C26.3749 1.28577 24.5484 3.11222 24.5484 5.35715V5.68022H15.9096C14.7411 5.68022 13.7906 6.63107 13.7906 7.79969V10.135C13.7906 11.3035 14.7411 12.2545 15.9096 12.2545H27.0193C28.1878 12.2545 29.1388 11.3036 29.1388 10.135V7.79969C29.1388 6.63119 28.188 5.68022 27.0193 5.68022H25.834V5.35715C25.834 3.82115 27.0838 2.57138 28.6198 2.57138H51.643C53.179 2.57138 54.4288 3.82115 54.4288 5.35715V51.6429C54.4288 53.1789 53.179 54.4287 51.643 54.4287H28.6198C27.0838 54.4287 25.834 53.1789 25.834 51.6429V23.6385H28.1062L32.0396 27.7107C32.1635 27.838 32.3313 27.9065 32.502 27.9065C32.5832 27.9065 32.6648 27.8915 32.7431 27.8597C32.9858 27.7617 33.1448 27.5257 33.1448 27.2637V17.312C33.1448 15.9133 32.0068 14.775 30.6081 14.775H7.99571C6.59698 14.775 5.45898 15.9134 5.45898 17.312V21.1014C5.45898 22.5001 6.59698 23.6385 7.99571 23.6385H24.5484V51.6429C24.5484 53.8879 26.3749 55.7143 28.6198 55.7143H51.643C53.8879 55.7143 55.7144 53.8879 55.7144 51.6429V5.35715C55.7144 3.11222 53.8879 1.28577 51.643 1.28577ZM27.0193 6.96595C27.4789 6.96595 27.8531 7.34012 27.8531 7.79969V10.135C27.8531 10.5946 27.4789 10.9688 27.0193 10.9688H15.9096C15.45 10.9688 15.0763 10.5946 15.0763 10.135V7.79969C15.0763 7.34012 15.45 6.96595 15.9096 6.96595H27.0193ZM7.99571 22.3527C7.30603 22.3527 6.74471 21.7911 6.74471 21.1013V17.3119C6.74471 16.6222 7.30592 16.0605 7.99571 16.0605H30.6083C31.298 16.0605 31.8593 16.6221 31.8593 17.3119V25.6732L28.8418 22.5484C28.7204 22.4237 28.5539 22.3526 28.3793 22.3526L7.99571 22.3527Z" fill="#4C5053"/>
<path d="M44.4192 5.68039H45.3488C45.7037 5.68039 45.9916 5.3925 45.9916 5.03758C45.9916 4.68267 45.7037 4.39478 45.3488 4.39478H44.4192C44.0643 4.39478 43.7764 4.68267 43.7764 5.03758C43.7764 5.3925 44.0643 5.68039 44.4192 5.68039Z" fill="#4C5053"/>
<path d="M41.1312 4.39465H34.9123C34.5574 4.39465 34.2695 4.68255 34.2695 5.03746C34.2695 5.39238 34.5574 5.68027 34.9123 5.68027H41.1312C41.4862 5.68027 41.774 5.39238 41.774 5.03746C41.774 4.68255 41.4862 4.39465 41.1312 4.39465Z" fill="#4C5053"/>
<path d="M37.8906 50.7205C37.8906 51.9577 38.8968 52.9638 40.1336 52.9638C41.3674 52.9638 42.3715 51.9576 42.3715 50.7205C42.3715 49.4842 41.3674 48.478 40.1336 48.478C38.8968 48.478 37.8906 49.4842 37.8906 50.7205ZM41.0857 50.7205C41.0857 51.2487 40.6585 51.6782 40.1336 51.6782C39.6057 51.6782 39.1764 51.2488 39.1764 50.7205C39.1764 50.1931 39.6057 49.7638 40.1336 49.7638C40.6584 49.7638 41.0857 50.1931 41.0857 50.7205Z" fill="#4C5053"/>
<path d="M40.1313 25.0288C38.1165 25.0288 36.4775 26.6678 36.4775 28.6826V30.1308C36.4775 32.1456 38.1165 33.7853 40.1313 33.7853C42.1461 33.7853 43.7851 32.1456 43.7851 30.1308V28.6826C43.7851 26.6677 42.1461 25.0288 40.1313 25.0288ZM42.4994 30.1306C42.4994 31.4364 41.4372 32.4995 40.1313 32.4995C38.8256 32.4995 37.7633 31.4364 37.7633 30.1306V28.6825C37.7633 27.3767 38.8254 26.3144 40.1313 26.3144C41.4371 26.3144 42.4994 27.3766 42.4994 28.6825V30.1306Z" fill="#4C5053"/>
<path d="M32.9816 40.6122C32.9816 40.9671 33.2695 41.255 33.6244 41.255H46.6367C46.9916 41.255 47.2795 40.9671 47.2795 40.6122V38.8034C47.2795 36.3273 45.2652 34.3126 42.7891 34.3126H37.4722C34.9958 34.3126 32.9814 36.3274 32.9814 38.8034V40.6122H32.9816ZM34.2673 38.8034C34.2673 37.0364 35.705 35.5984 37.4723 35.5984H42.7892C44.5562 35.5984 45.9939 37.0364 45.9939 38.8034V39.9694H34.2673V38.8034Z" fill="#4C5053"/>
<path d="M1.92819 55.7143H21.2377C21.5926 55.7143 21.8805 55.4264 21.8805 55.0715V52.0238C21.8805 49.223 20.0905 46.7621 17.4228 45.899C16.777 45.694 16.1124 45.5902 15.4474 45.5902H15.3233C15.6897 45.3057 16.0274 44.9787 16.3271 44.61C18.3805 42.0832 17.5238 39.3465 17.5245 39.2579C18.1039 37.9464 18.4424 36.571 18.4424 35.3814C18.4424 30.4813 13.2782 30.4813 11.581 30.4813C9.88381 30.4813 4.71963 30.4813 4.71963 35.3814C4.71963 36.5558 5.04905 37.912 5.61493 39.2087C5.61604 39.2945 4.83864 42.0827 6.86793 44.605C7.16662 44.9758 7.5035 45.3039 7.86788 45.5902H7.71291C4.16978 45.5902 1.28516 48.4545 1.28516 52.0238V55.0715C1.28538 55.4264 1.57327 55.7143 1.92819 55.7143ZM6.14541 36.6696C6.06314 36.2325 6.00547 35.799 6.00547 35.3815C6.00547 32.8478 7.67283 31.7672 11.5811 31.7672C15.4894 31.7672 17.1568 32.8478 17.1568 35.3815C17.1568 35.8243 17.0923 36.2852 17.0005 36.7493L16.7939 35.7607C16.515 34.4262 15.1424 33.5984 13.8421 34.0004C12.3275 34.4624 10.801 34.4624 9.2872 34.0004C7.98466 33.5977 6.61388 34.4287 6.33533 35.7607L6.14541 36.6696ZM6.85223 39.5759C6.87027 38.4369 7.47133 34.7965 8.91136 35.2291C10.6688 35.7665 12.4596 35.7665 14.2178 35.2291C14.7958 35.0559 15.4127 35.4384 15.5349 36.0235C15.5407 36.1102 16.2189 39.6947 16.305 39.7094C16.3034 39.7979 16.8917 41.877 15.3294 43.7988C14.4041 44.9373 13.0317 45.5901 11.564 45.5901H11.5183C10.1058 45.5775 8.77609 44.9238 7.86966 43.7979C6.91123 42.6077 6.53995 41.0684 6.85223 39.5759ZM2.57111 52.0238C2.57111 49.1823 4.86224 46.8758 7.71313 46.8758C7.80988 46.8758 15.75 46.8758 15.4475 46.8758C18.2789 46.8758 20.595 49.1573 20.595 52.0238V54.4287H2.57111V52.0238Z" fill="#4C5053"/>
<path d="M29.1196 18.0712C29.1196 17.7162 28.8317 17.4283 28.4767 17.4283H10.1223C9.76739 17.4283 9.47949 17.7162 9.47949 18.0712C9.47949 18.4261 9.76739 18.714 10.1223 18.714H28.4767C28.8317 18.7141 29.1196 18.4261 29.1196 18.0712Z" fill="#4C5053"/>
<path d="M29.1196 20.3413C29.1196 19.9864 28.8317 19.6985 28.4768 19.6985H18.7912C18.4363 19.6985 18.1484 19.9864 18.1484 20.3413C18.1484 20.6962 18.4363 20.9841 18.7912 20.9841H28.4768C28.8317 20.9842 29.1196 20.6962 29.1196 20.3413Z" fill="#4C5053"/>
</svg>
