<svg width="62" height="62" viewBox="0 0 62 62" fill="none" xmlns="http://www.w3.org/2000/svg">
<path d="M38.7169 37.1341C34.2024 40.5087 28.0048 40.5087 23.4898 37.1341C23.1876 36.908 22.7978 36.8352 22.4345 36.9364L11.1884 40.0706C8.16865 40.9122 5.90571 43.4201 5.37782 46.5104L3.1811 59.37C2.94648 60.7446 4.00558 62 5.40005 62H56.8067C58.2017 62 59.2608 60.7446 59.0261 59.37L56.8294 46.5104C56.3015 43.4201 54.0386 40.9122 51.0188 40.0706L39.7727 36.9364C39.4094 36.8352 39.0192 36.908 38.7169 37.1341Z" fill="#F9644B"/>
<path d="M59.0259 59.37L56.8292 46.5104C56.3013 43.4201 54.0383 40.9122 51.0186 40.0706L39.7725 36.9364C39.4092 36.8352 39.0194 36.908 38.7171 37.1341C36.7863 38.5773 34.5479 39.4013 32.2646 39.6099L44.7439 43.1354C47.7632 43.9769 50.0266 46.4853 50.5545 49.5751L52.6765 62H56.8065C58.2014 62 59.2605 60.7446 59.0259 59.37Z" fill="#DB3F2E"/>
<path d="M35.3177 44.0753L39.8573 39.8114C40.643 39.0735 40.2565 37.7552 39.1969 37.5584C37.9642 37.3106 37.0773 35.8806 37.0773 34.6233V29.0199H25.1307V34.6233C25.1307 35.8806 24.2442 37.3106 23.011 37.5584C21.9515 37.7552 21.565 39.0735 22.3507 39.8114L26.8903 44.0753C29.2587 46.2999 32.9492 46.2999 35.3177 44.0753Z" fill="#FFE7CF"/>
<path d="M32.429 39.6099L37.5882 36.6417C37.6388 36.6124 37.6913 36.5868 37.7448 36.5641C37.3276 36.0026 37.0769 35.2893 37.0769 34.6233V30.8472C35.4677 31.7899 33.4862 32.4659 31.1036 32.4923C30.9971 32.4909 30.8916 32.4886 30.7871 32.4848V37.1913C30.7871 38.2727 31.4025 39.1421 32.429 39.6099Z" fill="#EFD5BD"/>
<path d="M43.4399 15.0317H42.6523V11.8965C42.6523 8.77596 41.3714 5.7524 39.0068 3.71603C37.1525 2.11958 34.5466 0.726059 31.104 0.687744C27.6613 0.726059 25.055 2.11958 23.2012 3.71603C20.8365 5.7524 19.5551 8.77596 19.5551 11.8965V15.0317H18.768C17.6134 15.0317 16.6777 15.9673 16.6777 17.1215V19.4379C16.6777 20.5921 17.6134 21.5282 18.768 21.5282H19.5584C19.6237 24.5617 20.8985 27.4812 23.2012 29.4641C25.0554 31.0605 27.6613 32.454 31.104 32.4924C34.5466 32.454 37.1525 31.0605 39.0068 29.4641C41.3094 27.4812 42.5842 24.5612 42.6495 21.5282H43.4399C44.5941 21.5282 45.5302 20.5921 45.5302 19.4379V17.1215C45.5302 15.9673 44.5941 15.0317 43.4399 15.0317Z" fill="#FFE7CF"/>
<path d="M43.4394 15.0317H42.6519V11.8965C42.6519 8.77596 41.3709 5.7524 39.0063 3.71603C37.152 2.11958 34.5461 0.726059 31.1035 0.687744C29.9626 0.700516 28.9143 0.862762 27.9541 1.13097C29.8911 1.67258 31.4677 2.64842 32.7075 3.71603C35.0721 5.7524 36.3531 8.77596 36.3531 11.8965V14.1069L36.3503 21.5277C36.285 24.5612 35.0102 27.4812 32.7075 29.4641C31.4677 30.5312 29.8911 31.5075 27.9541 32.0487C28.9143 32.3173 29.9626 32.4796 31.1035 32.4924C34.5461 32.454 37.152 31.0605 39.0063 29.4641C41.3089 27.4812 42.5837 24.5612 42.649 21.5277H43.4394C44.5936 21.5277 45.5293 20.5921 45.5293 19.4379V17.1215C45.5297 15.9673 44.5936 15.0317 43.4394 15.0317Z" fill="#EFD5BD"/>
<path d="M26.5121 62H35.6948L41.4364 37.4004L39.7728 36.9364C39.409 36.8352 39.0192 36.908 38.717 37.1341C36.4597 38.8214 33.7819 40.3724 31.1037 40.3724C28.4254 40.3724 25.7477 38.8214 23.4899 37.1341C23.1877 36.908 22.7979 36.8352 22.4346 36.9364L20.7705 37.4004L26.5121 62Z" fill="#E1EFFB"/>
<path d="M20.7705 37.4005L22.6763 45.5653L31.1037 40.3725L24.619 36.6417C24.2482 36.4284 23.8035 36.384 23.3977 36.5202L20.7705 37.4005Z" fill="#BACED8"/>
<path d="M41.4367 37.4005L39.5309 45.5653L31.1035 40.3725L37.5882 36.6417C37.959 36.4284 38.4037 36.384 38.8095 36.5202L41.4367 37.4005Z" fill="#BACED8"/>
<path d="M19.2014 22.5864H17.5344C16.1764 22.5864 15.0752 21.4852 15.0752 20.1272V16.2995C15.0752 14.9414 16.1764 13.8402 17.5344 13.8402H19.2014C19.4469 13.8402 19.6455 14.0389 19.6455 14.2844V22.1422C19.6455 22.3877 19.4469 22.5864 19.2014 22.5864Z" fill="#F9644B"/>
<path d="M34.7665 28.4798C34.3001 28.4798 33.8961 28.1311 33.8389 27.6562C33.7769 27.143 34.1426 26.6771 34.6558 26.6151L43.9114 25.4983V20.2165C43.9114 19.6995 44.3305 19.2809 44.8471 19.2809C45.3636 19.2809 45.7827 19.6995 45.7827 20.2165V25.7064C45.7827 26.5337 45.1635 27.2324 44.3419 27.3313L34.88 28.4731C34.8417 28.4774 34.8038 28.4798 34.7665 28.4798Z" fill="#BACED8"/>
<path d="M26.5117 62H35.6945L33.6009 47.0898H28.6058L26.5117 62Z" fill="#395F80"/>
<path d="M31.1033 40.3724L26.5264 43.1926L28.5679 47.0898H33.563L35.6302 43.1619L31.1033 40.3724Z" fill="#1D4859"/>
<path d="M34.668 29.1117L32.9036 29.326C32.0659 29.4277 31.3043 28.8307 31.2026 27.993C31.1014 27.1553 31.6979 26.3937 32.5356 26.292L34.3 26.0782C35.1377 25.9765 35.8992 26.5734 36.0009 27.4112C36.1026 28.2489 35.5057 29.0104 34.668 29.1117Z" fill="#8ABE50"/>
<path d="M43.0052 22.5864H44.6726C46.0307 22.5864 47.1319 21.4852 47.1319 20.1272V16.2995C47.1319 14.9414 46.0307 13.8402 44.6726 13.8402H43.0052C42.7602 13.8402 42.5615 14.0389 42.5615 14.2844V22.1422C42.5615 22.3877 42.7602 22.5864 43.0052 22.5864Z" fill="#F9644B"/>
<path d="M37.9885 0H24.2188C20.6759 0 17.8037 2.87219 17.8037 6.41513V15.2668C17.8037 15.2668 19.5704 15.2271 20.7057 16.3505C20.9417 16.5842 21.3438 16.4134 21.3438 16.0809V9.14305C21.3438 7.57735 22.6134 6.30775 24.1791 6.30775H26.7557C27.4316 6.30775 28.0863 6.54143 28.6094 6.96904L28.8625 7.17575C29.4949 7.69276 30.2868 7.97516 31.1037 7.97516C31.9206 7.97516 32.7124 7.69276 33.3449 7.17575L33.5975 6.96904C34.1206 6.54143 34.7758 6.30775 35.4517 6.30775H38.0283C39.594 6.30775 40.8636 7.57735 40.8636 9.14305V16.0809C40.8636 16.4134 41.2652 16.5842 41.5017 16.3505C42.6369 15.2271 44.4032 15.2668 44.4032 15.2668V6.41513C44.4037 2.87219 41.5315 0 37.9885 0Z" fill="#FFB123"/>
<path d="M37.9884 0H31.71C35.2179 0 38.0664 2.8159 38.1227 6.31012C39.6444 6.36026 40.8634 7.60904 40.8634 9.14305V16.0809C40.8634 16.4134 41.265 16.5842 41.5015 16.3505C42.6368 15.2271 44.403 15.2668 44.403 15.2668V6.41513C44.4035 2.87219 41.5313 0 37.9884 0Z" fill="#FF901D"/>
</svg>
