<svg width="92" height="92" viewBox="0 0 92 92" fill="none" xmlns="http://www.w3.org/2000/svg">
<path d="M49.833 34.5001H70.9163L49.833 13.4167V34.5001ZM22.9997 7.66675H53.6663L76.6663 30.6667V76.6667C76.6663 78.7001 75.8586 80.6501 74.4208 82.0879C72.983 83.5257 71.033 84.3334 68.9997 84.3334H22.9997C20.9663 84.3334 19.0163 83.5257 17.5785 82.0879C16.1407 80.6501 15.333 78.7001 15.333 76.6667V15.3334C15.333 13.3001 16.1407 11.35 17.5785 9.91226C19.0163 8.47448 20.9663 7.66675 22.9997 7.66675ZM41.898 47.6867C43.4697 51.1367 45.463 53.9734 47.763 55.9284L49.3347 57.1551C45.9997 57.7684 41.3997 58.8417 36.5313 60.7201L36.1097 60.8734L38.0263 56.8867C39.7513 53.5517 41.0163 50.5234 41.898 47.6867ZM66.738 62.2917C67.428 61.6017 67.773 60.7201 67.8113 59.7617C67.9263 58.9951 67.7347 58.2667 67.3513 57.6534C66.2397 55.8517 63.3647 55.0084 58.6113 55.0084L53.6663 55.2767L50.3313 53.0534C47.9163 51.0601 45.7313 47.5717 44.198 43.2401L44.3513 42.7034C45.6163 37.6051 46.8047 31.4334 44.2747 28.9034C43.9652 28.6029 43.5992 28.3669 43.1978 28.2089C42.7964 28.051 42.3676 27.9744 41.9363 27.9834H41.0163C39.598 27.9834 38.333 29.4784 37.988 30.9351C36.5697 36.0334 37.413 38.8317 38.8313 43.4701V43.5084C37.873 46.8817 36.6463 50.7917 34.6913 54.7401L31.0113 61.6401L27.5997 63.5184C22.9997 66.3934 20.8147 69.6134 20.393 71.6451C20.2397 72.3734 20.3163 73.0251 20.5847 73.7151L20.6997 73.9067L22.5397 75.0951L24.2263 75.5167C27.3313 75.5167 30.858 71.8751 35.6113 63.7484L36.3013 63.4801C40.2497 62.2151 45.1563 61.3334 51.7497 60.6051C55.698 62.5601 60.3363 63.4417 63.2497 63.4417C64.9363 63.4417 66.0863 63.0201 66.738 62.2917ZM65.1663 59.5701L65.5113 59.9917C65.473 60.3751 65.358 60.4134 65.1663 60.4901H65.013L64.2847 60.5667C62.5213 60.5667 59.7997 59.8384 57.0013 58.6117C57.3463 58.2284 57.4997 58.2284 57.883 58.2284C63.2497 58.2284 64.783 59.1867 65.1663 59.5701ZM30.0147 65.1667C27.523 69.7284 25.2613 72.2584 23.5363 72.8334C23.728 71.3767 25.453 68.8467 28.1747 66.3551L30.0147 65.1667ZM41.5913 38.6784C40.7097 35.2284 40.6713 32.4301 41.323 30.8201L41.5913 30.3601L42.1663 30.5517C42.818 31.4717 42.8947 32.6984 42.5113 34.7684L42.3963 35.3817L41.783 38.5251L41.5913 38.6784Z" fill="#EF5350"/>
</svg>
