<svg width="24" height="24" viewBox="0 0 24 24" fill="none" xmlns="http://www.w3.org/2000/svg">
<path d="M7.82888 16.171C5.67828 14.0163 4.02439 11.4177 2.98288 8.55702C2.40988 6.99302 2.93488 5.27502 4.11288 4.09702L4.84188 3.36902C5.03786 3.17264 5.27066 3.01684 5.52693 2.91053C5.78321 2.80423 6.05793 2.74951 6.33538 2.74951C6.61282 2.74951 6.88755 2.80423 7.14382 2.91053C7.4001 3.01684 7.63289 3.17264 7.82888 3.36902L9.53588 5.07602C9.73226 5.27201 9.88806 5.5048 9.99437 5.76108C10.1007 6.01735 10.1554 6.29208 10.1554 6.56952C10.1554 6.84697 10.1007 7.12169 9.99437 7.37797C9.88806 7.63424 9.73226 7.86704 9.53588 8.06302L9.11588 8.48302C8.94776 8.6511 8.8144 8.85065 8.72342 9.07028C8.63243 9.2899 8.5856 9.5253 8.5856 9.76302C8.5856 10.0007 8.63243 10.2361 8.72342 10.4558C8.8144 10.6754 8.94776 10.8749 9.11588 11.043L12.9559 14.884C13.124 15.0521 13.3235 15.1855 13.5431 15.2765C13.7628 15.3675 13.9982 15.4143 14.2359 15.4143C14.4736 15.4143 14.709 15.3675 14.9286 15.2765C15.1482 15.1855 15.3478 15.0521 15.5159 14.884L15.9369 14.464C16.1329 14.2676 16.3657 14.1118 16.6219 14.0055C16.8782 13.8992 17.1529 13.8445 17.4304 13.8445C17.7078 13.8445 17.9825 13.8992 18.2388 14.0055C18.4951 14.1118 18.7279 14.2676 18.9239 14.464L20.6309 16.171C20.8273 16.367 20.9831 16.5998 21.0894 16.8561C21.1957 17.1124 21.2504 17.3871 21.2504 17.6645C21.2504 17.942 21.1957 18.2167 21.0894 18.473C20.9831 18.7292 20.8273 18.962 20.6309 19.158L19.9029 19.886C18.7249 21.065 17.0069 21.59 15.4429 21.017C12.5822 19.9755 9.98364 18.3216 7.82888 16.171Z" stroke="#008E96" stroke-width="1.5" stroke-linejoin="round"/>
</svg>
