<svg width="17" height="17" viewBox="0 0 17 17" fill="none" xmlns="http://www.w3.org/2000/svg">
<path d="M4.89175 3.21372C4.82722 3.17547 4.75372 3.15497 4.67871 3.15431C4.6037 3.15366 4.52985 3.17287 4.46467 3.20999C4.39948 3.24712 4.34529 3.30083 4.30758 3.36568C4.26988 3.43053 4.25001 3.50421 4.25 3.57922V13.4208C4.25001 13.4958 4.26988 13.5695 4.30758 13.6343C4.34529 13.6992 4.39948 13.7529 4.46467 13.79C4.52985 13.8272 4.6037 13.8464 4.67871 13.8457C4.75372 13.8451 4.82722 13.8246 4.89175 13.7863L13.1955 8.86551C13.259 8.82788 13.3115 8.7744 13.348 8.71032C13.3845 8.64623 13.4037 8.57376 13.4037 8.50001C13.4037 8.42627 13.3845 8.3538 13.348 8.28971C13.3115 8.22563 13.259 8.17215 13.1955 8.13451L4.89175 3.21372Z" fill="#008E96" stroke="#008E96" stroke-width="1.5" stroke-linecap="round" stroke-linejoin="round"/>
</svg>
