<svg width="41" height="41" viewBox="0 0 41 41" fill="none" xmlns="http://www.w3.org/2000/svg">
<path fill-rule="evenodd" clip-rule="evenodd" d="M40.5908 28.8595C40.5908 28.8595 39.6697 32.0413 38.4397 33.3125C36.881 34.9816 35.0133 35.3358 34.2111 35.4333C33.9483 35.4533 33.6768 35.4702 33.4052 35.4871L33.4039 35.4758C33.046 35.5046 32.6782 35.397 32.4053 35.123C31.9078 34.6275 31.9078 33.8211 32.4053 33.3256C32.6306 33.0998 32.9228 32.9922 33.2169 32.9709L33.2156 32.9565C33.2588 32.9533 33.3044 32.9509 33.3464 32.9477C34.0102 32.867 35.4568 32.8601 36.749 31.4808C37.7676 30.431 38.098 28.0462 38.098 28.0462C38.098 28.0462 38.4371 25.2465 38.4371 22.447V18.5391C38.4371 15.7396 38.098 12.9381 38.098 12.9381C38.098 12.9381 37.7676 10.5537 36.749 9.50359C35.4568 8.12569 34.0102 8.11848 33.3464 8.03808C28.5948 7.68774 20.4988 7.68902 20.4988 7.68902C20.4988 7.68902 12.404 7.68774 7.65243 8.03808C6.9885 8.11848 5.54197 8.12569 4.25047 9.50359C3.23307 10.5537 2.90139 12.9381 2.90139 12.9381C2.90075 12.9381 2.56226 15.7396 2.56226 18.5391V22.447C2.56226 25.2465 2.90139 28.0462 2.90139 28.0462C2.90075 28.0462 3.23307 30.431 4.25047 31.4808C5.54189 32.8602 7.23882 32.8171 7.99468 32.9609C10.7115 33.2262 20.4987 33.3125 20.4987 33.3125C21.207 33.3125 21.7801 33.8868 21.7801 34.5938C21.7801 35.302 21.207 35.875 20.4987 35.875C20.4774 35.875 20.4568 35.8712 20.4355 35.87C19.6265 35.8613 10.3366 35.7574 7.19998 35.449C6.28773 35.2732 4.11962 34.9816 2.55914 33.3125C1.32898 32.0413 0.40984 28.8595 0.40984 28.8595C0.40984 28.8595 0 26.1112 0 22.721V18.2621C0 14.8719 0.40984 12.1224 0.40984 12.1224C0.40984 12.1224 1.32898 8.95906 2.55914 7.68902C4.11962 6.01995 5.98608 5.64647 6.78766 5.54885C12.526 5.125 20.4913 5.125 20.4913 5.125H20.5088C20.5088 5.125 28.4741 5.125 34.2111 5.54885C35.0133 5.64647 36.881 6.01995 38.4397 7.68902C39.6697 8.95898 40.5908 12.1224 40.5908 12.1224C40.5908 12.1224 41 14.8719 41 18.2621V22.721C41 26.1112 40.5908 28.8595 40.5908 28.8595ZM25.6252 33.3125C26.3335 33.3125 26.9066 33.8868 26.9066 34.5938C26.9066 35.302 26.3335 35.875 25.6252 35.875C24.9169 35.875 24.3438 35.302 24.3438 34.5938C24.3438 33.8868 24.9169 33.3125 25.6252 33.3125ZM19.8969 26.7575L19.885 26.7637C19.6954 26.8789 19.4758 26.9477 19.2386 26.9477C18.5422 26.9477 17.9772 26.3827 17.9772 25.6864C17.9772 25.201 18.2544 24.7843 18.6568 24.5729L18.6555 24.5717L25.191 21.0864C25.1872 21.0833 25.1766 21.0808 25.1828 21.0777C25.3969 20.9745 25.5445 20.7546 25.5445 20.5002C25.5445 20.2675 25.4157 20.0636 25.2297 19.9528L17.5792 15.8645C17.4903 15.8201 17.3984 15.7969 17.2964 15.7969C16.9541 15.7969 16.6813 16.0656 16.6625 16.4003L16.6638 24.3314H16.6538C16.6538 24.3358 16.6556 24.3401 16.6556 24.3446C16.6556 25.0527 16.0806 25.6257 15.3736 25.6257C14.6653 25.6257 14.0921 25.0527 14.0921 24.3446C14.0921 24.3427 14.0921 24.3427 14.0921 24.3414V15.4206C14.0921 13.9811 15.2603 12.8134 16.7001 12.8134C17.1925 12.8134 17.6524 12.9498 18.0447 13.1869C18.0603 13.1953 18.066 13.1925 18.0792 13.1982L26.9179 18.2909C27.1049 18.4 27.2776 18.5292 27.4372 18.6887C28.4383 19.69 28.4383 21.3122 27.4372 22.3132C27.2901 22.4596 27.1281 22.5822 26.9585 22.6867L19.9487 26.7262C19.9312 26.7374 19.9137 26.7462 19.8969 26.7575Z" fill="#E62D27"/>
</svg>
