<svg width="101" height="101" viewBox="0 0 101 101" fill="none" xmlns="http://www.w3.org/2000/svg">
<mask id="mask0_42_1237" style="mask-type:luminance" maskUnits="userSpaceOnUse" x="0" y="0" width="101" height="101">
<path d="M0 0H101V101H0V0Z" fill="white"/>
</mask>
<g mask="url(#mask0_42_1237)">
<path fill-rule="evenodd" clip-rule="evenodd" d="M22.6556 61.0419C18.8905 60.1096 15.5462 57.9432 13.1561 54.8884C10.766 51.8335 9.46787 48.0662 9.46875 44.1875V42.6094C9.46875 38.0054 11.2977 33.59 14.5532 30.3344C17.8087 27.0789 22.2241 25.25 26.8281 25.25H28.4062C32.9095 25.2459 37.2378 26.994 40.4753 30.1242C43.7127 33.2545 45.6055 37.5214 45.753 42.0223V42.0412H45.7656V44.1875C45.7656 45.0165 45.7088 45.8288 45.5952 46.6241C45.4689 48.2738 45.2796 49.894 45.0271 51.4848C44.3614 55.6521 43.1759 59.7196 41.4984 63.5921C38.4907 70.5294 33.7999 76.6066 27.8508 81.2734L27.2321 81.7532C26.9707 81.9521 26.6516 82.0607 26.3231 82.0625C26.0515 82.0615 25.7847 81.9904 25.5486 81.8561C25.3125 81.7217 25.1151 81.5288 24.9754 81.2958C24.8358 81.0628 24.7586 80.7977 24.7514 80.5262C24.7442 80.2547 24.8073 79.9859 24.9344 79.7458C26.4324 76.8967 27.8015 73.9815 29.0375 71.0093C30.2811 68.0172 31.5373 64.6147 32.5536 61.0482C31.1968 61.3838 29.8039 61.5513 28.4062 61.5469H26.8281C25.3847 61.5427 23.9938 61.3743 22.6556 61.0419ZM19.19 69.9109C13.6461 68.2644 8.78265 64.8705 5.32454 60.235C1.86642 55.5996 -0.00120583 49.9708 5.84106e-07 44.1875V42.6094C5.84106e-07 35.4941 2.82653 28.6703 7.85778 23.639C12.889 18.6078 19.7129 15.7813 26.8281 15.7813H28.4062C37.572 15.7813 45.6583 20.3767 50.5 27.3836C52.9671 23.8044 56.267 20.8783 60.1157 18.8572C63.9644 16.8361 68.2466 15.7805 72.5938 15.7813H74.1719C81.1941 15.7798 87.9369 18.5317 92.9528 23.4461C97.9688 28.3606 100.858 35.0457 101 42.0665V44.1875C101 45.3448 100.926 46.4874 100.779 47.6152C99.4724 64.1539 92.2067 78.9631 78.7611 89.2714C76.8454 90.7368 74.5006 91.531 72.0888 91.5312C63.6237 91.5312 58.5421 82.5359 62.317 75.346C63.0177 74.0141 63.9582 72.1393 64.9556 69.9173C60.041 68.4538 55.6488 65.6125 52.2991 61.7299C48.8802 72.692 42.1335 82.3178 32.9954 89.2714C31.0798 90.7368 28.735 91.531 26.3231 91.5312C17.8581 91.5312 12.7765 82.5359 16.5514 75.346C17.2521 74.0141 18.1926 72.1393 19.19 69.9173M68.4275 61.0419C69.7658 61.3743 71.1566 61.5427 72.6001 61.5469H74.1782C75.5755 61.5452 76.9676 61.3778 78.3255 61.0482C77.175 65.0691 75.7406 69.0032 74.033 72.821C73.0025 75.1661 71.893 77.4757 70.7063 79.7458C70.5792 79.9859 70.5162 80.2547 70.5234 80.5262C70.5306 80.7977 70.6077 81.0628 70.7474 81.2958C70.887 81.5288 71.0845 81.7217 71.3206 81.8561C71.5567 81.9904 71.8234 82.0615 72.0951 82.0625C72.4236 82.0607 72.7426 81.9521 73.0041 81.7532L73.6227 81.2734C75.5249 79.7669 77.2755 78.1509 78.8747 76.4254C82.6007 72.4205 85.5732 67.7757 87.6491 62.7147C89.1271 59.1053 90.182 55.3369 90.7927 51.4848C91.0539 49.8735 91.2456 48.2518 91.3671 46.6241C91.4808 45.8245 91.5376 45.0123 91.5376 44.1875V42.0476H91.5312V42.0223C91.3836 37.5192 89.4892 33.2504 86.249 30.1198C83.0088 26.9892 78.6774 25.2427 74.1719 25.25H72.5874C67.9834 25.25 63.568 27.0789 60.3125 30.3344C57.057 33.59 55.2281 38.0054 55.2281 42.6094V44.1875C55.2281 52.3306 60.8462 59.1734 68.4149 61.0419" fill="white"/>
</g>
</svg>
