<svg width="67" height="67" viewBox="0 0 67 67" fill="none" xmlns="http://www.w3.org/2000/svg">
<mask id="mask0_650_7193" style="mask-type:luminance" maskUnits="userSpaceOnUse" x="0" y="0" width="67" height="67">
<path d="M0 0H67V67H0V0Z" fill="white"/>
</mask>
<g mask="url(#mask0_650_7193)">
<path fill-rule="evenodd" clip-rule="evenodd" d="M15.0289 40.4931C12.5314 39.8747 10.3128 38.4376 8.72733 36.4111C7.14182 34.3846 6.28067 31.8855 6.28125 29.3125V28.2656C6.28125 25.2115 7.4945 22.2824 9.6541 20.1228C11.8137 17.9632 14.7427 16.75 17.7969 16.75H18.8438C21.8311 16.7473 24.7023 17.9069 26.8499 19.9834C28.9976 22.0599 30.2531 24.8905 30.351 27.8762V27.8888H30.3594V29.3125C30.3594 29.8625 30.3217 30.4013 30.2463 30.9289C30.1626 32.0232 30.0369 33.098 29.8694 34.1532C29.4278 36.9178 28.6414 39.616 27.5286 42.1849C25.5335 46.7868 22.4217 50.8183 18.4753 53.9141L18.0649 54.2323C17.8914 54.3643 17.6798 54.4363 17.4619 54.4375C17.2817 54.4368 17.1047 54.3897 16.9481 54.3006C16.7915 54.2115 16.6605 54.0834 16.5679 53.9289C16.4752 53.7743 16.424 53.5985 16.4193 53.4184C16.4145 53.2382 16.4563 53.0599 16.5406 52.9007C17.5344 51.0107 18.4426 49.0769 19.2625 47.1052C20.0874 45.1203 20.9207 42.8632 21.5949 40.4973C20.6949 40.72 19.7709 40.8311 18.8438 40.8281H17.7969C16.8393 40.8253 15.9167 40.7137 15.0289 40.4931ZM12.73 46.3766C9.05235 45.2843 5.82611 43.0329 3.53212 39.9579C1.23812 36.8829 -0.000799909 33.1489 3.87476e-07 29.3125V28.2656C3.87476e-07 23.5456 1.87502 19.0189 5.21258 15.6813C8.55015 12.3438 13.0768 10.4688 17.7969 10.4688H18.8438C24.924 10.4688 30.2882 13.5172 33.5 18.1654C35.1366 15.791 37.3257 13.85 39.8788 12.5092C42.4319 11.1685 45.2725 10.4682 48.1562 10.4688H49.2031C53.8614 10.4678 58.3344 12.2933 61.6618 15.5534C64.9892 18.8134 66.9057 23.2482 67 27.9055V29.3125C67 30.0802 66.9511 30.8381 66.8534 31.5863C65.9866 42.5576 61.1668 52.3814 52.2474 59.2196C50.9767 60.1917 49.4212 60.7186 47.8213 60.7188C42.2058 60.7188 38.8349 54.7516 41.339 49.982C41.8038 49.0984 42.4277 47.8548 43.0894 46.3808C39.8292 45.41 36.9155 43.5251 34.6934 40.9496C32.4255 48.2214 27.9499 54.6069 21.8881 59.2196C20.6173 60.1917 19.0618 60.7186 17.4619 60.7188C11.8464 60.7188 8.4755 54.7516 10.9796 49.982C11.4444 49.0984 12.0684 47.8548 12.73 46.3808M45.3925 40.4931C46.2803 40.7137 47.2029 40.8253 48.1604 40.8281H49.2073C50.1342 40.827 51.0577 40.7159 51.9585 40.4973C51.1953 43.1646 50.2438 45.7744 49.111 48.307C48.4274 49.8627 47.6914 51.3948 46.9042 52.9007C46.8199 53.0599 46.7781 53.2382 46.7828 53.4184C46.7876 53.5985 46.8388 53.7743 46.9314 53.9289C47.0241 54.0834 47.155 54.2115 47.3117 54.3006C47.4683 54.3897 47.6452 54.4368 47.8254 54.4375C48.0434 54.4363 48.255 54.3643 48.4284 54.2323L48.8388 53.9141C50.1006 52.9146 51.262 51.8426 52.3228 50.6981C54.7945 48.0413 56.7664 44.9601 58.1434 41.6028C59.1239 39.2085 59.8237 36.7086 60.2288 34.1532C60.4021 33.0844 60.5292 32.0086 60.6099 30.9289C60.6852 30.3985 60.7229 29.8597 60.7229 29.3125V27.8929H60.7188V27.8762C60.6208 24.889 59.3641 22.0572 57.2147 19.9805C55.0652 17.9037 52.1919 16.7451 49.2031 16.75H48.1521C45.0979 16.75 42.1689 17.9632 40.0093 20.1228C37.8497 22.2824 36.6364 25.2115 36.6364 28.2656V29.3125C36.6364 34.7144 40.3633 39.2536 45.3841 40.4931" fill="#008E96" fill-opacity="0.1"/>
</g>
</svg>
