<svg width="36" height="36" viewBox="0 0 36 36" fill="none" xmlns="http://www.w3.org/2000/svg">
<circle cx="18" cy="18" r="18" fill="#008E96"/>
<path d="M12.0645 18.4961V17.582H13.8457C14.1973 17.582 14.5039 17.5156 14.7656 17.3828C15.0312 17.2461 15.2363 17.0547 15.3809 16.8086C15.5293 16.5586 15.6035 16.2656 15.6035 15.9297C15.6035 15.4258 15.4355 15.0332 15.0996 14.752C14.7676 14.4668 14.3262 14.3242 13.7754 14.3242H12.0645V13.3633H13.9395C14.4551 13.3633 14.918 13.4629 15.3281 13.6621C15.7383 13.8574 16.0625 14.1406 16.3008 14.5117C16.5391 14.8789 16.6582 15.3203 16.6582 15.8359C16.6582 16.3281 16.541 16.7754 16.3066 17.1777C16.0762 17.5801 15.7441 17.9004 15.3105 18.1387C14.8809 18.377 14.3691 18.4961 13.7754 18.4961H12.0645ZM11.373 22V13.3633H12.4277V22H11.373ZM16.1074 22L13.7988 18.332L14.6191 17.6992L17.3262 22H16.1074ZM17.9121 19.2344V18.3555H21.2168V19.2344H17.9121ZM23.502 22V14.3008L23.7363 14.5586L21.7793 15.543V14.5352L24.1699 13.3633H24.5566V22H23.502Z" fill="white"/>
</svg>
