<svg width="18" height="18" viewBox="0 0 18 18" fill="none" xmlns="http://www.w3.org/2000/svg">
<path fill-rule="evenodd" clip-rule="evenodd" d="M6.3474 16.0578L12.8661 9.52744C12.9248 9.47137 12.9713 9.40387 13.0029 9.3291C13.0345 9.25434 13.0504 9.17389 13.0497 9.09274C13.0501 9.00976 13.034 8.92753 13.0025 8.85077C12.971 8.77401 12.9247 8.70423 12.8661 8.64544C10.5081 6.34504 8.23561 4.12474 6.04861 1.98454C5.93611 1.87924 5.48611 1.61734 5.13871 2.00614C4.79131 2.39584 5.00191 2.73514 5.13871 2.87554L11.4999 9.09274L5.4276 15.1758C5.2062 15.4812 5.2242 15.7629 5.4816 16.0209C5.7396 16.2789 6.0282 16.2918 6.3474 16.0578Z" fill="#008E96"/>
</svg>
