<svg width="36" height="36" viewBox="0 0 36 36" fill="none" xmlns="http://www.w3.org/2000/svg">
<g clip-path="url(#clip0_870_7039)">
<path d="M12.1463 12.9858C11.9246 12.9858 11.712 12.8977 11.5553 12.741C11.3986 12.5843 11.3105 12.3717 11.3105 12.15C11.3105 11.9284 11.3986 11.7158 11.5553 11.5591C11.712 11.4024 11.9246 11.3143 12.1463 11.3143C12.3679 11.3143 12.5805 11.4024 12.7372 11.5591C12.8939 11.7158 12.982 11.9284 12.982 12.15C12.982 12.3717 12.8939 12.5843 12.7372 12.741C12.5805 12.8977 12.3679 12.9858 12.1463 12.9858ZM23.8463 12.9858C23.6246 12.9858 23.412 12.8977 23.2553 12.741C23.0986 12.5843 23.0105 12.3717 23.0105 12.15C23.0105 11.9284 23.0986 11.7158 23.2553 11.5591C23.412 11.4024 23.6246 11.3143 23.8463 11.3143C24.0679 11.3143 24.2805 11.4024 24.4372 11.5591C24.5939 11.7158 24.682 11.9284 24.682 12.15C24.682 12.3717 24.5939 12.5843 24.4372 12.741C24.2805 12.8977 24.0679 12.9858 23.8463 12.9858Z" fill="#FD0000" stroke="#FD0000" stroke-width="1.92857" stroke-linecap="round" stroke-linejoin="round"/>
<path d="M17.9994 34.7143C27.2307 34.7143 34.7137 27.2313 34.7137 18C34.7137 8.76869 27.2307 1.28571 17.9994 1.28571C8.76814 1.28571 1.28516 8.76869 1.28516 18C1.28516 27.2313 8.76814 34.7143 17.9994 34.7143Z" stroke="#FD0000" stroke-width="1.92857" stroke-linecap="round" stroke-linejoin="round"/>
<path d="M10.4766 23.8499C10.4766 23.8499 12.9837 20.5071 17.998 20.5071C23.0123 20.5071 25.5194 23.8499 25.5194 23.8499" stroke="#FD0000" stroke-width="1.92857" stroke-linecap="round" stroke-linejoin="round"/>
</g>
<defs>
<clipPath id="clip0_870_7039">
<rect width="36" height="36" fill="white"/>
</clipPath>
</defs>
</svg>
