<svg width="70" height="70" viewBox="0 0 70 70" fill="none" xmlns="http://www.w3.org/2000/svg">
<path d="M53.5662 33.9883C53.6038 33.5939 53.5724 33.196 53.4732 32.8125C53.3626 32.3806 53.1633 31.9765 52.8881 31.6258L46.9326 24.0625L46.074 22.9688H46.0686L45.21 21.875L44.9912 21.5961L61.4303 21.4648L68.6764 34.3164H53.517C53.5389 34.207 53.5553 34.0977 53.5662 33.9883Z" fill="#FC785E"/>
<path d="M24.8826 21.7601L24.7951 21.875L23.067 24.0625L17.1061 31.6312C16.8336 31.9809 16.6363 32.383 16.5264 32.8125C16.4273 33.1942 16.3958 33.5902 16.4334 33.9828C16.444 34.0948 16.4605 34.2061 16.4826 34.3164H1.43262L8.17012 21.7601H24.8826Z" fill="#FC785E"/>
<path d="M19.1406 38.2812V56.6453H3.28125L4.375 38.2812H19.1406Z" fill="#81D9E3"/>
<path d="M66.8555 56.6453H50.8594V38.2812H65.7617L66.8555 56.6453Z" fill="#81D9E3"/>
<path d="M48.0592 32.5609H47.5779C47.2881 32.5617 47.0104 32.6772 46.8055 32.8822C46.6005 33.0871 46.485 33.3648 46.4842 33.6546V55.7812H41.0154V49.7656C41.0154 48.1701 40.3816 46.64 39.2535 45.5119C38.1253 44.3837 36.5952 43.75 34.9998 43.75C33.4044 43.75 31.8743 44.3837 30.7461 45.5119C29.618 46.64 28.9842 48.1701 28.9842 49.7656V55.7812H23.5154V33.6546C23.5146 33.3648 23.3991 33.0871 23.1941 32.8822C22.9892 32.6772 22.7115 32.5617 22.4217 32.5609H21.9404L34.9998 15.9851L48.0592 32.5609Z" fill="#E1EBF4"/>
<path d="M1.09374 36.0938H17.4953C16.8641 35.534 16.4787 34.7481 16.4226 33.9062H2.93063L8.85867 22.9688H23.9302L25.6533 20.7812H8.20738C8.01041 20.7813 7.81711 20.8345 7.64787 20.9353C7.47863 21.036 7.33972 21.1806 7.24581 21.3538L0.132166 34.4788C0.0418664 34.6454 -0.00359994 34.8326 0.000222599 35.022C0.00404514 35.2115 0.0570254 35.3967 0.153972 35.5595C0.250918 35.7224 0.388504 35.8572 0.553247 35.9509C0.717989 36.0445 0.904236 36.0937 1.09374 36.0938Z" fill="#2D4356"/>
<path d="M61.1414 22.9688L67.0694 33.9062H53.5774C53.5213 34.7481 53.136 35.534 52.5047 36.0938H68.9063C69.0958 36.0937 69.282 36.0445 69.4468 35.9509C69.6115 35.8572 69.7491 35.7224 69.8461 35.5595C69.943 35.3967 69.996 35.2115 69.9998 35.022C70.0036 34.8326 69.9582 34.6454 69.8679 34.4788L62.7542 21.3538C62.6603 21.1806 62.5214 21.036 62.3522 20.9353C62.1829 20.8345 61.9896 20.7813 61.7926 20.7812H44.3467L46.0698 22.9688H61.1414Z" fill="#2D4356"/>
<path d="M10.3898 38.2812H8.75C8.45992 38.2812 8.18172 38.3965 7.9766 38.6016C7.77148 38.8067 7.65625 39.0849 7.65625 39.375C7.65625 39.6651 7.77148 39.9433 7.9766 40.1484C8.18172 40.3535 8.45992 40.4688 8.75 40.4688H10.3898C10.6799 40.4688 10.9581 40.3535 11.1632 40.1484C11.3683 39.9433 11.4836 39.6651 11.4836 39.375C11.4836 39.0849 11.3683 38.8067 11.1632 38.6016C10.9581 38.3965 10.6799 38.2812 10.3898 38.2812Z" fill="#2D4356"/>
<path d="M16.9533 38.2812H15.3135C15.0234 38.2812 14.7452 38.3965 14.5401 38.6016C14.335 38.8067 14.2197 39.0849 14.2197 39.375C14.2197 39.6651 14.335 39.9433 14.5401 40.1484C14.7452 40.3535 15.0234 40.4688 15.3135 40.4688H16.9533C17.2434 40.4688 17.5216 40.3535 17.7267 40.1484C17.9318 39.9433 18.0471 39.6651 18.0471 39.375C18.0471 39.0849 17.9318 38.8067 17.7267 38.6016C17.5216 38.3965 17.2434 38.2812 16.9533 38.2812Z" fill="#2D4356"/>
<path d="M10.3898 42.6562H8.75C8.45992 42.6562 8.18172 42.7715 7.9766 42.9766C7.77148 43.1817 7.65625 43.4599 7.65625 43.75C7.65625 44.0401 7.77148 44.3183 7.9766 44.5234C8.18172 44.7285 8.45992 44.8438 8.75 44.8438H10.3898C10.6799 44.8438 10.9581 44.7285 11.1632 44.5234C11.3683 44.3183 11.4836 44.0401 11.4836 43.75C11.4836 43.4599 11.3683 43.1817 11.1632 42.9766C10.9581 42.7715 10.6799 42.6562 10.3898 42.6562Z" fill="#2D4356"/>
<path d="M16.9533 42.6562H15.3135C15.0234 42.6562 14.7452 42.7715 14.5401 42.9766C14.335 43.1817 14.2197 43.4599 14.2197 43.75C14.2197 44.0401 14.335 44.3183 14.5401 44.5234C14.7452 44.7285 15.0234 44.8438 15.3135 44.8438H16.9533C17.2434 44.8438 17.5216 44.7285 17.7267 44.5234C17.9318 44.3183 18.0471 44.0401 18.0471 43.75C18.0471 43.4599 17.9318 43.1817 17.7267 42.9766C17.5216 42.7715 17.2434 42.6562 16.9533 42.6562Z" fill="#2D4356"/>
<path d="M10.3898 47.0312H8.75C8.45992 47.0312 8.18172 47.1465 7.9766 47.3516C7.77148 47.5567 7.65625 47.8349 7.65625 48.125C7.65625 48.4151 7.77148 48.6933 7.9766 48.8984C8.18172 49.1035 8.45992 49.2188 8.75 49.2188H10.3898C10.6799 49.2188 10.9581 49.1035 11.1632 48.8984C11.3683 48.6933 11.4836 48.4151 11.4836 48.125C11.4836 47.8349 11.3683 47.5567 11.1632 47.3516C10.9581 47.1465 10.6799 47.0312 10.3898 47.0312Z" fill="#2D4356"/>
<path d="M16.9533 47.0312H15.3135C15.0234 47.0312 14.7452 47.1465 14.5401 47.3516C14.335 47.5567 14.2197 47.8349 14.2197 48.125C14.2197 48.4151 14.335 48.6933 14.5401 48.8984C14.7452 49.1035 15.0234 49.2188 15.3135 49.2188H16.9533C17.2434 49.2188 17.5216 49.1035 17.7267 48.8984C17.9318 48.6933 18.0471 48.4151 18.0471 48.125C18.0471 47.8349 17.9318 47.5567 17.7267 47.3516C17.5216 47.1465 17.2434 47.0312 16.9533 47.0312Z" fill="#2D4356"/>
<path d="M10.3898 51.4062H8.75C8.45992 51.4062 8.18172 51.5215 7.9766 51.7266C7.77148 51.9317 7.65625 52.2099 7.65625 52.5C7.65625 52.7901 7.77148 53.0683 7.9766 53.2734C8.18172 53.4785 8.45992 53.5938 8.75 53.5938H10.3898C10.6799 53.5938 10.9581 53.4785 11.1632 53.2734C11.3683 53.0683 11.4836 52.7901 11.4836 52.5C11.4836 52.2099 11.3683 51.9317 11.1632 51.7266C10.9581 51.5215 10.6799 51.4062 10.3898 51.4062Z" fill="#2D4356"/>
<path d="M16.9533 51.4062H15.3135C15.0234 51.4062 14.7452 51.5215 14.5401 51.7266C14.335 51.9317 14.2197 52.2099 14.2197 52.5C14.2197 52.7901 14.335 53.0683 14.5401 53.2734C14.7452 53.4785 15.0234 53.5938 15.3135 53.5938H16.9533C17.2434 53.5938 17.5216 53.4785 17.7267 53.2734C17.9318 53.0683 18.0471 52.7901 18.0471 52.5C18.0471 52.2099 17.9318 51.9317 17.7267 51.7266C17.5216 51.5215 17.2434 51.4062 16.9533 51.4062Z" fill="#2D4356"/>
<path d="M54.6867 38.2812H53.0469C52.7568 38.2812 52.4786 38.3965 52.2735 38.6016C52.0684 38.8067 51.9531 39.0849 51.9531 39.375C51.9531 39.6651 52.0684 39.9433 52.2735 40.1484C52.4786 40.3535 52.7568 40.4688 53.0469 40.4688H54.6867C54.9768 40.4688 55.255 40.3535 55.4601 40.1484C55.6652 39.9433 55.7805 39.6651 55.7805 39.375C55.7805 39.0849 55.6652 38.8067 55.4601 38.6016C55.255 38.3965 54.9768 38.2812 54.6867 38.2812Z" fill="#2D4356"/>
<path d="M61.2502 38.2812H59.6104C59.3203 38.2812 59.0421 38.3965 58.837 38.6016C58.6318 38.8067 58.5166 39.0849 58.5166 39.375C58.5166 39.6651 58.6318 39.9433 58.837 40.1484C59.0421 40.3535 59.3203 40.4688 59.6104 40.4688H61.2502C61.5403 40.4688 61.8185 40.3535 62.0236 40.1484C62.2287 39.9433 62.3439 39.6651 62.3439 39.375C62.3439 39.0849 62.2287 38.8067 62.0236 38.6016C61.8185 38.3965 61.5403 38.2812 61.2502 38.2812Z" fill="#2D4356"/>
<path d="M54.6867 42.6562H53.0469C52.7568 42.6562 52.4786 42.7715 52.2735 42.9766C52.0684 43.1817 51.9531 43.4599 51.9531 43.75C51.9531 44.0401 52.0684 44.3183 52.2735 44.5234C52.4786 44.7285 52.7568 44.8438 53.0469 44.8438H54.6867C54.9768 44.8438 55.255 44.7285 55.4601 44.5234C55.6652 44.3183 55.7805 44.0401 55.7805 43.75C55.7805 43.4599 55.6652 43.1817 55.4601 42.9766C55.255 42.7715 54.9768 42.6562 54.6867 42.6562Z" fill="#2D4356"/>
<path d="M61.2502 42.6562H59.6104C59.3203 42.6562 59.0421 42.7715 58.837 42.9766C58.6318 43.1817 58.5166 43.4599 58.5166 43.75C58.5166 44.0401 58.6318 44.3183 58.837 44.5234C59.0421 44.7285 59.3203 44.8438 59.6104 44.8438H61.2502C61.5403 44.8438 61.8185 44.7285 62.0236 44.5234C62.2287 44.3183 62.3439 44.0401 62.3439 43.75C62.3439 43.4599 62.2287 43.1817 62.0236 42.9766C61.8185 42.7715 61.5403 42.6562 61.2502 42.6562Z" fill="#2D4356"/>
<path d="M54.6867 47.0312H53.0469C52.7568 47.0312 52.4786 47.1465 52.2735 47.3516C52.0684 47.5567 51.9531 47.8349 51.9531 48.125C51.9531 48.4151 52.0684 48.6933 52.2735 48.8984C52.4786 49.1035 52.7568 49.2188 53.0469 49.2188H54.6867C54.9768 49.2188 55.255 49.1035 55.4601 48.8984C55.6652 48.6933 55.7805 48.4151 55.7805 48.125C55.7805 47.8349 55.6652 47.5567 55.4601 47.3516C55.255 47.1465 54.9768 47.0312 54.6867 47.0312Z" fill="#2D4356"/>
<path d="M61.2502 47.0312H59.6104C59.3203 47.0312 59.0421 47.1465 58.837 47.3516C58.6318 47.5567 58.5166 47.8349 58.5166 48.125C58.5166 48.4151 58.6318 48.6933 58.837 48.8984C59.0421 49.1035 59.3203 49.2188 59.6104 49.2188H61.2502C61.5403 49.2188 61.8185 49.1035 62.0236 48.8984C62.2287 48.6933 62.3439 48.4151 62.3439 48.125C62.3439 47.8349 62.2287 47.5567 62.0236 47.3516C61.8185 47.1465 61.5403 47.0312 61.2502 47.0312Z" fill="#2D4356"/>
<path d="M54.6867 51.4062H53.0469C52.7568 51.4062 52.4786 51.5215 52.2735 51.7266C52.0684 51.9317 51.9531 52.2099 51.9531 52.5C51.9531 52.7901 52.0684 53.0683 52.2735 53.2734C52.4786 53.4785 52.7568 53.5938 53.0469 53.5938H54.6867C54.9768 53.5938 55.255 53.4785 55.4601 53.2734C55.6652 53.0683 55.7805 52.7901 55.7805 52.5C55.7805 52.2099 55.6652 51.9317 55.4601 51.7266C55.255 51.5215 54.9768 51.4062 54.6867 51.4062Z" fill="#2D4356"/>
<path d="M61.2502 51.4062H59.6104C59.3203 51.4062 59.0421 51.5215 58.837 51.7266C58.6318 51.9317 58.5166 52.2099 58.5166 52.5C58.5166 52.7901 58.6318 53.0683 58.837 53.2734C59.0421 53.4785 59.3203 53.5938 59.6104 53.5938H61.2502C61.5403 53.5938 61.8185 53.4785 62.0236 53.2734C62.2287 53.0683 62.3439 52.7901 62.3439 52.5C62.3439 52.2099 62.2287 51.9317 62.0236 51.7266C61.8185 51.5215 61.5403 51.4062 61.2502 51.4062Z" fill="#2D4356"/>
<path d="M45.3906 60.1562H24.6094C24.3193 60.1562 24.0411 60.2715 23.836 60.4766C23.6309 60.6817 23.5156 60.9599 23.5156 61.25C23.5156 61.5401 23.6309 61.8183 23.836 62.0234C24.0411 62.2285 24.3193 62.3438 24.6094 62.3438H45.3906C45.6807 62.3438 45.9589 62.2285 46.164 62.0234C46.3691 61.8183 46.4844 61.5401 46.4844 61.25C46.4844 60.9599 46.3691 60.6817 46.164 60.4766C45.9589 60.2715 45.6807 60.1562 45.3906 60.1562Z" fill="#2D4356"/>
<path d="M39.9219 64.5312H30.0781C29.788 64.5312 29.5098 64.6465 29.3047 64.8516C29.0996 65.0567 28.9844 65.3349 28.9844 65.625C28.9844 65.9151 29.0996 66.1933 29.3047 66.3984C29.5098 66.6035 29.788 66.7188 30.0781 66.7188H39.9219C40.212 66.7188 40.4902 66.6035 40.6953 66.3984C40.9004 66.1933 41.0156 65.9151 41.0156 65.625C41.0156 65.3349 40.9004 65.0567 40.6953 64.8516C40.4902 64.6465 40.212 64.5312 39.9219 64.5312Z" fill="#2D4356"/>
<path d="M35 26.25C33.8102 26.25 32.6472 26.6028 31.6579 27.2638C30.6686 27.9248 29.8976 28.8643 29.4423 29.9635C28.987 31.0628 28.8679 32.2723 29.1 33.4392C29.3321 34.6061 29.905 35.678 30.7463 36.5193C31.5876 37.3606 32.6595 37.9335 33.8264 38.1657C34.9933 38.3978 36.2029 38.2786 37.3021 37.8233C38.4013 37.368 39.3408 36.597 40.0018 35.6077C40.6628 34.6185 41.0156 33.4554 41.0156 32.2656C41.0147 30.6705 40.3806 29.1409 39.2526 28.013C38.1247 26.885 36.5952 26.251 35 26.25ZM35 36.0938C34.2429 36.0938 33.5027 35.8692 32.8732 35.4486C32.2437 35.028 31.753 34.4301 31.4633 33.7306C31.1735 33.0311 31.0977 32.2614 31.2454 31.5188C31.3931 30.7762 31.7577 30.0941 32.2931 29.5587C32.8285 29.0234 33.5106 28.6588 34.2532 28.5111C34.9958 28.3633 35.7655 28.4392 36.465 28.7289C37.1645 29.0186 37.7623 29.5093 38.183 30.1388C38.6036 30.7684 38.8281 31.5085 38.8281 32.2656C38.827 33.2806 38.4233 34.2536 37.7057 34.9713C36.988 35.689 36.0149 36.0926 35 36.0938Z" fill="#2D4356"/>
<path d="M35 36.0938C37.1142 36.0938 38.8281 34.3798 38.8281 32.2656C38.8281 30.1514 37.1142 28.4375 35 28.4375C32.8858 28.4375 31.1719 30.1514 31.1719 32.2656C31.1719 34.3798 32.8858 36.0938 35 36.0938Z" fill="#81D9E3"/>
<path d="M34.6611 33.3177L36.3018 33.8523C36.5776 33.9387 36.8762 33.9138 37.1338 33.7828C37.3915 33.6519 37.5877 33.4253 37.6804 33.1516C37.725 33.0151 37.7422 32.8711 37.7311 32.7278C37.72 32.5846 37.6807 32.445 37.6156 32.3169C37.5505 32.1889 37.4609 32.0749 37.3517 31.9815C37.2426 31.8881 37.1161 31.8172 36.9795 31.7727L36.0938 31.4838V30.625C36.0938 30.3349 35.9785 30.0567 35.7734 29.8516C35.5683 29.6465 35.2901 29.5312 35 29.5312C34.7099 29.5312 34.4317 29.6465 34.2266 29.8516C34.0215 30.0567 33.9063 30.3349 33.9063 30.625V32.2779C33.9062 32.5087 33.9792 32.7337 34.1148 32.9205C34.2504 33.1072 34.4416 33.2463 34.6611 33.3177Z" fill="#2D4356"/>
<path d="M26.7969 42.1094H28.9844C29.2745 42.1094 29.5527 41.9941 29.7578 41.789C29.9629 41.5839 30.0781 41.3057 30.0781 41.0156C30.0781 40.7255 29.9629 40.4473 29.7578 40.2422C29.5527 40.0371 29.2745 39.9219 28.9844 39.9219H26.7969C26.5068 39.9219 26.2286 40.0371 26.0235 40.2422C25.8184 40.4473 25.7031 40.7255 25.7031 41.0156C25.7031 41.3057 25.8184 41.5839 26.0235 41.789C26.2286 41.9941 26.5068 42.1094 26.7969 42.1094Z" fill="#2D4356"/>
<path d="M39.9219 41.0156C39.9219 41.3057 40.0371 41.5839 40.2422 41.789C40.4474 41.9941 40.7255 42.1094 41.0156 42.1094H43.2031C43.4932 42.1094 43.7714 41.9941 43.9765 41.789C44.1816 41.5839 44.2969 41.3057 44.2969 41.0156C44.2969 40.7255 44.1816 40.4473 43.9765 40.2422C43.7714 40.0371 43.4932 39.9219 43.2031 39.9219H41.0156C40.7255 39.9219 40.4474 40.0371 40.2422 40.2422C40.0371 40.4474 39.9219 40.7255 39.9219 41.0156Z" fill="#2D4356"/>
<path d="M68.9062 55.7812H67.8125V38.2812H65.625V55.7812H48.6719V34.7484H50.3125C50.5176 34.7492 50.7187 34.6921 50.8928 34.5838C51.0669 34.4754 51.2069 34.3202 51.2969 34.1359C51.3853 33.9509 51.4203 33.7449 51.3981 33.5411C51.3759 33.3373 51.2973 33.1437 51.1711 32.982L36.0938 13.8414V9.84375H41.5625C41.7622 9.8438 41.9581 9.78913 42.1289 9.68568C42.2997 9.58222 42.4389 9.43394 42.5313 9.25694C42.6238 9.07994 42.6659 8.88099 42.6532 8.6817C42.6406 8.48242 42.5735 8.29042 42.4594 8.12656L41.3766 6.5625L42.4594 4.99844C42.5735 4.83458 42.6406 4.64258 42.6532 4.4433C42.6659 4.24401 42.6238 4.04506 42.5313 3.86806C42.4389 3.69106 42.2997 3.54278 42.1289 3.43932C41.9581 3.33587 41.7622 3.2812 41.5625 3.28125H35C34.7102 3.2821 34.4325 3.3976 34.2275 3.60254C34.0226 3.80747 33.9071 4.08518 33.9062 4.375V13.8414L18.8289 32.982C18.7027 33.1437 18.6241 33.3373 18.6019 33.5411C18.5797 33.7449 18.6147 33.9509 18.7031 34.1359C18.7931 34.3202 18.9331 34.4754 19.1072 34.5838C19.2813 34.6921 19.4824 34.7492 19.6875 34.7484H21.3281V55.7812H4.375V38.2812H2.1875V55.7812H1.09375C0.803669 55.7812 0.52547 55.8965 0.320352 56.1016C0.115234 56.3067 0 56.5849 0 56.875C0 57.1651 0.115234 57.4433 0.320352 57.6484C0.52547 57.8535 0.803669 57.9688 1.09375 57.9688H68.9062C69.1963 57.9688 69.4745 57.8535 69.6796 57.6484C69.8848 57.4433 70 57.1651 70 56.875C70 56.5849 69.8848 56.3067 69.6796 56.1016C69.4745 55.8965 69.1963 55.7812 68.9062 55.7812ZM36.0938 5.46875H39.4734L39.1508 5.93906C39.0226 6.1217 38.9539 6.33939 38.9539 6.5625C38.9539 6.78561 39.0226 7.0033 39.1508 7.18594L39.4734 7.65625H36.0938V5.46875ZM38.8281 55.7812H31.1719V49.7656C31.1719 48.7503 31.5752 47.7766 32.2931 47.0587C33.011 46.3408 33.9847 45.9375 35 45.9375C36.0153 45.9375 36.989 46.3408 37.7069 47.0587C38.4248 47.7766 38.8281 48.7503 38.8281 49.7656V55.7812ZM47.5781 32.5609C47.2883 32.5618 47.0106 32.6773 46.8057 32.8822C46.6007 33.0872 46.4852 33.3649 46.4844 33.6547V55.7812H41.0156V49.7656C41.0156 48.1702 40.3818 46.6401 39.2537 45.5119C38.1255 44.3838 36.5954 43.75 35 43.75C33.4046 43.75 31.8745 44.3838 30.7463 45.5119C29.6182 46.6401 28.9844 48.1702 28.9844 49.7656V55.7812H23.5156V33.6547C23.5148 33.3649 23.3993 33.0872 23.1943 32.8822C22.9894 32.6773 22.7117 32.5618 22.4219 32.5609H21.9406L35 15.9852L48.0594 32.5609H47.5781Z" fill="#2D4356"/>
<path d="M51.1714 32.982L36.0941 13.8414V9.84375H41.5628C41.7625 9.8438 41.9584 9.78913 42.1292 9.68568C42.3 9.58222 42.4392 9.43394 42.5316 9.25694C42.6241 9.07994 42.6662 8.88099 42.6536 8.6817C42.6409 8.48242 42.5738 8.29042 42.4597 8.12656L41.3769 6.5625L42.4597 4.99844C42.5738 4.83458 42.6409 4.64258 42.6536 4.4433C42.6662 4.24401 42.6241 4.04506 42.5316 3.86806C42.4392 3.69106 42.3 3.54278 42.1292 3.43932C41.9584 3.33587 41.7625 3.2812 41.5628 3.28125H35.0003C34.7105 3.2821 34.4328 3.3976 34.2278 3.60254C34.0229 3.80747 33.9074 4.08518 33.9066 4.375V13.8414L18.8292 32.982C18.703 33.1437 18.6244 33.3373 18.6022 33.5411C18.58 33.7449 18.615 33.9509 18.7034 34.1359C18.7934 34.3202 18.9334 34.4754 19.1075 34.5838C19.2816 34.6921 19.4827 34.7492 19.6878 34.7484H21.3284V57.9688H48.6722V34.7484H50.3128C50.5179 34.7492 50.719 34.6921 50.8931 34.5838C51.0672 34.4754 51.2072 34.3202 51.2972 34.1359C51.3856 33.9509 51.4206 33.7449 51.3984 33.5411C51.3762 33.3373 51.2976 33.1437 51.1714 32.982ZM36.0941 5.46875H39.4737L39.1511 5.93906C39.0229 6.1217 38.9542 6.33939 38.9542 6.5625C38.9542 6.78561 39.0229 7.0033 39.1511 7.18594L39.4737 7.65625H36.0941V5.46875ZM38.8284 55.7812H31.1722V49.7656C31.1722 48.7503 31.5755 47.7766 32.2934 47.0587C33.0113 46.3408 33.985 45.9375 35.0003 45.9375C36.0156 45.9375 36.9893 46.3408 37.7072 47.0587C38.4251 47.7766 38.8284 48.7503 38.8284 49.7656V55.7812ZM47.5784 32.5609C47.2886 32.5618 47.0109 32.6773 46.806 32.8822C46.601 33.0872 46.4855 33.3649 46.4847 33.6547V55.7812H41.0159V49.7656C41.0159 48.1702 40.3821 46.6401 39.254 45.5119C38.1258 44.3838 36.5957 43.75 35.0003 43.75C33.4049 43.75 31.8748 44.3838 30.7466 45.5119C29.6185 46.6401 28.9847 48.1702 28.9847 49.7656V55.7812H23.5159V33.6547C23.5151 33.3649 23.3996 33.0872 23.1946 32.8822C22.9897 32.6773 22.712 32.5618 22.4222 32.5609H21.9409L35.0003 15.9852L48.0597 32.5609H47.5784Z" fill="#2D4356"/>
<path d="M39.1508 7.18594L39.4734 7.65625H36.0938V5.46875H39.4734L39.1508 5.93906C39.0226 6.1217 38.9539 6.33939 38.9539 6.5625C38.9539 6.78561 39.0226 7.0033 39.1508 7.18594Z" fill="#FC785E"/>
<path opacity="0.5" d="M16.434 33.9828C16.4277 33.9577 16.424 33.9321 16.423 33.9062H2.93164L3.52227 32.8125H16.527C16.4278 33.1942 16.3964 33.5903 16.434 33.9828Z" fill="#A54B3F"/>
<path opacity="0.5" d="M67.0689 33.9062H53.5775C53.5766 33.9339 53.5729 33.9614 53.5666 33.9883C53.6042 33.5939 53.5728 33.196 53.4736 32.8125H66.4783L67.0689 33.9062Z" fill="#A54B3F"/>
<path opacity="0.25" d="M50.8594 54.6875H65.625V55.7812H50.8594V54.6875Z" fill="#0F423C"/>
<path opacity="0.25" d="M4.375 54.6875H19.1406V55.7812H4.375V54.6875Z" fill="#0F423C"/>
<path opacity="0.3" d="M23.9311 22.9688L23.067 24.0625H8.26855L8.85918 22.9688H23.9311Z" fill="#F9DBD7"/>
<path opacity="0.3" d="M67.0687 33.9062H66.4781L61.1406 24.0625H46.9328L46.0742 22.9688H61.1406L67.0687 33.9062Z" fill="#F9DBD7"/>
<path opacity="0.25" d="M38.8283 31.1719C38.8303 31.3551 38.8156 31.5382 38.7845 31.7188C38.6542 30.808 38.1997 29.9748 37.5046 29.3721C36.8094 28.7694 35.9202 28.4376 35.0002 28.4376C34.0801 28.4376 33.1909 28.7694 32.4958 29.3721C31.8006 29.9748 31.3462 30.808 31.2158 31.7188C31.1847 31.5382 31.1701 31.3551 31.172 31.1719C31.172 30.1566 31.5754 29.1829 32.2933 28.465C33.0112 27.7471 33.9849 27.3438 35.0002 27.3438C36.0155 27.3438 36.9892 27.7471 37.7071 28.465C38.425 29.1829 38.8283 30.1566 38.8283 31.1719Z" fill="#0F423C"/>
<path opacity="0.25" d="M38.8283 32.2656C38.8283 33.2809 38.425 34.2546 37.7071 34.9725C36.9892 35.6904 36.0155 36.0938 35.0002 36.0938C33.9849 36.0938 33.0112 35.6904 32.2933 34.9725C31.5754 34.2546 31.172 33.2809 31.172 32.2656C31.1701 32.0824 31.1847 31.8993 31.2158 31.7188C31.3462 32.6295 31.8006 33.4627 32.4958 34.0654C33.1909 34.6681 34.0801 34.9999 35.0002 34.9999C35.9202 34.9999 36.8094 34.6681 37.5046 34.0654C38.1997 33.4627 38.6542 32.6295 38.7845 31.7188C38.8156 31.8993 38.8303 32.0824 38.8283 32.2656Z" fill="#0F423C"/>
<path opacity="0.5" d="M48.0592 32.5609H47.5779C47.4626 32.559 47.3478 32.5775 47.2389 32.6156L34.9998 17.0789L22.7607 32.6156C22.6518 32.5775 22.537 32.559 22.4217 32.5609H21.9404L34.9998 15.9851L48.0592 32.5609Z" fill="white"/>
<path opacity="0.5" d="M23.5156 54.6875H28.9844V55.7812H23.5156V54.6875Z" fill="#9FA5AA"/>
<path opacity="0.5" d="M41.0156 54.6875H46.4844V55.7812H41.0156V54.6875Z" fill="#9FA5AA"/>
</svg>
