<svg width="38" height="38" viewBox="0 0 38 38" fill="none" xmlns="http://www.w3.org/2000/svg">
<path d="M4.75 16.4936C4.75 11.4301 4.75 8.89835 5.3485 8.04652C5.94542 7.19627 8.32517 6.38085 13.0863 4.7516L13.9935 4.44127C16.4746 3.59102 17.7143 3.16669 19 3.16669C20.2857 3.16669 21.5254 3.59102 24.0065 4.44127L24.9137 4.7516C29.6748 6.38085 32.0546 7.19627 32.6515 8.04652C33.25 8.89835 33.25 11.4317 33.25 16.4936V18.9858C33.25 27.9126 26.5383 32.2462 22.3266 34.0844C21.185 34.5832 20.615 34.8334 19 34.8334C17.385 34.8334 16.815 34.5832 15.6734 34.0844C11.4618 32.2446 4.75 27.9142 4.75 18.9858V16.4936Z" stroke="#008E96" stroke-width="2"/>
<path d="M15.041 19.6334L17.3036 22.1667L22.9577 15.8334" stroke="#008E96" stroke-width="2" stroke-linecap="round" stroke-linejoin="round"/>
</svg>
