<svg width="36" height="36" viewBox="0 0 36 36" fill="none" xmlns="http://www.w3.org/2000/svg">
<g clip-path="url(#clip0_1313_7395)">
<path d="M18 0C27.9414 0 36 8.0586 36 18C36 27.9414 27.9414 36 18 36C8.0586 36 0 27.9414 0 18C0 8.0586 8.0586 0 18 0ZM18 2.511C13.8921 2.511 9.95237 4.14287 7.04762 7.04762C4.14287 9.95237 2.511 13.8921 2.511 18C2.511 22.1079 4.14287 26.0476 7.04762 28.9524C9.95237 31.8571 13.8921 33.489 18 33.489C22.1079 33.489 26.0476 31.8571 28.9524 28.9524C31.8571 26.0476 33.489 22.1079 33.489 18C33.489 13.8921 31.8571 9.95237 28.9524 7.04762C26.0476 4.14287 22.1079 2.511 18 2.511ZM13.9392 21.6C14.061 22.5887 14.5393 23.4989 15.2844 24.1601C16.0295 24.8212 16.9902 25.1879 17.9863 25.1912C18.9824 25.1945 19.9456 24.8343 20.695 24.1781C21.4445 23.5219 21.9288 22.6148 22.0572 21.627C22.0756 21.4655 22.126 21.3093 22.2052 21.1674C22.2845 21.0255 22.3912 20.9008 22.5191 20.8005C22.6469 20.7002 22.7934 20.6262 22.9501 20.583C23.1068 20.5397 23.2705 20.528 23.4317 20.5485C23.5929 20.569 23.7485 20.6213 23.8893 20.7024C24.0302 20.7834 24.1535 20.8917 24.2522 21.0208C24.3509 21.15 24.423 21.2974 24.4643 21.4546C24.5055 21.6118 24.5152 21.7756 24.4926 21.9366C24.2882 23.5181 23.5135 24.9706 22.3141 26.0214C21.1146 27.0723 19.5729 27.6492 17.9782 27.6439C16.3836 27.6386 14.8457 27.0514 13.6533 25.9926C12.4609 24.9338 11.6959 23.4762 11.502 21.8934C11.4796 21.7319 11.4896 21.5675 11.5314 21.4099C11.5732 21.2522 11.646 21.1045 11.7455 20.9753C11.8451 20.8461 11.9694 20.7381 12.1111 20.6575C12.2529 20.5769 12.4093 20.5253 12.5712 20.5058C12.7331 20.4863 12.8973 20.4993 13.0542 20.544C13.211 20.5886 13.3574 20.6641 13.4847 20.7659C13.6121 20.8678 13.7179 20.994 13.7959 21.1372C13.8739 21.2804 13.9226 21.4378 13.9392 21.6ZM10.4652 11.304C11.1312 11.304 11.7698 11.5686 12.2407 12.0395C12.7116 12.5104 12.9762 13.149 12.9762 13.815C12.9762 14.481 12.7116 15.1196 12.2407 15.5905C11.7698 16.0614 11.1312 16.326 10.4652 16.326C9.79924 16.326 9.16056 16.0614 8.68966 15.5905C8.21875 15.1196 7.9542 14.481 7.9542 13.815C7.9542 13.149 8.21875 12.5104 8.68966 12.0395C9.16056 11.5686 9.79924 11.304 10.4652 11.304ZM25.5348 11.304C26.2008 11.304 26.8394 11.5686 27.3103 12.0395C27.7812 12.5104 28.0458 13.149 28.0458 13.815C28.0458 14.481 27.7812 15.1196 27.3103 15.5905C26.8394 16.0614 26.2008 16.326 25.5348 16.326C24.8688 16.326 24.2302 16.0614 23.7593 15.5905C23.2884 15.1196 23.0238 14.481 23.0238 13.815C23.0238 13.149 23.2884 12.5104 23.7593 12.0395C24.2302 11.5686 24.8688 11.304 25.5348 11.304Z" fill="#289600"/>
</g>
<defs>
<clipPath id="clip0_1313_7395">
<rect width="36" height="36" fill="white"/>
</clipPath>
</defs>
</svg>
