<svg width="93" height="93" viewBox="0 0 93 93" fill="none" xmlns="http://www.w3.org/2000/svg">
<g clip-path="url(#clip0_520_4640)">
<path d="M0 64.9484H12.3948C12.6475 59.6143 14.2668 54.6381 16.91 50.3617L12.4424 44.4566L5.30118 43.3734C1.91722 49.8219 0 57.1607 0 64.9484Z" fill="#FF6826"/>
<path d="M5.30078 43.3734L16.9094 50.3619C20.1564 45.1083 24.949 40.9113 30.6529 38.4052L27.8814 30.1978L21.5135 25.7261C14.6891 30.0826 9.07981 36.1721 5.30078 43.3734Z" fill="#FFA84A"/>
<path d="M54.9225 66.1281C54.9225 70.7799 51.1516 74.5508 46.4998 74.5508C41.848 74.5508 38.0771 70.7799 38.0771 66.1281C38.0771 61.4763 46.4998 39.9609 46.4998 39.9609C46.4998 39.9609 54.9225 61.4763 54.9225 66.1281Z" fill="#FF6826"/>
<path d="M54.9227 66.1281C54.9227 70.7799 51.1518 74.5508 46.5 74.5508V39.9609C46.5 39.9609 54.9227 61.4763 54.9227 66.1281Z" fill="#E50057"/>
<path d="M53.6677 18.9978L54.9228 29.1079L49.7552 36.597C48.6907 36.3554 47.6045 36.1683 46.5002 36.0393C45.334 35.9049 44.1461 35.8341 42.9436 35.8341C38.5715 35.8341 34.4156 36.7532 30.6538 38.4043L21.5137 25.7258C28.7303 21.1194 37.3037 18.4492 46.5002 18.4492C48.9378 18.4492 51.3318 18.6363 53.6677 18.9978Z" fill="#FFEA01"/>
<path d="M53.6677 18.9985L49.7559 36.5973C56.425 38.1144 62.2655 41.8104 66.4881 46.898L76.8343 43.3734L80.917 33.6793C73.931 25.9944 64.4061 20.6598 53.6677 18.9985Z" fill="#80C200"/>
<path d="M93.0004 64.9483C93.0004 52.9085 88.4245 41.9374 80.9171 33.6791L66.4883 46.8978C70.5923 51.8424 73.1688 58.1005 73.4931 64.9483H93.0004Z" fill="#019A5A"/>
<path d="M53.6675 18.9978L49.755 36.597C48.6906 36.3554 47.6044 36.1683 46.5 36.0393V18.4492C48.9376 18.4492 51.3316 18.6363 53.6675 18.9978Z" fill="#FFC303"/>
</g>
<defs>
<clipPath id="clip0_520_4640">
<rect width="93" height="93" fill="white"/>
</clipPath>
</defs>
</svg>
