<svg width="11" height="10" viewBox="0 0 11 10" fill="none" xmlns="http://www.w3.org/2000/svg">
<path d="M5.49973 8.37749L2.83366 9.90623C2.71588 9.97757 2.59275 10.0081 2.46427 9.99795C2.33578 9.98776 2.22336 9.947 2.12699 9.87566C2.03063 9.80431 1.95568 9.71524 1.90214 9.60843C1.84861 9.50162 1.8379 9.38177 1.87002 9.24887L2.57669 6.35956L0.215775 4.41806C0.108704 4.32633 0.041892 4.22177 0.0153384 4.10436C-0.0112152 3.98695 -0.00329196 3.8724 0.0391081 3.7607C0.0815082 3.649 0.145751 3.55727 0.231836 3.48553C0.317921 3.41378 0.435699 3.36791 0.58517 3.34794L3.70093 3.08805L4.90548 0.366897C4.95902 0.244598 5.04211 0.152874 5.15474 0.0917243C5.26738 0.0305747 5.38238 0 5.49973 0C5.61708 0 5.73207 0.0305747 5.84471 0.0917243C5.95735 0.152874 6.04043 0.244598 6.09397 0.366897L7.29852 3.08805L10.4143 3.34794C10.5642 3.36832 10.682 3.41418 10.7676 3.48553C10.8533 3.55687 10.9175 3.64859 10.9603 3.7607C11.0032 3.87281 11.0113 3.98756 10.9848 4.10497C10.9582 4.22238 10.8912 4.32674 10.7837 4.41806L8.42276 6.35956L9.12943 9.24887C9.16155 9.38136 9.15085 9.50122 9.09731 9.60843C9.04377 9.71565 8.96882 9.80472 8.87246 9.87566C8.7761 9.94659 8.66367 9.98735 8.53519 9.99795C8.4067 10.0086 8.28357 9.97798 8.16579 9.90623L5.49973 8.37749Z" fill="#008E96"/>
</svg>
