<svg width="35" height="35" viewBox="0 0 35 35" fill="none" xmlns="http://www.w3.org/2000/svg">
<path d="M17.5002 25.1925L11.4482 28.8384C11.1808 29.0085 10.9013 29.0814 10.6096 29.0571C10.3179 29.0328 10.0627 28.9356 9.84399 28.7655C9.62524 28.5953 9.4551 28.3829 9.33357 28.1282C9.21204 27.8734 9.18774 27.5876 9.26065 27.2707L10.8648 20.38L5.50544 15.7498C5.26239 15.5311 5.11072 15.2817 5.05044 15.0017C4.99017 14.7217 5.00815 14.4485 5.1044 14.1821C5.20065 13.9157 5.34649 13.697 5.5419 13.5259C5.73732 13.3548 6.00468 13.2454 6.34399 13.1978L13.4169 12.578L16.1513 6.08838C16.2728 5.79671 16.4614 5.57796 16.7171 5.43213C16.9728 5.2863 17.2338 5.21338 17.5002 5.21338C17.7666 5.21338 18.0277 5.2863 18.2834 5.43213C18.5391 5.57796 18.7277 5.79671 18.8492 6.08838L21.5836 12.578L28.6565 13.1978C28.9968 13.2464 29.2641 13.3557 29.4586 13.5259C29.653 13.696 29.7988 13.9148 29.8961 14.1821C29.9933 14.4495 30.0118 14.7232 29.9515 15.0032C29.8912 15.2832 29.7391 15.5321 29.495 15.7498L24.1357 20.38L25.7398 27.2707C25.8127 27.5866 25.7884 27.8725 25.6669 28.1282C25.5454 28.3839 25.3752 28.5963 25.1565 28.7655C24.9377 28.9346 24.6825 29.0318 24.3909 29.0571C24.0992 29.0824 23.8197 29.0095 23.5523 28.8384L17.5002 25.1925Z" fill="#008E96"/>
</svg>
