<svg width="30" height="30" viewBox="0 0 30 30" fill="none" xmlns="http://www.w3.org/2000/svg">
<path d="M26.5465 6.61056L15.2965 2.86056C15.104 2.7964 14.896 2.7964 14.7035 2.86056L3.45352 6.61056C3.26684 6.67278 3.10448 6.79217 2.98943 6.95181C2.87439 7.11145 2.81249 7.30324 2.8125 7.50001V16.875C2.8125 17.1236 2.91127 17.3621 3.08709 17.5379C3.2629 17.7137 3.50136 17.8125 3.75 17.8125C3.99864 17.8125 4.2371 17.7137 4.41291 17.5379C4.58873 17.3621 4.6875 17.1236 4.6875 16.875V8.80079L8.62383 10.1121C7.578 11.8017 7.24543 13.8373 7.69914 15.7719C8.15286 17.7065 9.35577 19.382 11.0437 20.4305C8.93437 21.2578 7.11094 22.7543 5.77734 24.8004C5.70799 24.9035 5.65981 25.0193 5.63562 25.1412C5.61142 25.2631 5.6117 25.3885 5.63642 25.5103C5.66113 25.632 5.70981 25.7477 5.77961 25.8504C5.84941 25.9532 5.93895 26.0411 6.04301 26.109C6.14707 26.1769 6.26359 26.2234 6.38579 26.2458C6.50799 26.2683 6.63343 26.2662 6.75482 26.2397C6.87622 26.2133 6.99114 26.163 7.09291 26.0917C7.19468 26.0204 7.28128 25.9296 7.34766 25.8246C9.11367 23.1152 11.9027 21.5625 15 21.5625C18.0973 21.5625 20.8863 23.1152 22.6523 25.8246C22.7898 26.029 23.0023 26.171 23.2436 26.22C23.485 26.269 23.736 26.2211 23.9423 26.0865C24.1486 25.9519 24.2937 25.7416 24.3462 25.5009C24.3986 25.2603 24.3543 25.0086 24.2227 24.8004C22.8891 22.7543 21.0586 21.2578 18.9562 20.4305C20.6426 19.3821 21.8444 17.7077 22.298 15.7745C22.7517 13.8413 22.4201 11.8071 21.3762 10.118L26.5465 8.39532C26.7332 8.33313 26.8956 8.21375 27.0107 8.05411C27.1258 7.89447 27.1877 7.70267 27.1877 7.50587C27.1877 7.30907 27.1258 7.11726 27.0107 6.95762C26.8956 6.79798 26.7332 6.67861 26.5465 6.61641V6.61056ZM20.625 14.0625C20.6253 14.9518 20.4147 15.8285 20.0105 16.6206C19.6063 17.4127 19.0201 18.0977 18.2999 18.6194C17.5797 19.1411 16.7461 19.4847 15.8675 19.6218C14.9888 19.759 14.0902 19.6858 13.2453 19.4084C12.4004 19.131 11.6333 18.6572 11.0069 18.0259C10.3806 17.3947 9.91285 16.6239 9.64208 15.7768C9.37131 14.9297 9.30524 14.0306 9.44928 13.153C9.59332 12.2755 9.94336 11.4446 10.4707 10.7285L14.7035 12.1348C14.896 12.1989 15.104 12.1989 15.2965 12.1348L19.5293 10.7285C20.2415 11.6942 20.6255 12.8626 20.625 14.0625ZM15 10.2621L6.71484 7.50001L15 4.7379L23.2852 7.50001L15 10.2621Z" fill="#008E96"/>
</svg>
