<svg width="48" height="48" viewBox="0 0 48 48" fill="none" xmlns="http://www.w3.org/2000/svg">
<g clip-path="url(#clip0_57_59)">
<path d="M26.1115 26.6347C25.1075 26.4415 24.3819 25.5629 24.3819 24.5405V18.683H16.2286V24.5405C16.2286 25.585 15.475 26.4473 14.499 26.6347C14.499 26.6347 17.3976 32.7454 20.3052 32.7589C23.3447 32.773 26.3933 26.6889 26.1115 26.6347Z" fill="#FFDDCE"/>
<path d="M28.8315 12.0562L28.2868 12.0586L28.2776 9.86315C28.2584 5.26331 24.4626 2.07656 20.2541 2.04694C16.0639 2.11219 12.2767 5.31403 12.296 9.93131L12.3025 11.4792L12.3052 12.1267L11.7604 12.1291C10.9617 12.1325 10.317 12.7907 10.3203 13.5991L10.3271 15.2212C10.3305 16.0297 10.9807 16.6823 11.7794 16.679L12.3263 16.6766C12.3802 18.8009 13.2707 20.842 14.87 22.224C16.1575 23.3365 17.9648 24.3048 20.347 24.3215C22.7289 24.2844 24.528 23.3008 25.8062 22.1773C27.3939 20.7817 28.2674 18.7331 28.3036 16.6084L28.8506 16.606C29.6493 16.6027 30.294 15.9444 30.2907 15.136L30.2839 13.5139C30.2804 12.7055 29.6302 12.0529 28.8315 12.0562Z" fill="#FFDDCE"/>
<path d="M30.2837 13.514C30.2803 12.7055 29.6301 12.0529 28.8314 12.0563L28.2866 12.0586L28.2775 9.86319C28.2622 6.1955 25.845 3.42819 22.7328 2.44147C23.3959 3.56319 23.786 4.88347 23.7921 6.34784L23.818 16.6086C23.7819 18.7333 22.9083 20.782 21.3206 22.1775C20.4725 22.923 19.3946 23.6067 18.0696 23.9933C18.7608 24.195 19.519 24.3159 20.3468 24.3217C22.7287 24.2847 24.5278 23.301 25.806 22.1775C27.3937 20.782 28.2671 18.7333 28.3034 16.6086L28.8504 16.6062C29.6491 16.6029 30.2938 15.9447 30.2905 15.1362L30.2837 13.514Z" fill="#FFCBBE"/>
<path d="M28.2981 10.7342V16.7717H29.9015C30.8006 16.7717 31.5295 16.0429 31.5295 15.1437V12.362C31.5295 11.463 30.8007 10.7341 29.9015 10.7341L28.2981 10.7342Z" fill="#9BC4F9"/>
<path d="M12.3124 10.7342V16.7717H10.709C9.80996 16.7717 9.08105 16.0429 9.08105 15.1437V12.362C9.08105 11.463 9.80987 10.7341 10.709 10.7341L12.3124 10.7342Z" fill="#9BC4F9"/>
<path d="M27.7608 3.963H27.6787C27.2242 3.963 26.8557 3.59447 26.8557 3.13997C26.8557 1.79409 25.7646 0.703125 24.4188 0.703125H16.6627C13.211 0.703125 10.4128 3.50128 10.4128 6.95297V11.0832C10.4128 11.6899 10.7967 12.2302 11.3697 12.4297L12.9092 12.9657C13.4473 13.153 14.0093 12.753 14.0083 12.1833L14.005 9.27084C13.9991 7.85437 15.1286 6.70125 16.528 6.69525L16.5584 6.69506C16.9867 6.69328 17.4103 6.75975 17.815 6.88978C18.5319 7.12012 19.2748 7.25981 20.0279 7.25663H20.5827C21.3357 7.25981 22.0786 7.12012 22.7956 6.88978C23.2002 6.75975 23.6239 6.69328 24.0522 6.69506L24.0826 6.69525C25.4819 6.70125 26.6115 7.85437 26.6056 9.27075L26.6028 12.1835C26.6021 12.7532 27.164 13.1531 27.702 12.9657L29.241 12.4298C29.8139 12.2303 30.1978 11.6901 30.1978 11.0834V6.39984C30.1977 5.05406 29.1067 3.963 27.7608 3.963Z" fill="#756E78"/>
<path d="M27.7608 3.963H27.6787C27.2242 3.963 26.8556 3.59447 26.8556 3.13997C26.8556 1.79409 25.7646 0.703125 24.4188 0.703125H21.3257C22.8173 2.07975 23.7824 4.03481 23.792 6.34772L23.7929 6.70303C23.8791 6.69788 23.9654 6.69469 24.052 6.69506L24.0825 6.69525C25.4818 6.70125 26.6114 7.85437 26.6055 9.27075L26.6027 12.1835C26.6019 12.7532 27.1639 13.1531 27.7019 12.9657L29.2409 12.4298C29.8138 12.2303 30.1977 11.6901 30.1977 11.0834V6.39984C30.1977 5.05406 29.1067 3.963 27.7608 3.963Z" fill="#665E66"/>
<path d="M25.8322 21.2224H23.9943C23.293 21.2224 22.7246 20.6539 22.7246 19.9527C22.7246 19.2515 23.2931 18.683 23.9943 18.683H25.8322C26.5335 18.683 27.1019 19.2515 27.1019 19.9527C27.1019 20.6539 26.5335 21.2224 25.8322 21.2224Z" fill="#DB636E"/>
<path d="M35.7697 45.4333C37.5049 45.4333 38.9116 44.0266 38.9116 42.2914V39.4694C38.9116 33.3238 34.5502 28.043 28.5153 26.8816L26.4943 26.4926C25.0034 28.0949 20.3053 30.5263 20.3053 30.5263C20.3053 30.5263 14.4216 26.4339 14.396 26.4387L12.0953 26.8815C6.06051 28.0429 1.69897 33.3238 1.69897 39.4693V42.2913C1.69897 44.0265 3.10569 45.4332 4.84091 45.4332H35.7697V45.4333Z" fill="#E07F84"/>
<path d="M28.5154 26.8816L26.4944 26.4926C25.7845 27.2555 24.3478 28.2062 23.0371 28.993C28.7786 30.3651 32.8711 35.5067 32.8711 41.4596V45.4332H35.7698C37.505 45.4332 38.9117 44.0266 38.9117 42.2913V39.4693C38.9117 33.3239 34.5502 28.043 28.5154 26.8816Z" fill="#DB636E"/>
<path d="M13.4814 25.8004L11.5164 27.0053L16.054 31.55C16.4866 31.9712 17.1675 31.9971 17.6309 31.61L20.3052 29.3762L14.683 25.8095C14.317 25.5774 13.8508 25.5739 13.4814 25.8004Z" fill="#D84A54"/>
<path d="M27.1291 25.8004L29.094 27.0053L24.5564 31.55C24.1238 31.9712 23.4429 31.9971 22.9795 31.61L20.3052 29.3762L25.9274 25.8095C26.2934 25.5774 26.7596 25.5739 27.1291 25.8004Z" fill="#D84A54"/>
<path d="M20.3052 29.3762L17.6719 31.5754L19.0136 33.8798H20.3052H21.5968L22.9386 31.5754L20.3052 29.3762Z" fill="#D1ECF9"/>
<path d="M23.6447 45.4333L21.5968 33.8798H20.3052H19.0136L16.9658 45.4333H23.6447Z" fill="#F2F9FF"/>
<path d="M37.3656 47.2969C42.3004 47.2969 46.3009 43.2965 46.3009 38.3617C46.3009 33.4269 42.3004 29.4265 37.3656 29.4265C32.4309 29.4265 28.4304 33.4269 28.4304 38.3617C28.4304 43.2965 32.4309 47.2969 37.3656 47.2969Z" fill="#9BC4F9"/>
<path d="M37.3655 29.4265C36.2308 29.4265 35.1456 29.638 34.147 30.0237C37.4914 31.3155 39.8637 34.5616 39.8637 38.3617C39.8637 42.1617 37.4914 45.4077 34.147 46.6996C35.1456 47.0853 36.2308 47.2969 37.3655 47.2969C42.3003 47.2969 46.3007 43.2965 46.3007 38.3617C46.3007 33.4269 42.3002 29.4265 37.3655 29.4265Z" fill="#7FB2F9"/>
<path d="M42.3366 38.8469H42.2353C42.2441 37.326 42.2488 35.6948 42.23 35.469C42.1426 34.4222 41.0008 33.9663 40.2682 34.865C39.9087 35.306 38.2464 38.3027 37.7455 39.2106C37.4873 39.6787 37.8264 40.2539 38.3616 40.2539H40.8188C40.8158 40.6642 40.8126 41.0575 40.8096 41.4126C40.8014 42.346 42.2085 42.3631 42.2165 41.4247C42.2184 41.2063 42.2219 40.7812 42.2259 40.2539H42.3365C42.725 40.2539 43.04 39.939 43.04 39.5504C43.04 39.1618 42.7251 38.8469 42.3366 38.8469ZM40.828 38.8469H39.5571C40.0315 37.9982 40.4945 37.1838 40.8364 36.6001C40.8362 37.2044 40.8328 38.0105 40.828 38.8469Z" fill="black"/>
<path d="M36.1677 40.9161C36.1647 40.9161 36.1616 40.9161 36.1587 40.9162C35.5083 40.9243 34.8176 40.9297 34.2507 40.9304C35.563 39.1777 36.6027 37.8521 36.6027 36.8C36.6027 35.5189 35.5605 34.4767 34.2795 34.4767C33.1719 34.4767 32.2131 35.2648 31.9999 36.3505C31.925 36.7318 32.1734 37.1016 32.5546 37.1765C32.9358 37.2513 33.3056 37.0029 33.3806 36.6217C33.4646 36.1942 33.8427 35.8838 34.2795 35.8838C34.7718 35.8838 35.1747 36.274 35.195 36.7616C35.1862 36.7874 35.2053 37.1778 34.6186 38.0157C33.6158 39.4486 33.0174 40.2322 32.6959 40.6532C32.3023 41.1684 32.1228 41.4036 32.243 41.7945C32.3135 42.0238 32.4871 42.1997 32.7194 42.2771C33.0146 42.3754 35.2777 42.3344 36.1766 42.3231C36.5651 42.3183 36.876 41.9994 36.8711 41.6109C36.8662 41.2252 36.5522 40.9161 36.1677 40.9161Z" fill="black"/>
<path d="M37.3653 28.7228C32.0507 28.7228 27.7268 33.0467 27.7268 38.3615C27.7268 43.6762 32.0507 48 37.3653 48C42.68 48 47.0039 43.6762 47.0039 38.3615C47.0039 33.0467 42.68 28.7228 37.3653 28.7228ZM37.3653 46.593C32.8264 46.593 29.1338 42.9004 29.1338 38.3615C29.1338 33.8225 32.8264 30.1298 37.3653 30.1298C41.9042 30.1298 45.5969 33.8225 45.5969 38.3615C45.5969 42.9003 41.9042 46.593 37.3653 46.593Z" fill="black"/>
<path d="M28.2172 44.7293H24.2346L22.3348 34.0108L23.2068 32.513C23.849 32.7015 24.5524 32.5357 25.0472 32.0539C25.0497 32.0516 25.052 32.0492 25.0544 32.0468L29.3067 27.788C30.1051 28.0072 30.8798 28.3077 31.6143 28.6837C31.9594 28.8601 32.3835 28.7247 32.5611 28.3778C32.7381 28.0319 32.6012 27.6081 32.2554 27.4311C31.3415 26.9633 30.3723 26.6003 29.3729 26.3508L27.4969 25.2006C26.9029 24.8363 26.139 24.8421 25.5507 25.2154L25.338 25.3503C24.9582 24.7968 25.0474 24.3389 25.0855 23.6033C25.4939 23.3403 25.8891 23.041 26.2705 22.7057C26.8981 22.154 27.4307 21.5008 27.8546 20.7762H29.2882C30.9118 20.7762 32.2328 19.4553 32.2328 17.8316V12.3622C32.2328 11.4447 31.6985 10.6342 30.9012 10.2564V6.40012C30.9012 4.66856 29.4924 3.25987 27.7608 3.25987H27.6787C27.6128 3.25987 27.5592 3.20625 27.5592 3.14034C27.5593 1.40878 26.1506 0 24.4189 0H16.6629C12.8289 0 9.70963 3.11925 9.70963 6.95334V10.2565C8.91229 10.6343 8.37791 11.4449 8.37791 12.3622V15.1439C8.37791 16.4295 9.42379 17.4753 10.7093 17.4753H11.6777C11.9164 19.5481 12.8882 21.4413 14.41 22.7563C14.7701 23.0675 15.142 23.3468 15.5253 23.5944C15.483 24.316 15.6522 24.8047 15.2731 25.3506L15.06 25.2154C14.4718 24.8421 13.7078 24.8363 13.1139 25.2006L11.2386 26.3504C8.35354 27.0709 5.75338 28.7498 3.90651 31.0878C2.02954 33.4638 0.99585 36.4403 0.99585 39.4689V42.2909C0.99585 44.4113 2.72085 46.1362 4.84119 46.1362H28.2171C28.6056 46.1362 28.9206 45.8213 28.9206 45.4328C28.9207 45.0443 28.6057 44.7293 28.2172 44.7293ZM26.3043 26.4036C26.4425 26.3158 26.6219 26.3145 26.7613 26.4001L27.9663 27.1389L24.0628 31.0485C23.888 31.2159 23.6169 31.2254 23.4307 31.07C22.8108 30.5522 21.8295 29.7325 21.496 29.4539C22.7083 28.6848 25.0987 27.1684 26.3043 26.4036ZM24.1501 26.1039L20.3054 28.5429L16.4629 26.1053C17.0225 25.2646 16.9199 24.4379 16.9325 24.339C17.9991 24.7867 19.1385 25.0166 20.342 25.0251H20.347C20.3506 25.0251 20.3542 25.0251 20.3578 25.025C21.5299 25.0068 22.6395 24.7791 23.6785 24.3451C23.6913 24.4444 23.5843 25.2459 24.1501 26.1039ZM22.0318 31.7347L21.1926 33.1762H19.4184L18.5791 31.7347L20.3055 30.2927L22.0318 31.7347ZM25.8324 20.5189H23.9944C23.6822 20.5189 23.4283 20.2649 23.4283 19.9527C23.4283 19.6405 23.6822 19.3866 23.9944 19.3866H25.8324C26.1445 19.3866 26.3985 19.6406 26.3985 19.9527C26.3984 20.2649 26.1445 20.5189 25.8324 20.5189ZM30.8259 17.8318C30.8259 18.6796 30.1362 19.3694 29.2883 19.3694H28.5086C28.7241 18.764 28.8726 18.1283 28.9482 17.4754H29.9015C30.2297 17.4754 30.5423 17.4071 30.8259 17.2842V17.8318ZM30.7223 11.9373C30.7887 12.0652 30.8259 12.21 30.8259 12.3623V15.144C30.8259 15.6537 30.4112 16.0684 29.9015 16.0684H29.0017V13.2583C29.21 13.1477 30.2428 13.0304 30.7223 11.9373ZM11.6092 16.0683H10.7094C10.1997 16.0683 9.78501 15.6536 9.78501 15.1439V12.3622C9.78501 12.21 9.82222 12.0651 9.8886 11.9372C10.3684 13.0312 11.404 13.1492 11.6092 13.2581V16.0683ZM11.6014 11.7655C11.3115 11.6646 11.1167 11.3905 11.1167 11.0835C11.1167 10.0201 11.1167 7.50047 11.1167 6.95334C11.1167 3.89503 13.6048 1.407 16.663 1.407H24.419C25.3748 1.407 26.1523 2.18456 26.1523 3.14034C26.1523 3.98213 26.837 4.66687 27.6788 4.66687H27.7609C28.7167 4.66687 29.4943 5.44444 29.4943 6.40012V11.0836C29.4943 11.3905 29.2995 11.6646 29.0096 11.7655C28.6617 11.8868 27.8355 12.1745 27.4707 12.3016C27.3911 12.3293 27.3062 12.2722 27.3063 12.1843L27.3091 9.27394C27.3182 7.09884 25.2921 5.34881 22.5805 6.22031C21.1607 6.67641 19.423 6.66759 18.0305 6.22041C15.3429 5.35631 13.2926 7.07278 13.3018 9.27178L13.3051 12.1845C13.3053 12.2703 13.222 12.3297 13.1409 12.3015C12.7773 12.1749 11.9488 11.8865 11.6014 11.7655ZM15.33 21.6918C12.9405 19.6269 13.052 16.7174 13.0162 16.5382V13.7063C13.0709 13.7123 13.1258 13.7153 13.1805 13.7153C14.0353 13.7153 14.7133 13.0206 14.712 12.1827L14.7087 9.26813C14.7038 8.10403 15.756 6.96731 17.5999 7.56C19.312 8.10994 21.3577 8.09109 23.0109 7.55991C24.737 7.00537 25.9074 7.98534 25.9019 9.27047L25.8991 12.1827C25.8979 13.0852 26.6801 13.8047 27.5945 13.7064V16.7221C27.5723 17.3732 27.4642 18.0089 27.2783 18.6116C26.9177 18.223 26.4029 17.9796 25.8322 17.9796H23.9942C22.9062 17.9796 22.0211 18.8647 22.0211 19.9528C22.0211 21.0408 22.9063 21.926 23.9942 21.926H25.0108C23.6656 22.9975 22.1047 23.589 20.3437 23.6181C18.4349 23.6028 16.7573 22.925 15.33 21.6918ZM13.8494 26.4001C13.9889 26.3146 14.1683 26.3159 14.3065 26.4036C15.532 27.1809 17.9071 28.6878 19.1148 29.4539C17.2218 31.0344 17.2183 31.0382 17.1802 31.07C16.9939 31.2254 16.7228 31.216 16.548 31.0485L12.6446 27.1389L13.8494 26.4001ZM16.3764 44.7293H9.4056V41.4276C9.4056 41.039 9.0906 40.7241 8.7021 40.7241C8.3136 40.7241 7.9986 41.039 7.9986 41.4276V44.7293H4.84129C3.49682 44.7293 2.40294 43.6355 2.40294 42.291V39.469C2.40294 36.7555 3.3291 34.0888 5.01069 31.96C6.60651 29.9399 8.82979 28.469 11.3041 27.788L15.5565 32.0469C15.5589 32.0493 15.5612 32.0517 15.5637 32.054C16.0573 32.5347 16.7604 32.702 17.4041 32.5131L18.2761 34.0109L16.3764 44.7293ZM17.8052 44.7293L19.6036 34.5833H21.0072L22.8056 44.7293H17.8052Z" fill="black"/>
</g>
<defs>
<clipPath id="clip0_57_59">
<rect width="48" height="48" fill="white"/>
</clipPath>
</defs>
</svg>
