<svg width="30" height="30" viewBox="0 0 30 30" fill="none" xmlns="http://www.w3.org/2000/svg">
<path d="M6 5H19.5213C21.3428 5 22.2526 5 22.8186 5.56596C23.3845 6.13193 23.3845 7.04172 23.3845 8.86323V14.6581C23.3845 16.4796 23.3845 17.3894 22.8186 17.9553C22.2526 18.5213 21.3428 18.5213 19.5213 18.5213H12.7606M13.7265 9.34613H19.5213M6 19.4871V15.6239C6 14.7131 6 14.2582 6.28298 13.9752C6.56596 13.6923 7.02086 13.6923 7.93161 13.6923H9.86323M6 19.4871H9.86323M6 19.4871V24.3161M9.86323 13.6923V19.4871M9.86323 13.6923H15.6581M9.86323 19.4871V24.3161" stroke="#008E96" stroke-width="1.5" stroke-linecap="round" stroke-linejoin="round"/>
<path d="M9.86323 9.34568C9.86323 9.85797 9.65972 10.3493 9.29747 10.7115C8.93522 11.0738 8.44391 11.2773 7.93161 11.2773C7.41932 11.2773 6.928 11.0738 6.56576 10.7115C6.20351 10.3493 6 9.85797 6 9.34568C6 8.83338 6.20351 8.34207 6.56576 7.97982C6.928 7.61757 7.41932 7.41406 7.93161 7.41406C8.44391 7.41406 8.93522 7.61757 9.29747 7.97982C9.65972 8.34207 9.86323 8.83338 9.86323 9.34568Z" stroke="#008E96" stroke-width="1.5"/>
</svg>
