<svg width="36" height="36" viewBox="0 0 36 36" fill="none" xmlns="http://www.w3.org/2000/svg">
<g clip-path="url(#clip0_870_7046)">
<path d="M12.375 16.875C12.9717 16.875 13.544 16.6379 13.966 16.216C14.3879 15.794 14.625 15.2217 14.625 14.625C14.625 14.0283 14.3879 13.456 13.966 13.034C13.544 12.6121 12.9717 12.375 12.375 12.375C11.7783 12.375 11.206 12.6121 10.784 13.034C10.3621 13.456 10.125 14.0283 10.125 14.625C10.125 15.2217 10.3621 15.794 10.784 16.216C11.206 16.6379 11.7783 16.875 12.375 16.875ZM25.875 14.625C25.875 15.2217 25.6379 15.794 25.216 16.216C24.794 16.6379 24.2217 16.875 23.625 16.875C23.0283 16.875 22.456 16.6379 22.034 16.216C21.6121 15.794 21.375 15.2217 21.375 14.625C21.375 14.0283 21.6121 13.456 22.034 13.034C22.456 12.6121 23.0283 12.375 23.625 12.375C24.2217 12.375 24.794 12.6121 25.216 13.034C25.6379 13.456 25.875 14.0283 25.875 14.625ZM10.125 22.5C9.82663 22.5 9.54048 22.6185 9.3295 22.8295C9.11853 23.0405 9 23.3266 9 23.625C9 23.9234 9.11853 24.2095 9.3295 24.4205C9.54048 24.6315 9.82663 24.75 10.125 24.75H25.875C26.1734 24.75 26.4595 24.6315 26.6705 24.4205C26.8815 24.2095 27 23.9234 27 23.625C27 23.3266 26.8815 23.0405 26.6705 22.8295C26.4595 22.6185 26.1734 22.5 25.875 22.5H10.125ZM0 18C0 13.2261 1.89642 8.64773 5.27208 5.27208C8.64773 1.89642 13.2261 0 18 0C22.7739 0 27.3523 1.89642 30.7279 5.27208C34.1036 8.64773 36 13.2261 36 18C36 22.7739 34.1036 27.3523 30.7279 30.7279C27.3523 34.1036 22.7739 36 18 36C13.2261 36 8.64773 34.1036 5.27208 30.7279C1.89642 27.3523 0 22.7739 0 18ZM18 2.25C15.9317 2.25 13.8836 2.65739 11.9727 3.4489C10.0619 4.24041 8.32559 5.40055 6.86307 6.86307C5.40055 8.32559 4.24041 10.0619 3.4489 11.9727C2.65739 13.8836 2.25 15.9317 2.25 18C2.25 20.0683 2.65739 22.1164 3.4489 24.0273C4.24041 25.9381 5.40055 27.6744 6.86307 29.1369C8.32559 30.5995 10.0619 31.7596 11.9727 32.5511C13.8836 33.3426 15.9317 33.75 18 33.75C22.1772 33.75 26.1832 32.0906 29.1369 29.1369C32.0906 26.1832 33.75 22.1772 33.75 18C33.75 13.8228 32.0906 9.81677 29.1369 6.86307C26.1832 3.90937 22.1772 2.25 18 2.25Z" fill="#FFC402"/>
</g>
<defs>
<clipPath id="clip0_870_7046">
<rect width="36" height="36" fill="white"/>
</clipPath>
</defs>
</svg>
