<svg width="46" height="46" viewBox="0 0 46 46" fill="none" xmlns="http://www.w3.org/2000/svg">
<path d="M23 25.15C24.7842 25.15 26.4953 24.4546 27.7569 23.2169C29.0185 21.9792 29.7273 20.3004 29.7273 18.55C29.7273 16.7996 29.0185 15.1208 27.7569 13.8831C26.4953 12.6454 24.7842 11.95 23 11.95C21.2158 11.95 19.5047 12.6454 18.2431 13.8831C16.9815 15.1208 16.2727 16.7996 16.2727 18.55C16.2727 20.3004 16.9815 21.9792 18.2431 23.2169C19.5047 24.4546 21.2158 25.15 23 25.15ZM23 25.15C20.3237 25.15 17.7571 26.193 15.8646 28.0496C13.9722 29.9063 12.9091 32.4244 12.9091 35.05V40M23 25.15C25.6763 25.15 28.2429 26.193 30.1354 28.0496C32.0278 29.9063 33.0909 32.4244 33.0909 35.05V40M24.6818 11.95C25.3613 9.2044 28.0707 7 31.4091 7C35.062 7 38.1027 9.9535 38.1364 13.6C38.1027 17.2465 35.062 20.2 31.4091 20.2M31.4091 20.2H29.7273M31.4091 20.2C36.9389 20.2 41.5 24.6319 41.5 30.1V33.4M21.3182 11.95C20.6387 9.2044 17.9293 7 14.5909 7C10.938 7 7.89727 9.9535 7.86364 13.6C7.89727 17.2465 10.938 20.2 14.5909 20.2M14.5909 20.2H16.2727M14.5909 20.2C9.06109 20.2 4.5 24.6319 4.5 30.1V33.4" stroke="#008E96" stroke-width="2"/>
</svg>
