<svg width="46" height="46" viewBox="0 0 46 46" fill="none" xmlns="http://www.w3.org/2000/svg">
<path d="M20.3297 6C16.4444 6 13.2511 9.02361 13.2511 12.8056C13.2511 16.5875 16.4464 19.6111 20.3297 19.6111C24.213 19.6111 27.4062 16.5875 27.4062 12.8056C27.4062 9.02361 24.213 6 20.3277 6M15.2284 12.8056C15.2284 10.1436 17.4884 7.94444 20.3297 7.94444C23.169 7.94444 25.429 10.1436 25.429 12.8056C25.429 15.4675 23.169 17.6667 20.3277 17.6667C17.4903 17.6667 15.2323 15.4675 15.2323 12.8056M14.4375 23.7294C14.7459 23.6458 15.1651 23.7236 15.5961 23.9978C16.565 24.6142 18.2259 25.4172 20.3297 25.4172C22.4334 25.4172 24.0943 24.6142 25.0612 23.9978C25.4942 23.7256 25.9114 23.6478 26.2179 23.7294C26.5092 23.8072 26.7992 23.8915 27.0879 23.9822L29.0335 24.5967C29.2809 24.6677 29.5468 24.6409 29.7744 24.522C30.0021 24.4031 30.1735 24.2015 30.2521 23.9601C30.3308 23.7187 30.3104 23.4566 30.1954 23.2297C30.0804 23.0029 29.8799 22.8291 29.6365 22.7456L27.689 22.1311C27.3759 22.0326 27.0608 21.9406 26.7438 21.855C25.7157 21.5769 24.7132 21.9056 23.9876 22.3664C23.2085 22.8603 21.9213 23.4728 20.3297 23.4728C18.738 23.4728 17.4488 22.8603 16.6718 22.3644C15.9461 21.9056 14.9437 21.5769 13.9135 21.855C13.5971 21.9419 13.2821 22.0339 12.9684 22.1311L11.0228 22.7456C10.0415 23.0479 9.14018 23.5597 8.38341 24.2444C7.62664 24.9291 7.03308 25.7698 6.64516 26.7064V26.7103L6.64319 26.7161L6.60364 26.8328L6.55619 26.9903C6.4877 27.2301 6.42703 27.4719 6.37428 27.7156C6.3209 27.9878 6.30706 28.1161 6.28531 28.3222L5.54384 35.2114C5.25318 37.2919 6.41976 39.3881 8.68766 39.9053C11.0168 40.4361 14.7914 41 20.3297 41C20.5919 41 20.8433 40.8976 21.0287 40.7152C21.2141 40.5329 21.3183 40.2856 21.3183 40.0278C21.3183 39.7699 21.2141 39.5226 21.0287 39.3403C20.8433 39.158 20.5919 39.0556 20.3297 39.0556C14.9278 39.0556 11.3035 38.5053 9.13451 38.0114C8.00353 37.7528 7.32534 36.7047 7.50526 35.4681V35.4486L8.25266 28.5225C8.265 28.373 8.28613 28.2243 8.31593 28.0772L8.31791 28.0694L8.32187 28.05L8.33768 27.9878L8.42073 27.6494L8.4405 27.5872L8.44445 27.5678L8.44643 27.56L8.49982 27.385C8.78259 26.7245 9.20869 26.1327 9.74831 25.6511C10.2879 25.1695 10.928 24.8096 11.6239 24.5967L13.5714 23.9842C13.8601 23.8934 14.1495 23.8092 14.4395 23.7314M32.1931 40.4303L41.5 31.2778L40.1021 29.9031L32.1931 37.6808L28.2386 33.7919L26.8407 35.1667L32.1931 40.4303Z" fill="#008E96"/>
</svg>
