<svg width="30" height="30" viewBox="0 0 30 30" fill="none" xmlns="http://www.w3.org/2000/svg">
<path d="M15 28.125C7.7625 28.125 1.875 22.2375 1.875 15C1.875 7.7625 7.7625 1.875 15 1.875C22.2375 1.875 28.125 7.7625 28.125 15C28.125 22.2375 22.2375 28.125 15 28.125ZM15 3.75C8.79375 3.75 3.75 8.79375 3.75 15C3.75 21.2062 8.79375 26.25 15 26.25C21.2062 26.25 26.25 21.2062 26.25 15C26.25 8.79375 21.2062 3.75 15 3.75Z" fill="#008E96"/>
<path d="M18.75 19.6875C18.5813 19.6875 18.4125 19.65 18.2625 19.5563L13.575 16.7438C13.4368 16.6596 13.3227 16.5411 13.2439 16.3999C13.165 16.2586 13.1241 16.0993 13.125 15.9375V8.4375C13.125 7.9125 13.5375 7.5 14.0625 7.5C14.5875 7.5 15 7.9125 15 8.4375V15.4125L19.2375 17.9437C19.4121 18.0507 19.547 18.2117 19.6218 18.4022C19.6966 18.5928 19.7073 18.8025 19.6521 18.9997C19.597 19.1968 19.4791 19.3706 19.3163 19.4948C19.1535 19.6189 18.9547 19.6866 18.75 19.6875Z" fill="#008E96"/>
</svg>
