<svg width="28" height="28" viewBox="0 0 28 28" fill="none" xmlns="http://www.w3.org/2000/svg">
<path d="M24.8399 8.519C24.7121 8.03758 24.46 7.5982 24.1089 7.24486C23.7578 6.89152 23.3201 6.63663 22.8395 6.50572C21.0751 6.02972 14 6.02972 14 6.02972C14 6.02972 6.92498 6.02972 5.16059 6.50572C4.67999 6.63663 4.24223 6.89152 3.89115 7.24486C3.54006 7.5982 3.28798 8.03758 3.16014 8.519C2.68726 10.2947 2.68726 14 2.68726 14C2.68726 14 2.68726 17.7053 3.16014 19.4814C3.28798 19.9628 3.54006 20.4022 3.89115 20.7555C4.24223 21.1089 4.67999 21.3638 5.16059 21.4947C6.92498 21.9703 14 21.9703 14 21.9703C14 21.9703 21.0751 21.9703 22.8395 21.4947C23.3201 21.3638 23.7578 21.1089 24.1089 20.7555C24.46 20.4022 24.7121 19.9628 24.8399 19.4814C25.3128 17.7053 25.3128 14 25.3128 14C25.3128 14 25.3128 10.2947 24.8399 8.519Z" fill="#EA5A47"/>
<path d="M11.686 17.3639L17.5995 14L11.686 10.6361V17.3639Z" fill="white"/>
<path d="M24.8399 8.519C24.7121 8.03758 24.46 7.5982 24.1089 7.24486C23.7578 6.89152 23.3201 6.63663 22.8395 6.50572C21.0751 6.02972 14 6.02972 14 6.02972C14 6.02972 6.92498 6.02972 5.16059 6.50572C4.67999 6.63663 4.24223 6.89152 3.89115 7.24486C3.54006 7.5982 3.28798 8.03758 3.16014 8.519C2.68726 10.2947 2.68726 14 2.68726 14C2.68726 14 2.68726 17.7053 3.16014 19.4814C3.28798 19.9628 3.54006 20.4022 3.89115 20.7555C4.24223 21.1089 4.67999 21.3638 5.16059 21.4947C6.92498 21.9703 14 21.9703 14 21.9703C14 21.9703 21.0751 21.9703 22.8395 21.4947C23.3201 21.3638 23.7578 21.1089 24.1089 20.7555C24.46 20.4022 24.7121 19.9628 24.8399 19.4814C25.3128 17.7053 25.3128 14 25.3128 14C25.3128 14 25.3128 10.2947 24.8399 8.519Z" stroke="black" stroke-width="0.5" stroke-miterlimit="10"/>
<path d="M11.686 17.3639L17.5995 14L11.686 10.6361V17.3639Z" stroke="black" stroke-width="0.5" stroke-miterlimit="10" stroke-linecap="round" stroke-linejoin="round"/>
</svg>
