<svg width="163" height="163" viewBox="0 0 163 163" fill="none" xmlns="http://www.w3.org/2000/svg">
<path d="M73.0086 65.9167L124.938 13.9868L124.938 65.9167L73.0086 65.9167Z" fill="#F9A41F"/>
<path d="M71.7994 119.056L123.736 67.1188L71.8065 67.1188L71.7994 119.056Z" fill="#F9A41F"/>
<path d="M50.4883 124.712L32.1248 143.076L32.1318 106.356L50.4883 124.712Z" fill="#F9A41F"/>
<path d="M33.0652 105.423L51.4287 87.0591L69.7923 105.423L51.4287 123.786L33.0652 105.423Z" fill="#F9A41F"/>
<path d="M70.7178 104.482L52.3613 86.126L70.7178 67.7695L70.7178 104.482Z" fill="#F9A41F"/>
<path d="M70.0459 66.8707L70.0459 40.9058L44.081 66.8707L44.081 92.8356L70.0459 66.8707Z" fill="#F9A41F"/>
<path d="M33.8501 142.935L70.5701 142.928L70.5771 106.208L33.8501 142.935Z" fill="#F9A41F"/>
</svg>
