<svg width="163" height="163" viewBox="0 0 163 163" fill="none" xmlns="http://www.w3.org/2000/svg">
<path d="M89.0463 95.9623L37.1164 147.892L37.1093 95.9552L89.0463 95.9623Z" fill="white"/>
<path d="M90.2412 42.8232L38.3113 94.7532L90.2483 94.7603L90.2412 42.8232Z" fill="white"/>
<path d="M111.56 37.512L129.924 19.1484L129.917 55.8685L111.56 37.512Z" fill="white"/>
<path d="M92.2634 56.8089L110.627 38.4453L128.991 56.8089L110.627 75.1725L92.2634 56.8089Z" fill="white"/>
<path d="M91.3301 57.7427L109.687 76.0992L91.3301 94.4556L91.3301 57.7427Z" fill="white"/>
<path d="M92.0018 95.3541L92.0018 121.319L117.967 95.3542L117.967 69.3892L92.0018 95.3541Z" fill="white"/>
<path d="M128.198 19.2901L91.4783 19.2971L91.4712 56.0172L128.198 19.2901Z" fill="white"/>
</svg>
