<svg width="101" height="103" viewBox="0 0 101 103" fill="none" xmlns="http://www.w3.org/2000/svg">
<path d="M0 68.2804C0 68.7614 0.225279 69.1786 0.566085 69.4626C0.381241 68.97 0.202173 68.4774 0.0288819 67.979C0.0115528 68.0775 0 68.176 0 68.2804Z" fill="#008E96"/>
<path d="M59.9415 0.0231934C60.0224 0.0405793 60.0975 0.0579652 60.1726 0.0753511C60.1033 0.0463746 60.0224 0.0289887 59.9415 0.0231934Z" fill="#008E96"/>
<path d="M91.4805 79.4073C91.4805 79.8072 91.6364 80.1607 91.8848 80.4331C92.4394 79.6218 92.9766 78.7988 93.4849 77.9585C93.3347 77.9064 93.1729 77.8716 93.0054 77.8716C92.1621 77.8774 91.4805 78.5612 91.4805 79.4073Z" fill="#008E96"/>
<path d="M93.0054 72.314C92.1621 72.314 91.4805 72.9978 91.4805 73.8439C91.4805 74.69 92.1621 75.3739 93.0054 75.3739C93.8488 75.3739 94.5304 74.69 94.5304 73.8439C94.5304 72.9978 93.8488 72.314 93.0054 72.314Z" fill="#008E96"/>
<path d="M93.0054 66.7502C92.1621 66.7502 91.4805 67.4341 91.4805 68.2802C91.4805 69.1263 92.1621 69.8102 93.0054 69.8102C93.8488 69.8102 94.5304 69.1263 94.5304 68.2802C94.5304 67.4341 93.8488 66.7502 93.0054 66.7502Z" fill="#008E96"/>
<path d="M93.0054 61.1868C92.1621 61.1868 91.4805 61.8706 91.4805 62.7167C91.4805 63.5628 92.1621 64.2467 93.0054 64.2467C93.8488 64.2467 94.5304 63.5628 94.5304 62.7167C94.5304 61.8706 93.8488 61.1868 93.0054 61.1868Z" fill="#008E96"/>
<path d="M99.7985 57.1534C99.7985 57.6808 100.064 58.1444 100.469 58.4168C100.596 57.5243 100.7 56.6319 100.78 55.7278C100.209 55.948 99.7985 56.5044 99.7985 57.1534Z" fill="#008E96"/>
<path d="M93.0054 55.6233C92.1621 55.6233 91.4805 56.3071 91.4805 57.1533C91.4805 57.9994 92.1621 58.6832 93.0054 58.6832C93.8488 58.6832 94.5304 57.9994 94.5304 57.1533C94.5304 56.3129 93.8488 55.6233 93.0054 55.6233Z" fill="#008E96"/>
<path d="M99.7985 51.5899C99.7985 52.3085 100.289 52.9054 100.954 53.0677C100.983 52.3665 101 51.6595 101 50.9466C101 50.6627 100.994 50.3787 100.988 50.0947C100.307 50.257 99.7985 50.8597 99.7985 51.5899Z" fill="#008E96"/>
<path d="M93.0054 50.0598C92.1621 50.0598 91.4805 50.7437 91.4805 51.5898C91.4805 52.4359 92.1621 53.1197 93.0054 53.1197C93.8488 53.1197 94.5304 52.4359 94.5304 51.5898C94.5304 50.7437 93.8488 50.0598 93.0054 50.0598Z" fill="#008E96"/>
<path d="M99.7985 46.0321C99.7985 46.7218 100.255 47.3013 100.884 47.4868C100.821 46.5421 100.734 45.6091 100.624 44.676C100.133 44.931 99.7985 45.441 99.7985 46.0321Z" fill="#008E96"/>
<path d="M93.0054 44.5022C92.1621 44.5022 91.4805 45.186 91.4805 46.0322C91.4805 46.8783 92.1621 47.5621 93.0054 47.5621C93.8488 47.5621 94.5304 46.8783 94.5304 46.0322C94.5304 45.186 93.8488 44.5022 93.0054 44.5022Z" fill="#008E96"/>
<path d="M99.7985 40.4687C99.7985 40.8222 99.9255 41.1467 100.128 41.4075C100.047 40.9555 99.9544 40.5092 99.862 40.063C99.8216 40.1905 99.7985 40.3238 99.7985 40.4687Z" fill="#008E96"/>
<path d="M93.0054 38.9387C92.1621 38.9387 91.4805 39.6226 91.4805 40.4687C91.4805 41.3148 92.1621 41.9986 93.0054 41.9986C93.8488 41.9986 94.5304 41.3148 94.5304 40.4687C94.5304 39.6226 93.8488 38.9387 93.0054 38.9387Z" fill="#008E96"/>
<path d="M93.0054 33.3752C92.1621 33.3752 91.4805 34.0591 91.4805 34.9052C91.4805 35.7513 92.1621 36.4352 93.0054 36.4352C93.8488 36.4352 94.5304 35.7513 94.5304 34.9052C94.5304 34.0591 93.8488 33.3752 93.0054 33.3752Z" fill="#008E96"/>
<path d="M93.0054 27.8118C92.1621 27.8118 91.4805 28.4956 91.4805 29.3417C91.4805 30.1878 92.1621 30.8717 93.0054 30.8717C93.8488 30.8717 94.5304 30.1878 94.5304 29.3417C94.5304 28.4956 93.8488 27.8118 93.0054 27.8118Z" fill="#008E96"/>
<path d="M91.4805 23.7782C91.4805 24.6243 92.1621 25.3081 93.0054 25.3081C93.4098 25.3081 93.7679 25.1517 94.0394 24.8967C93.5426 24.0332 93.017 23.1813 92.4682 22.3525C91.8964 22.567 91.4805 23.1233 91.4805 23.7782Z" fill="#008E96"/>
<path d="M26.4732 94.562C25.6299 94.562 24.9482 95.2459 24.9482 96.092C24.9482 96.9381 25.6299 97.6219 26.4732 97.6219C27.3166 97.6219 27.9982 96.9381 27.9982 96.092C27.9982 95.2459 27.3166 94.562 26.4732 94.562Z" fill="#008E96"/>
<path d="M26.4732 88.9985C25.6299 88.9985 24.9482 89.6824 24.9482 90.5285C24.9482 91.3746 25.6299 92.0585 26.4732 92.0585C27.3166 92.0585 27.9982 91.3746 27.9982 90.5285C27.9982 89.6824 27.3166 88.9985 26.4732 88.9985Z" fill="#008E96"/>
<path d="M18.1552 88.9985C17.3119 88.9985 16.6302 89.6824 16.6302 90.5285C16.6302 91.3746 17.3119 92.0585 18.1552 92.0585C18.9986 92.0585 19.6802 91.3746 19.6802 90.5285C19.6802 89.6824 18.9986 88.9985 18.1552 88.9985Z" fill="#008E96"/>
<path d="M26.4732 83.4351C25.6299 83.4351 24.9482 84.1189 24.9482 84.965C24.9482 85.8111 25.6299 86.495 26.4732 86.495C27.3166 86.495 27.9982 85.8111 27.9982 84.965C27.9982 84.1247 27.3166 83.4351 26.4732 83.4351Z" fill="#008E96"/>
<path d="M18.1552 83.4351C17.3119 83.4351 16.6302 84.1189 16.6302 84.965C16.6302 85.8111 17.3119 86.495 18.1552 86.495C18.9986 86.495 19.6802 85.8111 19.6802 84.965C19.6802 84.1247 18.9986 83.4351 18.1552 83.4351Z" fill="#008E96"/>
<path d="M11.3679 84.965C11.3679 84.1189 10.6863 83.4351 9.84298 83.4351C9.45596 83.4351 9.10938 83.5857 8.83789 83.8233C9.47907 84.6115 10.1376 85.3823 10.825 86.1299C11.1542 85.8459 11.3679 85.4344 11.3679 84.965Z" fill="#008E96"/>
<path d="M26.4732 77.8774C25.6299 77.8774 24.9482 78.5613 24.9482 79.4074C24.9482 80.2535 25.6299 80.9374 26.4732 80.9374C27.3166 80.9374 27.9982 80.2535 27.9982 79.4074C27.9982 78.5613 27.3166 77.8774 26.4732 77.8774Z" fill="#008E96"/>
<path d="M18.1552 77.8774C17.3119 77.8774 16.6302 78.5613 16.6302 79.4074C16.6302 80.2535 17.3119 80.9374 18.1552 80.9374C18.9986 80.9374 19.6802 80.2535 19.6802 79.4074C19.6802 78.5613 18.9986 77.8774 18.1552 77.8774Z" fill="#008E96"/>
<path d="M9.84296 77.8774C8.99961 77.8774 8.31799 78.5613 8.31799 79.4074C8.31799 80.2535 8.99961 80.9374 9.84296 80.9374C10.6863 80.9374 11.3679 80.2535 11.3679 79.4074C11.3679 78.5613 10.6805 77.8774 9.84296 77.8774Z" fill="#008E96"/>
<path d="M26.4732 72.314C25.6299 72.314 24.9482 72.9978 24.9482 73.8439C24.9482 74.69 25.6299 75.3739 26.4732 75.3739C27.3166 75.3739 27.9982 74.69 27.9982 73.8439C27.9982 72.9978 27.3166 72.314 26.4732 72.314Z" fill="#008E96"/>
<path d="M18.1552 72.314C17.3119 72.314 16.6302 72.9978 16.6302 73.8439C16.6302 74.69 17.3119 75.3739 18.1552 75.3739C18.9986 75.3739 19.6802 74.69 19.6802 73.8439C19.6802 72.9978 18.9986 72.314 18.1552 72.314Z" fill="#008E96"/>
<path d="M9.84296 72.314C8.99961 72.314 8.31799 72.9978 8.31799 73.8439C8.31799 74.69 8.99961 75.3739 9.84296 75.3739C10.6863 75.3739 11.3679 74.69 11.3679 73.8439C11.3679 72.9978 10.6805 72.314 9.84296 72.314Z" fill="#008E96"/>
<path d="M1.75598 72.3369C2.10256 73.1019 2.4607 73.8611 2.84194 74.6029C2.9748 74.3769 3.04989 74.1219 3.04989 73.8437C3.04989 73.0729 2.48381 72.447 1.75598 72.3369Z" fill="#008E96"/>
<path d="M26.4732 66.7502C25.6299 66.7502 24.9482 67.4341 24.9482 68.2802C24.9482 69.1263 25.6299 69.8102 26.4732 69.8102C27.3166 69.8102 27.9982 69.1263 27.9982 68.2802C27.9982 67.4341 27.3166 66.7502 26.4732 66.7502Z" fill="#008E96"/>
<path d="M18.1552 66.7502C17.3119 66.7502 16.6302 67.4341 16.6302 68.2802C16.6302 69.1263 17.3119 69.8102 18.1552 69.8102C18.9986 69.8102 19.6802 69.1263 19.6802 68.2802C19.6802 67.4341 18.9986 66.7502 18.1552 66.7502Z" fill="#008E96"/>
<path d="M9.84296 66.7502C8.99961 66.7502 8.31799 67.4341 8.31799 68.2802C8.31799 69.1263 8.99961 69.8102 9.84296 69.8102C10.6863 69.8102 11.3679 69.1263 11.3679 68.2802C11.3679 67.4341 10.6805 66.7502 9.84296 66.7502Z" fill="#008E96"/>
<path d="M3.04998 68.2802C3.04998 67.4341 2.36836 66.7502 1.52501 66.7502C0.785636 66.7502 0.167564 67.2776 0.0289307 67.9789C0.202222 68.4772 0.38129 68.9698 0.566134 69.4624C0.826071 69.6769 1.1611 69.8102 1.52501 69.8102C2.36836 69.8102 3.04998 69.1263 3.04998 68.2802Z" fill="#008E96"/>
<path d="M26.4732 61.1868C25.6299 61.1868 24.9482 61.8706 24.9482 62.7167C24.9482 63.5628 25.6299 64.2467 26.4732 64.2467C27.3166 64.2467 27.9982 63.5628 27.9982 62.7167C27.9982 61.8706 27.3166 61.1868 26.4732 61.1868Z" fill="#008E96"/>
<path d="M18.1552 61.1868C17.3119 61.1868 16.6302 61.8706 16.6302 62.7167C16.6302 63.5628 17.3119 64.2467 18.1552 64.2467C18.9986 64.2467 19.6802 63.5628 19.6802 62.7167C19.6802 61.8706 18.9986 61.1868 18.1552 61.1868Z" fill="#008E96"/>
<path d="M9.84296 61.1868C8.99961 61.1868 8.31799 61.8706 8.31799 62.7167C8.31799 63.5628 8.99961 64.2467 9.84296 64.2467C10.6863 64.2467 11.3679 63.5628 11.3679 62.7167C11.3679 61.8706 10.6805 61.1868 9.84296 61.1868Z" fill="#008E96"/>
<path d="M1.52496 61.1868C0.681613 61.1868 0 61.8706 0 62.7167C0 63.5628 0.681613 64.2467 1.52496 64.2467C2.36832 64.2467 3.04993 63.5628 3.04993 62.7167C3.04993 61.8706 2.36832 61.1868 1.52496 61.1868Z" fill="#008E96"/>
<path d="M26.4732 55.6233C25.6299 55.6233 24.9482 56.3071 24.9482 57.1533C24.9482 57.9994 25.6299 58.6832 26.4732 58.6832C27.3166 58.6832 27.9982 57.9994 27.9982 57.1533C27.9982 56.3129 27.3166 55.6233 26.4732 55.6233Z" fill="#008E96"/>
<path d="M18.1552 55.6233C17.3119 55.6233 16.6302 56.3071 16.6302 57.1533C16.6302 57.9994 17.3119 58.6832 18.1552 58.6832C18.9986 58.6832 19.6802 57.9994 19.6802 57.1533C19.6802 56.3129 18.9986 55.6233 18.1552 55.6233Z" fill="#008E96"/>
<path d="M9.84296 55.6233C8.99961 55.6233 8.31799 56.3071 8.31799 57.1533C8.31799 57.9994 8.99961 58.6832 9.84296 58.6832C10.6863 58.6832 11.3679 57.9994 11.3679 57.1533C11.3679 56.3129 10.6805 55.6233 9.84296 55.6233Z" fill="#008E96"/>
<path d="M1.52496 55.6233C0.681613 55.6233 0 56.3129 0 57.1533C0 57.9994 0.681613 58.6832 1.52496 58.6832C2.36832 58.6832 3.04993 57.9994 3.04993 57.1533C3.04993 56.3129 2.36832 55.6233 1.52496 55.6233Z" fill="#008E96"/>
<path d="M26.4732 50.0598C25.6299 50.0598 24.9482 50.7437 24.9482 51.5898C24.9482 52.4359 25.6299 53.1197 26.4732 53.1197C27.3166 53.1197 27.9982 52.4359 27.9982 51.5898C27.9982 50.7437 27.3166 50.0598 26.4732 50.0598Z" fill="#008E96"/>
<path d="M18.1552 50.0598C17.3119 50.0598 16.6302 50.7437 16.6302 51.5898C16.6302 52.4359 17.3119 53.1197 18.1552 53.1197C18.9986 53.1197 19.6802 52.4359 19.6802 51.5898C19.6802 50.7437 18.9986 50.0598 18.1552 50.0598Z" fill="#008E96"/>
<path d="M9.84296 50.0598C8.99961 50.0598 8.31799 50.7437 8.31799 51.5898C8.31799 52.4359 8.99961 53.1197 9.84296 53.1197C10.6863 53.1197 11.3679 52.4359 11.3679 51.5898C11.3679 50.7437 10.6805 50.0598 9.84296 50.0598Z" fill="#008E96"/>
<path d="M1.52496 50.0598C0.681613 50.0598 0 50.7495 0 51.5898C0 52.4301 0.681613 53.1197 1.52496 53.1197C2.36832 53.1197 3.04993 52.4359 3.04993 51.5898C3.04993 50.7437 2.36832 50.0598 1.52496 50.0598Z" fill="#008E96"/>
<path d="M26.4732 44.5022C25.6299 44.5022 24.9482 45.186 24.9482 46.0322C24.9482 46.8783 25.6299 47.5621 26.4732 47.5621C27.3166 47.5621 27.9982 46.8783 27.9982 46.0322C27.9982 45.186 27.3166 44.5022 26.4732 44.5022Z" fill="#008E96"/>
<path d="M18.1552 44.5022C17.3119 44.5022 16.6302 45.186 16.6302 46.0322C16.6302 46.8783 17.3119 47.5621 18.1552 47.5621C18.9986 47.5621 19.6802 46.8783 19.6802 46.0322C19.6802 45.186 18.9986 44.5022 18.1552 44.5022Z" fill="#008E96"/>
<path d="M9.84296 44.5022C8.99961 44.5022 8.31799 45.186 8.31799 46.0322C8.31799 46.8783 8.99961 47.5621 9.84296 47.5621C10.6863 47.5621 11.3679 46.8783 11.3679 46.0322C11.3679 45.186 10.6805 44.5022 9.84296 44.5022Z" fill="#008E96"/>
<path d="M1.52496 44.5022C0.681613 44.5022 0 45.186 0 46.0322C0 46.8783 0.681613 47.5621 1.52496 47.5621C2.36832 47.5621 3.04993 46.8783 3.04993 46.0322C3.04993 45.186 2.36832 44.5022 1.52496 44.5022Z" fill="#008E96"/>
<path d="M26.4732 38.9387C25.6299 38.9387 24.9482 39.6226 24.9482 40.4687C24.9482 41.3148 25.6299 41.9986 26.4732 41.9986C27.3166 41.9986 27.9982 41.3148 27.9982 40.4687C27.9982 39.6226 27.3166 38.9387 26.4732 38.9387Z" fill="#008E96"/>
<path d="M18.1552 38.9387C17.3119 38.9387 16.6302 39.6226 16.6302 40.4687C16.6302 41.3148 17.3119 41.9986 18.1552 41.9986C18.9986 41.9986 19.6802 41.3148 19.6802 40.4687C19.6802 39.6226 18.9986 38.9387 18.1552 38.9387Z" fill="#008E96"/>
<path d="M9.84296 38.9387C8.99961 38.9387 8.31799 39.6226 8.31799 40.4687C8.31799 41.3148 8.99961 41.9986 9.84296 41.9986C10.6863 41.9986 11.3679 41.3148 11.3679 40.4687C11.3679 39.6226 10.6805 38.9387 9.84296 38.9387Z" fill="#008E96"/>
<path d="M1.52496 38.9387C0.681613 38.9387 0 39.6226 0 40.4687C0 41.3148 0.681613 41.9986 1.52496 41.9986C2.36832 41.9986 3.04993 41.3148 3.04993 40.4687C3.04993 39.6226 2.36832 38.9387 1.52496 38.9387Z" fill="#008E96"/>
<path d="M26.4732 33.3752C25.6299 33.3752 24.9482 34.0591 24.9482 34.9052C24.9482 35.7513 25.6299 36.4352 26.4732 36.4352C27.3166 36.4352 27.9982 35.7513 27.9982 34.9052C27.9982 34.0591 27.3166 33.3752 26.4732 33.3752Z" fill="#008E96"/>
<path d="M18.1552 33.3752C17.3119 33.3752 16.6302 34.0591 16.6302 34.9052C16.6302 35.7513 17.3119 36.4352 18.1552 36.4352C18.9986 36.4352 19.6802 35.7513 19.6802 34.9052C19.6802 34.0591 18.9986 33.3752 18.1552 33.3752Z" fill="#008E96"/>
<path d="M9.84296 33.3752C8.99961 33.3752 8.31799 34.0591 8.31799 34.9052C8.31799 35.7513 8.99961 36.4352 9.84296 36.4352C10.6863 36.4352 11.3679 35.7513 11.3679 34.9052C11.3679 34.0591 10.6805 33.3752 9.84296 33.3752Z" fill="#008E96"/>
<path d="M1.52496 33.3752C0.681613 33.3752 0 34.0591 0 34.9052C0 35.7513 0.681613 36.4352 1.52496 36.4352C2.36832 36.4352 3.04993 35.7513 3.04993 34.9052C3.04993 34.0591 2.36832 33.3752 1.52496 33.3752Z" fill="#008E96"/>
<path d="M26.4732 27.8118C25.6299 27.8118 24.9482 28.4956 24.9482 29.3417C24.9482 30.1878 25.6299 30.8717 26.4732 30.8717C27.3166 30.8717 27.9982 30.1878 27.9982 29.3417C27.9982 28.4956 27.3166 27.8118 26.4732 27.8118Z" fill="#008E96"/>
<path d="M18.1552 27.8118C17.3119 27.8118 16.6302 28.4956 16.6302 29.3417C16.6302 30.1878 17.3119 30.8717 18.1552 30.8717C18.9986 30.8717 19.6802 30.1878 19.6802 29.3417C19.6802 28.4956 18.9986 27.8118 18.1552 27.8118Z" fill="#008E96"/>
<path d="M9.84296 27.8118C8.99961 27.8118 8.31799 28.4956 8.31799 29.3417C8.31799 30.1878 8.99961 30.8717 9.84296 30.8717C10.6863 30.8717 11.3679 30.1878 11.3679 29.3417C11.3679 28.4956 10.6805 27.8118 9.84296 27.8118Z" fill="#008E96"/>
<path d="M3.04998 29.3417C3.04998 28.8375 2.80737 28.4029 2.43191 28.1189C1.99868 29.0114 1.58856 29.9154 1.20154 30.8369C1.30551 30.8601 1.40949 30.8717 1.51924 30.8717C2.36837 30.8717 3.04998 30.1878 3.04998 29.3417Z" fill="#008E96"/>
<path d="M26.4732 22.2483C25.6299 22.2483 24.9482 22.9321 24.9482 23.7783C24.9482 24.6244 25.6299 25.3082 26.4732 25.3082C27.3166 25.3082 27.9982 24.6244 27.9982 23.7783C27.9982 22.9379 27.3166 22.2483 26.4732 22.2483Z" fill="#008E96"/>
<path d="M18.1552 22.2483C17.3119 22.2483 16.6302 22.9321 16.6302 23.7783C16.6302 24.6244 17.3119 25.3082 18.1552 25.3082C18.9986 25.3082 19.6802 24.6244 19.6802 23.7783C19.6802 22.9379 18.9986 22.2483 18.1552 22.2483Z" fill="#008E96"/>
<path d="M9.84296 22.2483C8.99961 22.2483 8.31799 22.9321 8.31799 23.7783C8.31799 24.6244 8.99961 25.3082 9.84296 25.3082C10.6863 25.3082 11.3679 24.6244 11.3679 23.7783C11.3679 22.9379 10.6805 22.2483 9.84296 22.2483Z" fill="#008E96"/>
<path d="M26.4732 16.6846C25.6299 16.6846 24.9482 17.3684 24.9482 18.2145C24.9482 19.0606 25.6299 19.7445 26.4732 19.7445C27.3166 19.7445 27.9982 19.0606 27.9982 18.2145C27.9982 17.3684 27.3166 16.6846 26.4732 16.6846Z" fill="#008E96"/>
<path d="M18.1552 16.6846C17.3119 16.6846 16.6302 17.3684 16.6302 18.2145C16.6302 19.0606 17.3119 19.7445 18.1552 19.7445C18.9986 19.7445 19.6802 19.0606 19.6802 18.2145C19.6802 17.3684 18.9986 16.6846 18.1552 16.6846Z" fill="#008E96"/>
<path d="M9.84298 19.7447C10.6863 19.7447 11.3679 19.0608 11.3679 18.2147C11.3679 17.4208 10.7672 16.7775 9.99894 16.7021C9.44441 17.3396 8.9072 17.9829 8.38733 18.6494C8.57217 19.2811 9.14981 19.7447 9.84298 19.7447Z" fill="#008E96"/>
<path d="M26.4732 11.127C25.6299 11.127 24.9482 11.8108 24.9482 12.6569C24.9482 13.503 25.6299 14.1869 26.4732 14.1869C27.3166 14.1869 27.9982 13.503 27.9982 12.6569C27.9982 11.8108 27.3166 11.127 26.4732 11.127Z" fill="#008E96"/>
<path d="M18.1552 11.127C17.3119 11.127 16.6302 11.8108 16.6302 12.6569C16.6302 13.503 17.3119 14.1869 18.1552 14.1869C18.9986 14.1869 19.6802 13.503 19.6802 12.6569C19.6802 11.8108 18.9986 11.127 18.1552 11.127Z" fill="#008E96"/>
<path d="M26.4732 5.56348C25.6299 5.56348 24.9482 6.24732 24.9482 7.09344C24.9482 7.93955 25.6299 8.6234 26.4732 8.6234C27.3166 8.6234 27.9982 7.93955 27.9982 7.09344C27.9982 6.24732 27.3166 5.56348 26.4732 5.56348Z" fill="#008E96"/>
<path d="M59.7393 100.125C58.896 100.125 58.2144 100.809 58.2144 101.655C58.2144 101.852 58.2548 102.038 58.3183 102.212C59.3061 102.032 60.2881 101.824 61.2527 101.592C61.2239 100.775 60.5596 100.125 59.7393 100.125Z" fill="#008E96"/>
<path d="M52.9463 101.655C52.9463 100.809 52.2647 100.125 51.4213 100.125C50.578 100.125 49.8964 100.809 49.8964 101.655C49.8964 102.241 50.2314 102.745 50.7108 103C51.2307 102.983 51.7448 102.959 52.2589 102.93C52.6748 102.658 52.9463 102.189 52.9463 101.655Z" fill="#008E96"/>
<path d="M44.1199 102.791C44.4319 102.513 44.634 102.107 44.634 101.655C44.634 100.809 43.9524 100.125 43.1091 100.125C42.2657 100.125 41.5841 100.809 41.5841 101.655C41.5841 101.98 41.6823 102.276 41.8556 102.525" fill="#008E96"/>
<path d="M34.7912 100.125C34.3233 100.125 33.9074 100.346 33.6301 100.676C34.5081 100.948 35.3977 101.203 36.2988 101.429C36.1833 100.693 35.5537 100.125 34.7912 100.125Z" fill="#008E96"/>
<path d="M74.8503 96.092C74.8503 96.1209 74.8561 96.1441 74.8561 96.1731C75.6301 95.7269 76.3926 95.2632 77.1436 94.7764C76.9183 94.6431 76.6583 94.562 76.3753 94.562C75.532 94.562 74.8503 95.2459 74.8503 96.092Z" fill="#008E96"/>
<path d="M68.0573 94.562C67.214 94.562 66.5323 95.2459 66.5323 96.092C66.5323 96.9381 67.214 97.6219 68.0573 97.6219C68.9007 97.6219 69.5823 96.9381 69.5823 96.092C69.5823 95.2459 68.9007 94.562 68.0573 94.562Z" fill="#008E96"/>
<path d="M59.7393 94.562C58.896 94.562 58.2144 95.2459 58.2144 96.092C58.2144 96.9381 58.896 97.6219 59.7393 97.6219C60.5827 97.6219 61.2643 96.9381 61.2643 96.092C61.2643 95.2459 60.5827 94.562 59.7393 94.562Z" fill="#008E96"/>
<path d="M51.4213 94.562C50.578 94.562 49.8964 95.2459 49.8964 96.092C49.8964 96.9381 50.578 97.6219 51.4213 97.6219C52.2647 97.6219 52.9463 96.9381 52.9463 96.092C52.9463 95.2459 52.2647 94.562 51.4213 94.562Z" fill="#008E96"/>
<path d="M43.1091 94.562C42.2657 94.562 41.5841 95.2459 41.5841 96.092C41.5841 96.9381 42.2657 97.6219 43.1091 97.6219C43.9524 97.6219 44.634 96.9381 44.634 96.092C44.634 95.2459 43.9466 94.562 43.1091 94.562Z" fill="#008E96"/>
<path d="M34.7911 94.562C33.9477 94.562 33.2661 95.2459 33.2661 96.092C33.2661 96.9381 33.9477 97.6219 34.7911 97.6219C35.6344 97.6219 36.316 96.9381 36.316 96.092C36.316 95.2459 35.6344 94.562 34.7911 94.562Z" fill="#008E96"/>
<path d="M83.203 90.2098C83.6478 89.8215 84.081 89.4216 84.5142 89.0217C83.8615 89.0971 83.3359 89.5781 83.203 90.2098Z" fill="#008E96"/>
<path d="M76.3753 88.9985C75.532 88.9985 74.8503 89.6824 74.8503 90.5285C74.8503 91.3746 75.532 92.0585 76.3753 92.0585C77.2187 92.0585 77.9003 91.3746 77.9003 90.5285C77.9003 89.6824 77.2129 88.9985 76.3753 88.9985Z" fill="#008E96"/>
<path d="M68.0573 88.9985C67.214 88.9985 66.5323 89.6824 66.5323 90.5285C66.5323 91.3746 67.214 92.0585 68.0573 92.0585C68.9007 92.0585 69.5823 91.3746 69.5823 90.5285C69.5823 89.6824 68.9007 88.9985 68.0573 88.9985Z" fill="#008E96"/>
<path d="M59.7393 88.9985C58.896 88.9985 58.2144 89.6824 58.2144 90.5285C58.2144 91.3746 58.896 92.0585 59.7393 92.0585C60.5827 92.0585 61.2643 91.3746 61.2643 90.5285C61.2643 89.6824 60.5827 88.9985 59.7393 88.9985Z" fill="#008E96"/>
<path d="M51.4213 88.9985C50.578 88.9985 49.8964 89.6824 49.8964 90.5285C49.8964 91.3746 50.578 92.0585 51.4213 92.0585C52.2647 92.0585 52.9463 91.3746 52.9463 90.5285C52.9463 89.6824 52.2647 88.9985 51.4213 88.9985Z" fill="#008E96"/>
<path d="M43.1091 88.9985C42.2657 88.9985 41.5841 89.6824 41.5841 90.5285C41.5841 91.3746 42.2657 92.0585 43.1091 92.0585C43.9524 92.0585 44.634 91.3746 44.634 90.5285C44.634 89.6824 43.9466 88.9985 43.1091 88.9985Z" fill="#008E96"/>
<path d="M34.7911 88.9985C33.9477 88.9985 33.2661 89.6824 33.2661 90.5285C33.2661 91.3746 33.9477 92.0585 34.7911 92.0585C35.6344 92.0585 36.316 91.3746 36.316 90.5285C36.316 89.6824 35.6344 88.9985 34.7911 88.9985Z" fill="#008E96"/>
<path d="M84.6876 83.4351C83.8442 83.4351 83.1626 84.1189 83.1626 84.965C83.1626 85.8111 83.8442 86.495 84.6876 86.495C85.5309 86.495 86.2125 85.8111 86.2125 84.965C86.2125 84.1247 85.5309 83.4351 84.6876 83.4351Z" fill="#008E96"/>
<path d="M76.3753 83.4351C75.532 83.4351 74.8503 84.1189 74.8503 84.965C74.8503 85.8111 75.532 86.495 76.3753 86.495C77.2187 86.495 77.9003 85.8111 77.9003 84.965C77.9003 84.1247 77.2129 83.4351 76.3753 83.4351Z" fill="#008E96"/>
<path d="M68.0573 83.4351C67.214 83.4351 66.5323 84.1189 66.5323 84.965C66.5323 85.8111 67.214 86.495 68.0573 86.495C68.9007 86.495 69.5823 85.8111 69.5823 84.965C69.5823 84.1247 68.9007 83.4351 68.0573 83.4351Z" fill="#008E96"/>
<path d="M59.7393 83.4351C58.896 83.4351 58.2144 84.1189 58.2144 84.965C58.2144 85.8111 58.896 86.495 59.7393 86.495C60.5827 86.495 61.2643 85.8111 61.2643 84.965C61.2643 84.1247 60.5827 83.4351 59.7393 83.4351Z" fill="#008E96"/>
<path d="M51.4213 83.4351C50.578 83.4351 49.8964 84.1189 49.8964 84.965C49.8964 85.8111 50.578 86.495 51.4213 86.495C52.2647 86.495 52.9463 85.8111 52.9463 84.965C52.9463 84.1247 52.2647 83.4351 51.4213 83.4351Z" fill="#008E96"/>
<path d="M43.1091 83.4351C42.2657 83.4351 41.5841 84.1189 41.5841 84.965C41.5841 85.8111 42.2657 86.495 43.1091 86.495C43.9524 86.495 44.634 85.8111 44.634 84.965C44.634 84.1247 43.9466 83.4351 43.1091 83.4351Z" fill="#008E96"/>
<path d="M34.7911 83.4351C33.9477 83.4351 33.2661 84.1189 33.2661 84.965C33.2661 85.8111 33.9477 86.495 34.7911 86.495C35.6344 86.495 36.316 85.8111 36.316 84.965C36.316 84.1247 35.6344 83.4351 34.7911 83.4351Z" fill="#008E96"/>
<path d="M84.6876 77.8774C83.8442 77.8774 83.1626 78.5613 83.1626 79.4074C83.1626 80.2535 83.8442 80.9374 84.6876 80.9374C85.5309 80.9374 86.2125 80.2535 86.2125 79.4074C86.2125 78.5613 85.5309 77.8774 84.6876 77.8774Z" fill="#008E96"/>
<path d="M76.3753 77.8774C75.532 77.8774 74.8503 78.5613 74.8503 79.4074C74.8503 80.2535 75.532 80.9374 76.3753 80.9374C77.2187 80.9374 77.9003 80.2535 77.9003 79.4074C77.9003 78.5613 77.2129 77.8774 76.3753 77.8774Z" fill="#008E96"/>
<path d="M68.0573 77.8774C67.214 77.8774 66.5323 78.5613 66.5323 79.4074C66.5323 80.2535 67.214 80.9374 68.0573 80.9374C68.9007 80.9374 69.5823 80.2535 69.5823 79.4074C69.5823 78.5613 68.9007 77.8774 68.0573 77.8774Z" fill="#008E96"/>
<path d="M59.7393 77.8774C58.896 77.8774 58.2144 78.5613 58.2144 79.4074C58.2144 80.2535 58.896 80.9374 59.7393 80.9374C60.5827 80.9374 61.2643 80.2535 61.2643 79.4074C61.2643 78.5613 60.5827 77.8774 59.7393 77.8774Z" fill="#008E96"/>
<path d="M51.4213 77.8774C50.578 77.8774 49.8964 78.5613 49.8964 79.4074C49.8964 80.2535 50.578 80.9374 51.4213 80.9374C52.2647 80.9374 52.9463 80.2535 52.9463 79.4074C52.9463 78.5613 52.2647 77.8774 51.4213 77.8774Z" fill="#008E96"/>
<path d="M43.1091 77.8774C42.2657 77.8774 41.5841 78.5613 41.5841 79.4074C41.5841 80.2535 42.2657 80.9374 43.1091 80.9374C43.9524 80.9374 44.634 80.2535 44.634 79.4074C44.634 78.5613 43.9466 77.8774 43.1091 77.8774Z" fill="#008E96"/>
<path d="M34.7911 77.8774C33.9477 77.8774 33.2661 78.5613 33.2661 79.4074C33.2661 80.2535 33.9477 80.9374 34.7911 80.9374C35.6344 80.9374 36.316 80.2535 36.316 79.4074C36.316 78.5613 35.6344 77.8774 34.7911 77.8774Z" fill="#008E96"/>
<path d="M84.6876 72.314C83.8442 72.314 83.1626 72.9978 83.1626 73.8439C83.1626 74.69 83.8442 75.3739 84.6876 75.3739C85.5309 75.3739 86.2125 74.69 86.2125 73.8439C86.2125 72.9978 85.5309 72.314 84.6876 72.314Z" fill="#008E96"/>
<path d="M76.3753 72.314C75.532 72.314 74.8503 72.9978 74.8503 73.8439C74.8503 74.69 75.532 75.3739 76.3753 75.3739C77.2187 75.3739 77.9003 74.69 77.9003 73.8439C77.9003 72.9978 77.2129 72.314 76.3753 72.314Z" fill="#008E96"/>
<path d="M68.0573 72.314C67.214 72.314 66.5323 72.9978 66.5323 73.8439C66.5323 74.69 67.214 75.3739 68.0573 75.3739C68.9007 75.3739 69.5823 74.69 69.5823 73.8439C69.5823 72.9978 68.9007 72.314 68.0573 72.314Z" fill="#008E96"/>
<path d="M59.7393 72.314C58.896 72.314 58.2144 72.9978 58.2144 73.8439C58.2144 74.69 58.896 75.3739 59.7393 75.3739C60.5827 75.3739 61.2643 74.69 61.2643 73.8439C61.2643 72.9978 60.5827 72.314 59.7393 72.314Z" fill="#008E96"/>
<path d="M51.4213 72.314C50.578 72.314 49.8964 72.9978 49.8964 73.8439C49.8964 74.69 50.578 75.3739 51.4213 75.3739C52.2647 75.3739 52.9463 74.69 52.9463 73.8439C52.9463 72.9978 52.2647 72.314 51.4213 72.314Z" fill="#008E96"/>
<path d="M43.1091 72.314C42.2657 72.314 41.5841 72.9978 41.5841 73.8439C41.5841 74.69 42.2657 75.3739 43.1091 75.3739C43.9524 75.3739 44.634 74.69 44.634 73.8439C44.634 72.9978 43.9466 72.314 43.1091 72.314Z" fill="#008E96"/>
<path d="M34.7911 72.314C33.9477 72.314 33.2661 72.9978 33.2661 73.8439C33.2661 74.69 33.9477 75.3739 34.7911 75.3739C35.6344 75.3739 36.316 74.69 36.316 73.8439C36.316 72.9978 35.6344 72.314 34.7911 72.314Z" fill="#008E96"/>
<path d="M84.6876 66.7502C83.8442 66.7502 83.1626 67.4341 83.1626 68.2802C83.1626 69.1263 83.8442 69.8102 84.6876 69.8102C85.5309 69.8102 86.2125 69.1263 86.2125 68.2802C86.2125 67.4341 85.5309 66.7502 84.6876 66.7502Z" fill="#008E96"/>
<path d="M76.3753 66.7502C75.532 66.7502 74.8503 67.4341 74.8503 68.2802C74.8503 69.1263 75.532 69.8102 76.3753 69.8102C77.2187 69.8102 77.9003 69.1263 77.9003 68.2802C77.9003 67.4341 77.2129 66.7502 76.3753 66.7502Z" fill="#008E96"/>
<path d="M68.0573 66.7502C67.214 66.7502 66.5323 67.4341 66.5323 68.2802C66.5323 69.1263 67.214 69.8102 68.0573 69.8102C68.9007 69.8102 69.5823 69.1263 69.5823 68.2802C69.5823 67.4341 68.9007 66.7502 68.0573 66.7502Z" fill="#008E96"/>
<path d="M59.7393 66.7502C58.896 66.7502 58.2144 67.4341 58.2144 68.2802C58.2144 69.1263 58.896 69.8102 59.7393 69.8102C60.5827 69.8102 61.2643 69.1263 61.2643 68.2802C61.2643 67.4341 60.5827 66.7502 59.7393 66.7502Z" fill="#008E96"/>
<path d="M51.4213 66.7502C50.578 66.7502 49.8964 67.4341 49.8964 68.2802C49.8964 69.1263 50.578 69.8102 51.4213 69.8102C52.2647 69.8102 52.9463 69.1263 52.9463 68.2802C52.9463 67.4341 52.2647 66.7502 51.4213 66.7502Z" fill="#008E96"/>
<path d="M43.1091 66.7502C42.2657 66.7502 41.5841 67.4341 41.5841 68.2802C41.5841 69.1263 42.2657 69.8102 43.1091 69.8102C43.9524 69.8102 44.634 69.1263 44.634 68.2802C44.634 67.4341 43.9466 66.7502 43.1091 66.7502Z" fill="#008E96"/>
<path d="M34.7911 66.7502C33.9477 66.7502 33.2661 67.4341 33.2661 68.2802C33.2661 69.1263 33.9477 69.8102 34.7911 69.8102C35.6344 69.8102 36.316 69.1263 36.316 68.2802C36.316 67.4341 35.6344 66.7502 34.7911 66.7502Z" fill="#008E96"/>
<path d="M84.6876 61.1868C83.8442 61.1868 83.1626 61.8706 83.1626 62.7167C83.1626 63.5628 83.8442 64.2467 84.6876 64.2467C85.5309 64.2467 86.2125 63.5628 86.2125 62.7167C86.2125 61.8706 85.5309 61.1868 84.6876 61.1868Z" fill="#008E96"/>
<path d="M76.3753 61.1868C75.532 61.1868 74.8503 61.8706 74.8503 62.7167C74.8503 63.5628 75.532 64.2467 76.3753 64.2467C77.2187 64.2467 77.9003 63.5628 77.9003 62.7167C77.9003 61.8706 77.2129 61.1868 76.3753 61.1868Z" fill="#008E96"/>
<path d="M68.0573 61.1868C67.214 61.1868 66.5323 61.8706 66.5323 62.7167C66.5323 63.5628 67.214 64.2467 68.0573 64.2467C68.9007 64.2467 69.5823 63.5628 69.5823 62.7167C69.5823 61.8706 68.9007 61.1868 68.0573 61.1868Z" fill="#008E96"/>
<path d="M59.7393 61.1868C58.896 61.1868 58.2144 61.8706 58.2144 62.7167C58.2144 63.5628 58.896 64.2467 59.7393 64.2467C60.5827 64.2467 61.2643 63.5628 61.2643 62.7167C61.2643 61.8706 60.5827 61.1868 59.7393 61.1868Z" fill="#008E96"/>
<path d="M51.4213 61.1868C50.578 61.1868 49.8964 61.8706 49.8964 62.7167C49.8964 63.5628 50.578 64.2467 51.4213 64.2467C52.2647 64.2467 52.9463 63.5628 52.9463 62.7167C52.9463 61.8706 52.2647 61.1868 51.4213 61.1868Z" fill="#008E96"/>
<path d="M43.1091 61.1868C42.2657 61.1868 41.5841 61.8706 41.5841 62.7167C41.5841 63.5628 42.2657 64.2467 43.1091 64.2467C43.9524 64.2467 44.634 63.5628 44.634 62.7167C44.634 61.8706 43.9466 61.1868 43.1091 61.1868Z" fill="#008E96"/>
<path d="M34.7911 61.1868C33.9477 61.1868 33.2661 61.8706 33.2661 62.7167C33.2661 63.5628 33.9477 64.2467 34.7911 64.2467C35.6344 64.2467 36.316 63.5628 36.316 62.7167C36.316 61.8706 35.6344 61.1868 34.7911 61.1868Z" fill="#008E96"/>
<path d="M84.6876 55.6233C83.8442 55.6233 83.1626 56.3071 83.1626 57.1533C83.1626 57.9994 83.8442 58.6832 84.6876 58.6832C85.5309 58.6832 86.2125 57.9994 86.2125 57.1533C86.2125 56.3129 85.5309 55.6233 84.6876 55.6233Z" fill="#008E96"/>
<path d="M76.3753 55.6233C75.532 55.6233 74.8503 56.3071 74.8503 57.1533C74.8503 57.9994 75.532 58.6832 76.3753 58.6832C77.2187 58.6832 77.9003 57.9994 77.9003 57.1533C77.9003 56.3129 77.2129 55.6233 76.3753 55.6233Z" fill="#008E96"/>
<path d="M68.0573 55.6233C67.214 55.6233 66.5323 56.3071 66.5323 57.1533C66.5323 57.9994 67.214 58.6832 68.0573 58.6832C68.9007 58.6832 69.5823 57.9994 69.5823 57.1533C69.5823 56.3129 68.9007 55.6233 68.0573 55.6233Z" fill="#008E96"/>
<path d="M59.7393 55.6233C58.896 55.6233 58.2144 56.3071 58.2144 57.1533C58.2144 57.9994 58.896 58.6832 59.7393 58.6832C60.5827 58.6832 61.2643 57.9994 61.2643 57.1533C61.2643 56.3129 60.5827 55.6233 59.7393 55.6233Z" fill="#008E96"/>
<path d="M51.4213 55.6233C50.578 55.6233 49.8964 56.3071 49.8964 57.1533C49.8964 57.9994 50.578 58.6832 51.4213 58.6832C52.2647 58.6832 52.9463 57.9994 52.9463 57.1533C52.9463 56.3129 52.2647 55.6233 51.4213 55.6233Z" fill="#008E96"/>
<path d="M43.1091 55.6233C42.2657 55.6233 41.5841 56.3071 41.5841 57.1533C41.5841 57.9994 42.2657 58.6832 43.1091 58.6832C43.9524 58.6832 44.634 57.9994 44.634 57.1533C44.634 56.3129 43.9466 55.6233 43.1091 55.6233Z" fill="#008E96"/>
<path d="M34.7911 55.6233C33.9477 55.6233 33.2661 56.3071 33.2661 57.1533C33.2661 57.9994 33.9477 58.6832 34.7911 58.6832C35.6344 58.6832 36.316 57.9994 36.316 57.1533C36.316 56.3129 35.6344 55.6233 34.7911 55.6233Z" fill="#008E96"/>
<path d="M84.6876 50.0598C83.8442 50.0598 83.1626 50.7437 83.1626 51.5898C83.1626 52.4359 83.8442 53.1197 84.6876 53.1197C85.5309 53.1197 86.2125 52.4359 86.2125 51.5898C86.2125 50.7437 85.5309 50.0598 84.6876 50.0598Z" fill="#008E96"/>
<path d="M76.3753 50.0598C75.532 50.0598 74.8503 50.7437 74.8503 51.5898C74.8503 52.4359 75.532 53.1197 76.3753 53.1197C77.2187 53.1197 77.9003 52.4359 77.9003 51.5898C77.9003 50.7437 77.2129 50.0598 76.3753 50.0598Z" fill="#008E96"/>
<path d="M68.0573 50.0598C67.214 50.0598 66.5323 50.7437 66.5323 51.5898C66.5323 52.4359 67.214 53.1197 68.0573 53.1197C68.9007 53.1197 69.5823 52.4359 69.5823 51.5898C69.5823 50.7437 68.9007 50.0598 68.0573 50.0598Z" fill="#008E96"/>
<path d="M59.7393 50.0598C58.896 50.0598 58.2144 50.7437 58.2144 51.5898C58.2144 52.4359 58.896 53.1197 59.7393 53.1197C60.5827 53.1197 61.2643 52.4359 61.2643 51.5898C61.2643 50.7437 60.5827 50.0598 59.7393 50.0598Z" fill="#008E96"/>
<path d="M51.4213 50.0598C50.578 50.0598 49.8964 50.7437 49.8964 51.5898C49.8964 52.4359 50.578 53.1197 51.4213 53.1197C52.2647 53.1197 52.9463 52.4359 52.9463 51.5898C52.9463 50.7437 52.2647 50.0598 51.4213 50.0598Z" fill="#008E96"/>
<path d="M43.1091 50.0598C42.2657 50.0598 41.5841 50.7437 41.5841 51.5898C41.5841 52.4359 42.2657 53.1197 43.1091 53.1197C43.9524 53.1197 44.634 52.4359 44.634 51.5898C44.634 50.7437 43.9466 50.0598 43.1091 50.0598Z" fill="#008E96"/>
<path d="M34.7911 50.0598C33.9477 50.0598 33.2661 50.7437 33.2661 51.5898C33.2661 52.4359 33.9477 53.1197 34.7911 53.1197C35.6344 53.1197 36.316 52.4359 36.316 51.5898C36.316 50.7437 35.6344 50.0598 34.7911 50.0598Z" fill="#008E96"/>
<path d="M84.6876 44.5022C83.8442 44.5022 83.1626 45.186 83.1626 46.0322C83.1626 46.8783 83.8442 47.5621 84.6876 47.5621C85.5309 47.5621 86.2125 46.8783 86.2125 46.0322C86.2125 45.186 85.5309 44.5022 84.6876 44.5022Z" fill="#008E96"/>
<path d="M76.3753 44.5022C75.532 44.5022 74.8503 45.186 74.8503 46.0322C74.8503 46.8783 75.532 47.5621 76.3753 47.5621C77.2187 47.5621 77.9003 46.8783 77.9003 46.0322C77.9003 45.186 77.2129 44.5022 76.3753 44.5022Z" fill="#008E96"/>
<path d="M68.0573 44.5022C67.214 44.5022 66.5323 45.186 66.5323 46.0322C66.5323 46.8783 67.214 47.5621 68.0573 47.5621C68.9007 47.5621 69.5823 46.8783 69.5823 46.0322C69.5823 45.186 68.9007 44.5022 68.0573 44.5022Z" fill="#008E96"/>
<path d="M59.7393 44.5022C58.896 44.5022 58.2144 45.186 58.2144 46.0322C58.2144 46.8783 58.896 47.5621 59.7393 47.5621C60.5827 47.5621 61.2643 46.8783 61.2643 46.0322C61.2643 45.186 60.5827 44.5022 59.7393 44.5022Z" fill="#008E96"/>
<path d="M51.4213 44.5022C50.578 44.5022 49.8964 45.186 49.8964 46.0322C49.8964 46.8783 50.578 47.5621 51.4213 47.5621C52.2647 47.5621 52.9463 46.8783 52.9463 46.0322C52.9463 45.186 52.2647 44.5022 51.4213 44.5022Z" fill="#008E96"/>
<path d="M43.1091 44.5022C42.2657 44.5022 41.5841 45.186 41.5841 46.0322C41.5841 46.8783 42.2657 47.5621 43.1091 47.5621C43.9524 47.5621 44.634 46.8783 44.634 46.0322C44.634 45.186 43.9466 44.5022 43.1091 44.5022Z" fill="#008E96"/>
<path d="M34.7911 44.5022C33.9477 44.5022 33.2661 45.186 33.2661 46.0322C33.2661 46.8783 33.9477 47.5621 34.7911 47.5621C35.6344 47.5621 36.316 46.8783 36.316 46.0322C36.316 45.186 35.6344 44.5022 34.7911 44.5022Z" fill="#008E96"/>
<path d="M84.6876 38.9387C83.8442 38.9387 83.1626 39.6226 83.1626 40.4687C83.1626 41.3148 83.8442 41.9986 84.6876 41.9986C85.5309 41.9986 86.2125 41.3148 86.2125 40.4687C86.2125 39.6226 85.5309 38.9387 84.6876 38.9387Z" fill="#008E96"/>
<path d="M76.3753 38.9387C75.532 38.9387 74.8503 39.6226 74.8503 40.4687C74.8503 41.3148 75.532 41.9986 76.3753 41.9986C77.2187 41.9986 77.9003 41.3148 77.9003 40.4687C77.9003 39.6226 77.2129 38.9387 76.3753 38.9387Z" fill="#008E96"/>
<path d="M68.0573 38.9387C67.214 38.9387 66.5323 39.6226 66.5323 40.4687C66.5323 41.3148 67.214 41.9986 68.0573 41.9986C68.9007 41.9986 69.5823 41.3148 69.5823 40.4687C69.5823 39.6226 68.9007 38.9387 68.0573 38.9387Z" fill="#008E96"/>
<path d="M59.7393 38.9387C58.896 38.9387 58.2144 39.6226 58.2144 40.4687C58.2144 41.3148 58.896 41.9986 59.7393 41.9986C60.5827 41.9986 61.2643 41.3148 61.2643 40.4687C61.2643 39.6226 60.5827 38.9387 59.7393 38.9387Z" fill="#008E96"/>
<path d="M51.4213 38.9387C50.578 38.9387 49.8964 39.6226 49.8964 40.4687C49.8964 41.3148 50.578 41.9986 51.4213 41.9986C52.2647 41.9986 52.9463 41.3148 52.9463 40.4687C52.9463 39.6226 52.2647 38.9387 51.4213 38.9387Z" fill="#008E96"/>
<path d="M43.1091 38.9387C42.2657 38.9387 41.5841 39.6226 41.5841 40.4687C41.5841 41.3148 42.2657 41.9986 43.1091 41.9986C43.9524 41.9986 44.634 41.3148 44.634 40.4687C44.634 39.6226 43.9466 38.9387 43.1091 38.9387Z" fill="#008E96"/>
<path d="M34.7911 38.9387C33.9477 38.9387 33.2661 39.6226 33.2661 40.4687C33.2661 41.3148 33.9477 41.9986 34.7911 41.9986C35.6344 41.9986 36.316 41.3148 36.316 40.4687C36.316 39.6226 35.6344 38.9387 34.7911 38.9387Z" fill="#008E96"/>
<path d="M84.6876 33.3752C83.8442 33.3752 83.1626 34.0591 83.1626 34.9052C83.1626 35.7513 83.8442 36.4352 84.6876 36.4352C85.5309 36.4352 86.2125 35.7513 86.2125 34.9052C86.2125 34.0591 85.5309 33.3752 84.6876 33.3752Z" fill="#008E96"/>
<path d="M76.3753 33.3752C75.532 33.3752 74.8503 34.0591 74.8503 34.9052C74.8503 35.7513 75.532 36.4352 76.3753 36.4352C77.2187 36.4352 77.9003 35.7513 77.9003 34.9052C77.9003 34.0591 77.2129 33.3752 76.3753 33.3752Z" fill="#008E96"/>
<path d="M68.0573 33.3752C67.214 33.3752 66.5323 34.0591 66.5323 34.9052C66.5323 35.7513 67.214 36.4352 68.0573 36.4352C68.9007 36.4352 69.5823 35.7513 69.5823 34.9052C69.5823 34.0591 68.9007 33.3752 68.0573 33.3752Z" fill="#008E96"/>
<path d="M59.7393 33.3752C58.896 33.3752 58.2144 34.0591 58.2144 34.9052C58.2144 35.7513 58.896 36.4352 59.7393 36.4352C60.5827 36.4352 61.2643 35.7513 61.2643 34.9052C61.2643 34.0591 60.5827 33.3752 59.7393 33.3752Z" fill="#008E96"/>
<path d="M51.4213 33.3752C50.578 33.3752 49.8964 34.0591 49.8964 34.9052C49.8964 35.7513 50.578 36.4352 51.4213 36.4352C52.2647 36.4352 52.9463 35.7513 52.9463 34.9052C52.9463 34.0591 52.2647 33.3752 51.4213 33.3752Z" fill="#008E96"/>
<path d="M43.1091 33.3752C42.2657 33.3752 41.5841 34.0591 41.5841 34.9052C41.5841 35.7513 42.2657 36.4352 43.1091 36.4352C43.9524 36.4352 44.634 35.7513 44.634 34.9052C44.634 34.0591 43.9466 33.3752 43.1091 33.3752Z" fill="#008E96"/>
<path d="M34.7911 33.3752C33.9477 33.3752 33.2661 34.0591 33.2661 34.9052C33.2661 35.7513 33.9477 36.4352 34.7911 36.4352C35.6344 36.4352 36.316 35.7513 36.316 34.9052C36.316 34.0591 35.6344 33.3752 34.7911 33.3752Z" fill="#008E96"/>
<path d="M84.6876 27.8118C83.8442 27.8118 83.1626 28.4956 83.1626 29.3417C83.1626 30.1878 83.8442 30.8717 84.6876 30.8717C85.5309 30.8717 86.2125 30.1878 86.2125 29.3417C86.2125 28.4956 85.5309 27.8118 84.6876 27.8118Z" fill="#008E96"/>
<path d="M76.3753 27.8118C75.532 27.8118 74.8503 28.4956 74.8503 29.3417C74.8503 30.1878 75.532 30.8717 76.3753 30.8717C77.2187 30.8717 77.9003 30.1878 77.9003 29.3417C77.9003 28.4956 77.2129 27.8118 76.3753 27.8118Z" fill="#008E96"/>
<path d="M68.0573 27.8118C67.214 27.8118 66.5323 28.4956 66.5323 29.3417C66.5323 30.1878 67.214 30.8717 68.0573 30.8717C68.9007 30.8717 69.5823 30.1878 69.5823 29.3417C69.5823 28.4956 68.9007 27.8118 68.0573 27.8118Z" fill="#008E96"/>
<path d="M59.7393 27.8118C58.896 27.8118 58.2144 28.4956 58.2144 29.3417C58.2144 30.1878 58.896 30.8717 59.7393 30.8717C60.5827 30.8717 61.2643 30.1878 61.2643 29.3417C61.2643 28.4956 60.5827 27.8118 59.7393 27.8118Z" fill="#008E96"/>
<path d="M51.4213 27.8118C50.578 27.8118 49.8964 28.4956 49.8964 29.3417C49.8964 30.1878 50.578 30.8717 51.4213 30.8717C52.2647 30.8717 52.9463 30.1878 52.9463 29.3417C52.9463 28.4956 52.2647 27.8118 51.4213 27.8118Z" fill="#008E96"/>
<path d="M43.1091 27.8118C42.2657 27.8118 41.5841 28.4956 41.5841 29.3417C41.5841 30.1878 42.2657 30.8717 43.1091 30.8717C43.9524 30.8717 44.634 30.1878 44.634 29.3417C44.634 28.4956 43.9466 27.8118 43.1091 27.8118Z" fill="#008E96"/>
<path d="M34.7911 27.8118C33.9477 27.8118 33.2661 28.4956 33.2661 29.3417C33.2661 30.1878 33.9477 30.8717 34.7911 30.8717C35.6344 30.8717 36.316 30.1878 36.316 29.3417C36.316 28.4956 35.6344 27.8118 34.7911 27.8118Z" fill="#008E96"/>
<path d="M84.6876 22.2483C83.8442 22.2483 83.1626 22.9321 83.1626 23.7783C83.1626 24.6244 83.8442 25.3082 84.6876 25.3082C85.5309 25.3082 86.2125 24.6244 86.2125 23.7783C86.2125 22.9379 85.5309 22.2483 84.6876 22.2483Z" fill="#008E96"/>
<path d="M76.3753 22.2483C75.532 22.2483 74.8503 22.9321 74.8503 23.7783C74.8503 24.6244 75.532 25.3082 76.3753 25.3082C77.2187 25.3082 77.9003 24.6244 77.9003 23.7783C77.9003 22.9379 77.2129 22.2483 76.3753 22.2483Z" fill="#008E96"/>
<path d="M68.0573 22.2483C67.214 22.2483 66.5323 22.9321 66.5323 23.7783C66.5323 24.6244 67.214 25.3082 68.0573 25.3082C68.9007 25.3082 69.5823 24.6244 69.5823 23.7783C69.5823 22.9379 68.9007 22.2483 68.0573 22.2483Z" fill="#008E96"/>
<path d="M59.7393 22.2483C58.896 22.2483 58.2144 22.9321 58.2144 23.7783C58.2144 24.6244 58.896 25.3082 59.7393 25.3082C60.5827 25.3082 61.2643 24.6244 61.2643 23.7783C61.2643 22.9379 60.5827 22.2483 59.7393 22.2483Z" fill="#008E96"/>
<path d="M51.4213 22.2483C50.578 22.2483 49.8964 22.9321 49.8964 23.7783C49.8964 24.6244 50.578 25.3082 51.4213 25.3082C52.2647 25.3082 52.9463 24.6244 52.9463 23.7783C52.9463 22.9379 52.2647 22.2483 51.4213 22.2483Z" fill="#008E96"/>
<path d="M43.1091 22.2483C42.2657 22.2483 41.5841 22.9321 41.5841 23.7783C41.5841 24.6244 42.2657 25.3082 43.1091 25.3082C43.9524 25.3082 44.634 24.6244 44.634 23.7783C44.634 22.9379 43.9466 22.2483 43.1091 22.2483Z" fill="#008E96"/>
<path d="M34.7911 22.2483C33.9477 22.2483 33.2661 22.9321 33.2661 23.7783C33.2661 24.6244 33.9477 25.3082 34.7911 25.3082C35.6344 25.3082 36.316 24.6244 36.316 23.7783C36.316 22.9379 35.6344 22.2483 34.7911 22.2483Z" fill="#008E96"/>
<path d="M84.6876 16.6846C83.8442 16.6846 83.1626 17.3684 83.1626 18.2145C83.1626 19.0606 83.8442 19.7445 84.6876 19.7445C85.5309 19.7445 86.2125 19.0606 86.2125 18.2145C86.2125 17.3684 85.5309 16.6846 84.6876 16.6846Z" fill="#008E96"/>
<path d="M76.3753 16.6846C75.532 16.6846 74.8503 17.3684 74.8503 18.2145C74.8503 19.0606 75.532 19.7445 76.3753 19.7445C77.2187 19.7445 77.9003 19.0606 77.9003 18.2145C77.9003 17.3684 77.2129 16.6846 76.3753 16.6846Z" fill="#008E96"/>
<path d="M68.0573 16.6846C67.214 16.6846 66.5323 17.3684 66.5323 18.2145C66.5323 19.0606 67.214 19.7445 68.0573 19.7445C68.9007 19.7445 69.5823 19.0606 69.5823 18.2145C69.5823 17.3684 68.9007 16.6846 68.0573 16.6846Z" fill="#008E96"/>
<path d="M59.7393 16.6846C58.896 16.6846 58.2144 17.3684 58.2144 18.2145C58.2144 19.0606 58.896 19.7445 59.7393 19.7445C60.5827 19.7445 61.2643 19.0606 61.2643 18.2145C61.2643 17.3684 60.5827 16.6846 59.7393 16.6846Z" fill="#008E96"/>
<path d="M51.4213 16.6846C50.578 16.6846 49.8964 17.3684 49.8964 18.2145C49.8964 19.0606 50.578 19.7445 51.4213 19.7445C52.2647 19.7445 52.9463 19.0606 52.9463 18.2145C52.9463 17.3684 52.2647 16.6846 51.4213 16.6846Z" fill="#008E96"/>
<path d="M43.1091 16.6846C42.2657 16.6846 41.5841 17.3684 41.5841 18.2145C41.5841 19.0606 42.2657 19.7445 43.1091 19.7445C43.9524 19.7445 44.634 19.0606 44.634 18.2145C44.634 17.3684 43.9466 16.6846 43.1091 16.6846Z" fill="#008E96"/>
<path d="M34.7911 16.6846C33.9477 16.6846 33.2661 17.3684 33.2661 18.2145C33.2661 19.0606 33.9477 19.7445 34.7911 19.7445C35.6344 19.7445 36.316 19.0606 36.316 18.2145C36.316 17.3684 35.6344 16.6846 34.7911 16.6846Z" fill="#008E96"/>
<path d="M84.6876 14.1812C85.0168 14.1812 85.3172 14.0769 85.5656 13.903C84.8609 13.2018 84.133 12.5238 83.3879 11.8689C83.2492 12.1007 83.1626 12.3673 83.1626 12.6571C83.1626 13.4974 83.85 14.1812 84.6876 14.1812Z" fill="#008E96"/>
<path d="M76.3753 11.127C75.532 11.127 74.8503 11.8108 74.8503 12.6569C74.8503 13.503 75.532 14.1869 76.3753 14.1869C77.2187 14.1869 77.9003 13.503 77.9003 12.6569C77.9003 11.8108 77.2129 11.127 76.3753 11.127Z" fill="#008E96"/>
<path d="M68.0573 11.127C67.214 11.127 66.5323 11.8108 66.5323 12.6569C66.5323 13.503 67.214 14.1869 68.0573 14.1869C68.9007 14.1869 69.5823 13.503 69.5823 12.6569C69.5823 11.8108 68.9007 11.127 68.0573 11.127Z" fill="#008E96"/>
<path d="M59.7393 11.127C58.896 11.127 58.2144 11.8108 58.2144 12.6569C58.2144 13.503 58.896 14.1869 59.7393 14.1869C60.5827 14.1869 61.2643 13.503 61.2643 12.6569C61.2643 11.8108 60.5827 11.127 59.7393 11.127Z" fill="#008E96"/>
<path d="M51.4213 11.127C50.578 11.127 49.8964 11.8108 49.8964 12.6569C49.8964 13.503 50.578 14.1869 51.4213 14.1869C52.2647 14.1869 52.9463 13.503 52.9463 12.6569C52.9463 11.8108 52.2647 11.127 51.4213 11.127Z" fill="#008E96"/>
<path d="M43.1091 11.127C42.2657 11.127 41.5841 11.8108 41.5841 12.6569C41.5841 13.503 42.2657 14.1869 43.1091 14.1869C43.9524 14.1869 44.634 13.503 44.634 12.6569C44.634 11.8108 43.9466 11.127 43.1091 11.127Z" fill="#008E96"/>
<path d="M34.7911 11.127C33.9477 11.127 33.2661 11.8108 33.2661 12.6569C33.2661 13.503 33.9477 14.1869 34.7911 14.1869C35.6344 14.1869 36.316 13.503 36.316 12.6569C36.316 11.8108 35.6344 11.127 34.7911 11.127Z" fill="#008E96"/>
<path d="M74.8503 7.09342C74.8503 7.93954 75.532 8.62339 76.3753 8.62339C77.0511 8.62339 77.6172 8.18294 77.8136 7.57443C76.9934 7.02968 76.1558 6.5023 75.3067 6.00391C75.0236 6.27629 74.8503 6.66457 74.8503 7.09342Z" fill="#008E96"/>
<path d="M68.0573 5.56348C67.214 5.56348 66.5323 6.24732 66.5323 7.09344C66.5323 7.93955 67.214 8.6234 68.0573 8.6234C68.9007 8.6234 69.5823 7.93955 69.5823 7.09344C69.5823 6.24732 68.9007 5.56348 68.0573 5.56348Z" fill="#008E96"/>
<path d="M59.7393 5.56348C58.896 5.56348 58.2144 6.24732 58.2144 7.09344C58.2144 7.93955 58.896 8.6234 59.7393 8.6234C60.5827 8.6234 61.2643 7.93955 61.2643 7.09344C61.2643 6.24732 60.5827 5.56348 59.7393 5.56348Z" fill="#008E96"/>
<path d="M51.4213 5.56348C50.578 5.56348 49.8964 6.24732 49.8964 7.09344C49.8964 7.93955 50.578 8.6234 51.4213 8.6234C52.2647 8.6234 52.9463 7.93955 52.9463 7.09344C52.9463 6.24732 52.2647 5.56348 51.4213 5.56348Z" fill="#008E96"/>
<path d="M43.1091 5.56348C42.2657 5.56348 41.5841 6.24732 41.5841 7.09344C41.5841 7.93955 42.2657 8.6234 43.1091 8.6234C43.9524 8.6234 44.634 7.93955 44.634 7.09344C44.634 6.24732 43.9466 5.56348 43.1091 5.56348Z" fill="#008E96"/>
<path d="M34.7911 5.56348C33.9477 5.56348 33.2661 6.24732 33.2661 7.09344C33.2661 7.93955 33.9477 8.6234 34.7911 8.6234C35.6344 8.6234 36.316 7.93955 36.316 7.09344C36.316 6.24732 35.6344 5.56348 34.7911 5.56348Z" fill="#008E96"/>
<path d="M68.0573 3.05982C68.3693 3.05982 68.6581 2.9671 68.8949 2.80483C68.1324 2.49188 67.3642 2.19053 66.5844 1.91235C66.7576 2.57302 67.3468 3.05982 68.0573 3.05982Z" fill="#008E96"/>
<path d="M58.2144 1.52996C58.2144 2.37608 58.896 3.05992 59.7393 3.05992C60.5827 3.05992 61.2643 2.37608 61.2643 1.52996C61.2643 0.84032 60.8022 0.260789 60.1783 0.0695437C60.1032 0.0521578 60.0224 0.0347718 59.9473 0.0173859C59.878 0.0115906 59.8086 0 59.7393 0C58.896 0 58.2144 0.683846 58.2144 1.52996Z" fill="#008E96"/>
<path d="M51.4213 0C50.578 0 49.8964 0.683846 49.8964 1.52996C49.8964 2.37608 50.578 3.05992 51.4213 3.05992C52.2647 3.05992 52.9463 2.37608 52.9463 1.52996C52.9463 0.683846 52.2647 0 51.4213 0Z" fill="#008E96"/>
<path d="M43.1091 0C42.2657 0 41.5841 0.683846 41.5841 1.52996C41.5841 2.37608 42.2657 3.05992 43.1091 3.05992C43.9524 3.05992 44.634 2.37608 44.634 1.52996C44.634 0.683846 43.9466 0 43.1091 0Z" fill="#008E96"/>
<path d="M34.7911 3.06003C35.6344 3.06003 36.316 2.37619 36.316 1.53007C36.316 1.15917 36.1774 0.82884 35.9637 0.562256C35.0626 0.799863 34.1672 1.06065 33.2892 1.34462C33.2834 1.40837 33.2719 1.46632 33.2719 1.53587C33.2661 2.37619 33.9477 3.06003 34.7911 3.06003Z" fill="#008E96"/>
</svg>
