<svg width="20" height="9" viewBox="0 0 20 9" fill="none" xmlns="http://www.w3.org/2000/svg">
<g clip-path="url(#clip0_366_565)">
<path d="M10 8.24999C9.91803 8.25099 9.83676 8.23482 9.76141 8.20253C9.68606 8.17024 9.61831 8.12253 9.5625 8.06249L3.9375 2.43749C3.6875 2.18749 3.6875 1.79999 3.9375 1.54999C4.1875 1.29999 4.575 1.29999 4.825 1.54999L10.0125 6.73749L15.1875 1.56249C15.4375 1.31249 15.825 1.31249 16.075 1.56249C16.325 1.81249 16.325 2.19999 16.075 2.44999L10.45 8.07499C10.325 8.19999 10.1625 8.26249 10.0125 8.26249L10 8.24999Z" fill="black"/>
</g>
<defs>
<clipPath id="clip0_366_565">
<rect width="20" height="8.75" fill="white" transform="translate(0 0.125)"/>
</clipPath>
</defs>
</svg>
