<svg width="20" height="20" viewBox="0 0 20 20" fill="none" xmlns="http://www.w3.org/2000/svg">
<path d="M14.75 12.95C14.75 13.1158 14.6842 13.2747 14.5669 13.3919C14.4497 13.5092 14.2908 13.575 14.125 13.575C13.9592 13.575 13.8003 13.5092 13.6831 13.3919C13.5658 13.2747 13.5 13.1158 13.5 12.95V7.38333L6.31667 14.5667C6.25945 14.6281 6.19045 14.6773 6.11378 14.7115C6.03712 14.7456 5.95436 14.764 5.87044 14.7655C5.78652 14.767 5.70316 14.7515 5.62534 14.7201C5.54751 14.6887 5.47682 14.6419 5.41747 14.5825C5.35812 14.5232 5.31133 14.4525 5.2799 14.3747C5.24846 14.2968 5.23303 14.2135 5.23451 14.1296C5.23599 14.0456 5.25436 13.9629 5.28852 13.8862C5.32268 13.8096 5.37193 13.7406 5.43333 13.6833L12.6167 6.5H7.05C6.88424 6.5 6.72527 6.43415 6.60806 6.31694C6.49085 6.19973 6.425 6.04076 6.425 5.875C6.425 5.70924 6.49085 5.55027 6.60806 5.43306C6.72527 5.31585 6.88424 5.25 7.05 5.25H14.125C14.208 5.25148 14.2899 5.26844 14.3667 5.3C14.4794 5.34842 14.5756 5.42853 14.6437 5.53061C14.7117 5.63268 14.7487 5.75233 14.75 5.875V12.95Z" fill="white"/>
</svg>
