<svg width="25" height="25" viewBox="0 0 25 25" fill="none" xmlns="http://www.w3.org/2000/svg">
<path d="M17.3214 14.4699L17.7964 13.998L16.6933 12.8897L16.2204 13.3616L17.3214 14.4699ZM19.3891 13.8001L21.3797 14.8824L22.1245 13.5095L20.1349 12.4282L19.3891 13.8001ZM21.762 17.0324L20.2829 18.5043L21.3839 19.6116L22.8631 18.1407L21.762 17.0324ZM19.3808 18.9772C17.8704 19.1189 13.9641 18.9928 9.73286 14.7866L8.63078 15.8939C13.2474 20.4845 17.6422 20.7095 19.5266 20.5334L19.3808 18.9772ZM9.73286 14.7866C5.70057 10.7761 5.03182 7.40427 4.94849 5.94073L3.38807 6.02927C3.49224 7.87093 4.32036 11.6084 8.63078 15.8939L9.73286 14.7866ZM11.1652 8.34906L11.4641 8.05114L10.3641 6.94385L10.0652 7.24073L11.1652 8.34906ZM11.7016 4.26468L10.3891 2.51052L9.13807 3.44802L10.4506 5.20114L11.7016 4.26468ZM5.9714 2.12823L4.33599 3.75323L5.43807 4.86156L7.07245 3.23656L5.9714 2.12823ZM10.6152 7.79489C10.0631 7.24073 10.0631 7.24073 10.0631 7.24281H10.061L10.0579 7.24698C10.0084 7.29689 9.96404 7.35168 9.92557 7.41052C9.86932 7.49385 9.80786 7.60323 9.75578 7.74177C9.62898 8.0994 9.59739 8.48386 9.66411 8.85739C9.8037 9.75843 10.4245 10.9491 12.0141 12.5303L13.1162 11.422C11.6277 9.94281 11.2735 9.04281 11.2079 8.61781C11.1766 8.41573 11.2089 8.31573 11.2183 8.29281C11.2245 8.27892 11.2245 8.27684 11.2183 8.28656C11.209 8.30093 11.1985 8.31452 11.187 8.32718L11.1766 8.3376L11.1662 8.34697L10.6152 7.79489ZM12.0141 12.5303C13.6047 14.1116 14.8016 14.7282 15.7037 14.8657C16.1652 14.9366 16.537 14.8803 16.8193 14.7751C16.9774 14.7173 17.1252 14.6342 17.2568 14.5293L17.3089 14.4824L17.3162 14.4761L17.3193 14.473L17.3204 14.4709C17.3204 14.4709 17.3214 14.4699 16.7704 13.9157C16.2183 13.3616 16.2214 13.3605 16.2214 13.3605L16.2235 13.3584L16.2256 13.3563L16.2318 13.3511L16.2422 13.3407L16.2818 13.3095C16.2915 13.3032 16.2891 13.3039 16.2745 13.3116C16.2485 13.3209 16.1464 13.3532 15.9412 13.322C15.5099 13.2553 14.6037 12.9011 13.1162 11.422L12.0141 12.5303ZM10.3891 2.50948C9.32661 1.09281 7.23911 0.867809 5.9714 2.12823L7.07245 3.23656C7.62661 2.68552 8.60995 2.74281 9.13807 3.44802L10.3891 2.50948ZM4.94953 5.94177C4.9287 5.58135 5.09432 5.20427 5.43807 4.8626L4.33495 3.75427C3.77557 4.31052 3.33495 5.09802 3.38807 6.02927L4.94953 5.94177ZM20.2829 18.5043C19.9974 18.7897 19.6891 18.9501 19.3818 18.9782L19.5266 20.5334C20.2922 20.4616 20.9183 20.0761 21.3849 19.6126L20.2829 18.5043ZM11.4641 8.05114C12.4902 7.03135 12.5662 5.41989 11.7027 4.26573L10.4516 5.20218C10.8714 5.76364 10.8089 6.5001 10.3631 6.94489L11.4641 8.05114ZM21.3808 14.8834C22.2318 15.3459 22.3641 16.4355 21.7631 17.0334L22.8652 18.1407C24.261 16.7522 23.8308 14.4366 22.1256 13.5105L21.3808 14.8834ZM17.7964 13.9991C18.1964 13.6011 18.8402 13.5032 19.3902 13.8011L20.136 12.4293C19.0068 11.8147 17.6068 11.9845 16.6943 12.8907L17.7964 13.9991Z" fill="black"/>
</svg>
