<svg width="14" height="18" viewBox="0 0 14 18" fill="none" xmlns="http://www.w3.org/2000/svg">
<path d="M3.07122 0.885041L4.25693 0.527898C4.79669 0.365058 5.37726 0.404207 5.89026 0.638036C6.40326 0.871865 6.81364 1.28439 7.04479 1.79861L7.78265 3.44004C7.98147 3.88223 8.03686 4.37557 7.94104 4.85083C7.84521 5.3261 7.60299 5.75944 7.24836 6.09004L5.95908 7.29218C5.94365 7.30751 5.93064 7.32509 5.92051 7.34433C5.78551 7.62004 5.99051 8.35647 6.63265 9.46933C7.35694 10.7236 7.91622 11.2193 8.17551 11.1429L9.86765 10.625C10.3311 10.4835 10.8271 10.4906 11.2864 10.6452C11.7456 10.7998 12.1449 11.0942 12.4284 11.4872L13.4769 12.9393C13.8061 13.3953 13.9586 13.9552 13.9061 14.5152C13.8535 15.0751 13.5995 15.5969 13.1912 15.9836L12.2891 16.8372C11.9754 17.1343 11.5944 17.3512 11.1787 17.4692C10.7631 17.5873 10.325 17.603 9.90194 17.515C7.38979 16.9922 5.13908 14.9693 3.13051 11.4908C1.12122 8.01004 0.494792 5.04576 1.30193 2.6079C1.43705 2.19976 1.66841 1.83014 1.97649 1.53027C2.28457 1.2304 2.65958 1.00909 3.07122 0.885041ZM3.38193 1.91076C3.13494 1.98515 2.90948 2.1179 2.72461 2.2978C2.53974 2.4777 2.40089 2.69945 2.31979 2.94433C1.62408 5.04504 2.18765 7.71361 4.05908 10.955C5.92908 14.1943 7.95622 16.0158 10.1212 16.4658C10.3751 16.5184 10.6379 16.5089 10.8873 16.438C11.1367 16.3671 11.3652 16.237 11.5534 16.0586L12.4548 15.2058C12.6747 14.9976 12.8116 14.7166 12.84 14.4151C12.8683 14.1136 12.7863 13.812 12.6091 13.5665L11.5605 12.1136C11.4079 11.9021 11.1929 11.7435 10.9457 11.6603C10.6985 11.577 10.4314 11.5732 10.1819 11.6493L8.48551 12.1686C7.54694 12.4479 6.66408 11.6658 5.70551 10.0043C4.89336 8.59861 4.61193 7.5829 4.95908 6.87361C5.0267 6.73552 5.1167 6.61385 5.22908 6.50861L6.51836 5.30647C6.70939 5.12846 6.83988 4.89509 6.89151 4.63913C6.94313 4.38317 6.91331 4.11747 6.80622 3.87933L6.06765 2.23861C5.94319 1.96166 5.72217 1.73947 5.44588 1.61355C5.16958 1.48762 4.8569 1.46657 4.56622 1.55433L3.38193 1.91076Z" fill="black"/>
</svg>
