<svg width="30" height="30" viewBox="0 0 30 30" fill="none" xmlns="http://www.w3.org/2000/svg">
<path d="M14.9999 15.885L8.44242 22.4425C8.32576 22.5592 8.18242 22.6217 8.01242 22.63C7.84242 22.6383 7.69076 22.5758 7.55742 22.4425C7.42409 22.3092 7.35742 22.1617 7.35742 22C7.35742 21.8383 7.42409 21.6908 7.55742 21.5575L14.1149 15L7.55742 8.44251C7.44076 8.32585 7.37825 8.18251 7.36992 8.01251C7.36159 7.84251 7.42409 7.69085 7.55742 7.55751C7.69076 7.42418 7.83826 7.35751 7.99992 7.35751C8.16159 7.35751 8.30909 7.42418 8.44242 7.55751L14.9999 14.115L21.5574 7.55751C21.6741 7.44085 21.8178 7.37835 21.9887 7.37001C22.1578 7.36168 22.3091 7.42418 22.4424 7.55751C22.5758 7.69085 22.6424 7.83835 22.6424 8.00001C22.6424 8.16168 22.5758 8.30918 22.4424 8.44251L15.8849 15L22.4424 21.5575C22.5591 21.6742 22.6216 21.8179 22.6299 21.9888C22.6383 22.1579 22.5758 22.3092 22.4424 22.4425C22.3091 22.5758 22.1616 22.6425 21.9999 22.6425C21.8383 22.6425 21.6908 22.5758 21.5574 22.4425L14.9999 15.885Z" fill="black"/>
</svg>
