<svg width="18" height="18" viewBox="0 0 18 18" fill="none" xmlns="http://www.w3.org/2000/svg">
<path d="M9.01528 2.47338C9.87876 1.60997 11.0499 1.12495 12.2709 1.125C13.492 1.12505 14.6631 1.61018 15.5265 2.47366C16.3899 3.33714 16.8749 4.50824 16.8749 5.72933C16.8748 6.95042 16.3897 8.12147 15.5262 8.98488L8.47078 16.0398C8.20753 16.3098 7.89328 16.5248 7.54626 16.6725C7.19924 16.8201 6.82636 16.8973 6.44926 16.8997C6.07215 16.9021 5.69832 16.8296 5.34946 16.6864C5.00059 16.5432 4.68364 16.3322 4.41698 16.0655C4.15032 15.7988 3.93926 15.4819 3.79605 15.133C3.65284 14.7841 3.58033 14.4103 3.58273 14.0332C3.58512 13.6561 3.66237 13.2832 3.81 12.9362C3.95763 12.5892 4.17269 12.2749 4.44272 12.0117L10.709 5.74431C10.8408 5.61236 11.0197 5.5382 11.2063 5.53815C11.3929 5.53809 11.5718 5.61215 11.7037 5.74403C11.8357 5.87591 11.9099 6.05481 11.9099 6.24137C11.91 6.42792 11.8359 6.60686 11.704 6.73881L5.43609 13.0051C5.30213 13.139 5.19587 13.2981 5.12337 13.4731C5.05087 13.6481 5.01356 13.8357 5.01356 14.0252C5.01356 14.4078 5.16555 14.7747 5.43609 15.0453C5.70664 15.3158 6.07358 15.4678 6.45619 15.4678C6.8388 15.4678 7.20573 15.3158 7.47628 15.0453L14.5317 7.98981C14.8287 7.69286 15.0642 7.34033 15.2249 6.95234C15.3856 6.56436 15.4684 6.14852 15.4684 5.72856C15.4684 5.30861 15.3856 4.89277 15.2249 4.50478C15.0642 4.1168 14.8287 3.76427 14.5317 3.46731C14.2348 3.17036 13.8822 2.93481 13.4942 2.7741C13.1063 2.61339 12.6904 2.53067 12.2705 2.53067C11.8505 2.53067 11.4347 2.61339 11.0467 2.7741C10.6587 2.93481 10.3062 3.17036 10.0092 3.46731L2.32547 11.1528C2.19359 11.2846 2.01472 11.3587 1.82822 11.3587C1.64171 11.3587 1.46285 11.2846 1.33097 11.1528C1.19909 11.0209 1.125 10.842 1.125 10.6555C1.125 10.469 1.19909 10.2901 1.33097 10.1583L9.01528 2.47338Z" fill="black"/>
</svg>
