<svg width="22" height="20" viewBox="0 0 22 20" fill="none" xmlns="http://www.w3.org/2000/svg">
<path d="M19.2495 11.3324L12.6497 17.9334C12.2121 18.3708 11.6187 18.6166 11 18.6166C10.3813 18.6166 9.78791 18.3708 9.35035 17.9334L2.75051 11.3336C2.20494 10.7928 1.77157 10.1495 1.47526 9.44076C1.17896 8.73201 1.02556 7.97172 1.02388 7.20353C1.0222 6.43534 1.17226 5.67438 1.46546 4.96434C1.75866 4.2543 2.18921 3.60916 2.73241 3.06597C3.2756 2.52277 3.92074 2.09221 4.63078 1.79902C5.34082 1.50582 6.10178 1.35575 6.86997 1.35744C7.63816 1.35912 8.39846 1.51251 9.10721 1.80882C9.81596 2.10512 10.4592 2.5385 11 3.08407C12.0985 2.01292 13.5748 1.41768 15.109 1.42729C16.6433 1.43691 18.112 2.0506 19.197 3.13543C20.282 4.22026 20.8959 5.68888 20.9057 7.22314C20.9155 8.7574 20.3205 10.2338 19.2495 11.3324Z" stroke="white" stroke-linecap="round" stroke-linejoin="round"/>
</svg>
