<svg width="41" height="41" viewBox="0 0 41 41" fill="none" xmlns="http://www.w3.org/2000/svg">
<path d="M20.5 37.1562C26.9062 28.1875 32.0312 20.5 32.0312 15.375C32.0312 12.3167 30.8164 9.3837 28.6538 7.22117C26.4913 5.05865 23.5583 3.84375 20.5 3.84375C17.4417 3.84375 14.5087 5.05865 12.3462 7.22117C10.1836 9.3837 8.96875 12.3167 8.96875 15.375C8.96875 20.5 14.0938 28.1875 20.5 37.1562Z" stroke="#223D8C"/>
<path d="M25.625 15.375C25.625 16.7342 25.085 18.0378 24.1239 18.9989C23.1628 19.96 21.8592 20.5 20.5 20.5C19.1408 20.5 17.8372 19.96 16.8761 18.9989C15.915 18.0378 15.375 16.7342 15.375 15.375C15.375 14.0158 15.915 12.7122 16.8761 11.7511C17.8372 10.79 19.1408 10.25 20.5 10.25C21.8592 10.25 23.1628 10.79 24.1239 11.7511C25.085 12.7122 25.625 14.0158 25.625 15.375Z" stroke="#223D8C"/>
</svg>
