<svg width="25" height="25" viewBox="0 0 25 25" fill="none" xmlns="http://www.w3.org/2000/svg">
<path fill-rule="evenodd" clip-rule="evenodd" d="M12.7576 21.8426C13.9557 20.7555 15.0644 19.5739 16.0732 18.3093C18.1982 15.6395 19.4909 13.0072 19.5785 10.6666C19.6131 9.71533 19.4556 8.76685 19.1155 7.87781C18.7753 6.98878 18.2595 6.17741 17.5988 5.4922C16.938 4.80698 16.146 4.26197 15.2699 3.88971C14.3938 3.51746 13.4517 3.3256 12.4998 3.3256C11.5479 3.3256 10.6058 3.51746 9.72972 3.88971C8.85364 4.26197 8.06158 4.80698 7.40085 5.4922C6.74012 6.17741 6.22428 6.98878 5.88414 7.87781C5.544 8.76685 5.38653 9.71533 5.42116 10.6666C5.5097 13.0072 6.80345 15.6395 8.92741 18.3093C9.93622 19.5739 11.045 20.7555 12.243 21.8426C12.3583 21.9468 12.4441 22.0225 12.5003 22.0697L12.7576 21.8426ZM11.7316 23.0562C11.7316 23.0562 4.16699 16.6853 4.16699 10.4166C4.16699 8.20645 5.04497 6.08683 6.60777 4.52403C8.17057 2.96123 10.2902 2.08325 12.5003 2.08325C14.7105 2.08325 16.8301 2.96123 18.3929 4.52403C19.9557 6.08683 20.8337 8.20645 20.8337 10.4166C20.8337 16.6853 13.2691 23.0562 13.2691 23.0562C12.8482 23.4437 12.1555 23.4395 11.7316 23.0562ZM12.5003 13.3333C13.2739 13.3333 14.0157 13.026 14.5627 12.479C15.1097 11.932 15.417 11.1901 15.417 10.4166C15.417 9.64304 15.1097 8.90117 14.5627 8.35419C14.0157 7.80721 13.2739 7.49992 12.5003 7.49992C11.7268 7.49992 10.9849 7.80721 10.4379 8.35419C9.89095 8.90117 9.58366 9.64304 9.58366 10.4166C9.58366 11.1901 9.89095 11.932 10.4379 12.479C10.9849 13.026 11.7268 13.3333 12.5003 13.3333ZM12.5003 14.5833C11.3953 14.5833 10.3354 14.1443 9.55405 13.3629C8.77265 12.5815 8.33366 11.5217 8.33366 10.4166C8.33366 9.31152 8.77265 8.25171 9.55405 7.47031C10.3354 6.68891 11.3953 6.24992 12.5003 6.24992C13.6054 6.24992 14.6652 6.68891 15.4466 7.47031C16.228 8.25171 16.667 9.31152 16.667 10.4166C16.667 11.5217 16.228 12.5815 15.4466 13.3629C14.6652 14.1443 13.6054 14.5833 12.5003 14.5833Z" fill="black"/>
</svg>
