<svg width="19" height="14" viewBox="0 0 19 14" fill="none" xmlns="http://www.w3.org/2000/svg">
<path d="M17.166 0.75H2.16602C1.8345 0.75 1.51655 0.881696 1.28213 1.11612C1.04771 1.35054 0.916016 1.66848 0.916016 2V12C0.916016 12.3315 1.04771 12.6495 1.28213 12.8839C1.51655 13.1183 1.8345 13.25 2.16602 13.25H17.166C17.4975 13.25 17.8155 13.1183 18.0499 12.8839C18.2843 12.6495 18.416 12.3315 18.416 12V2C18.416 1.66848 18.2843 1.35054 18.0499 1.11612C17.8155 0.881696 17.4975 0.75 17.166 0.75ZM15.791 2L9.66602 6.2375L3.54102 2H15.791ZM2.16602 12V2.56875L9.30977 7.5125C9.41439 7.58508 9.53868 7.62397 9.66602 7.62397C9.79335 7.62397 9.91764 7.58508 10.0223 7.5125L17.166 2.56875V12H2.16602Z" fill="black"/>
</svg>
