<svg width="25" height="25" viewBox="0 0 25 25" fill="none" xmlns="http://www.w3.org/2000/svg">
<path d="M5.20801 5.20825H18.7497C19.5785 5.20825 20.3733 5.53749 20.9594 6.12354C21.5454 6.70959 21.8747 7.50445 21.8747 8.33325V17.7083C21.8747 18.5371 21.5454 19.3319 20.9594 19.918C20.3733 20.504 19.5785 20.8333 18.7497 20.8333H5.20801C4.37921 20.8333 3.58435 20.504 2.9983 19.918C2.41225 19.3319 2.08301 18.5371 2.08301 17.7083V8.33325C2.08301 7.50445 2.41225 6.70959 2.9983 6.12354C3.58435 5.53749 4.37921 5.20825 5.20801 5.20825ZM5.20801 6.24992C4.68717 6.24992 4.22884 6.427 3.87467 6.7395L11.9788 11.9791L20.083 6.7395C19.7288 6.427 19.2705 6.24992 18.7497 6.24992H5.20801ZM11.9788 13.2395L3.26009 7.58325C3.17676 7.81242 3.12467 8.07284 3.12467 8.33325V17.7083C3.12467 18.2608 3.34417 18.7907 3.73487 19.1814C4.12557 19.5721 4.65547 19.7916 5.20801 19.7916H18.7497C19.3022 19.7916 19.8321 19.5721 20.2228 19.1814C20.6135 18.7907 20.833 18.2608 20.833 17.7083V8.33325C20.833 8.07284 20.7809 7.81242 20.6976 7.58325L11.9788 13.2395Z" fill="black"/>
</svg>
