<svg width="57" height="21" viewBox="0 0 57 21" fill="none" xmlns="http://www.w3.org/2000/svg">
<mask id="mask0_1501_834" style="mask-type:luminance" maskUnits="userSpaceOnUse" x="0" y="0" width="57" height="21">
<path d="M57 0H0V21H57V0Z" fill="white"/>
</mask>
<g mask="url(#mask0_1501_834)">
<path d="M32.2957 12.2141C32.2957 13.6322 31.8134 14.9663 30.6998 15.0145C29.3908 15.086 29.2586 14.0503 29.2586 12.5676V7.1539H31.1975L31.206 6.81554H29.267L29.2586 4.67676H27.9496L27.958 6.81692H26.9794L26.9709 7.15528H27.9496V12.3283C27.9496 14.3267 28.8607 15.3143 30.3159 15.3143C32.0763 15.3143 32.5417 13.8302 32.5417 12.2086L32.373 12.2155H32.2957V12.2141Z" fill="#EC2526"/>
</g>
<mask id="mask1_1501_834" style="mask-type:luminance" maskUnits="userSpaceOnUse" x="0" y="0" width="57" height="21">
<path d="M57 0H0V21H57V0Z" fill="white"/>
</mask>
<g mask="url(#mask1_1501_834)">
<path d="M37.8383 12.2141C37.8383 13.6322 37.356 14.9663 36.2424 15.0145C34.9334 15.086 34.8012 14.0503 34.8012 12.5676V7.1539H36.7401L36.7486 6.81554H34.8096L34.8012 4.67676H33.4922L33.5006 6.81692H32.522L32.5135 7.15528H33.4922V12.3283C33.4922 14.3267 34.4033 15.3143 35.8585 15.3143C37.6189 15.3143 38.0843 13.8302 38.0843 12.2086L37.9156 12.2155H37.8383V12.2141Z" fill="#EC2526"/>
</g>
<mask id="mask2_1501_834" style="mask-type:luminance" maskUnits="userSpaceOnUse" x="0" y="0" width="57" height="21">
<path d="M57 0H0V21H57V0Z" fill="white"/>
</mask>
<g mask="url(#mask2_1501_834)">
<path d="M18.2141 7.48203C17.8527 7.12855 17.4253 6.83008 16.7293 6.83008C15.468 6.83008 14.7552 7.75987 14.4712 9.01976C14.4444 9.14079 14.4501 9.14079 14.4501 9.017L14.3868 6.94836H13.0426V15.311H14.3868V12.49C14.4065 10.6593 14.5766 7.76262 16.0262 7.52879C17.1202 7.37337 17.7866 8.35955 18.2155 9.23432V7.48203H18.2141Z" fill="black"/>
</g>
<mask id="mask3_1501_834" style="mask-type:luminance" maskUnits="userSpaceOnUse" x="0" y="0" width="57" height="21">
<path d="M57 0H0V21H57V0Z" fill="white"/>
</mask>
<g mask="url(#mask3_1501_834)">
<path d="M23.4685 15.306C25.444 15.1987 26.4226 13.8411 26.9541 12.8481L26.6939 12.6638C26.4254 13.1713 25.5958 14.7448 23.969 14.9195C22.2832 15.112 20.9699 14.2042 20.3569 12.3749C20.0757 11.5442 20.025 10.5951 20.2261 9.6667H26.7389C26.5055 7.56093 24.5835 6.7453 23.1887 6.8347C21.3256 6.85258 18.7483 8.22938 18.8285 11.2622C18.8932 14.1203 21.3158 15.4064 23.4685 15.306ZM22.4252 7.13042C24.0449 6.81407 25.3048 7.82638 25.5185 9.34623L20.302 9.35448C20.6184 8.17024 21.2933 7.35874 22.4252 7.13042Z" fill="black"/>
</g>
<mask id="mask4_1501_834" style="mask-type:luminance" maskUnits="userSpaceOnUse" x="0" y="0" width="57" height="21">
<path d="M57 0H0V21H57V0Z" fill="white"/>
</mask>
<g mask="url(#mask4_1501_834)">
<path d="M40.2666 7.00391H38.9702V15.3129H40.2666V7.00391Z" fill="black"/>
</g>
<mask id="mask5_1501_834" style="mask-type:luminance" maskUnits="userSpaceOnUse" x="0" y="0" width="57" height="21">
<path d="M57 0H0V21H57V0Z" fill="white"/>
</mask>
<g mask="url(#mask5_1501_834)">
<path d="M39.6197 6.23912C40.0584 6.23912 40.4043 5.89251 40.4043 5.46475C40.4043 5.0425 40.0556 4.69727 39.6197 4.69727C39.1839 4.69727 38.8281 5.0425 38.8281 5.46475C38.8281 5.89113 39.1839 6.23912 39.6197 6.23912Z" fill="black"/>
</g>
<mask id="mask6_1501_834" style="mask-type:luminance" maskUnits="userSpaceOnUse" x="0" y="0" width="57" height="21">
<path d="M57 0H0V21H57V0Z" fill="white"/>
</mask>
<g mask="url(#mask6_1501_834)">
<path d="M42.5079 15.3113H43.8169V7.11785H44.9305V6.97893H43.8169V5.80707C43.8169 4.20332 44.4468 3.36569 45.6082 3.36569C46.5981 3.36569 47.1675 4.03002 47.429 4.88416L47.5443 4.83189C47.2448 3.87597 46.7021 3.19238 45.3748 3.19238C43.98 3.19238 42.5064 4.0479 42.5064 6.14817V6.97893H41.5278V7.11647H42.5064V15.3113H42.5079Z" fill="black"/>
</g>
<mask id="mask7_1501_834" style="mask-type:luminance" maskUnits="userSpaceOnUse" x="0" y="0" width="57" height="21">
<path d="M57 0H0V21H57V0Z" fill="white"/>
</mask>
<g mask="url(#mask7_1501_834)">
<path d="M52.7439 6.95841L52.4388 6.95703L49.8418 13.3583L49.8165 13.3651L47.1788 6.95841H45.8697L49.2485 15.2674C48.2038 17.1641 46.2859 17.1201 45.9864 16.8463V18.0595C47.3461 18.5271 48.6776 17.7789 49.7856 14.4765C50.3283 16.5162 49.5677 18.4996 47.8635 19.3854C46.068 20.3248 43.8099 19.8186 42.6063 18.208C42.5725 18.1392 42.5486 18.0691 42.5318 17.9962C42.4516 17.7087 42.3954 17.0348 42.6288 16.7817C42.6808 16.7253 42.8172 16.5754 42.7188 16.4502C42.6344 16.3429 42.4629 16.3883 42.3841 16.4282C42.2337 16.5039 42.1437 16.6125 42.0846 16.7267C42.0284 16.497 41.9272 16.2755 41.7275 16.0967C41.3352 15.7433 40.8586 15.5644 40.4536 15.6195C40.3791 15.6305 40.313 15.6676 40.2779 15.7226C40.2582 15.7529 40.2483 15.7859 40.2483 15.8203C40.2427 15.8519 40.2441 15.8849 40.2554 15.9166C40.2765 15.9757 40.3243 16.0252 40.3791 16.05C40.8023 16.2824 41.0892 16.6882 41.3155 17.0554C41.5953 17.4955 41.8611 17.8862 42.1802 18.3222C42.2365 18.3964 42.3335 18.5134 42.3799 18.5629C43.2334 19.622 44.5579 20.2519 45.933 20.2519C45.9485 20.2519 45.9639 20.2519 45.9794 20.2519C46.7049 20.245 47.4023 20.069 48.0533 19.7306C50.0556 18.688 50.8753 16.2246 50.0049 13.8672L50.019 13.8273V13.8259L50.0316 13.7943L52.7439 6.95841Z" fill="black"/>
</g>
<mask id="mask8_1501_834" style="mask-type:luminance" maskUnits="userSpaceOnUse" x="0" y="0" width="57" height="21">
<path d="M57 0H0V21H57V0Z" fill="white"/>
</mask>
<g mask="url(#mask8_1501_834)">
<path d="M11.9838 6.85905C11.9838 4.4548 9.80728 3.38335 6.53539 3.38335H4.41225V9.97026C3.18617 9.74882 2.52251 8.94694 2.18084 8.3115C1.30065 6.70225 1.47922 4.51945 2.15975 3.33933C3.0765 1.73834 5.15043 1.14691 6.64225 1.40273C6.71255 1.42749 6.78145 1.45913 6.84753 1.49764C7.11328 1.64756 7.64195 2.0877 7.65742 2.4288C7.66164 2.50308 7.67429 2.70251 7.83458 2.72314C7.96956 2.7424 8.05815 2.60211 8.09049 2.51133C8.1397 2.35315 8.12423 2.21424 8.08205 2.09182C8.28733 2.21561 8.51793 2.30364 8.78929 2.29264C9.32359 2.27613 9.7904 2.07532 10.0421 1.75347C10.0815 1.69845 10.0983 1.63106 10.0885 1.57054C10.0815 1.53478 10.066 1.50314 10.0421 1.47701C10.0252 1.4495 9.99991 1.42749 9.96897 1.41099C9.91273 1.3821 9.83962 1.37935 9.77775 1.39998C9.30391 1.52377 8.80898 1.43574 8.38857 1.33534C7.90348 1.21705 7.42823 1.12627 6.85878 1.02862C6.78567 1.01762 6.62819 0.99836 6.5382 0.996984C4.97889 0.781042 2.83466 1.36285 1.80964 3.14815C1.0785 4.41354 0.884462 6.76139 1.82792 8.49993C2.38472 9.53013 3.27053 10.1738 4.38835 10.3595L4.41366 10.3636V15.3124H5.72269V10.3526H6.5368C9.80728 10.3526 11.9838 9.26467 11.9838 6.85905ZM6.53539 9.99089H5.72129V3.69144H6.53539C9.52466 3.69144 10.6748 4.84955 10.6748 6.85767C10.6748 8.86855 9.52466 9.99089 6.53539 9.99089Z" fill="black"/>
</g>
</svg>
