<svg width="58" height="21" viewBox="0 0 58 21" fill="none" xmlns="http://www.w3.org/2000/svg">
<mask id="mask0_90_389" style="mask-type:luminance" maskUnits="userSpaceOnUse" x="0" y="0" width="58" height="21">
<path d="M57.5 0H0.5V21H57.5V0Z" fill="white"/>
</mask>
<g mask="url(#mask0_90_389)">
<path d="M32.7957 12.2136C32.7957 13.6317 32.3134 14.9658 31.1998 15.014C29.8908 15.0855 29.7586 14.0498 29.7586 12.5671V7.15341H31.6975L31.706 6.81506H29.767L29.7586 4.67627H28.4496L28.458 6.81643H27.4794L27.4709 7.15479H28.4496V12.3278C28.4496 14.3263 29.3607 15.3138 30.8159 15.3138C32.5763 15.3138 33.0417 13.8297 33.0417 12.2081L32.873 12.215H32.7957V12.2136Z" fill="#EC2526"/>
</g>
<mask id="mask1_90_389" style="mask-type:luminance" maskUnits="userSpaceOnUse" x="0" y="0" width="58" height="21">
<path d="M57.5 0H0.5V21H57.5V0Z" fill="white"/>
</mask>
<g mask="url(#mask1_90_389)">
<path d="M38.3383 12.2136C38.3383 13.6317 37.856 14.9658 36.7424 15.014C35.4334 15.0855 35.3012 14.0498 35.3012 12.5671V7.15341H37.2401L37.2486 6.81506H35.3096L35.3012 4.67627H33.9922L34.0006 6.81643H33.022L33.0135 7.15479H33.9922V12.3278C33.9922 14.3263 34.9033 15.3138 36.3585 15.3138C38.1189 15.3138 38.5843 13.8297 38.5843 12.2081L38.4156 12.215H38.3383V12.2136Z" fill="#EC2526"/>
</g>
<mask id="mask2_90_389" style="mask-type:luminance" maskUnits="userSpaceOnUse" x="0" y="0" width="58" height="21">
<path d="M57.5 0H0.5V21H57.5V0Z" fill="white"/>
</mask>
<g mask="url(#mask2_90_389)">
<path d="M18.7141 7.48252C18.3527 7.12903 17.9253 6.83057 17.2293 6.83057C15.968 6.83057 15.2552 7.76035 14.9712 9.02024C14.9444 9.14128 14.9501 9.14128 14.9501 9.01749L14.8868 6.94885H13.5426V15.3114H14.8868V12.4904C14.9065 10.6598 15.0766 7.76311 16.5262 7.52928C17.6202 7.37386 18.2866 8.36004 18.7155 9.23481V7.48252H18.7141Z" fill="white"/>
</g>
<mask id="mask3_90_389" style="mask-type:luminance" maskUnits="userSpaceOnUse" x="0" y="0" width="58" height="21">
<path d="M57.5 0H0.5V21H57.5V0Z" fill="white"/>
</mask>
<g mask="url(#mask3_90_389)">
<path d="M23.9685 15.306C25.944 15.1987 26.9226 13.8411 27.4541 12.8481L27.1939 12.6638C26.9254 13.1713 26.0958 14.7448 24.469 14.9195C22.7832 15.112 21.4699 14.2042 20.8569 12.3749C20.5757 11.5442 20.525 10.5951 20.7261 9.6667H27.2389C27.0055 7.56093 25.0835 6.7453 23.6887 6.8347C21.8256 6.85258 19.2483 8.22938 19.3285 11.2622C19.3932 14.1203 21.8158 15.4064 23.9685 15.306ZM22.9252 7.13042C24.5449 6.81407 25.8048 7.82638 26.0185 9.34623L20.802 9.35448C21.1184 8.17024 21.7933 7.35874 22.9252 7.13042Z" fill="white"/>
</g>
<mask id="mask4_90_389" style="mask-type:luminance" maskUnits="userSpaceOnUse" x="0" y="0" width="58" height="21">
<path d="M57.5 0H0.5V21H57.5V0Z" fill="white"/>
</mask>
<g mask="url(#mask4_90_389)">
<path d="M40.7666 7.00391H39.4702V15.3129H40.7666V7.00391Z" fill="white"/>
</g>
<mask id="mask5_90_389" style="mask-type:luminance" maskUnits="userSpaceOnUse" x="0" y="0" width="58" height="21">
<path d="M57.5 0H0.5V21H57.5V0Z" fill="white"/>
</mask>
<g mask="url(#mask5_90_389)">
<path d="M40.1197 6.23912C40.5584 6.23912 40.9043 5.89251 40.9043 5.46475C40.9043 5.0425 40.5556 4.69727 40.1197 4.69727C39.6839 4.69727 39.3281 5.0425 39.3281 5.46475C39.3281 5.89113 39.6839 6.23912 40.1197 6.23912Z" fill="white"/>
</g>
<mask id="mask6_90_389" style="mask-type:luminance" maskUnits="userSpaceOnUse" x="0" y="0" width="58" height="21">
<path d="M57.5 0H0.5V21H57.5V0Z" fill="white"/>
</mask>
<g mask="url(#mask6_90_389)">
<path d="M43.0079 15.3113H44.3169V7.11785H45.4305V6.97893H44.3169V5.80707C44.3169 4.20332 44.9468 3.36569 46.1082 3.36569C47.0981 3.36569 47.6675 4.03002 47.929 4.88416L48.0443 4.83189C47.7448 3.87597 47.2021 3.19238 45.8748 3.19238C44.48 3.19238 43.0064 4.0479 43.0064 6.14817V6.97893H42.0278V7.11647H43.0064V15.3113H43.0079Z" fill="white"/>
</g>
<mask id="mask7_90_389" style="mask-type:luminance" maskUnits="userSpaceOnUse" x="0" y="0" width="58" height="21">
<path d="M57.5 0H0.5V21H57.5V0Z" fill="white"/>
</mask>
<g mask="url(#mask7_90_389)">
<path d="M53.2439 6.95841L52.9388 6.95703L50.3418 13.3583L50.3165 13.3651L47.6788 6.95841H46.3697L49.7485 15.2674C48.7038 17.1641 46.7859 17.1201 46.4864 16.8463V18.0595C47.8461 18.5271 49.1776 17.7789 50.2856 14.4765C50.8283 16.5162 50.0677 18.4996 48.3635 19.3854C46.568 20.3248 44.3099 19.8186 43.1063 18.208C43.0725 18.1392 43.0486 18.0691 43.0318 17.9962C42.9516 17.7087 42.8954 17.0348 43.1288 16.7817C43.1808 16.7253 43.3172 16.5754 43.2188 16.4502C43.1344 16.3429 42.9629 16.3883 42.8841 16.4282C42.7337 16.5039 42.6437 16.6125 42.5846 16.7267C42.5284 16.497 42.4272 16.2755 42.2275 16.0967C41.8352 15.7433 41.3586 15.5644 40.9536 15.6195C40.8791 15.6305 40.813 15.6676 40.7779 15.7226C40.7582 15.7529 40.7483 15.7859 40.7483 15.8203C40.7427 15.8519 40.7441 15.8849 40.7554 15.9166C40.7765 15.9757 40.8243 16.0252 40.8791 16.05C41.3023 16.2824 41.5892 16.6882 41.8155 17.0554C42.0953 17.4955 42.3611 17.8862 42.6802 18.3222C42.7365 18.3964 42.8335 18.5134 42.8799 18.5629C43.7334 19.622 45.0579 20.2519 46.433 20.2519C46.4485 20.2519 46.4639 20.2519 46.4794 20.2519C47.2049 20.245 47.9023 20.069 48.5533 19.7306C50.5556 18.688 51.3753 16.2246 50.5049 13.8672L50.519 13.8273V13.8259L50.5316 13.7943L53.2439 6.95841Z" fill="white"/>
</g>
<mask id="mask8_90_389" style="mask-type:luminance" maskUnits="userSpaceOnUse" x="0" y="0" width="58" height="21">
<path d="M57.5 0H0.5V21H57.5V0Z" fill="white"/>
</mask>
<g mask="url(#mask8_90_389)">
<path d="M12.4838 6.85905C12.4838 4.4548 10.3073 3.38335 7.03539 3.38335H4.91225V9.97026C3.68617 9.74882 3.02251 8.94694 2.68084 8.3115C1.80065 6.70225 1.97922 4.51945 2.65975 3.33933C3.5765 1.73834 5.65043 1.14691 7.14225 1.40273C7.21255 1.42749 7.28145 1.45913 7.34753 1.49764C7.61328 1.64756 8.14195 2.0877 8.15742 2.4288C8.16164 2.50308 8.17429 2.70251 8.33458 2.72314C8.46956 2.7424 8.55815 2.60211 8.59049 2.51133C8.6397 2.35315 8.62423 2.21424 8.58205 2.09182C8.78733 2.21561 9.01793 2.30364 9.28929 2.29264C9.82359 2.27613 10.2904 2.07532 10.5421 1.75347C10.5815 1.69845 10.5983 1.63106 10.5885 1.57054C10.5815 1.53478 10.566 1.50314 10.5421 1.47701C10.5252 1.4495 10.4999 1.42749 10.469 1.41099C10.4127 1.3821 10.3396 1.37935 10.2778 1.39998C9.80391 1.52377 9.30898 1.43574 8.88857 1.33534C8.40348 1.21705 7.92823 1.12627 7.35878 1.02862C7.28567 1.01762 7.12819 0.99836 7.0382 0.996984C5.47889 0.781042 3.33466 1.36285 2.30964 3.14815C1.5785 4.41354 1.38446 6.76139 2.32792 8.49993C2.88472 9.53013 3.77053 10.1738 4.88835 10.3595L4.91366 10.3636V15.3124H6.22269V10.3526H7.0368C10.3073 10.3526 12.4838 9.26467 12.4838 6.85905ZM7.03539 9.99089H6.22129V3.69144H7.03539C10.0247 3.69144 11.1748 4.84955 11.1748 6.85767C11.1748 8.86855 10.0247 9.99089 7.03539 9.99089Z" fill="white"/>
</g>
</svg>
