<svg width="36" height="35" viewBox="0 0 36 35" fill="none" xmlns="http://www.w3.org/2000/svg">
<path d="M27.0461 27.1687C25.169 28.8929 22.8306 30.0334 20.3163 30.4507C17.8019 30.8681 15.2204 30.5443 12.887 29.519C10.5536 28.4937 8.56918 26.8112 7.17607 24.6768C5.78296 22.5425 5.04142 20.0487 5.04199 17.4999H7.22949C7.22934 19.703 7.89445 21.8547 9.13774 23.6734C10.381 25.492 12.1445 26.8929 14.1974 27.6924C16.2502 28.492 18.4966 28.653 20.6424 28.1544C22.7883 27.6558 24.7336 26.5208 26.2236 24.8981H23.0451C22.755 24.8981 22.4768 24.7828 22.2717 24.5777C22.0666 24.3726 21.9514 24.0944 21.9514 23.8043C21.9514 23.5142 22.0666 23.236 22.2717 23.0309C22.4768 22.8258 22.755 22.7106 23.0451 22.7106H28.1398C28.4299 22.7106 28.7081 22.8258 28.9132 23.0309C29.1183 23.236 29.2336 23.5142 29.2336 23.8043V28.8946C29.2336 29.1847 29.1183 29.4629 28.9132 29.668C28.7081 29.8732 28.4299 29.9884 28.1398 29.9884C27.8497 29.9884 27.5715 29.8732 27.3664 29.668C27.1613 29.4629 27.0461 29.1847 27.0461 28.8946V27.1665V27.1687ZM10.1104 10.104H13.2889C13.5789 10.104 13.8571 10.2192 14.0623 10.4244C14.2674 10.6295 14.3826 10.9077 14.3826 11.1978C14.3826 11.4878 14.2674 11.766 14.0623 11.9712C13.8571 12.1763 13.5789 12.2915 13.2889 12.2915H8.19199C7.90191 12.2915 7.62371 12.1763 7.41859 11.9712C7.21348 11.766 7.09824 11.4878 7.09824 11.1978V6.10307C7.09824 5.81299 7.21348 5.53479 7.41859 5.32968C7.62371 5.12456 7.90191 5.00932 8.19199 5.00932C8.48207 5.00932 8.76027 5.12456 8.96539 5.32968C9.17051 5.53479 9.28574 5.81299 9.28574 6.10307V7.8312C11.1625 6.10483 13.5016 4.96256 16.017 4.54399C18.5324 4.12543 21.1153 4.44868 23.45 5.47426C25.7847 6.49984 27.7701 8.18332 29.1635 10.319C30.557 12.4546 31.2981 14.9499 31.2964 17.4999H29.1089C29.1091 15.2966 28.4438 13.1446 27.2002 11.3258C25.9567 9.50695 24.1928 8.1061 22.1396 7.30672C20.0864 6.50733 17.8396 6.34669 15.6936 6.84582C13.5476 7.34496 11.6023 8.48061 10.1126 10.104H10.1104Z" fill="black"/>
</svg>
