<svg width="17" height="17" viewBox="0 0 17 17" fill="none" xmlns="http://www.w3.org/2000/svg">
<path d="M16.2502 16.2502L12.4501 12.4501M12.4501 12.4501C13.1001 11.8 13.6157 11.0283 13.9675 10.179C14.3193 9.32973 14.5004 8.41946 14.5004 7.50018C14.5004 6.5809 14.3193 5.67063 13.9675 4.82133C13.6157 3.97203 13.1001 3.20033 12.4501 2.55031C11.8 1.90028 11.0283 1.38465 10.179 1.03286C9.32973 0.681065 8.41946 0.5 7.50018 0.5C6.5809 0.5 5.67063 0.681065 4.82133 1.03286C3.97203 1.38465 3.20033 1.90028 2.55031 2.55031C1.23752 3.86309 0.5 5.64362 0.5 7.50018C0.5 9.35674 1.23752 11.1373 2.55031 12.4501C3.86309 13.7628 5.64362 14.5004 7.50018 14.5004C9.35674 14.5004 11.1373 13.7628 12.4501 12.4501Z" stroke="black" stroke-opacity="0.4" stroke-linecap="round" stroke-linejoin="round"/>
</svg>
