<svg width="48" height="48" viewBox="0 0 48 48" fill="none" xmlns="http://www.w3.org/2000/svg">
<path d="M18 24C18 25.3261 17.4732 26.5979 16.5355 27.5355C15.5979 28.4732 14.3261 29 13 29C11.6739 29 10.4021 28.4732 9.46447 27.5355C8.52678 26.5979 8 25.3261 8 24C8 22.6739 8.52678 21.4021 9.46447 20.4645C10.4021 19.5268 11.6739 19 13 19C14.3261 19 15.5979 19.5268 16.5355 20.4645C17.4732 21.4021 18 22.6739 18 24Z" stroke="white" stroke-width="1.5"/>
<path d="M28 13L18 20M28 35L18 28" stroke="white" stroke-width="1.5" stroke-linecap="round"/>
<path d="M38 37C38 38.3261 37.4732 39.5979 36.5355 40.5355C35.5979 41.4732 34.3261 42 33 42C31.6739 42 30.4021 41.4732 29.4645 40.5355C28.5268 39.5979 28 38.3261 28 37C28 35.6739 28.5268 34.4021 29.4645 33.4645C30.4021 32.5268 31.6739 32 33 32C34.3261 32 35.5979 32.5268 36.5355 33.4645C37.4732 34.4021 38 35.6739 38 37ZM38 11C38 12.3261 37.4732 13.5979 36.5355 14.5355C35.5979 15.4732 34.3261 16 33 16C31.6739 16 30.4021 15.4732 29.4645 14.5355C28.5268 13.5979 28 12.3261 28 11C28 9.67392 28.5268 8.40215 29.4645 7.46447C30.4021 6.52678 31.6739 6 33 6C34.3261 6 35.5979 6.52678 36.5355 7.46447C37.4732 8.40215 38 9.67392 38 11Z" stroke="white" stroke-width="1.5"/>
</svg>
