<svg width="17" height="18" viewBox="0 0 17 18" fill="none" xmlns="http://www.w3.org/2000/svg">
<path d="M14.5827 3.09168C13.8187 2.31995 12.9087 1.70807 11.9057 1.29172C10.9028 0.875371 9.82695 0.662893 8.74102 0.666676C4.19102 0.666676 0.482682 4.37501 0.482682 8.92501C0.482682 10.3833 0.866016 11.8 1.58268 13.05L0.416016 17.3333L4.79102 16.1833C5.99935 16.8417 7.35768 17.1917 8.74102 17.1917C13.291 17.1917 16.9993 13.4833 16.9993 8.93334C16.9993 6.72501 16.141 4.65001 14.5827 3.09168ZM8.74102 15.7917C7.50768 15.7917 6.29935 15.4583 5.24102 14.8333L4.99102 14.6833L2.39102 15.3667L3.08268 12.8333L2.91602 12.575C2.2308 11.4808 1.86697 10.216 1.86602 8.92501C1.86602 5.14167 4.94935 2.05834 8.73268 2.05834C10.566 2.05834 12.291 2.77501 13.5827 4.07501C14.2223 4.71165 14.7291 5.46889 15.0738 6.30286C15.4186 7.13683 15.5944 8.03093 15.591 8.93334C15.6077 12.7167 12.5243 15.7917 8.74102 15.7917ZM12.5077 10.6583C12.2993 10.5583 11.2827 10.0583 11.0993 9.98334C10.9077 9.91668 10.7743 9.88334 10.6327 10.0833C10.491 10.2917 10.0993 10.7583 9.98268 10.8917C9.86602 11.0333 9.74102 11.05 9.53268 10.9417C9.32435 10.8417 8.65768 10.6167 7.87435 9.91668C7.25768 9.36668 6.84935 8.69168 6.72435 8.48334C6.60768 8.27501 6.70768 8.16668 6.81601 8.05834C6.90768 7.96667 7.02435 7.81667 7.12435 7.70001C7.22435 7.58334 7.26602 7.49167 7.33268 7.35834C7.39935 7.21667 7.36602 7.10001 7.31602 7.00001C7.26602 6.90001 6.84935 5.88334 6.68268 5.46668C6.51602 5.06668 6.34102 5.11668 6.21602 5.10834H5.81602C5.67435 5.10834 5.45768 5.15834 5.26602 5.36668C5.08268 5.57501 4.54935 6.07501 4.54935 7.09168C4.54935 8.10834 5.29102 9.09168 5.39102 9.22501C5.49102 9.36668 6.84935 11.45 8.91602 12.3417C9.40768 12.5583 9.79101 12.6833 10.091 12.775C10.5827 12.9333 11.0327 12.9083 11.391 12.8583C11.791 12.8 12.616 12.3583 12.7827 11.875C12.9577 11.3917 12.9577 10.9833 12.8993 10.8917C12.841 10.8 12.716 10.7583 12.5077 10.6583Z" fill="black"/>
</svg>
