<svg width="40" height="40" viewBox="0 0 40 40" fill="none" xmlns="http://www.w3.org/2000/svg">
<path d="M7.66417 17.14C8.15833 17.3517 8.64334 17.5609 9.15917 17.7392M10.3575 33.1025C8.59083 30.9575 8.8875 27.7109 6.71834 25.8184C5.75334 24.7275 5.8975 23.1584 6.16 21.8334C6.30667 19.6467 4.35834 17.91 4.28167 15.6934M15.6275 4.5442C15.4708 7.39003 11.7467 5.66087 11.1808 8.19337C11.8875 8.93337 12.8358 8.20753 13.4342 7.8867C16.4608 7.99503 15.0092 10.755 12.83 10.9775C11.3742 11.7484 9.56167 12.5317 8.78584 14.1317C8.27834 14.5492 8.36167 15.5025 7.41917 15.4417C7.055 14.925 7.1625 13.0117 6.24334 13.9584C4.2025 15.3634 6.61833 17.4767 6.67167 19.3559C10.1767 19.0392 11.905 22.2209 14.425 24.0334C15.77 25.1134 18.5217 26.1475 16.4125 27.9884C15.3025 30.2709 12.0625 32.14 13.3583 34.8842C13.345 35.0092 13.52 34.985 13.4608 35.1275M35.395 25.1375C33.71 25.0125 33.3667 27.7417 33.7083 28.9575M21.0967 9.94503C21.235 9.9117 21.3825 9.88003 21.4975 9.7917C21.7092 9.6642 21.6758 9.30837 21.6533 9.08337C21.5533 8.9117 21.47 8.61003 21.2708 8.48837M35.1067 13.6859C34.3942 13.885 32.5608 12.8942 33.3033 14.0342C33.4225 14.8067 34.0867 14.9875 34.4583 15.25C34.7358 15.8075 34.9217 17.2175 34.16 17.5025C33.6758 17.52 31.1358 14.9334 31.8408 16.4525C31.9775 17.4384 32.7217 18.2242 33.3225 18.8442C33.6375 19.7192 35.02 19.26 35.0725 19.9309C34.5542 21.6209 33.4525 22.8117 32.7642 24.4075C32.8858 26.2 32.8225 27.9992 31.7592 29.5242C26.9167 34.8492 25.7425 29.1442 27.4292 24.6225C28.0442 19.2334 22.4325 23.7834 20.5292 21.0784C18.8125 19.2684 20.3142 15.9642 22.0692 14.6767C22.7192 13.9659 23.845 13.9359 24.7275 14.2309C26.5042 14.5192 29.0325 14.3809 30.5858 13.4734C30.4825 12.9259 29.5692 12.345 28.9475 12.2884C28.845 11.7142 30.3 11.5134 29.3433 11.0292C28.2575 10.935 28.2592 13.0259 27.2458 11.9267C27.0083 11.2025 25.4275 11.205 26.3575 11.9792C26.3992 12.8175 26.4717 13.3725 25.9367 12.4709C24.5158 11.7125 23.18 13.3709 21.8833 13.5692C20.6317 12.1192 23.75 9.10503 25.1017 8.64087C25.98 7.8967 23.8617 6.73837 24.3683 8.0992C24.0158 8.98337 22.1333 8.3642 22.9917 7.4992C23.2233 6.66337 23.875 6.08837 24.5783 5.83503C25.455 5.9242 25.8267 5.88087 25.8358 4.9117M17.5358 4.3567C17.4642 4.92753 17.765 5.47003 17.7025 6.04087C17.7025 6.54753 16.4392 7.45337 17.1842 7.68753C17.9617 7.95003 18.5342 7.64753 19.0008 7.0317C19.8483 6.3792 20.6092 5.70837 20.4733 4.5067C20.3642 4.46753 20.205 4.43753 20.2333 4.3667C19.425 3.7367 18.4267 4.0117 17.5358 4.3567ZM36.4458 20C36.4458 29.0834 29.0833 36.4459 20 36.4459C10.9167 36.4459 3.55417 29.0834 3.55417 20C3.55417 10.9167 10.9167 3.5542 20 3.5542C29.0833 3.5542 36.4458 10.9167 36.4458 20Z" stroke="#010000" stroke-width="0.833333" stroke-linecap="round" stroke-linejoin="round"/>
</svg>
