<svg width="67" height="37" viewBox="0 0 67 37" fill="none" xmlns="http://www.w3.org/2000/svg">
<rect x="0.5" y="0.5" width="65.268" height="35.996" rx="3.1544" fill="white" stroke="#EBEBEB"/>
<path d="M23.8489 19.2852L22.169 14.2711H22.1347C22.1404 14.3854 22.149 14.5483 22.1604 14.7597C22.1719 14.9654 22.1804 15.1911 22.1862 15.4368C22.1976 15.6768 22.2033 15.9025 22.2033 16.1139V19.2852H21.2176V13.1655H22.7433L24.3546 17.9738H24.3889L26.0688 13.1655H27.5944V19.2852H26.5488V16.0625C26.5488 15.8682 26.5516 15.6568 26.5574 15.4282C26.5688 15.1939 26.5774 14.974 26.5831 14.7682C26.5945 14.5568 26.6031 14.394 26.6088 14.2797H26.5745L24.826 19.2852H23.8489ZM30.1547 14.6397V19.2852H29.0747V14.6397H30.1547ZM29.6147 12.8483C29.7747 12.8483 29.9147 12.8912 30.0347 12.9769C30.1547 13.0569 30.2147 13.2026 30.2147 13.414C30.2147 13.6197 30.1547 13.7683 30.0347 13.8597C29.9147 13.9454 29.7747 13.9883 29.6147 13.9883C29.449 13.9883 29.3062 13.9454 29.1862 13.8597C29.0719 13.7683 29.0148 13.6197 29.0148 13.414C29.0148 13.2026 29.0719 13.0569 29.1862 12.9769C29.3062 12.8912 29.449 12.8483 29.6147 12.8483ZM33.4126 19.3709C32.9726 19.3709 32.5898 19.288 32.2641 19.1223C31.9441 18.9509 31.6956 18.6909 31.5184 18.3423C31.347 17.9881 31.2613 17.5367 31.2613 16.9881C31.2613 16.4167 31.3556 15.9539 31.5441 15.5996C31.7384 15.2397 32.0041 14.9768 32.3412 14.8111C32.6784 14.6397 33.0641 14.554 33.4983 14.554C33.7897 14.554 34.0497 14.5825 34.2783 14.6397C34.5068 14.6968 34.7011 14.7654 34.8611 14.8454L34.544 15.6939C34.3668 15.6253 34.1897 15.5682 34.0126 15.5225C33.8354 15.4711 33.664 15.4454 33.4983 15.4454C33.2412 15.4454 33.0269 15.5025 32.8555 15.6168C32.6898 15.7311 32.5669 15.9025 32.4869 16.131C32.4069 16.3539 32.3669 16.6367 32.3669 16.9796C32.3669 17.311 32.4069 17.5881 32.4869 17.8109C32.5726 18.0338 32.6984 18.2024 32.8641 18.3166C33.0298 18.4252 33.2355 18.4795 33.4812 18.4795C33.744 18.4795 33.9754 18.4481 34.1754 18.3852C34.3754 18.3223 34.564 18.2366 34.7411 18.1281V19.0623C34.564 19.1709 34.3726 19.248 34.1669 19.2937C33.9669 19.3452 33.7154 19.3709 33.4126 19.3709ZM38.2636 14.554C38.3321 14.554 38.4121 14.5568 38.5036 14.5625C38.595 14.5683 38.6721 14.5797 38.735 14.5968L38.6407 15.5996C38.5893 15.5882 38.5207 15.5796 38.435 15.5739C38.355 15.5625 38.2836 15.5568 38.2207 15.5568C38.0493 15.5568 37.8836 15.5853 37.7236 15.6425C37.5693 15.6939 37.4293 15.7739 37.3036 15.8825C37.1836 15.9853 37.0865 16.1196 37.0122 16.2853C36.9436 16.451 36.9094 16.6481 36.9094 16.8767V19.2852H35.8294V14.6397H36.6608L36.8151 15.4454H36.8665C36.9579 15.2796 37.0722 15.1311 37.2094 14.9997C37.3465 14.8625 37.5036 14.754 37.6808 14.674C37.8636 14.594 38.0579 14.554 38.2636 14.554ZM43.5769 16.9538C43.5769 17.3424 43.5255 17.6852 43.4226 17.9824C43.3198 18.2795 43.1712 18.5338 42.977 18.7452C42.7884 18.9509 42.5541 19.108 42.2741 19.2166C41.9999 19.3194 41.6942 19.3709 41.357 19.3709C41.0371 19.3709 40.7428 19.3194 40.4742 19.2166C40.2057 19.108 39.9714 18.9509 39.7714 18.7452C39.5771 18.5338 39.4257 18.2795 39.3171 17.9824C39.2086 17.6852 39.1543 17.3424 39.1543 16.9538C39.1543 16.4396 39.2429 16.0053 39.42 15.6511C39.5971 15.2911 39.8514 15.0197 40.1828 14.8368C40.5199 14.6483 40.9171 14.554 41.3742 14.554C41.8084 14.554 42.1884 14.6483 42.5141 14.8368C42.8455 15.0197 43.1055 15.2911 43.2941 15.6511C43.4826 16.0053 43.5769 16.4396 43.5769 16.9538ZM40.26 16.9538C40.26 17.2795 40.2971 17.5595 40.3714 17.7938C40.4514 18.0224 40.5714 18.1966 40.7314 18.3166C40.8971 18.4366 41.1085 18.4966 41.3656 18.4966C41.6285 18.4966 41.8399 18.4366 41.9999 18.3166C42.1656 18.1966 42.2856 18.0224 42.3598 17.7938C42.4341 17.5595 42.4713 17.2795 42.4713 16.9538C42.4713 16.6224 42.4313 16.3453 42.3513 16.1225C42.277 15.8939 42.157 15.7225 41.9913 15.6082C41.8313 15.4882 41.6227 15.4282 41.3656 15.4282C40.9771 15.4282 40.6942 15.5596 40.5171 15.8225C40.3457 16.0853 40.26 16.4624 40.26 16.9538ZM47.8561 17.9395C47.8561 18.2481 47.7818 18.5109 47.6332 18.728C47.4846 18.9395 47.2647 19.0995 46.9732 19.208C46.6875 19.3166 46.3361 19.3709 45.919 19.3709C45.5933 19.3709 45.3133 19.348 45.0791 19.3023C44.8448 19.2566 44.6219 19.1852 44.4105 19.088V18.1709C44.6391 18.2795 44.8934 18.3709 45.1733 18.4452C45.4533 18.5195 45.7133 18.5566 45.9533 18.5566C46.2504 18.5566 46.4647 18.5109 46.5961 18.4195C46.7275 18.3281 46.7933 18.2052 46.7933 18.0509C46.7933 17.9595 46.7675 17.8767 46.7161 17.8024C46.6647 17.7281 46.5647 17.651 46.4161 17.571C46.2676 17.4852 46.0419 17.3795 45.739 17.2538C45.4419 17.1338 45.1933 17.0138 44.9933 16.8939C44.7991 16.7739 44.6505 16.631 44.5477 16.4653C44.4505 16.2939 44.4019 16.0796 44.4019 15.8225C44.4019 15.4054 44.5677 15.0911 44.8991 14.8797C45.2305 14.6625 45.6676 14.554 46.2104 14.554C46.4961 14.554 46.7647 14.5825 47.0161 14.6397C47.2732 14.6911 47.5304 14.7768 47.7875 14.8968L47.4446 15.6939C47.3018 15.6311 47.1589 15.5768 47.0161 15.5311C46.879 15.4796 46.739 15.4396 46.5961 15.4111C46.459 15.3825 46.319 15.3682 46.1761 15.3682C45.9419 15.3682 45.7647 15.4054 45.6447 15.4796C45.5247 15.5482 45.4647 15.6453 45.4647 15.7711C45.4647 15.8682 45.4933 15.9539 45.5505 16.0282C45.6133 16.0967 45.719 16.1682 45.8676 16.2425C46.0219 16.311 46.239 16.4024 46.519 16.5167C46.799 16.6253 47.0361 16.7396 47.2304 16.8596C47.4304 16.9738 47.5846 17.1167 47.6932 17.2881C47.8018 17.4595 47.8561 17.6767 47.8561 17.9395ZM53.0435 16.9538C53.0435 17.3424 52.9921 17.6852 52.8892 17.9824C52.7864 18.2795 52.6378 18.5338 52.4435 18.7452C52.255 18.9509 52.0207 19.108 51.7407 19.2166C51.4664 19.3194 51.1607 19.3709 50.8236 19.3709C50.5036 19.3709 50.2094 19.3194 49.9408 19.2166C49.6723 19.108 49.438 18.9509 49.238 18.7452C49.0437 18.5338 48.8923 18.2795 48.7837 17.9824C48.6752 17.6852 48.6209 17.3424 48.6209 16.9538C48.6209 16.4396 48.7094 16.0053 48.8866 15.6511C49.0637 15.2911 49.318 15.0197 49.6494 14.8368C49.9865 14.6483 50.3836 14.554 50.8408 14.554C51.275 14.554 51.655 14.6483 51.9807 14.8368C52.3121 15.0197 52.5721 15.2911 52.7607 15.6511C52.9492 16.0053 53.0435 16.4396 53.0435 16.9538ZM49.7265 16.9538C49.7265 17.2795 49.7637 17.5595 49.838 17.7938C49.918 18.0224 50.0379 18.1966 50.1979 18.3166C50.3636 18.4366 50.5751 18.4966 50.8322 18.4966C51.095 18.4966 51.3065 18.4366 51.4664 18.3166C51.6322 18.1966 51.7521 18.0224 51.8264 17.7938C51.9007 17.5595 51.9379 17.2795 51.9379 16.9538C51.9379 16.6224 51.8979 16.3453 51.8179 16.1225C51.7436 15.8939 51.6236 15.7225 51.4579 15.6082C51.2979 15.4882 51.0893 15.4282 50.8322 15.4282C50.4436 15.4282 50.1608 15.5596 49.9837 15.8225C49.8122 16.0853 49.7265 16.4624 49.7265 16.9538ZM56.5684 15.4539H55.4456V19.2852H54.3656V15.4539H53.62V14.9397L54.3656 14.6311V14.314C54.3656 13.914 54.4285 13.5997 54.5542 13.3712C54.6799 13.1426 54.8628 12.9798 55.1028 12.8826C55.3427 12.7798 55.6256 12.7284 55.9513 12.7284C56.1798 12.7284 56.3855 12.7484 56.5684 12.7883C56.7512 12.8226 56.9027 12.8626 57.0227 12.9083L56.7484 13.714C56.6512 13.6854 56.5427 13.6597 56.4227 13.6369C56.3084 13.6083 56.1827 13.594 56.0456 13.594C55.8399 13.594 55.6884 13.6597 55.5913 13.7912C55.4942 13.9226 55.4456 14.1054 55.4456 14.3397V14.6397H56.5684V15.4539ZM59.1405 18.5052C59.2776 18.5052 59.409 18.4938 59.5348 18.4709C59.6605 18.4423 59.7776 18.4109 59.8862 18.3766V19.1823C59.7719 19.2337 59.6233 19.2766 59.4405 19.3109C59.2576 19.3509 59.0662 19.3709 58.8662 19.3709C58.6034 19.3709 58.3634 19.328 58.1463 19.2423C57.9348 19.1509 57.7634 18.9966 57.632 18.7795C57.5063 18.5623 57.4434 18.2595 57.4434 17.8709V15.4539H56.8178V14.9825L57.5034 14.6054L57.8463 13.6197H58.5234V14.6397H59.8433V15.4539H58.5234V17.8624C58.5234 18.0795 58.5805 18.2424 58.6948 18.3509C58.8091 18.4538 58.9576 18.5052 59.1405 18.5052Z" fill="#05164D"/>
<path d="M23.9465 25.7346C23.9465 26.004 23.8813 26.2334 23.7508 26.4228C23.6203 26.6122 23.433 26.7595 23.1889 26.8647C22.9448 26.9658 22.6543 27.0163 22.3176 27.0163C22.1535 27.0163 21.9956 27.0057 21.8441 26.9847C21.6926 26.9679 21.5516 26.9426 21.4211 26.9089C21.2906 26.8753 21.1748 26.8332 21.0738 26.7827V26.1387C21.2422 26.2144 21.44 26.2839 21.6673 26.347C21.8946 26.4059 22.1261 26.4354 22.3618 26.4354C22.5638 26.4354 22.7322 26.408 22.8669 26.3533C23.0016 26.2986 23.1026 26.2228 23.17 26.126C23.2373 26.0292 23.271 25.9156 23.271 25.7851C23.271 25.6462 23.2352 25.5304 23.1636 25.4378C23.0963 25.341 22.989 25.2526 22.8416 25.1727C22.6985 25.0885 22.5049 25.0001 22.2608 24.9075C22.0924 24.8444 21.9388 24.7749 21.7999 24.6992C21.6652 24.6192 21.5452 24.5266 21.44 24.4214C21.339 24.3161 21.2611 24.1941 21.2064 24.0552C21.1517 23.9163 21.1243 23.7542 21.1243 23.569C21.1243 23.3207 21.1854 23.1081 21.3074 22.9313C21.4337 22.7545 21.6063 22.6199 21.8251 22.5273C22.044 22.4304 22.2987 22.382 22.5891 22.382C22.8332 22.382 23.0584 22.4073 23.2647 22.4578C23.4751 22.5041 23.675 22.5693 23.8645 22.6535L23.6498 23.2154C23.4772 23.1439 23.3025 23.085 23.1258 23.0387C22.949 22.9924 22.7638 22.9692 22.5702 22.9692C22.4018 22.9692 22.2608 22.9945 22.1471 23.045C22.0335 23.0955 21.9472 23.1649 21.8883 23.2533C21.8336 23.3417 21.8062 23.4448 21.8062 23.5627C21.8062 23.7016 21.8378 23.8173 21.9009 23.9099C21.964 24.0025 22.0651 24.0888 22.204 24.1688C22.3429 24.2446 22.526 24.3288 22.7532 24.4214C23.0058 24.5182 23.2205 24.6234 23.3972 24.737C23.5782 24.8507 23.715 24.9875 23.8076 25.1474C23.9002 25.3032 23.9465 25.4989 23.9465 25.7346ZM25.4227 23.5501V26.9531H24.7534V23.5501H25.4227ZM25.0944 22.2558C25.1954 22.2558 25.2838 22.2852 25.3596 22.3442C25.4353 22.4031 25.4732 22.502 25.4732 22.6409C25.4732 22.7756 25.4353 22.8745 25.3596 22.9376C25.2838 22.9966 25.1954 23.026 25.0944 23.026C24.9849 23.026 24.8923 22.9966 24.8166 22.9376C24.745 22.8745 24.7092 22.7756 24.7092 22.6409C24.7092 22.502 24.745 22.4031 24.8166 22.3442C24.8923 22.2852 24.9849 22.2558 25.0944 22.2558ZM27.1429 26.9531H26.4737V22.1548H27.1429V26.9531ZM28.9578 26.9531L27.6699 23.5501H28.377L29.0841 25.5389C29.1136 25.623 29.143 25.7178 29.1725 25.823C29.2062 25.9282 29.2356 26.0292 29.2609 26.126C29.2862 26.2228 29.303 26.307 29.3114 26.3786H29.3367C29.3493 26.307 29.3682 26.2228 29.3935 26.126C29.4229 26.025 29.4545 25.924 29.4882 25.823C29.5219 25.7178 29.5513 25.623 29.5766 25.5389L30.2837 23.5501H30.9908L29.6965 26.9531H28.9578ZM32.8557 23.4869C33.1545 23.4869 33.4113 23.5501 33.6259 23.6763C33.8406 23.7984 34.0048 23.9752 34.1184 24.2067C34.2363 24.4382 34.2952 24.7118 34.2952 25.0275V25.3937H32.0097C32.0181 25.743 32.1086 26.0103 32.2811 26.1955C32.4579 26.3807 32.7042 26.4733 33.0198 26.4733C33.2387 26.4733 33.4323 26.4543 33.6007 26.4165C33.7733 26.3744 33.95 26.3133 34.131 26.2334V26.789C33.9627 26.8647 33.7901 26.9216 33.6133 26.9594C33.4407 26.9973 33.2345 27.0163 32.9946 27.0163C32.6663 27.0163 32.3758 26.951 32.1233 26.8205C31.8708 26.6901 31.6729 26.4964 31.5298 26.2397C31.3909 25.9787 31.3215 25.6588 31.3215 25.28C31.3215 24.897 31.3846 24.5729 31.5109 24.3077C31.6414 24.0425 31.8202 23.8405 32.0475 23.7016C32.279 23.5585 32.5484 23.4869 32.8557 23.4869ZM32.8557 24.0047C32.6158 24.0047 32.4221 24.0825 32.2748 24.2383C32.1317 24.394 32.0475 24.615 32.0223 24.9012H33.6259C33.6259 24.7244 33.5986 24.5687 33.5439 24.434C33.4892 24.2993 33.405 24.1941 33.2913 24.1183C33.1777 24.0425 33.0325 24.0047 32.8557 24.0047ZM36.8097 23.4869C36.8686 23.4869 36.9339 23.4911 37.0054 23.4996C37.077 23.5038 37.1359 23.5101 37.1822 23.5185L37.1128 24.1436C37.0665 24.1309 37.0117 24.1204 36.9486 24.112C36.8855 24.1036 36.8265 24.0994 36.7718 24.0994C36.6455 24.0994 36.5235 24.1246 36.4056 24.1751C36.292 24.2214 36.1889 24.2909 36.0963 24.3835C36.0037 24.4719 35.93 24.5813 35.8753 24.7118C35.8248 24.8423 35.7995 24.9917 35.7995 25.16V26.9531H35.1303V23.5501H35.6606L35.749 24.1562H35.7743C35.8458 24.0341 35.9321 23.9226 36.0331 23.8216C36.1341 23.7205 36.2499 23.6406 36.3804 23.5816C36.5109 23.5185 36.654 23.4869 36.8097 23.4869Z" fill="#05164D" fill-opacity="0.44"/>
<path d="M40.7909 22.4452C41.3802 22.4452 41.8095 22.5651 42.0789 22.8051C42.3483 23.0408 42.483 23.3712 42.483 23.7963C42.483 23.9857 42.4514 24.1667 42.3883 24.3393C42.3293 24.5118 42.2304 24.6676 42.0915 24.8065C41.9526 24.9412 41.7674 25.0485 41.5359 25.1285C41.3086 25.2042 41.0287 25.2421 40.6962 25.2421H40.21V26.9531H39.5282V22.4452H40.7909ZM40.7404 23.0197H40.21V24.6676H40.6204C40.8772 24.6676 41.0919 24.6402 41.2644 24.5855C41.437 24.5266 41.5654 24.4361 41.6496 24.314C41.7379 24.1877 41.7821 24.0236 41.7821 23.8216C41.7821 23.5522 41.698 23.3522 41.5296 23.2218C41.3654 23.0871 41.1024 23.0197 40.7404 23.0197ZM44.6378 23.4869C45.0672 23.4869 45.3871 23.5816 45.5975 23.771C45.808 23.9562 45.9132 24.2488 45.9132 24.6486V26.9531H45.4397L45.3071 26.4796H45.2818C45.185 26.6017 45.084 26.7027 44.9788 26.7827C44.8778 26.8626 44.7599 26.9216 44.6252 26.9594C44.4947 26.9973 44.3348 27.0163 44.1454 27.0163C43.9433 27.0163 43.7602 26.9805 43.5961 26.9089C43.4361 26.8332 43.3099 26.7195 43.2173 26.568C43.1247 26.4123 43.0784 26.2186 43.0784 25.9871C43.0784 25.642 43.2088 25.3789 43.4698 25.1979C43.735 25.0169 44.137 24.918 44.6757 24.9012L45.2566 24.8822V24.6928C45.2566 24.4403 45.1998 24.2635 45.0861 24.1625C44.9725 24.0615 44.8125 24.011 44.6063 24.011C44.4295 24.011 44.2611 24.0362 44.1012 24.0867C43.9412 24.1372 43.7897 24.1983 43.6466 24.2698L43.4319 23.7837C43.5919 23.6995 43.775 23.63 43.9812 23.5753C44.1917 23.5164 44.4105 23.4869 44.6378 23.4869ZM44.7957 25.3305C44.4084 25.3474 44.1391 25.4126 43.9875 25.5262C43.8402 25.6357 43.7666 25.7914 43.7666 25.9935C43.7666 26.1702 43.8192 26.2986 43.9244 26.3786C44.0338 26.4586 44.1706 26.4985 44.3348 26.4985C44.6 26.4985 44.8188 26.4249 44.9914 26.2776C45.164 26.1302 45.2503 25.9093 45.2503 25.6146V25.3179L44.7957 25.3305ZM48.6231 23.4869C48.6821 23.4869 48.7473 23.4911 48.8189 23.4996C48.8904 23.5038 48.9493 23.5101 48.9956 23.5185L48.9262 24.1436C48.8799 24.1309 48.8252 24.1204 48.762 24.112C48.6989 24.1036 48.64 24.0994 48.5853 24.0994C48.459 24.0994 48.3369 24.1246 48.2191 24.1751C48.1054 24.2214 48.0023 24.2909 47.9097 24.3835C47.8171 24.4719 47.7434 24.5813 47.6887 24.7118C47.6382 24.8423 47.6129 24.9917 47.6129 25.16V26.9531H46.9437V23.5501H47.474L47.5624 24.1562H47.5877C47.6592 24.0341 47.7455 23.9226 47.8466 23.8216C47.9476 23.7205 48.0633 23.6406 48.1938 23.5816C48.3243 23.5185 48.4674 23.4869 48.6231 23.4869ZM50.8506 26.4733C50.939 26.4733 51.0295 26.4649 51.1221 26.448C51.2147 26.4312 51.2947 26.4123 51.362 26.3912V26.8963C51.2905 26.93 51.1937 26.9573 51.0716 26.9784C50.9495 27.0036 50.8275 27.0163 50.7054 27.0163C50.5202 27.0163 50.3497 26.9847 50.194 26.9216C50.0425 26.8584 49.9204 26.749 49.8278 26.5932C49.7352 26.4375 49.6889 26.2207 49.6889 25.9429V24.0615H49.2154V23.7584L49.7142 23.5059L49.9478 22.7861H50.3582V23.5501H51.3305V24.0615H50.3582V25.9303C50.3582 26.1155 50.4023 26.2523 50.4907 26.3407C50.5833 26.4291 50.7033 26.4733 50.8506 26.4733ZM53.7663 23.4869C54.162 23.4869 54.4651 23.5858 54.6755 23.7837C54.886 23.9815 54.9912 24.2993 54.9912 24.737V26.9531H54.3283V24.8317C54.3283 24.5666 54.2714 24.3687 54.1578 24.2383C54.0483 24.1036 53.8716 24.0362 53.6274 24.0362C53.2823 24.0362 53.0424 24.1393 52.9077 24.3456C52.7772 24.5518 52.712 24.8486 52.712 25.2358V26.9531H52.0427V23.5501H52.5731L52.6678 24.0047H52.7056C52.7814 23.8868 52.874 23.79 52.9834 23.7142C53.0929 23.6385 53.2149 23.5816 53.3496 23.5438C53.4843 23.5059 53.6232 23.4869 53.7663 23.4869ZM57.3581 23.4869C57.6569 23.4869 57.9137 23.5501 58.1283 23.6763C58.343 23.7984 58.5072 23.9752 58.6208 24.2067C58.7387 24.4382 58.7976 24.7118 58.7976 25.0275V25.3937H56.512C56.5205 25.743 56.611 26.0103 56.7835 26.1955C56.9603 26.3807 57.2065 26.4733 57.5222 26.4733C57.7411 26.4733 57.9347 26.4543 58.1031 26.4165C58.2757 26.3744 58.4524 26.3133 58.6334 26.2334V26.789C58.4651 26.8647 58.2925 26.9216 58.1157 26.9594C57.9431 26.9973 57.7369 27.0163 57.497 27.0163C57.1687 27.0163 56.8782 26.951 56.6257 26.8205C56.3731 26.6901 56.1753 26.4964 56.0322 26.2397C55.8933 25.9787 55.8239 25.6588 55.8239 25.28C55.8239 24.897 55.887 24.5729 56.0133 24.3077C56.1437 24.0425 56.3226 23.8405 56.5499 23.7016C56.7814 23.5585 57.0508 23.4869 57.3581 23.4869ZM57.3581 24.0047C57.1181 24.0047 56.9245 24.0825 56.7772 24.2383C56.6341 24.394 56.5499 24.615 56.5247 24.9012H58.1283C58.1283 24.7244 58.101 24.5687 58.0463 24.434C57.9915 24.2993 57.9074 24.1941 57.7937 24.1183C57.6801 24.0425 57.5348 24.0047 57.3581 24.0047ZM61.3121 23.4869C61.371 23.4869 61.4363 23.4911 61.5078 23.4996C61.5794 23.5038 61.6383 23.5101 61.6846 23.5185L61.6151 24.1436C61.5688 24.1309 61.5141 24.1204 61.451 24.112C61.3879 24.1036 61.3289 24.0994 61.2742 24.0994C61.1479 24.0994 61.0259 24.1246 60.908 24.1751C60.7944 24.2214 60.6912 24.2909 60.5986 24.3835C60.506 24.4719 60.4324 24.5813 60.3777 24.7118C60.3272 24.8423 60.3019 24.9917 60.3019 25.16V26.9531H59.6327V23.5501H60.163L60.2514 24.1562H60.2766C60.3482 24.0341 60.4345 23.9226 60.5355 23.8216C60.6365 23.7205 60.7523 23.6406 60.8828 23.5816C61.0132 23.5185 61.1564 23.4869 61.3121 23.4869Z" fill="#05164D"/>
<rect x="5.12085" y="12.375" width="6.27061" height="6.27061" fill="#EB5321"/>
<rect x="12.4365" y="12.375" width="6.27061" height="6.27061" fill="#7FBA00"/>
<rect x="12.4365" y="19.6953" width="6.27061" height="6.27061" fill="#FCBB01"/>
<rect x="5.12085" y="19.6953" width="6.27061" height="6.27061" fill="#08A1EF"/>
</svg>
