<svg width="67" height="37" viewBox="0 0 67 37" fill="none" xmlns="http://www.w3.org/2000/svg">
<path d="M1.07129 3.6544C1.07129 1.91227 2.48356 0.5 4.22569 0.5H63.1849C64.927 0.5 66.3393 1.91227 66.3393 3.6544V33.3416C66.3393 35.0837 64.927 36.496 63.1849 36.496H4.22568C2.48356 36.496 1.07129 35.0837 1.07129 33.3416V3.6544Z" fill="white" stroke="#EBEBEB"/>
<path d="M24.1516 15.0043C24.3422 15.1262 24.6374 15.2302 25.0021 15.2998C25.3668 15.4038 25.7487 15.421 26.1485 15.421C26.5304 15.421 26.8779 15.3694 27.1903 15.2819C27.5026 15.1779 27.7806 15.0395 28.0235 14.8651C28.2492 14.6916 28.4405 14.4836 28.5624 14.2052C28.6834 13.9449 28.7529 13.6673 28.7529 13.3374C28.7529 12.955 28.6319 12.6079 28.4062 12.2952C28.1805 11.9996 27.7978 11.7565 27.2598 11.5829L26.218 11.2357C25.8361 11.1145 25.5409 10.9754 25.384 10.819C25.2457 10.6799 25.1583 10.5063 25.1583 10.2803C25.1583 9.98555 25.2801 9.74239 25.5058 9.62044C25.7487 9.48202 26.0618 9.39524 26.496 9.39524C27.0341 9.39524 27.4855 9.49923 27.9368 9.69002C28.0587 9.74239 28.1625 9.79476 28.232 9.79476C28.3538 9.79476 28.4062 9.72518 28.4062 9.55161V9.25608C28.4062 9.15208 28.3882 9.06529 28.3367 9.01292C28.307 8.97348 28.2718 8.93403 28.228 8.89786C28.1563 8.83871 28.0869 8.79783 28.0021 8.75988C27.8813 8.70581 27.7361 8.67307 27.6077 8.64078C27.591 8.6366 27.5741 8.63243 27.557 8.62815C27.4394 8.59881 27.3212 8.57018 27.2022 8.54712C27.1986 8.54641 27.1949 8.5457 27.1912 8.54499C26.9967 8.50756 26.7987 8.47252 26.601 8.46117C26.5288 8.45703 26.4584 8.45703 26.3914 8.45703C26.0439 8.45703 25.7666 8.5094 25.4714 8.57898C25.1762 8.68298 24.9154 8.80418 24.6897 8.96054C24.464 9.13412 24.3078 9.32566 24.1516 9.56881C24.0126 9.81197 23.9603 10.0723 23.9603 10.4023C23.9603 10.7846 24.0821 11.149 24.325 11.4789C24.5679 11.8261 24.9505 12.0692 25.523 12.2256L26.5999 12.5727C26.9646 12.6947 27.2075 12.8159 27.3465 12.955C27.4855 13.0942 27.5378 13.2678 27.5378 13.4586C27.5378 13.7541 27.416 13.9973 27.1559 14.1708C26.8951 14.3444 26.5476 14.414 26.0618 14.414C25.7666 14.414 25.4714 14.3968 25.1934 14.31C24.9656 14.2696 24.7583 14.2087 24.548 14.1269C24.4219 14.0778 24.2974 14.0223 24.1688 13.98C24.1165 13.9621 24.0642 13.9621 24.0298 13.9621C23.908 13.9621 23.8564 14.0317 23.8564 14.2052V14.5704C23.8564 14.7255 23.9433 14.873 24.0736 14.9573C24.097 14.9724 24.1229 14.9879 24.1516 15.0043Z" fill="#05164D"/>
<path d="M11.5807 11.4077C11.3199 11.3554 11.0421 11.3554 10.799 11.3554C10.0522 11.3554 9.44444 11.5469 8.97564 11.9464C8.50677 12.328 8.29834 12.8495 8.29834 13.4742C8.29834 14.0825 8.47202 14.5508 8.83672 14.9159C9.20134 15.2803 9.68762 15.4539 10.3128 15.4539C11.0182 15.4539 11.6319 15.2247 12.1539 14.7756C12.3238 14.6294 12.596 14.6812 12.7264 14.8636C12.8131 14.9855 12.9005 15.1067 12.9872 15.2107C13.0567 15.2803 13.1262 15.3155 13.2129 15.3155C13.2645 15.3155 13.334 15.2982 13.4035 15.2459L13.8728 14.9331C13.9767 14.8636 14.0118 14.794 14.0118 14.7072C14.0118 14.6556 13.9939 14.6032 13.9595 14.5336C13.8556 14.3428 13.7682 14.1693 13.7166 13.9957C13.6643 13.8221 13.6471 13.6134 13.6471 13.3358V10.9042C13.6471 10.1052 13.4558 9.49766 13.0388 9.08092C12.6225 8.66419 11.997 8.47266 11.0942 8.47266C10.6774 8.47266 10.2953 8.52503 9.93072 8.61182C9.58337 8.71582 9.27084 8.8026 9.01032 8.95896C8.86892 9.03005 8.76789 9.16702 8.76726 9.32528C8.76721 9.33605 8.76721 9.34712 8.76721 9.3585V9.7236C8.76721 9.86201 8.8193 9.96601 8.90614 9.96601C8.92348 9.96601 8.97564 9.96602 9.02773 9.94881C9.07982 9.9316 9.16666 9.89718 9.28817 9.84481C9.54869 9.74081 9.82647 9.65402 10.087 9.60165C10.3474 9.53207 10.6253 9.49765 10.8858 9.49765C11.4761 9.49765 11.858 9.61886 12.1016 9.84481C12.3445 10.0708 12.4484 10.4703 12.4484 11.0434C12.4484 11.3194 12.1928 11.5238 11.9219 11.4711C11.8101 11.4493 11.6982 11.4286 11.5807 11.4077ZM12.4312 12.7275C12.4312 12.9707 12.414 13.1966 12.3617 13.353C12.3094 13.5266 12.2406 13.7001 12.1188 13.8221C11.9275 14.0473 11.6846 14.2037 11.4068 14.2905C11.1462 14.3952 10.8684 14.4296 10.6253 14.4296C10.278 14.4296 10.0175 14.3256 9.84388 14.1693C9.6702 13.9957 9.58337 13.7346 9.58337 13.3874C9.58337 13.023 9.70496 12.7275 9.94806 12.5367C10.1912 12.346 10.5559 12.2412 11.0421 12.2412C11.2678 12.2412 11.5112 12.2584 11.7541 12.2936C11.883 12.3027 12.0071 12.3217 12.1263 12.3453C12.3065 12.381 12.4312 12.5438 12.4312 12.7275Z" fill="#05164D"/>
<path d="M16.182 14.8853C16.2336 15.0237 16.2859 15.1285 16.321 15.1801C16.3726 15.2325 16.46 15.2497 16.6162 15.2497H17.241C17.38 15.2497 17.4839 15.2325 17.5362 15.1801C17.5885 15.1285 17.6408 15.0417 17.6752 14.8853L18.8216 10.0917L19.9852 14.8853C20.0023 15.0237 20.0539 15.1285 20.1234 15.1801C20.1757 15.2325 20.2975 15.2497 20.4186 15.2497H21.0441C21.1659 15.2497 21.2698 15.2325 21.3393 15.1801C21.3916 15.1285 21.4611 15.0417 21.4783 14.8853L23.2838 9.15429C23.3018 9.08471 23.3362 9.01512 23.3362 8.9807C23.3362 8.92833 23.3534 8.91113 23.3534 8.85876C23.3534 8.73755 23.3018 8.68518 23.18 8.68518H22.5029C22.3639 8.68518 22.26 8.70238 22.2077 8.75475C22.1554 8.80713 22.1031 8.89392 22.0687 9.04954L20.7833 14.0339L19.5853 9.03233C19.5681 8.89392 19.5158 8.78917 19.4463 8.73755C19.394 8.68518 19.273 8.66797 19.1511 8.66797H18.5436C18.4046 8.66797 18.3007 8.68518 18.2484 8.73755C18.1961 8.78917 18.1437 8.87596 18.1094 9.03233L16.9458 13.9471L15.7127 9.03233C15.6611 8.89392 15.6088 8.78917 15.5737 8.73755C15.5221 8.68518 15.4354 8.66797 15.2785 8.66797H14.5499C14.428 8.66797 14.3757 8.7196 14.3757 8.84155C14.3757 8.89392 14.3929 8.9807 14.4452 9.13707L16.182 14.8853Z" fill="#05164D"/>
<path d="M27.1931 18.4791C24.4661 19.6425 21.4798 20.1984 18.788 20.1984C14.7763 20.1984 10.8869 19.1038 7.74376 17.2633C7.48332 17.0897 7.25755 17.3845 7.50065 17.6105C10.418 20.2328 14.2554 21.8129 18.5451 21.8129C21.5837 21.8129 25.126 20.8583 27.5922 19.0342C27.9397 18.7567 27.6094 18.3227 27.1931 18.4791Z" fill="#FF9900"/>
<path d="M25.6642 17.4703C25.4385 17.6095 25.4908 17.8354 25.7165 17.8174C26.4974 17.7135 28.2686 17.5055 28.5645 17.9222C28.8769 18.3038 28.217 19.9714 27.939 20.7181C27.8351 20.9441 28.0429 21.0309 28.2514 20.8565C29.5712 19.7627 29.9015 17.4531 29.6407 17.1403C29.3627 16.758 27.0534 16.4977 25.6642 17.4703Z" fill="#FF9900"/>
<path d="M34.033 13.679C33.9673 13.679 33.9006 13.6571 33.9006 13.5465V8.43597C33.9006 8.36926 33.9225 8.30348 34.033 8.30348H34.1881C34.2767 8.30348 34.3205 8.32541 34.3205 8.43597L34.3433 8.74573C34.5642 8.56845 34.8079 8.43597 35.0288 8.34733C35.2497 8.25869 35.4715 8.21484 35.7142 8.21484C36.2017 8.21484 36.5777 8.39213 36.8652 8.74573C37.1527 9.07741 37.307 9.58636 37.307 10.162C37.307 10.7816 37.1527 11.2676 36.8652 11.6441C36.5549 12.0196 36.1788 12.1969 35.6485 12.1969C35.184 12.1969 34.7851 12.0196 34.3871 11.666V13.5246C34.3871 13.5904 34.3652 13.6571 34.2548 13.6571H34.033V13.679ZM35.5819 11.8214C35.9799 11.8214 36.2893 11.688 36.5111 11.423C36.732 11.1352 36.8205 10.7368 36.8205 10.2059C36.8205 9.14412 36.4225 8.63517 35.6038 8.63517C35.2059 8.63517 34.7632 8.79053 34.3652 9.12221V11.3124C34.5861 11.4888 34.7632 11.6222 34.9621 11.7099C35.1611 11.7547 35.3829 11.8214 35.5819 11.8214Z" fill="#05164D"/>
<path d="M39.1222 12.1969C38.7909 12.1969 38.5024 12.1083 38.2816 11.8872C38.0607 11.7099 37.9722 11.423 37.9722 11.0913C37.9722 10.7148 38.1045 10.4489 38.3482 10.2278C38.591 10.0067 38.9451 9.91804 39.3659 9.91804C39.6972 9.91804 40.0514 9.98477 40.4493 10.0953V9.47581C40.4493 9.16605 40.3836 8.94493 40.2285 8.83437C40.0733 8.70189 39.8524 8.65709 39.5202 8.65709C39.1888 8.65709 38.8128 8.72381 38.4367 8.83437C38.4149 8.83437 38.3482 8.85629 38.3035 8.85629C38.2378 8.85629 38.2378 8.83436 38.2378 8.76765V8.61324C38.2378 8.59132 38.2378 8.54654 38.2597 8.52461C38.2816 8.50269 38.2816 8.50269 38.3263 8.45789C38.7243 8.30349 39.1222 8.21484 39.5868 8.21484C40.0295 8.21484 40.3608 8.30348 40.5826 8.50268C40.8035 8.67901 40.892 8.96685 40.892 9.34332V11.9977C40.892 12.0644 40.8701 12.1312 40.7597 12.1312H40.6045C40.5379 12.1312 40.4722 12.1083 40.4722 11.9977L40.4493 11.688C40.0514 12.0425 39.5868 12.1969 39.1222 12.1969ZM39.1889 11.8214C39.3659 11.8214 39.5868 11.7985 39.8077 11.688C40.0295 11.5993 40.2504 11.5116 40.4941 11.3563V10.427C40.1618 10.3384 39.8524 10.2945 39.4983 10.2945C38.7909 10.2945 38.4367 10.5824 38.4367 11.0913C38.4367 11.3124 38.5024 11.4888 38.6138 11.6222C38.7462 11.7547 38.9451 11.8214 39.1889 11.8214Z" fill="#05164D"/>
<path d="M42.1953 12.1324C42.1287 12.1324 42.063 12.1095 42.063 11.9989V8.43718C42.063 8.37141 42.0849 8.30469 42.1953 8.30469H42.3505C42.439 8.30469 42.4828 8.32662 42.4828 8.43718L42.5047 8.87942C42.6818 8.6583 42.8808 8.50389 43.0579 8.43718C43.2349 8.34854 43.4567 8.30469 43.6776 8.30469C43.7662 8.30469 43.8328 8.30469 43.8547 8.30469C43.9204 8.30469 43.987 8.32662 43.987 8.43718V8.61444C43.987 8.63636 43.987 8.63637 43.9651 8.68021C43.9651 8.70308 43.9432 8.70308 43.8985 8.70308C43.8766 8.70308 43.8099 8.70308 43.7661 8.70308C43.7442 8.70308 43.6776 8.70308 43.611 8.70308C43.3901 8.70308 43.1683 8.72501 42.9922 8.83557C42.8151 8.92421 42.6599 9.05669 42.4609 9.23397V11.9989C42.4609 12.0656 42.439 12.1324 42.3277 12.1324H42.1953Z" fill="#05164D"/>
<path d="M45.9575 12.1731C45.6471 12.1731 45.4262 12.0844 45.2711 11.93C45.1168 11.7747 45.0283 11.5535 45.0283 11.2438V8.74379H44.4304C44.3647 8.74379 44.2981 8.72186 44.2981 8.6113V8.54459C44.2981 8.52267 44.2981 8.47882 44.32 8.45595C44.32 8.43403 44.3419 8.43403 44.4085 8.43403L45.0283 8.36827L45.094 7.37228C45.094 7.35035 45.1168 7.30556 45.1168 7.28364C45.1387 7.26171 45.1387 7.26172 45.2054 7.26172H45.3377C45.4043 7.26172 45.47 7.28363 45.47 7.39419V8.39019H46.5544C46.621 8.39019 46.6867 8.41211 46.6867 8.52267V8.67802C46.6867 8.74379 46.6648 8.81051 46.5544 8.81051H45.47V11.3105C45.47 11.5316 45.4929 11.6422 45.6033 11.7527C45.6919 11.8414 45.8461 11.8852 46.046 11.8852C46.2002 11.8852 46.3335 11.8852 46.4221 11.8633C46.4878 11.8633 46.5096 11.8414 46.5544 11.8414C46.5763 11.8414 46.621 11.8414 46.621 11.8414C46.6867 11.8414 46.7096 11.8633 46.7096 11.93V12.0625C46.7096 12.1511 46.6867 12.195 46.621 12.2169C46.4221 12.1292 46.2221 12.1731 45.9575 12.1731Z" fill="#05164D"/>
<path d="M47.6389 12.1257C47.5723 12.1257 47.5056 12.1029 47.5056 11.9923V8.43055C47.5056 8.36478 47.5285 8.29806 47.6389 8.29806H47.7941C47.8817 8.29806 47.9264 8.31999 47.9264 8.43055L47.9483 8.7403C48.192 8.56302 48.4348 8.43054 48.7223 8.34191C49.0108 8.25327 49.2535 8.1875 49.4973 8.1875C49.8733 8.1875 50.1389 8.27614 50.3379 8.47534C50.515 8.65166 50.6254 8.9395 50.6254 9.3379V11.9704C50.6254 12.0371 50.6035 12.1029 50.4921 12.1029H50.2712C50.2046 12.1029 50.1389 12.0809 50.1389 11.9704V9.55901C50.1389 9.22733 50.0723 9.00622 49.9618 8.85086C49.8286 8.69646 49.6296 8.62974 49.364 8.62974C48.8775 8.62974 48.3691 8.7851 47.9045 9.11678V12.0371C47.9045 12.1029 47.8817 12.1696 47.7712 12.1696H47.617V12.1257H47.6389Z" fill="#05164D"/>
<path d="M53.3908 12.2188C52.7939 12.2188 52.3293 12.0644 52.0637 11.7328C51.7533 11.4011 51.5991 10.8921 51.5991 10.2059C51.5991 9.58637 51.7533 9.09933 52.0637 8.74573C52.3731 8.41405 52.8158 8.21484 53.3242 8.21484C53.7888 8.21484 54.121 8.34732 54.3866 8.61324C54.6294 8.85628 54.7627 9.23276 54.7627 9.71885C54.7627 9.89612 54.7627 10.0515 54.7398 10.184C54.7398 10.2497 54.6741 10.3164 54.6075 10.3164H52.0637C52.0637 10.8473 52.196 11.2457 52.395 11.4888C52.6168 11.7328 52.9929 11.8652 53.4575 11.8652C53.8335 11.8652 54.1648 11.7985 54.4752 11.688C54.5409 11.666 54.6075 11.666 54.6075 11.666C54.6294 11.666 54.6294 11.666 54.6742 11.688C54.6742 11.7099 54.696 11.7099 54.696 11.7547V11.8872C54.696 11.9758 54.6741 12.0196 54.6075 12.0425C54.2096 12.1312 53.8335 12.2188 53.3908 12.2188ZM54.32 9.96284C54.32 9.89612 54.32 9.80748 54.32 9.71885C54.32 9.34332 54.2315 9.09934 54.0763 8.92301C53.8992 8.74573 53.6345 8.63517 53.3023 8.63517C52.5054 8.63517 52.0856 9.0774 52.0418 9.96284H54.32Z" fill="#05164D"/>
<path d="M55.782 12.1324C55.7153 12.1324 55.6497 12.1095 55.6497 11.9989V8.43718C55.6497 8.37141 55.6715 8.30469 55.782 8.30469H55.9372C56.0257 8.30469 56.0695 8.32662 56.0695 8.43718L56.0914 8.87942C56.2685 8.6583 56.4674 8.50389 56.6445 8.43718C56.8216 8.34854 57.0434 8.30469 57.2643 8.30469C57.3528 8.30469 57.4195 8.30469 57.4414 8.30469C57.508 8.30469 57.5737 8.32662 57.5737 8.43718V8.61444C57.5737 8.63636 57.5737 8.63637 57.5518 8.68021C57.5518 8.70308 57.5299 8.70308 57.4852 8.70308C57.4414 8.70308 57.3966 8.70308 57.3528 8.70308C57.3309 8.70308 57.2643 8.70308 57.1976 8.70308C56.9768 8.70308 56.7559 8.72501 56.5788 8.83557C56.4018 8.92421 56.2466 9.05669 56.0476 9.23397V11.9989C56.0476 12.0656 56.0257 12.1324 55.9153 12.1324H55.782Z" fill="#05164D"/>
<path d="M34.033 20.47C33.9673 20.47 33.9006 20.4481 33.9006 20.3376V16.7977C33.9006 16.732 33.9225 16.6652 34.033 16.6652H34.1881C34.2767 16.6652 34.3205 16.6872 34.3205 16.7977L34.3433 17.1075C34.5861 16.9302 34.8298 16.7977 35.1173 16.7091C35.4048 16.6205 35.6486 16.5547 35.8913 16.5547C36.2674 16.5547 36.533 16.6433 36.732 16.8425C36.909 17.0189 37.0195 17.3067 37.0195 17.7051V20.3376C37.0195 20.4043 36.9976 20.47 36.8871 20.47H36.6653C36.5996 20.47 36.533 20.4481 36.533 20.3376V17.8824C36.533 17.5497 36.4663 17.3286 36.3559 17.1742C36.2236 17.0188 36.0246 16.9531 35.759 16.9531C35.2725 16.9531 34.7632 17.1075 34.2986 17.4392V20.3595C34.2986 20.4262 34.2767 20.4929 34.1663 20.4929H34.0111V20.47H34.033Z" fill="#05164D"/>
<path d="M39.8076 20.5782C39.2097 20.5782 38.7461 20.4238 38.4805 20.0921C38.1701 19.7605 38.0159 19.2515 38.0159 18.5653C38.0159 17.9457 38.1701 17.4597 38.4805 17.1051C38.7899 16.7734 39.2326 16.5742 39.7409 16.5742C40.2055 16.5742 40.5378 16.7067 40.8034 16.9726C41.0462 17.2157 41.1794 17.5921 41.1794 18.0792C41.1794 18.2555 41.1794 18.4109 41.1566 18.5433C41.1566 18.6101 41.0909 18.6758 41.0243 18.6758H38.4805C38.4805 19.2067 38.6128 19.6051 38.8118 19.8481C39.0336 20.0921 39.4096 20.2246 39.8742 20.2246C40.2503 20.2246 40.5816 20.1579 40.891 20.0473C40.9576 20.0254 41.0243 20.0254 41.0243 20.0254C41.0462 20.0254 41.0462 20.0254 41.0909 20.0473C41.0909 20.0702 41.1128 20.0702 41.1128 20.1141V20.2465C41.1128 20.3352 41.0909 20.38 41.0243 20.4019C40.6482 20.4905 40.2274 20.5782 39.8076 20.5782ZM40.7368 18.3003C40.7368 18.2336 40.7368 18.1449 40.7368 18.0563C40.7368 17.6808 40.6482 17.4368 40.493 17.2605C40.316 17.0832 40.0503 16.9726 39.719 16.9726C38.9222 16.9726 38.5024 17.4149 38.4576 18.3003H40.7368Z" fill="#05164D"/>
<path d="M43.2815 20.5333C42.9711 20.5333 42.7502 20.4447 42.595 20.2903C42.4408 20.1349 42.3523 19.9138 42.3523 19.604V17.0602H41.7544C41.6887 17.0602 41.6221 17.0383 41.6221 16.9277V16.861C41.6221 16.8391 41.6221 16.7943 41.644 16.7724C41.644 16.7504 41.6659 16.7504 41.7325 16.7504L42.3523 16.6837L42.418 15.6887C42.418 15.6668 42.4408 15.622 42.4408 15.6C42.4627 15.5781 42.4627 15.5781 42.5284 15.5781H42.6617C42.7283 15.5781 42.794 15.6 42.794 15.7106V16.7066H43.8784C43.945 16.7066 44.0107 16.7285 44.0107 16.8391V16.9935C44.0107 17.0602 43.9888 17.1269 43.8784 17.1269H42.8169V19.6269C42.8169 19.848 42.8388 19.9586 42.9492 20.0691C43.0596 20.1797 43.1929 20.2016 43.3919 20.2016C43.5461 20.2016 43.6794 20.2016 43.7679 20.1797C43.8336 20.1797 43.8565 20.1578 43.9003 20.1578C43.9222 20.1578 43.9669 20.1578 43.9669 20.1578C44.0335 20.1578 44.0554 20.1797 44.0554 20.2455V20.3789C44.0554 20.4676 44.0335 20.5114 43.9669 20.5333C43.746 20.4895 43.5242 20.5333 43.2815 20.5333Z" fill="#05164D"/>
<path d="M45.7123 20.4712C45.6457 20.4712 45.58 20.4493 45.5571 20.3836L44.3852 16.8876C44.3633 16.8209 44.3633 16.7989 44.3633 16.7551C44.3633 16.7103 44.3852 16.6884 44.4518 16.6884H44.6946C44.7612 16.6884 44.7831 16.7103 44.8279 16.777L45.8446 19.9632L46.7519 16.777C46.7738 16.7103 46.8185 16.6884 46.9071 16.6884H47.1946C47.2612 16.6884 47.3269 16.7103 47.3498 16.777L48.2561 19.9632L49.3186 16.7332C49.3405 16.6665 49.3842 16.6445 49.4509 16.6445H49.6718C49.7384 16.6445 49.7603 16.6665 49.7603 16.7103C49.7603 16.7332 49.7603 16.777 49.7384 16.8437L48.4998 20.3388C48.4779 20.4055 48.4332 20.4274 48.3447 20.4274H48.1019C48.0352 20.4274 47.9686 20.4055 47.9467 20.3388L47.0394 17.1535L46.1331 20.3388C46.1102 20.4055 46.0665 20.4274 45.9779 20.4274H45.757V20.4712H45.7123Z" fill="#05164D"/>
<path d="M51.9524 20.5806C51.3993 20.5806 50.9576 20.4043 50.6472 20.0497C50.3378 19.718 50.1826 19.2091 50.1826 18.5676C50.1826 17.9481 50.3378 17.462 50.6472 17.0856C50.9576 16.7539 51.3993 16.5547 51.9524 16.5547C52.5055 16.5547 52.9482 16.732 53.2576 17.0856C53.568 17.4173 53.7222 17.9262 53.7222 18.5676C53.7222 19.1872 53.568 19.6742 53.2576 20.0497C52.9263 20.4043 52.5055 20.5806 51.9524 20.5806ZM51.9524 20.1832C52.8159 20.1832 53.2576 19.6523 53.2576 18.5676C53.2576 17.484 52.8159 16.9531 51.9524 16.9531C51.0899 16.9531 50.6472 17.484 50.6472 18.5676C50.6472 19.6523 51.068 20.1832 51.9524 20.1832Z" fill="#05164D"/>
<path d="M54.7859 20.465C54.7192 20.465 54.6526 20.443 54.6526 20.3325V16.7926C54.6526 16.7269 54.6754 16.6602 54.7859 16.6602H54.9401C55.0286 16.6602 55.0734 16.6821 55.0734 16.7926L55.0953 17.2349C55.2724 17.0138 55.4713 16.8594 55.6484 16.7926C55.8255 16.704 56.0464 16.6602 56.2682 16.6602C56.3567 16.6602 56.4224 16.6602 56.4443 16.6602C56.5109 16.6602 56.5776 16.6821 56.5776 16.7926V16.9699C56.5776 16.9918 56.5776 16.9918 56.5557 17.0366C56.5328 17.0586 56.5328 17.0586 56.489 17.0586C56.4671 17.0586 56.4005 17.0586 56.3567 17.0586C56.3339 17.0586 56.2682 17.0586 56.2015 17.0586C55.9807 17.0586 55.7588 17.0805 55.5818 17.191C55.4047 17.2797 55.2505 17.4122 55.0515 17.5894V20.3544C55.0515 20.4211 55.0286 20.4878 54.9182 20.4878H54.764V20.465H54.7859Z" fill="#05164D"/>
<path d="M57.3716 20.4716C57.3059 20.4716 57.2393 20.4497 57.2393 20.3391V15.0075C57.2393 14.9408 57.2612 14.875 57.3716 14.875H57.5934C57.6601 14.875 57.7257 14.8969 57.7257 15.0075V18.37L59.5175 16.7555C59.5841 16.6888 59.6507 16.6888 59.6945 16.6888H59.982C60.0487 16.6888 60.0706 16.7107 60.0706 16.7555C60.0706 16.7993 60.0487 16.8213 59.982 16.888L58.1465 18.5035L60.1372 20.3391C60.1591 20.3611 60.2039 20.4059 60.2039 20.4278C60.2039 20.4945 60.182 20.4945 60.1153 20.4945H59.805C59.7393 20.4945 59.6726 20.4716 59.6507 20.4278L57.7257 18.636V20.3611C57.7257 20.4278 57.7039 20.4945 57.5934 20.4945H57.3716V20.4716Z" fill="#05164D"/>
<path d="M8.57609 26.5605C8.24615 26.4385 8.00304 26.2829 7.86411 26.1086C7.72518 25.935 7.65576 25.7098 7.65576 25.4315C7.65576 25.0843 7.77728 24.8068 8.03779 24.598C8.29824 24.3893 8.64559 24.2853 9.07971 24.2853C9.44433 24.2853 9.79169 24.3549 10.139 24.494V25.1187C9.77428 25.0147 9.44433 24.9452 9.1318 24.9452C8.69768 24.9452 8.47191 25.0843 8.47191 25.3619C8.47191 25.4666 8.50667 25.5534 8.57609 25.6223C8.64559 25.6918 8.80185 25.7614 9.01021 25.831L9.42699 25.9874C9.77428 26.1086 10.0174 26.265 10.1563 26.4213C10.2952 26.5949 10.3821 26.8036 10.3821 27.0812C10.3821 27.4635 10.2431 27.759 9.96529 27.9842C9.68744 28.2102 9.32282 28.3142 8.83661 28.3142C8.62818 28.3142 8.41983 28.297 8.2114 28.2626C8.00304 28.2274 7.82936 28.1758 7.67309 28.1062V27.4635C7.86411 27.5159 8.05513 27.5675 8.26356 27.6027C8.47191 27.6371 8.66293 27.6543 8.83661 27.6543C9.0623 27.6543 9.21864 27.6199 9.34016 27.5331C9.46175 27.4463 9.51383 27.3416 9.51383 27.1859C9.51383 27.064 9.47908 26.9772 9.40965 26.9076C9.34015 26.838 9.18389 26.7685 8.97546 26.6817L8.57609 26.5605ZM11.6323 27.0296C11.6495 27.2727 11.719 27.4463 11.858 27.5675C11.997 27.6715 12.2055 27.7239 12.4835 27.7239C12.7264 27.7239 13.0216 27.6715 13.3519 27.5847V28.1234C13.2301 28.193 13.0739 28.2446 12.8826 28.2798C12.7092 28.3142 12.5179 28.3321 12.3273 28.3321C11.858 28.3321 11.4933 28.2102 11.2503 27.9498C11.0072 27.6895 10.8857 27.3244 10.8857 26.8208C10.8857 26.3517 11.0072 25.9874 11.2503 25.7098C11.4933 25.4487 11.8408 25.3103 12.275 25.3103C12.6397 25.3103 12.9177 25.4143 13.1254 25.6223C13.3168 25.831 13.4206 26.1086 13.4206 26.4909C13.4206 26.5777 13.4206 26.6645 13.4034 26.7685C13.3862 26.8732 13.3863 26.96 13.3691 27.0296H11.6323ZM12.2227 25.8834C12.0321 25.8834 11.8931 25.935 11.7885 26.0397C11.6846 26.1437 11.6323 26.3001 11.6151 26.5081H12.7092V26.4213C12.7092 26.057 12.553 25.8834 12.2227 25.8834ZM15.2792 28.193C15.123 28.2626 14.9489 28.2798 14.7755 28.2798C14.2718 28.2798 14.029 28.0022 14.029 27.4463V24.1289H14.845V27.3767C14.845 27.4807 14.8622 27.5503 14.8973 27.6027C14.9317 27.6371 14.984 27.6715 15.0707 27.6715C15.123 27.6715 15.1925 27.6715 15.2792 27.6543V28.193ZM16.4428 27.0296C16.46 27.2727 16.5295 27.4463 16.6685 27.5675C16.8075 27.6715 17.0153 27.7239 17.2933 27.7239C17.5369 27.7239 17.8321 27.6715 18.1617 27.5847V28.1234C18.0398 28.193 17.8837 28.2446 17.6931 28.2798C17.519 28.3142 17.3284 28.3321 17.1371 28.3321C16.6685 28.3321 16.3038 28.2102 16.0602 27.9498C15.8173 27.6895 15.6955 27.3244 15.6955 26.8208C15.6955 26.3517 15.8173 25.9874 16.0602 25.7098C16.3038 25.4487 16.6506 25.3103 17.0848 25.3103C17.4495 25.3103 17.7275 25.4143 17.936 25.6223C18.1273 25.831 18.2312 26.1086 18.2312 26.4909C18.2312 26.5777 18.2312 26.6645 18.214 26.7685C18.1968 26.8732 18.1968 26.96 18.1788 27.0296H16.4428ZM17.0504 25.8834C16.8591 25.8834 16.7201 25.935 16.6162 26.0397C16.5123 26.1437 16.46 26.3001 16.4428 26.5081H17.5369V26.4213C17.519 26.057 17.3628 25.8834 17.0504 25.8834ZM20.8879 28.1234C20.784 28.1758 20.6622 28.2274 20.5232 28.2626C20.3842 28.297 20.228 28.3142 20.089 28.3142C19.6376 28.3142 19.2901 28.193 19.0472 27.9326C18.8044 27.6715 18.6825 27.3072 18.6825 26.838C18.6825 26.3697 18.8044 26.0046 19.0644 25.7442C19.3252 25.4838 19.6728 25.3447 20.1069 25.3447C20.3842 25.3447 20.6278 25.3971 20.8535 25.5183V26.0569C20.6278 25.9874 20.4365 25.9702 20.2452 25.9702C19.9851 25.9702 19.7938 26.0397 19.6727 26.1609C19.5509 26.3001 19.4986 26.5081 19.4986 26.7864V26.8732C19.4986 27.1508 19.5509 27.3595 19.6727 27.4979C19.7938 27.6371 19.9851 27.6895 20.228 27.6895C20.4021 27.6895 20.6278 27.6543 20.8535 27.5847V28.1234H20.8879ZM23.1456 28.1758C22.9371 28.2446 22.7286 28.297 22.4685 28.297C22.1554 28.297 21.9125 28.2274 21.7735 28.071C21.6173 27.9147 21.5478 27.6895 21.5478 27.3767V26.0046H21.1136V25.5011L21.565 25.4143L21.6868 24.6324H22.3467V25.3971H23.1105V26.0046H22.3467V27.3416C22.3467 27.4635 22.3818 27.5503 22.4334 27.6027C22.4857 27.6543 22.5896 27.6715 22.7286 27.6715C22.8504 27.6715 22.9722 27.6543 23.1284 27.6371V28.1758H23.1456Z" fill="#05164D"/>
<path d="M25.3085 28.275C25.2699 28.275 25.2534 28.259 25.2534 28.2221V25.971H24.4491C24.4106 25.971 24.394 25.955 24.394 25.9179V25.8332C24.394 25.7962 24.4106 25.7803 24.4491 25.7803H26.2781C26.3165 25.7803 26.3331 25.7962 26.3331 25.8332V25.9179C26.3331 25.955 26.3165 25.971 26.2781 25.971H25.4738V28.2221C25.4738 28.259 25.4572 28.275 25.4187 28.275H25.3085ZM27.49 28.3279C27.1925 28.3279 26.972 28.2485 26.8179 28.0842C26.6691 27.9202 26.592 27.6817 26.592 27.3639C26.592 27.062 26.6691 26.829 26.8179 26.6595C26.972 26.4899 27.1814 26.4105 27.4514 26.4105C27.6773 26.4105 27.8535 26.4742 27.9746 26.596C28.096 26.7231 28.1564 26.8979 28.1564 27.1309C28.1564 27.2263 28.151 27.3004 28.1398 27.3481C28.1344 27.3851 28.1123 27.4011 28.0739 27.4011H26.8068C26.8068 27.6552 26.8675 27.8405 26.9777 27.9571C27.0877 28.079 27.2641 28.1372 27.5009 28.1372C27.6828 28.1372 27.8535 28.1055 28.0132 28.0473C28.0462 28.0365 28.0682 28.0313 28.0794 28.0313C28.0903 28.0313 28.096 28.0365 28.1069 28.0418C28.1123 28.0525 28.118 28.0578 28.118 28.0737V28.1267C28.118 28.1636 28.1069 28.1901 28.0739 28.2008C27.903 28.2855 27.7048 28.3279 27.49 28.3279ZM27.9526 27.2368C27.9526 27.205 27.9582 27.1626 27.9582 27.1204C27.9582 26.9456 27.9142 26.8185 27.826 26.7284C27.7378 26.6382 27.6112 26.596 27.4403 26.596C27.0436 26.596 26.8343 26.813 26.8123 27.242H27.9526V27.2368ZM29.4179 28.3172C29.1315 28.3172 28.9113 28.2378 28.7569 28.079C28.6083 27.9202 28.531 27.6817 28.531 27.3746C28.531 27.0672 28.6083 26.8342 28.7569 26.6702C28.9113 26.5059 29.1315 26.4265 29.4179 26.4265C29.5556 26.4265 29.6879 26.4477 29.8091 26.4954C29.8366 26.5059 29.8531 26.5324 29.8531 26.5695V26.6225C29.8531 26.6542 29.8366 26.6702 29.8091 26.6702C29.8036 26.6702 29.7925 26.6702 29.7816 26.6647C29.7704 26.6595 29.7541 26.6595 29.7266 26.6542C29.6272 26.633 29.5281 26.617 29.429 26.617C29.1922 26.617 29.0213 26.6754 28.9167 26.7918C28.8119 26.9084 28.7569 27.0939 28.7569 27.3534V27.3958C28.7569 27.6448 28.8119 27.83 28.9167 27.9466C29.0213 28.063 29.1922 28.1267 29.4236 28.1267C29.5227 28.1267 29.6272 28.1107 29.7486 28.079C29.7761 28.0737 29.7925 28.0685 29.8036 28.063C29.8145 28.0578 29.8256 28.0578 29.8311 28.0578C29.8586 28.0578 29.8752 28.0737 29.8752 28.1055V28.1584C29.8752 28.1956 29.8641 28.2221 29.8366 28.2326C29.71 28.2855 29.5668 28.3172 29.4179 28.3172ZM30.3821 28.275C30.3434 28.275 30.3268 28.259 30.3268 28.2221V25.6637C30.3268 25.6267 30.3434 25.6107 30.3821 25.6107H30.4811C30.5198 25.6107 30.5361 25.6267 30.5361 25.6637V26.6702C30.6575 26.5905 30.7841 26.5271 30.9219 26.4794C31.0541 26.4317 31.1862 26.4105 31.313 26.4105C31.4946 26.4105 31.6324 26.4582 31.7317 26.5483C31.8308 26.6382 31.8749 26.7761 31.8749 26.9561V28.2221C31.8749 28.259 31.8583 28.275 31.8196 28.275H31.7205C31.6821 28.275 31.6655 28.259 31.6655 28.2221V27.0462C31.6655 26.8924 31.6324 26.7761 31.5719 26.7071C31.5112 26.6382 31.4121 26.6013 31.2744 26.6013C31.0264 26.6013 30.7841 26.6754 30.5473 26.829V28.2221C30.5473 28.259 30.5307 28.275 30.4921 28.275H30.3821ZM32.5083 28.275C32.4697 28.275 32.4533 28.259 32.4533 28.2221V26.5164C32.4533 26.4794 32.4697 26.4634 32.5083 26.4634H32.5854C32.624 26.4634 32.6461 26.4794 32.6515 26.5164L32.6681 26.6702C32.7893 26.5853 32.9215 26.5219 33.0536 26.4742C33.1859 26.4265 33.3182 26.4053 33.4448 26.4053C33.6266 26.4053 33.7643 26.4529 33.8634 26.5428C33.9625 26.633 34.0066 26.7708 34.0066 26.9508V28.2221C34.0066 28.259 33.9903 28.275 33.9516 28.275H33.8525C33.8139 28.275 33.7973 28.259 33.7973 28.2221V27.0462C33.7973 26.8924 33.7643 26.7761 33.7036 26.7071C33.6432 26.6382 33.5439 26.6013 33.4064 26.6013C33.1584 26.6013 32.9161 26.6754 32.679 26.829V28.2221C32.679 28.259 32.6627 28.275 32.624 28.275H32.5083ZM35.3508 28.3279C35.0753 28.3279 34.8605 28.2433 34.7119 28.0737C34.5576 27.9042 34.486 27.6657 34.486 27.3639C34.486 27.062 34.563 26.829 34.7119 26.6595C34.866 26.4899 35.0808 26.4053 35.3508 26.4053C35.6263 26.4053 35.8411 26.4899 35.9897 26.6595C36.144 26.829 36.2211 27.062 36.2211 27.3639C36.2211 27.6657 36.144 27.9042 35.9897 28.0737C35.8411 28.2433 35.6263 28.3279 35.3508 28.3279ZM35.3508 28.1424C35.7804 28.1424 36.0008 27.883 36.0008 27.3693C36.0008 26.8555 35.7861 26.6013 35.3508 26.6013C34.9212 26.6013 34.7008 26.8555 34.7008 27.3693C34.7008 27.883 34.9155 28.1424 35.3508 28.1424ZM37.0255 28.2855C36.9264 28.2855 36.8491 28.259 36.7941 28.2008C36.7391 28.1427 36.7113 28.0685 36.7113 27.9624V25.6584C36.7113 25.6214 36.7279 25.6055 36.7666 25.6055H36.8657C36.9043 25.6055 36.9207 25.6214 36.9207 25.6584V27.9571C36.9207 28.0101 36.9318 28.0473 36.9539 28.0685C36.9759 28.0895 37.0143 28.1002 37.0696 28.1002C37.0862 28.1002 37.1025 28.1002 37.1191 28.095C37.1357 28.095 37.1521 28.0895 37.1632 28.0895C37.1962 28.0895 37.2182 28.1055 37.2182 28.1424V28.2113C37.2182 28.2433 37.2018 28.259 37.1687 28.2643C37.1246 28.2802 37.0805 28.2855 37.0255 28.2855ZM38.4137 28.3279C38.1383 28.3279 37.9232 28.2433 37.7746 28.0737C37.6203 27.9042 37.5487 27.6657 37.5487 27.3639C37.5487 27.062 37.626 26.829 37.7746 26.6595C37.9289 26.4899 38.1437 26.4053 38.4137 26.4053C38.689 26.4053 38.904 26.4899 39.0526 26.6595C39.207 26.829 39.284 27.062 39.284 27.3639C39.284 27.6657 39.207 27.9042 39.0526 28.0737C38.904 28.2433 38.689 28.3279 38.4137 28.3279ZM38.4137 28.1424C38.8433 28.1424 39.0635 27.883 39.0635 27.3693C39.0635 26.8555 38.8488 26.6013 38.4137 26.6013C37.9839 26.6013 37.7637 26.8555 37.7637 27.3693C37.7692 27.883 37.9839 28.1424 38.4137 28.1424ZM40.4352 29.0588C40.3307 29.0588 40.2259 29.0483 40.1268 29.0271C40.0277 29.0059 39.9395 28.9794 39.8625 28.9424C39.835 28.9317 39.8184 28.9052 39.8184 28.8683V28.8151C39.8184 28.7834 39.8293 28.7676 39.8625 28.7676C39.8679 28.7676 39.8788 28.7677 39.8845 28.7729C39.8954 28.7729 39.912 28.7781 39.9341 28.7886C40.1102 28.8416 40.2755 28.8735 40.4189 28.8735C40.6503 28.8735 40.821 28.8206 40.9312 28.7092C41.0412 28.5981 41.0964 28.4233 41.0964 28.1849V28.0101C41.0028 28.0842 40.9035 28.1424 40.7878 28.1849C40.6778 28.2273 40.5675 28.2485 40.4684 28.2485C40.2259 28.2485 40.0386 28.1636 39.89 27.9996C39.7468 27.8353 39.6752 27.6183 39.6752 27.3481C39.6752 27.0567 39.7468 26.829 39.89 26.6595C40.0332 26.4899 40.2316 26.4053 40.4793 26.4053C40.7162 26.4053 40.92 26.4847 41.1019 26.6437L41.1185 26.5111C41.1239 26.4742 41.146 26.4582 41.1844 26.4582H41.2617C41.3001 26.4582 41.3167 26.4742 41.3167 26.5111V28.1849C41.3167 28.4655 41.2396 28.6828 41.0907 28.8311C40.9421 28.9794 40.7162 29.0588 40.4352 29.0588ZM40.518 28.063C40.7053 28.063 40.898 27.9889 41.0964 27.8353V26.8342C40.9916 26.7548 40.898 26.6912 40.7989 26.6542C40.7053 26.617 40.6005 26.596 40.4959 26.596C40.2975 26.596 40.1434 26.6595 40.0443 26.7813C39.945 26.9084 39.8954 27.0884 39.8954 27.3374C39.8954 27.5706 39.9507 27.7506 40.0552 27.8777C40.16 28.0048 40.3141 28.063 40.518 28.063ZM41.9613 29.0588C41.9006 29.0588 41.8456 29.0483 41.7906 29.0323C41.7519 29.0218 41.7353 29.0006 41.7353 28.9582V28.9052C41.7353 28.8735 41.7519 28.8576 41.7794 28.8576C41.796 28.8576 41.8069 28.8576 41.8181 28.8628C41.829 28.8628 41.8456 28.8683 41.8676 28.8683C41.8897 28.8683 41.9117 28.8683 41.9447 28.8683C42.0274 28.8683 42.0935 28.8471 42.1431 28.8046C42.1926 28.7622 42.2367 28.688 42.2808 28.5821L42.4074 28.2803L41.6692 26.5376C41.6583 26.5164 41.6528 26.5006 41.6528 26.4899C41.6528 26.4634 41.6692 26.4477 41.6967 26.4477H41.8181C41.851 26.4477 41.8731 26.4634 41.8842 26.4954L42.512 28.0418L43.1457 26.4954C43.1566 26.4634 43.1786 26.4477 43.2118 26.4477H43.3218C43.3493 26.4477 43.3659 26.4582 43.3659 26.4899C43.3659 26.4954 43.3604 26.5111 43.3493 26.5376L42.4681 28.6458C42.4074 28.7941 42.3358 28.8948 42.2588 28.9582C42.1815 29.0323 42.0824 29.0588 41.9613 29.0588Z" fill="#05164D"/>
<path d="M45.1594 28.9871C45.1102 28.9871 45.0891 28.9657 45.0891 28.9153V25.6772C45.0891 25.6271 45.1102 25.6055 45.1594 25.6055H46.2276C46.5296 25.6055 46.7686 25.6989 46.9515 25.8783C47.1342 26.058 47.2186 26.302 47.2186 26.6107C47.2186 26.9123 47.1272 27.1563 46.9515 27.3357C46.7686 27.5154 46.5296 27.6085 46.2276 27.6085H45.3632V28.9153C45.3632 28.9657 45.3421 28.9871 45.2929 28.9871H45.1594ZM46.2205 27.3502C46.6914 27.3502 46.9304 27.1062 46.9304 26.6107C46.9304 26.1152 46.6914 25.864 46.2205 25.864H45.3632V27.3502H46.2205ZM48.392 29.0446C48.1743 29.0446 47.9986 28.9799 47.8649 28.8507C47.7385 28.7214 47.6683 28.5491 47.6683 28.3338C47.6683 28.0969 47.7454 27.9101 47.9072 27.7737C48.0687 27.6373 48.2868 27.5655 48.5608 27.5655C48.7716 27.5655 49.0035 27.6014 49.2425 27.6806V27.2714C49.2425 27.0703 49.1932 26.9339 49.1018 26.8476C49.0105 26.7613 48.856 26.7183 48.6452 26.7183C48.4271 26.7183 48.1951 26.7613 47.9493 26.8405C47.9211 26.8476 47.893 26.8547 47.8791 26.8547C47.851 26.8547 47.8298 26.8334 47.8298 26.7901V26.7112C47.8298 26.6825 47.8368 26.6682 47.844 26.6537C47.851 26.6395 47.8721 26.6249 47.893 26.6178C48.1461 26.5173 48.4132 26.4672 48.6942 26.4672C48.9754 26.4672 49.1793 26.5244 49.3196 26.6466C49.4602 26.7687 49.5234 26.9481 49.5234 27.1922V28.9153C49.5234 28.9657 49.5023 28.9871 49.4533 28.9871H49.3547C49.3057 28.9871 49.2845 28.9657 49.2775 28.9153L49.2564 28.7071C48.9754 28.9295 48.6872 29.0446 48.392 29.0446ZM48.4271 28.786C48.5466 28.786 48.6802 28.7647 48.8206 28.7143C48.9612 28.6641 49.1018 28.5924 49.2494 28.499V27.8887C49.0386 27.8312 48.8278 27.8024 48.6309 27.8024C48.1882 27.8024 47.9635 27.9747 47.9635 28.3267C47.9635 28.4773 48.0055 28.5924 48.0829 28.6713C48.1531 28.7501 48.2726 28.786 48.4271 28.786ZM50.3246 28.9871C50.2753 28.9871 50.2544 28.9657 50.2544 28.9153V26.6036C50.2544 26.5532 50.2753 26.5318 50.3246 26.5318H50.4159C50.4652 26.5318 50.4933 26.5532 50.5003 26.6036L50.5215 26.8906C50.6409 26.7542 50.7604 26.6537 50.8798 26.6036C50.9993 26.5461 51.1257 26.5173 51.2733 26.5173C51.3226 26.5173 51.3646 26.5173 51.3997 26.5244C51.449 26.5244 51.4702 26.5532 51.4702 26.6036V26.7254C51.4702 26.74 51.4629 26.7542 51.456 26.7613C51.449 26.7759 51.4348 26.7759 51.4209 26.7759C51.3928 26.7759 51.3716 26.7759 51.3507 26.7759C51.3296 26.7759 51.2945 26.7759 51.2521 26.7759C51.1046 26.7759 50.9781 26.8046 50.8656 26.8618C50.7534 26.9194 50.6409 27.0057 50.5423 27.1275V28.9224C50.5423 28.9728 50.5215 28.9942 50.4722 28.9942H50.3246V28.9871ZM52.6367 29.0158C52.4471 29.0158 52.3064 28.9657 52.2078 28.8652C52.1095 28.7647 52.0605 28.6137 52.0605 28.4198V26.783H51.681C51.6317 26.783 51.6105 26.7613 51.6105 26.7112V26.6611C51.6105 26.6323 51.6178 26.6178 51.6247 26.6036C51.6317 26.589 51.6529 26.5819 51.681 26.5819L52.0675 26.5461L52.1026 25.8999C52.1026 25.8712 52.1095 25.8569 52.1238 25.8424C52.1377 25.8282 52.1519 25.8282 52.1728 25.8282H52.2571C52.3064 25.8282 52.3276 25.8498 52.3276 25.8999V26.5389H53.0232C53.0725 26.5389 53.0934 26.5606 53.0934 26.6107V26.7112C53.0934 26.7613 53.0725 26.783 53.0232 26.783H52.3276V28.4056C52.3276 28.542 52.3554 28.6354 52.4117 28.6855C52.4679 28.743 52.5593 28.7718 52.6929 28.7718C52.7843 28.7718 52.8686 28.7647 52.9388 28.7501C52.9739 28.743 53.002 28.7359 53.0232 28.7359C53.0444 28.7288 53.0583 28.7288 53.0725 28.7288C53.1076 28.7288 53.1284 28.7501 53.1284 28.786V28.8578C53.1284 28.9153 53.1145 28.9441 53.0725 28.9583C52.9458 28.9942 52.7982 29.0158 52.6367 29.0158ZM53.6979 28.9871C53.6486 28.9871 53.6275 28.9657 53.6275 28.9153V26.6036C53.6275 26.5532 53.6486 26.5318 53.6979 26.5318H53.7962C53.8455 26.5318 53.8736 26.5532 53.8806 26.6036L53.9015 26.8117C54.0563 26.697 54.2248 26.6107 54.3935 26.5461C54.5623 26.4814 54.7307 26.4526 54.8925 26.4526C55.1245 26.4526 55.3002 26.5173 55.4266 26.6395C55.5531 26.7613 55.6093 26.9481 55.6093 27.1922V28.9153C55.6093 28.9657 55.5881 28.9871 55.5391 28.9871H55.4124C55.3634 28.9871 55.3423 28.9657 55.3423 28.9153V27.3215C55.3423 27.1133 55.3002 26.9553 55.2228 26.8618C55.1454 26.7687 55.019 26.7183 54.8432 26.7183C54.5272 26.7183 54.2178 26.8189 53.9157 27.027V28.9153C53.9157 28.9657 53.8945 28.9871 53.8455 28.9871H53.6979ZM57.3592 29.0588C56.9796 29.0588 56.6987 28.9512 56.5018 28.7288C56.3122 28.5061 56.2136 28.1829 56.2136 27.7523C56.2136 27.3431 56.3122 27.027 56.5018 26.7975C56.6987 26.5677 56.9657 26.4601 57.3099 26.4601C57.5981 26.4601 57.8228 26.5461 57.9777 26.7112C58.1322 26.8835 58.2093 27.1204 58.2093 27.4362C58.2093 27.5655 58.2024 27.666 58.1885 27.7307C58.1815 27.7811 58.1534 27.8024 58.1041 27.8024H56.4879C56.4879 28.147 56.565 28.3985 56.7056 28.5562C56.8463 28.7214 57.071 28.8005 57.3731 28.8005C57.6051 28.8005 57.8228 28.7572 58.0267 28.6784C58.069 28.6641 58.0971 28.6567 58.111 28.6567C58.1253 28.6567 58.1322 28.6641 58.1461 28.6713C58.1534 28.6855 58.1603 28.6926 58.1603 28.7143V28.786C58.1603 28.8364 58.1461 28.8723 58.1041 28.8865C57.8863 29.0016 57.6332 29.0588 57.3592 29.0588ZM57.9495 27.58C57.9495 27.5367 57.9565 27.4795 57.9565 27.422C57.9565 27.1851 57.9002 27.0128 57.7877 26.8906C57.6752 26.7687 57.5137 26.7112 57.296 26.7112C56.79 26.7112 56.523 27.0057 56.4948 27.5872H57.9495V27.58ZM58.891 28.9871C58.842 28.9871 58.8209 28.9657 58.8209 28.9153V26.6036C58.8209 26.5532 58.842 26.5318 58.891 26.5318H58.9824C59.0316 26.5318 59.0598 26.5532 59.0667 26.6036L59.0879 26.8906C59.2074 26.7542 59.3268 26.6537 59.4463 26.6036C59.5657 26.5461 59.6922 26.5173 59.8398 26.5173C59.889 26.5173 59.9311 26.5173 59.9665 26.5244C60.0155 26.5244 60.0366 26.5532 60.0366 26.6036V26.7254C60.0366 26.74 60.0297 26.7542 60.0224 26.7613C60.0155 26.7759 60.0016 26.7759 59.9873 26.7759C59.9592 26.7759 59.9383 26.7759 59.9172 26.7759C59.896 26.7759 59.8609 26.7759 59.8189 26.7759C59.6713 26.7759 59.5446 26.8046 59.4324 26.8618C59.3199 26.9194 59.2074 27.0057 59.1091 27.1275V28.9224C59.1091 28.9728 59.0879 28.9942 59.0386 28.9942H58.891V28.9871Z" fill="#05164D"/>
</svg>
