<svg width="67" height="37" viewBox="0 0 67 37" fill="none" xmlns="http://www.w3.org/2000/svg">
<g opacity="0.6">
<path d="M0.77002 3.6583C0.77002 1.91618 2.18229 0.503906 3.92442 0.503906H62.8833C64.6254 0.503906 66.0377 1.91618 66.0377 3.6583V33.3455C66.0377 35.0876 64.6254 36.4999 62.8833 36.4999H3.92442C2.18229 36.4999 0.77002 35.0876 0.77002 33.3455V3.6583Z" fill="white" stroke="#EBEBEB"/>
</g>
<path d="M0.27002 11.8008H66.5377V3.65474C66.5377 1.63647 64.9015 0.000346184 62.8833 0.000346184H3.92442C1.90615 0.000346184 0.27002 1.63648 0.27002 3.65474V11.8008Z" fill="#4285F4"/>
<path d="M23.7792 3.1525C24.3541 3.1525 24.7718 3.27244 25.0324 3.51232C25.2971 3.7522 25.4294 4.08307 25.4294 4.50493C25.4294 4.69518 25.4005 4.87716 25.3426 5.05087C25.2846 5.22044 25.1875 5.37347 25.051 5.50995C24.9145 5.64644 24.7346 5.75397 24.5112 5.83255C24.292 5.91113 24.0191 5.95043 23.6923 5.95043H23.2519V7.58203H22.4578V3.1525H23.7792ZM23.7296 3.81011H23.2519V5.29282H23.6117C23.8267 5.29282 24.0087 5.268 24.1576 5.21837C24.3106 5.16461 24.4265 5.08189 24.505 4.97022C24.5836 4.85855 24.6229 4.7138 24.6229 4.53595C24.6229 4.29194 24.5505 4.10996 24.4058 3.99002C24.261 3.87008 24.0356 3.81011 23.7296 3.81011ZM27.5644 4.15752C27.9987 4.15752 28.3275 4.25264 28.5508 4.4429C28.7783 4.62901 28.892 4.92266 28.892 5.32384V7.58203H28.3399L28.1848 7.11674H28.16C28.0648 7.23668 27.9656 7.33801 27.8622 7.42073C27.7629 7.49931 27.6471 7.55515 27.5148 7.58824C27.3866 7.62546 27.2294 7.64407 27.0433 7.64407C26.8447 7.64407 26.6648 7.60685 26.5035 7.5324C26.3464 7.45795 26.2223 7.34422 26.1313 7.19119C26.0403 7.03403 25.9948 6.83757 25.9948 6.60183C25.9948 6.25441 26.121 5.99385 26.3733 5.82014C26.6297 5.6423 27.0164 5.54511 27.5334 5.52856L28.1165 5.50995V5.34245C28.1165 5.12738 28.0648 4.97436 27.9614 4.88337C27.858 4.79238 27.7133 4.74688 27.5272 4.74688C27.3576 4.74688 27.1942 4.7717 27.0371 4.82133C26.8799 4.87096 26.7269 4.92886 26.578 4.99504L26.3298 4.4491C26.4953 4.36225 26.6835 4.29194 26.8944 4.23817C27.1094 4.1844 27.3328 4.15752 27.5644 4.15752ZM27.7071 6.00626C27.3638 6.01867 27.126 6.07864 26.9936 6.18617C26.8613 6.28957 26.7951 6.43019 26.7951 6.60803C26.7951 6.76519 26.8427 6.87893 26.9378 6.94924C27.0329 7.01955 27.1549 7.05471 27.3038 7.05471C27.5313 7.05471 27.7236 6.9906 27.8808 6.86239C28.038 6.73004 28.1165 6.53565 28.1165 6.27923V5.99385L27.7071 6.00626ZM31.6334 4.15752C31.6831 4.15752 31.741 4.15959 31.8071 4.16372C31.8733 4.16786 31.9291 4.17613 31.9746 4.18854L31.9064 4.91439C31.8692 4.90611 31.8195 4.89991 31.7575 4.89577C31.6996 4.8875 31.6479 4.88337 31.6024 4.88337C31.4783 4.88337 31.3584 4.90405 31.2426 4.94541C31.1309 4.98263 31.0296 5.04053 30.9386 5.11911C30.8517 5.19356 30.7814 5.29075 30.7277 5.41069C30.678 5.53063 30.6532 5.67332 30.6532 5.83876V7.58203H29.8715V4.21956H30.4733L30.585 4.80272H30.6222C30.6884 4.68278 30.7711 4.57524 30.8704 4.48012C30.9696 4.38086 31.0834 4.30228 31.2116 4.24437C31.3439 4.18647 31.4845 4.15752 31.6334 4.15752ZM33.9006 7.01748C33.9999 7.01748 34.095 7.00921 34.186 6.99267C34.277 6.97199 34.3618 6.94924 34.4404 6.92443V7.50759C34.3576 7.54481 34.2501 7.57583 34.1178 7.60064C33.9854 7.62959 33.8469 7.64407 33.7021 7.64407C33.5119 7.64407 33.3382 7.61305 33.181 7.55101C33.028 7.48484 32.9039 7.37317 32.8088 7.21601C32.7178 7.05884 32.6723 6.83964 32.6723 6.5584V4.80892H32.2194V4.46771L32.7157 4.19474L32.9639 3.4813H33.454V4.21956H34.4093V4.80892H33.454V6.5522C33.454 6.70936 33.4953 6.82723 33.578 6.90581C33.6607 6.98026 33.7683 7.01748 33.9006 7.01748ZM36.9172 4.15752C37.2936 4.15752 37.5873 4.25471 37.7982 4.4491C38.0133 4.64349 38.1208 4.95781 38.1208 5.39208V7.58203H37.3391V5.54718C37.3391 5.29489 37.2895 5.1067 37.1902 4.98263C37.0909 4.85442 36.9338 4.79031 36.7187 4.79031C36.4044 4.79031 36.1893 4.88957 36.0735 5.08809C35.9577 5.28248 35.8998 5.56579 35.8998 5.93802V7.58203H35.1181V4.21956H35.7199L35.8316 4.66003H35.875C35.9494 4.54422 36.0404 4.4491 36.148 4.37465C36.2555 4.30021 36.3754 4.24644 36.5078 4.21335C36.6401 4.17613 36.7766 4.15752 36.9172 4.15752ZM40.451 4.15752C40.7529 4.15752 41.0114 4.21956 41.2264 4.34363C41.4456 4.46357 41.6152 4.63728 41.7351 4.86476C41.8551 5.08809 41.9151 5.36106 41.9151 5.68366V6.08071H39.6941C39.7024 6.38676 39.7871 6.62457 39.9484 6.79415C40.1097 6.95958 40.3331 7.0423 40.6185 7.0423C40.8377 7.0423 41.032 7.02162 41.2016 6.98026C41.3753 6.93477 41.5532 6.87066 41.7351 6.78794V7.41453C41.5697 7.49311 41.3981 7.55101 41.2202 7.58824C41.0424 7.62546 40.8294 7.64407 40.5812 7.64407C40.2545 7.64407 39.9629 7.58203 39.7065 7.45795C39.4542 7.32974 39.2557 7.13742 39.1109 6.881C38.9703 6.62457 38.9 6.30611 38.9 5.92561C38.9 5.54097 38.9641 5.21837 39.0923 4.95781C39.2247 4.69312 39.4066 4.49459 39.6383 4.36225C39.8699 4.22576 40.1408 4.15752 40.451 4.15752ZM40.451 4.73448C40.2442 4.73448 40.0746 4.80272 39.9422 4.9392C39.814 5.07155 39.7375 5.27007 39.7127 5.53477H41.1582C41.1582 5.37761 41.1313 5.23905 41.0775 5.11911C41.0279 4.99917 40.9514 4.90611 40.848 4.83994C40.7446 4.76963 40.6123 4.73448 40.451 4.73448ZM44.4652 4.15752C44.5148 4.15752 44.5727 4.15959 44.6389 4.16372C44.705 4.16786 44.7609 4.17613 44.8064 4.18854L44.7381 4.91439C44.7009 4.90611 44.6513 4.89991 44.5892 4.89577C44.5313 4.8875 44.4796 4.88337 44.4341 4.88337C44.3101 4.88337 44.1901 4.90405 44.0743 4.94541C43.9627 4.98263 43.8613 5.04053 43.7703 5.11911C43.6835 5.19356 43.6132 5.29075 43.5594 5.41069C43.5098 5.53063 43.485 5.67332 43.485 5.83876V7.58203H42.7033V4.21956H43.305L43.4167 4.80272H43.4539C43.5201 4.68278 43.6028 4.57524 43.7021 4.48012C43.8014 4.38086 43.9151 4.30228 44.0433 4.24437C44.1757 4.18647 44.3163 4.15752 44.4652 4.15752Z" fill="white"/>
<g clip-path="url(#clip0_3305_23370)">
<path d="M40.5811 24.9169C40.1849 24.926 39.791 24.855 39.4234 24.7083C39.0559 24.5615 38.7224 24.342 38.4433 24.0633C38.1642 23.7845 37.9454 23.4523 37.8003 23.087C37.6551 22.7216 37.5867 22.3308 37.5991 21.9384C37.5888 21.5485 37.6587 21.1606 37.8044 20.7983C37.9501 20.4359 38.1686 20.1067 38.4466 19.8306C38.7237 19.5498 39.0563 19.3288 39.4236 19.1813C39.7909 19.0339 40.185 18.9632 40.5811 18.9737C40.9779 18.964 41.3717 19.0424 41.7339 19.2033C42.096 19.3641 42.4171 19.6033 42.6738 19.9032L42.1611 20.4111C41.973 20.1756 41.7326 19.9863 41.4585 19.858C41.1845 19.7298 40.8842 19.666 40.5811 19.6717C40.2857 19.6645 39.992 19.7172 39.7179 19.8266C39.4438 19.9359 39.1952 20.0995 38.9872 20.3075C38.7748 20.5221 38.6089 20.7775 38.4997 21.0579C38.3905 21.3384 38.3404 21.638 38.3524 21.9384C38.3395 22.2399 38.3891 22.5408 38.4983 22.8226C38.6075 23.1043 38.7739 23.3608 38.9872 23.5762C39.1947 23.7848 39.4433 23.9489 39.7175 24.0583C39.9917 24.1677 40.2856 24.22 40.5811 24.212C40.9164 24.2104 41.247 24.1345 41.5487 23.9898C41.8505 23.8451 42.1157 23.6353 42.325 23.3758L42.8621 23.8941C42.5903 24.2161 42.2479 24.4726 41.8611 24.644C41.4597 24.8265 41.0228 24.9196 40.5811 24.9169ZM44.1979 19.1015V24.7925H43.4585V19.1015H44.1979ZM44.8327 22.8437C44.8247 22.5709 44.871 22.2993 44.9692 22.0443C45.0673 21.7893 45.2153 21.5561 45.4047 21.3579C45.5921 21.1655 45.8179 21.0139 46.0677 20.9128C46.3175 20.8116 46.5858 20.7632 46.8556 20.7705C47.1244 20.7629 47.3918 20.8112 47.6405 20.9124C47.8892 21.0136 48.1137 21.1653 48.2995 21.3579C48.4908 21.5549 48.6403 21.7879 48.7391 22.0431C48.8379 22.2983 48.8842 22.5705 48.875 22.8437C48.8852 23.117 48.8394 23.3895 48.7405 23.6449C48.6416 23.9002 48.4916 24.1331 48.2995 24.3295C48.1143 24.5227 47.8898 24.675 47.641 24.7762C47.3921 24.8775 47.1245 24.9254 46.8556 24.9169C46.5857 24.9251 46.3171 24.877 46.0672 24.7758C45.8173 24.6746 45.5916 24.5226 45.4047 24.3295C45.2153 24.1313 45.0673 23.8981 44.9692 23.6431C44.871 23.3881 44.8247 23.1165 44.8327 22.8437ZM45.5721 22.8437C45.5551 23.2174 45.688 23.5826 45.9418 23.8596C46.0592 23.983 46.2008 24.0813 46.3579 24.1485C46.5151 24.2157 46.6844 24.2504 46.8556 24.2504C47.0268 24.2504 47.1961 24.2157 47.3533 24.1485C47.5104 24.0813 47.652 23.983 47.7694 23.8596C48.0232 23.5826 48.1561 23.2174 48.1391 22.8437C48.1554 22.4722 48.0224 22.1094 47.7694 21.8347C47.6531 21.7095 47.5118 21.6095 47.3546 21.5411C47.1973 21.4727 47.0274 21.4374 46.8556 21.4374C46.6838 21.4374 46.5139 21.4727 46.3566 21.5411C46.1994 21.6095 46.0581 21.7095 45.9418 21.8347C45.6888 22.1094 45.5558 22.4722 45.5721 22.8437ZM52.9557 24.7925H52.2581V24.25H52.2233C52.0986 24.4528 51.92 24.6178 51.7071 24.7269C51.4858 24.8511 51.2359 24.9166 50.9816 24.9169C50.7777 24.93 50.5732 24.9005 50.3816 24.8302C50.1899 24.76 50.0153 24.6506 49.869 24.5092C49.5927 24.1853 49.4539 23.7679 49.4819 23.3447V20.9018H50.2178V23.2998C50.2024 23.4296 50.2171 23.5612 50.2607 23.6846C50.3044 23.8079 50.3758 23.9198 50.4696 24.0118C50.5634 24.1037 50.6771 24.1732 50.8021 24.2151C50.927 24.257 51.06 24.2701 51.1909 24.2535C51.3321 24.2559 51.472 24.226 51.5997 24.1661C51.7273 24.1061 51.8393 24.0178 51.9268 23.908C52.1258 23.6706 52.2311 23.3698 52.2233 23.0614V20.9018H52.9627L52.9557 24.7925ZM55.4529 24.9169C55.2019 24.9169 54.9538 24.8631 54.7257 24.7594C54.4976 24.6556 54.2947 24.5043 54.1311 24.3157C53.7647 23.9121 53.5654 23.3865 53.573 22.8437C53.5611 22.3037 53.7554 21.7792 54.1171 21.3752C54.2795 21.1849 54.482 21.0322 54.7104 20.9277C54.9388 20.8232 55.1874 20.7696 55.439 20.7705C55.7141 20.7659 55.9861 20.8288 56.2307 20.9536C56.4548 21.0631 56.6451 21.2301 56.7818 21.4374H56.8132L56.7957 20.9018V19.1015H57.5316V24.7925H56.8341V24.25H56.8027C56.666 24.4573 56.4757 24.6243 56.2516 24.7338C56.0049 24.8597 55.7304 24.9227 55.4529 24.9169ZM55.575 24.25C55.7433 24.2554 55.9107 24.2231 56.0647 24.1555C56.2187 24.0879 56.3553 23.9868 56.4644 23.8596C56.7083 23.5781 56.8332 23.2142 56.8132 22.8437C56.83 22.4758 56.7054 22.1152 56.4644 21.8347C56.3557 21.7067 56.2193 21.6045 56.0654 21.5357C55.9114 21.4669 55.7438 21.4333 55.575 21.4374C55.4064 21.4348 55.2393 21.4691 55.0856 21.5377C54.9318 21.6064 54.7953 21.7078 54.6856 21.8347C54.4446 22.1152 54.32 22.4758 54.3368 22.8437C54.3175 23.212 54.4424 23.5735 54.6856 23.8527C54.7953 23.9796 54.9318 24.081 55.0856 24.1497C55.2393 24.2183 55.4064 24.2526 55.575 24.25Z" fill="#05164D"/>
<path d="M12.5875 24.9226C11.7196 24.9255 10.8855 24.5894 10.266 23.9873C9.64646 23.3851 9.29134 22.5654 9.27759 21.7057C9.29134 20.8459 9.64646 20.0262 10.266 19.4241C10.8855 18.8219 11.7196 18.4859 12.5875 18.4887C13.001 18.4819 13.4118 18.5569 13.7957 18.7094C14.1796 18.8619 14.5289 19.0888 14.8231 19.3767L14.1918 19.9953C13.7614 19.5846 13.185 19.3587 12.5875 19.3664C12.2781 19.3654 11.9716 19.4255 11.6859 19.5429C11.4002 19.6604 11.1409 19.833 10.9231 20.0507C10.7053 20.2684 10.5334 20.5268 10.4174 20.8109C10.3013 21.0951 10.2435 21.3992 10.2472 21.7057C10.2435 22.0121 10.3013 22.3163 10.4174 22.6004C10.5334 22.8845 10.7053 23.1429 10.9231 23.3606C11.1409 23.5783 11.4002 23.7509 11.6859 23.8684C11.9716 23.9859 12.2781 24.0459 12.5875 24.045C12.8922 24.0574 13.1962 24.0062 13.4798 23.8949C13.7634 23.7836 14.0202 23.6146 14.2337 23.3988C14.5183 23.0947 14.6893 22.7033 14.7185 22.2896H12.5875V21.4154H15.5869C15.6197 21.5967 15.6348 21.7807 15.6323 21.9648C15.6559 22.7231 15.3778 23.4602 14.858 24.0173C14.5655 24.3184 14.2119 24.5547 13.8206 24.7108C13.4292 24.8668 13.009 24.939 12.5875 24.9226Z" fill="#4285F4"/>
<path d="M20.2706 22.8515C20.2821 23.1279 20.237 23.4038 20.1382 23.6625C20.0393 23.9212 19.8887 24.1574 19.6953 24.357C19.502 24.5566 19.2699 24.7154 19.013 24.8238C18.7562 24.9323 18.4799 24.9882 18.2006 24.9882C17.9214 24.9882 17.6451 24.9323 17.3882 24.8238C17.1314 24.7154 16.8993 24.5566 16.706 24.357C16.5126 24.1574 16.362 23.9212 16.2631 23.6625C16.1643 23.4038 16.1192 23.1279 16.1307 22.8515C16.1192 22.5751 16.1643 22.2993 16.2631 22.0406C16.362 21.7819 16.5126 21.5457 16.706 21.3461C16.8993 21.1465 17.1314 20.9877 17.3882 20.8792C17.6451 20.7708 17.9214 20.7148 18.2006 20.7148C18.4799 20.7148 18.7562 20.7708 19.013 20.8792C19.2699 20.9877 19.502 21.1465 19.6953 21.3461C19.8887 21.5457 20.0393 21.7819 20.1382 22.0406C20.237 22.2993 20.2821 22.5751 20.2706 22.8515ZM19.3638 22.8515C19.3792 22.691 19.3606 22.5291 19.3091 22.3761C19.2576 22.2232 19.1745 22.0825 19.065 21.9632C18.9555 21.844 18.822 21.7487 18.6732 21.6835C18.5243 21.6182 18.3634 21.5846 18.2006 21.5846C18.0379 21.5846 17.8769 21.6182 17.7281 21.6835C17.5792 21.7487 17.4458 21.844 17.3363 21.9632C17.2268 22.0825 17.1436 22.2232 17.0922 22.3761C17.0407 22.5291 17.0221 22.691 17.0375 22.8515C17.0221 23.0121 17.0407 23.174 17.0922 23.3269C17.1436 23.4799 17.2268 23.6205 17.3363 23.7398C17.4458 23.8591 17.5792 23.9544 17.7281 24.0196C17.8769 24.0848 18.0379 24.1185 18.2006 24.1185C18.3634 24.1185 18.5243 24.0848 18.6732 24.0196C18.822 23.9544 18.9555 23.8591 19.065 23.7398C19.1745 23.6205 19.2576 23.4799 19.3091 23.3269C19.3606 23.174 19.3792 23.0121 19.3638 22.8515Z" fill="#EA4335"/>
<path d="M24.9134 22.8515C24.9249 23.1279 24.8798 23.4038 24.781 23.6625C24.6821 23.9212 24.5315 24.1574 24.3381 24.357C24.1448 24.5566 23.9127 24.7154 23.6559 24.8238C23.399 24.9323 23.1227 24.9882 22.8435 24.9882C22.5642 24.9882 22.2879 24.9323 22.031 24.8238C21.7742 24.7154 21.5421 24.5566 21.3488 24.357C21.1554 24.1574 21.0048 23.9212 20.9059 23.6625C20.8071 23.4038 20.762 23.1279 20.7735 22.8515C20.762 22.5751 20.8071 22.2993 20.9059 22.0406C21.0048 21.7819 21.1554 21.5457 21.3488 21.3461C21.5421 21.1465 21.7742 20.9877 22.031 20.8792C22.2879 20.7708 22.5642 20.7148 22.8435 20.7148C23.1227 20.7148 23.399 20.7708 23.6559 20.8792C23.9127 20.9877 24.1448 21.1465 24.3381 21.3461C24.5315 21.5457 24.6821 21.7819 24.781 22.0406C24.8798 22.2993 24.9249 22.5751 24.9134 22.8515ZM24.0066 22.8515C24.0191 22.6925 23.9982 22.5326 23.9453 22.3819C23.8924 22.2312 23.8086 22.093 23.6992 21.9759C23.5898 21.8588 23.4572 21.7654 23.3096 21.7015C23.1621 21.6376 23.0028 21.6046 22.8417 21.6046C22.6807 21.6046 22.5214 21.6376 22.3738 21.7015C22.2263 21.7654 22.0936 21.8588 21.9842 21.9759C21.8748 22.093 21.7911 22.2312 21.7382 22.3819C21.6853 22.5326 21.6644 22.6925 21.6768 22.8515C21.6644 23.0106 21.6853 23.1705 21.7382 23.3212C21.7911 23.4719 21.8748 23.6101 21.9842 23.7272C22.0936 23.8443 22.2263 23.9377 22.3738 24.0016C22.5214 24.0655 22.6807 24.0985 22.8417 24.0985C23.0028 24.0985 23.1621 24.0655 23.3096 24.0016C23.4572 23.9377 23.5898 23.8443 23.6992 23.7272C23.8086 23.6101 23.8924 23.4719 23.9453 23.3212C23.9982 23.1705 24.0191 23.0106 24.0066 22.8515Z" fill="#FBBC04"/>
<path d="M29.4371 20.905V24.623C29.4371 26.1503 28.5198 26.7791 27.4386 26.7791C27.0407 26.7813 26.6511 26.6662 26.3195 26.4483C25.9878 26.2305 25.7291 25.9199 25.5761 25.5559L26.3818 25.2104C26.463 25.4223 26.6057 25.6055 26.7919 25.7371C26.9781 25.8687 27.1995 25.9428 27.4281 25.9498C28.1257 25.9498 28.5512 25.5248 28.5512 24.7336V24.4364H28.5303C28.3908 24.5924 28.2187 24.7164 28.026 24.7999C27.8332 24.8835 27.6245 24.9245 27.4142 24.9201C26.8592 24.9201 26.3269 24.7017 25.9345 24.3129C25.542 23.9241 25.3215 23.3968 25.3215 22.8469C25.3215 22.2971 25.542 21.7697 25.9345 21.3809C26.3269 20.9921 26.8592 20.7737 27.4142 20.7737C27.6238 20.7698 27.8318 20.8104 28.0242 20.8926C28.2167 20.9749 28.3892 21.0969 28.5303 21.2505H28.5617V20.905H29.4371ZM28.6244 22.8607C28.6373 22.7041 28.6181 22.5465 28.5681 22.3973C28.5182 22.2481 28.4384 22.1104 28.3337 21.9924C28.2289 21.8744 28.1012 21.7785 27.9582 21.7104C27.8152 21.6423 27.6599 21.6034 27.5014 21.5961C27.3404 21.6018 27.1822 21.6392 27.036 21.7062C26.8898 21.7731 26.7585 21.8682 26.6497 21.9859C26.541 22.1036 26.457 22.2416 26.4026 22.3918C26.3482 22.542 26.3245 22.7014 26.333 22.8607C26.3255 23.019 26.3499 23.1772 26.4049 23.326C26.4598 23.4748 26.5441 23.6112 26.6529 23.7274C26.7617 23.8435 26.8928 23.937 27.0385 24.0024C27.1841 24.0678 27.3415 24.1037 27.5014 24.1081C27.6592 24.1026 27.8143 24.0654 27.9572 23.9988C28.1001 23.9322 28.2279 23.8376 28.3329 23.7206C28.4379 23.6037 28.5178 23.4669 28.5679 23.3185C28.618 23.1702 28.6373 23.0132 28.6244 22.8573V22.8607Z" fill="#4285F4"/>
<path d="M31.0521 18.707V24.7954H30.1313V18.707H31.0521Z" fill="#34A853"/>
<path d="M34.6794 23.5315L35.3979 24.0152C35.2061 24.2988 34.9465 24.5311 34.6423 24.6915C34.3381 24.8518 33.9986 24.9352 33.654 24.9344C33.3799 24.9382 33.1078 24.887 32.8543 24.7837C32.6007 24.6804 32.371 24.5272 32.179 24.3334C31.9869 24.1395 31.8366 23.9091 31.737 23.6561C31.6374 23.403 31.5907 23.1326 31.5997 22.8611C31.5589 22.3945 31.6928 21.9292 31.976 21.5541C32.2592 21.179 32.6718 20.9202 33.1351 20.8271C33.5985 20.734 34.0803 20.8131 34.4886 21.0493C34.8969 21.2855 35.2032 21.6623 35.3491 22.1079L35.4432 22.3463L32.653 23.49C32.74 23.6836 32.8834 23.847 33.065 23.9591C33.2465 24.0712 33.4577 24.1268 33.6715 24.1189C33.8761 24.1143 34.0761 24.0579 34.2526 23.9551C34.429 23.8523 34.5759 23.7064 34.6794 23.5315ZM32.4786 22.7851L34.3551 22.018C34.28 21.8804 34.1662 21.7673 34.0275 21.6925C33.8888 21.6177 33.7312 21.5843 33.5738 21.5965C33.4231 21.6031 33.2751 21.6392 33.1385 21.7025C33.0018 21.7659 32.8791 21.8553 32.7774 21.9658C32.6756 22.0762 32.5969 22.2054 32.5456 22.346C32.4944 22.4866 32.4716 22.6358 32.4786 22.7851Z" fill="#EA4335"/>
</g>
<defs>
<clipPath id="clip0_3305_23370">
<rect x="9.27832" y="18.4883" width="48.2531" height="8.2922" rx="3.6544" fill="white"/>
</clipPath>
</defs>
</svg>
